<?xml version="1.0" standalone="no"?>
<!DOCTYPE svg PUBLIC "-//W3C//DTD SVG 20010904//EN"
 "http://www.w3.org/TR/2001/REC-SVG-20010904/DTD/svg10.dtd">
<svg version="1.0" xmlns="http://www.w3.org/2000/svg"
 width="1615.000000pt" height="2400.000000pt" viewBox="0 0 1615.000000 2400.000000"
 preserveAspectRatio="xMidYMid meet">

<g transform="translate(0.000000,2400.000000) scale(0.100000,-0.100000)"
fill="#000000" stroke="none">
<path d="M7360 23745 l0 -255 -1840 0 -1840 0 0 -545 0 -545 -1585 0 -1585 0
0 -953 c0 -525 -3 -988 -6 -1030 l-7 -77 -188 0 -189 0 0 -1730 0 -1730 369 0
369 0 71 89 c202 253 535 419 851 424 119 2 249 -17 255 -37 1 -6 8 -45 14
-86 14 -94 67 -207 147 -315 101 -136 124 -173 118 -189 -12 -31 12 -15 92 62
112 106 166 203 368 661 64 145 146 315 180 378 35 62 75 151 89 196 87 281
150 518 166 622 l18 120 15 -55 c9 -30 28 -106 43 -169 45 -195 97 -278 197
-321 46 -20 65 -22 148 -18 83 4 105 9 165 39 135 65 276 240 292 360 3 21 9
39 14 39 10 0 34 -108 54 -247 19 -134 46 -230 78 -286 14 -23 28 -64 32 -92
19 -131 112 -311 208 -402 102 -97 171 -115 299 -78 65 19 67 19 87 1 23 -21
28 -54 9 -61 -7 -2 -39 -11 -70 -19 -53 -15 -61 -21 -104 -83 -49 -67 -124
-208 -124 -230 0 -7 9 -13 19 -13 13 0 33 22 59 64 33 52 47 65 74 70 33 6
195 119 191 133 -1 5 -5 16 -8 26 -14 35 14 15 56 -40 118 -158 165 -188 294
-188 75 0 98 4 138 24 80 40 152 113 194 199 38 75 38 77 43 226 3 83 9 156
13 163 4 7 16 44 26 83 l18 71 27 -118 c80 -340 118 -487 146 -568 33 -93 85
-202 125 -264 13 -20 29 -56 35 -81 27 -109 65 -187 192 -389 43 -69 81 -136
85 -149 3 -14 1 -47 -6 -74 -15 -65 -14 -88 3 -88 9 0 16 18 21 55 3 30 10 55
15 55 4 0 30 -16 56 -35 75 -54 124 -75 179 -75 101 0 233 53 347 138 103 78
193 242 251 462 38 144 51 232 51 372 1 71 5 128 9 128 12 0 37 -65 44 -115 5
-40 15 -54 98 -134 76 -74 102 -92 146 -105 190 -57 340 37 431 270 21 55 148
518 148 541 0 2 4 3 8 3 5 0 14 -24 21 -52 31 -123 113 -231 196 -258 37 -12
144 -9 191 5 20 6 26 -7 88 -194 36 -110 71 -231 78 -270 l12 -71 34 0 c39 0
38 1 -9 107 -15 35 -40 114 -55 176 -14 61 -31 130 -37 152 -6 22 -11 42 -12
45 -1 3 -9 23 -19 45 l-17 40 83 80 c46 44 148 141 227 215 79 74 172 168 206
210 61 73 64 75 107 75 33 0 58 8 94 31 27 17 72 45 100 63 97 61 281 67 429
14 95 -34 155 -68 230 -129 30 -24 57 -44 60 -44 3 0 5 14 5 32 0 49 -66 104
-216 180 -188 95 -240 111 -354 111 -64 0 -110 -6 -139 -17 -24 -9 -46 -14
-49 -12 -14 14 17 64 82 134 86 92 109 130 171 277 25 60 75 160 110 221 87
149 125 233 174 389 23 72 45 137 48 145 3 8 8 23 9 32 7 36 66 243 72 253 4
6 8 19 9 30 2 11 13 46 25 79 l22 60 14 -44 c12 -44 20 -139 42 -515 16 -271
48 -385 130 -459 39 -35 119 -66 170 -66 44 0 119 26 157 55 72 56 131 188
140 315 3 36 7 67 9 69 21 21 183 -212 351 -504 60 -104 130 -221 155 -260 67
-104 74 -120 113 -270 24 -98 47 -160 77 -214 86 -156 106 -200 122 -274 11
-50 29 -93 50 -124 48 -71 55 -85 88 -196 34 -115 47 -144 92 -204 37 -51 61
-54 100 -12 16 17 73 68 126 114 155 133 246 273 317 485 22 63 40 134 41 158
2 24 7 54 12 68 6 14 10 63 10 108 0 84 5 102 24 88 6 -5 36 -14 66 -21 141
-34 307 -118 447 -228 l93 -73 0 1230 0 1230 125 0 125 0 0 1400 0 1400 -1115
0 -1115 0 0 380 0 380 -1840 0 -1840 0 0 -255z m2638 144 c71 -11 196 -55 212
-74 8 -10 1 -20 -27 -43 -73 -57 -147 -87 -363 -148 -147 -42 -265 -95 -335
-152 -54 -43 -124 -147 -109 -162 26 -24 108 -33 379 -40 309 -8 378 -16 584
-71 205 -54 451 -165 562 -253 69 -54 115 -137 106 -191 -8 -50 -34 -99 -74
-139 -83 -83 -180 -105 -514 -115 -135 -5 -252 -12 -259 -16 -8 -5 16 -16 66
-31 272 -78 573 -240 715 -384 85 -86 121 -158 117 -231 l-3 -54 -100 -3
c-120 -3 -204 12 -405 75 -228 72 -308 92 -391 101 l-78 8 63 -66 c113 -116
171 -220 301 -534 46 -110 90 -218 99 -239 84 -194 121 -991 60 -1285 -31
-151 -85 -230 -148 -218 -87 18 -138 143 -218 531 -57 280 -95 380 -245 651
-107 191 -139 240 -190 284 l-37 33 -13 -32 c-8 -19 -17 -112 -22 -229 -16
-338 -78 -584 -301 -1197 -157 -433 -201 -515 -400 -751 -43 -50 -107 -132
-144 -182 -180 -245 -377 -326 -500 -206 -46 45 -64 81 -141 283 -89 233 -96
277 -90 524 5 217 1 220 -34 28 -12 -62 -44 -213 -72 -334 -28 -121 -68 -338
-90 -481 -46 -308 -60 -376 -105 -516 -83 -255 -220 -442 -334 -457 -136 -19
-221 78 -321 366 -54 156 -44 174 -89 -159 -92 -685 -179 -966 -373 -1201 -52
-62 -155 -149 -204 -172 -74 -34 -196 73 -353 309 -96 145 -123 199 -125 254
0 9 -17 45 -38 82 -101 180 -169 401 -257 828 -52 253 -48 240 -65 240 -7 0
-16 8 -19 18 -12 42 -26 140 -27 191 -1 68 -5 60 -54 -109 -69 -234 -196 -527
-290 -670 -24 -36 -68 -89 -99 -119 l-55 -54 -57 44 c-32 24 -75 66 -96 92
-36 46 -44 65 -68 165 -12 47 -42 84 -62 77 -7 -3 -20 -18 -29 -34 -12 -20
-27 -30 -55 -34 -151 -25 -217 16 -324 203 -30 52 -86 143 -126 202 -88 131
-107 195 -129 428 -18 184 -36 283 -60 329 -13 26 -19 30 -34 21 -11 -5 -22
-15 -25 -22 -3 -7 -4 41 -2 106 4 140 1 138 -65 -49 -23 -63 -59 -143 -81
-176 -103 -160 -390 -373 -443 -329 -29 24 -63 94 -100 205 -38 112 -77 199
-95 210 -15 9 -12 279 4 348 14 59 12 65 -14 44 -39 -32 -44 -49 -50 -175 -5
-125 -6 -128 -44 -190 -30 -51 -43 -87 -61 -180 -53 -263 -249 -756 -472
-1182 -105 -203 -293 -530 -304 -530 -19 0 -121 138 -165 222 -52 101 -114
283 -139 408 -9 47 -19 87 -21 89 -2 2 -10 -2 -19 -9 -18 -15 -19 -56 -3 -149
7 -39 9 -73 6 -77 -4 -3 -51 4 -105 17 -243 58 -527 5 -778 -144 -90 -53 -233
-178 -276 -242 -13 -19 -26 -35 -29 -35 -6 1 -36 44 -126 178 -110 163 -128
268 -85 496 21 112 26 205 12 241 -7 18 -9 18 -25 -7 -10 -15 -22 -57 -27 -95
-13 -95 -13 -94 -48 -82 -51 18 -192 205 -256 340 -117 246 -72 555 112 774
109 129 225 218 598 455 51 33 80 56 70 58 -23 5 -123 -44 -247 -121 -59 -36
-125 -75 -147 -86 -22 -11 -65 -43 -95 -70 -73 -63 -88 -67 -125 -29 -69 71
-96 173 -87 332 11 219 21 284 47 319 61 82 89 131 109 191 59 179 281 428
570 640 207 152 536 338 620 351 66 10 106 30 126 60 17 26 17 28 -1 41 -25
19 -186 18 -327 -1 -229 -30 -503 -121 -767 -254 -33 -17 -63 -31 -66 -31 -3
0 -5 15 -5 33 0 44 45 117 132 213 51 57 80 100 97 143 41 105 130 188 420
391 57 40 135 100 173 132 71 62 145 99 393 198 66 26 192 82 280 123 198 92
261 111 455 137 107 15 173 29 215 47 100 42 184 61 358 77 161 15 198 23 522
110 312 83 992 67 1385 -33 63 -16 158 -35 210 -41 170 -21 285 -48 381 -88
113 -48 161 -62 214 -62 l39 0 -39 41 c-73 75 -189 143 -407 239 -59 27 -130
62 -156 78 -27 17 -152 69 -278 117 -126 47 -233 90 -238 95 -14 14 73 94 135
125 244 124 688 84 836 -75 154 -165 195 -219 304 -407 62 -107 117 -197 121
-199 15 -10 28 47 28 122 l0 75 30 -16 c36 -19 46 -19 54 0 8 21 -11 429 -25
517 -6 40 -24 123 -42 183 -36 128 -41 243 -13 309 l16 39 69 -7 c38 -3 75 -8
83 -11 26 -11 112 -131 146 -204 18 -40 46 -117 60 -170 25 -90 26 -108 24
-301 -1 -121 3 -218 9 -237 14 -43 44 -63 94 -63 47 0 70 14 140 82 l51 48 13
-35 c9 -26 18 -35 35 -35 33 0 53 28 61 87 6 48 17 65 118 190 250 312 392
439 632 569 73 40 668 296 855 369 553 215 1026 304 1348 254z"/>
<path d="M9589 17761 c-94 -19 -194 -107 -293 -258 -75 -115 -84 -152 -66
-281 11 -86 35 -153 71 -204 l21 -29 311 3 312 3 57 29 c173 86 204 243 94
481 l-33 70 -129 77 c-168 99 -254 127 -345 109z m138 -115 c61 -29 83 -64 83
-131 0 -35 -6 -52 -24 -70 -48 -48 -154 -42 -196 13 -18 23 -21 37 -18 89 3
52 9 68 33 93 35 36 54 37 122 6z"/>
<path d="M10705 17454 c-81 -15 -165 -49 -173 -72 -6 -19 37 -15 144 13 120
31 194 31 347 1 124 -24 142 -20 96 23 -24 22 -41 27 -149 41 -100 13 -169 11
-265 -6z"/>
<path d="M12580 17417 c-76 -24 -171 -67 -290 -131 l-65 -36 368 0 369 0 -25
43 c-23 38 -24 44 -9 53 25 16 7 43 -45 66 -73 33 -206 35 -303 5z"/>
<path d="M10785 17234 c-68 -7 -185 -35 -185 -44 0 -17 71 -23 168 -14 121 10
161 8 223 -10 l49 -15 0 34 c0 23 -5 35 -17 39 -27 7 -192 14 -238 10z"/>
<path d="M5243 17130 c-124 -29 -186 -63 -288 -162 l-90 -87 170 -1 170 0 2
31 c4 59 78 129 136 129 33 0 105 -54 113 -86 4 -14 2 -36 -5 -50 l-11 -24
116 0 c115 0 115 0 109 23 -13 42 -46 85 -105 140 -106 99 -180 119 -317 87z"/>
</g>
</svg>
