<?xml version="1.0" encoding="UTF-8" standalone="no"?>
<svg
   xmlns:dc="http://purl.org/dc/elements/1.1/"
   xmlns:cc="http://creativecommons.org/ns#"
   xmlns:rdf="http://www.w3.org/1999/02/22-rdf-syntax-ns#"
   xmlns:svg="http://www.w3.org/2000/svg"
   xmlns="http://www.w3.org/2000/svg"
   viewBox="0 0 210.66667 212"
   height="212"
   width="210.66667"
   xml:space="preserve"
   id="svg2"
   version="1.1"><metadata
     id="metadata8"><rdf:RDF><cc:Work
         rdf:about=""><dc:format>image/svg+xml</dc:format><dc:type
           rdf:resource="http://purl.org/dc/dcmitype/StillImage" /></cc:Work></rdf:RDF></metadata><defs
     id="defs6" /><g
     transform="matrix(1.3333333,0,0,-1.3333333,0,212)"
     id="g10"><g
       transform="scale(0.1)"
       id="g12"><path
         id="path14"
         style="fill:#231f20;fill-opacity:1;fill-rule:nonzero;stroke:none"
         d="m 792.496,1582.55 c 434.254,0 786.304,-352.04 786.304,-786.3 C 1578.8,361.992 1226.75,9.94922 792.496,9.94922 358.242,9.94922 6.19531,361.992 6.19531,796.25 c 0,434.26 352.04669,786.3 786.30069,786.3" /><path
         id="path16"
         style="fill:#d22027;fill-opacity:1;fill-rule:nonzero;stroke:none"
         d="m 1539.04,803.359 c 0.72,6.45 1.31,12.871 1.8,19.258 6.05,-4.211 14.33,-10.902 18.63,-16.902 0.05,-4.945 0.02,-9.899 -0.03,-14.86 -6.91,7.946 -14.85,11.2 -20.4,12.504" /><path
         id="path18"
         style="fill:#d22027;fill-opacity:1;fill-rule:nonzero;stroke:none"
         d="m 1538.93,707.695 c -3.32,5.328 -8.03,11.84 -14.12,17.871 1.61,6.133 3.05,12.262 4.42,18.391 4.95,-8.227 11.14,-19.656 12.16,-26.219 l -2.46,-10.043" /><path
         id="path20"
         style="fill:#d22027;fill-opacity:1;fill-rule:nonzero;stroke:none"
         d="m 1458.67,772.164 c 28.89,-4.652 50.43,-18.695 58.56,-24.723 -1.51,-6.82 -3.16,-13.648 -4.97,-20.476 -21.14,16.769 -47.2,28.125 -57.01,32.074 l 3.42,13.125" /><path
         id="path22"
         style="fill:#d22027;fill-opacity:1;fill-rule:nonzero;stroke:none"
         d="m 1474.46,820.531 -0.64,17.52 c 40.07,-0.453 51.63,-9.207 54.74,-12.93 -0.44,-5.902 -0.98,-11.828 -1.61,-17.785 -20.61,9.129 -43.24,12.258 -52.49,13.195" /><path
         id="path24"
         style="fill:#d22027;fill-opacity:1;fill-rule:nonzero;stroke:none"
         d="m 1489.82,893.027 -1.93,9.778 c 12.26,6.531 32.05,2.933 41.6,0.574 0.21,-4.375 0.39,-8.785 0.51,-13.223 -15.55,3.422 -32.5,3.203 -40.18,2.871" /><path
         id="path26"
         style="fill:#d22027;fill-opacity:1;fill-rule:nonzero;stroke:none"
         d="m 1487.15,960.738 -5.67,9.305 c 18.82,11.258 33.75,9.969 40.42,8.43 0.98,-6.391 1.89,-12.907 2.73,-19.535 -16.83,5.851 -30.96,3.542 -37.48,1.8" /><path
         id="path28"
         style="fill:#d22027;fill-opacity:1;fill-rule:nonzero;stroke:none"
         d="m 1479.24,1025.11 -3.64,10.77 c 10.56,2.75 26.93,-0.43 36.01,-2.89 1.09,-4.84 2.16,-9.8 3.19,-14.86 -14.62,6.85 -28.9,7.26 -35.56,6.98" /><path
         id="path30"
         style="fill:#d22027;fill-opacity:1;fill-rule:nonzero;stroke:none"
         d="m 1463.73,1094.09 -1.54,11.48 c 13.72,3.36 25.17,-1.79 31.29,-5.65 1.6,-5.02 3.26,-10.42 4.96,-16.18 -13.2,7.24 -27.83,9.62 -34.71,10.35" /><path
         id="path32"
         style="fill:#d22027;fill-opacity:1;fill-rule:nonzero;stroke:none"
         d="m 1542.64,879.973 c -0.04,2.425 -0.06,4.863 -0.12,7.273 3.54,-1.879 7.2,-4.187 8.94,-6.101 l 1.22,-8.586 c -3.02,2.519 -6.49,5.16 -10.04,7.414" /><path
         id="path34"
         style="fill:#ffffff;fill-opacity:1;fill-rule:nonzero;stroke:none"
         d="m 1542.21,897.375 c -1.73,44.578 -7.65,86.031 -14.95,121.915 12.5,-41.634 21.45,-84.45 26.69,-128.091 -3.97,2.785 -8.63,5.024 -11.74,6.176" /><path
         id="path36"
         style="fill:#ffffff;fill-opacity:1;fill-rule:nonzero;stroke:none"
         d="m 1541.57,833.375 c 0.71,11.855 1.07,23.578 1.12,35.145 7.11,-5.379 14.11,-12.348 14.69,-12.586 0.89,-11.93 1.51,-23.907 1.84,-35.934 -6.2,6.363 -13.94,11.227 -17.65,13.375" /><path
         id="path38"
         style="fill:#d22027;fill-opacity:1;fill-rule:nonzero;stroke:none"
         d="m 1430.34,1171.13 -2.02,12.19 c 6.29,2.1 17.96,3.65 25.13,4.22 4.13,-6.97 8.16,-13.99 12.07,-21.08 -16.19,4.33 -28.84,4.81 -35.18,4.67" /><path
         id="path40"
         style="fill:#d22027;fill-opacity:1;fill-rule:nonzero;stroke:none"
         d="m 1404.3,1230.54 -4.53,9.93 c 3.86,2.36 10.13,5.13 14.41,6.79 2.65,-3.63 5.25,-7.29 7.83,-10.97 -4.75,-1.79 -12.43,-4.18 -17.71,-5.75" /><path
         id="path42"
         style="fill:#d22027;fill-opacity:1;fill-rule:nonzero;stroke:none"
         d="m 1354.4,1293.58 -7.39,10.58 c 3.63,4.31 10.29,7.54 13.67,8.85 3.52,-3.88 7.03,-7.77 10.47,-11.71 -5.86,-2.73 -12.69,-5.87 -16.75,-7.72" /><path
         id="path44"
         style="fill:#d22027;fill-opacity:1;fill-rule:nonzero;stroke:none"
         d="m 1303.34,1348.95 -10.57,4.37 c -0.11,5.15 2.24,11.78 4.09,15.97 4.93,-3.61 9.91,-7.32 14.95,-11.13 -3.79,-3.08 -6.67,-6.62 -8.47,-9.21" /><path
         id="path46"
         style="fill:#d22027;fill-opacity:1;fill-rule:nonzero;stroke:none"
         d="m 1233.77,1393.83 -7.38,1.19 c 0.34,9.59 -1.92,18.5 -4.51,25.41 3.31,-2.09 6.63,-4.18 10.01,-6.36 4.37,-8.08 3.13,-16 1.88,-20.24" /><path
         id="path48"
         style="fill:#d22027;fill-opacity:1;fill-rule:nonzero;stroke:none"
         d="m 1173.32,1416.86 -11.91,1.14 c -4.46,16.2 -14.05,35.83 -20.93,48.78 7.02,-3.56 14.38,-7.41 22.02,-11.55 11.53,-20.07 11.64,-32.89 10.82,-38.37" /><path
         id="path50"
         style="fill:#d22027;fill-opacity:1;fill-rule:nonzero;stroke:none"
         d="m 1098.37,1449.89 -12.66,2.96 c -4.5,19.82 -15.63,36.78 -24.77,48.54 6.22,-2.18 13.69,-4.97 22.24,-8.42 14.55,-18.77 15.7,-35.35 15.19,-43.08" /><path
         id="path52"
         style="fill:#d22027;fill-opacity:1;fill-rule:nonzero;stroke:none"
         d="m 1022.58,1468.27 -9.65,3 c -3.8,22.46 -14.223,39.17 -23.285,49.93 6.543,-1.49 13.165,-3.09 19.855,-4.81 16.98,-18.09 14.99,-39.17 13.08,-48.12" /><path
         id="path54"
         style="fill:#ffffff;fill-opacity:1;fill-rule:nonzero;stroke:none"
         d="m 933.121,1544.27 c -2.082,3.12 -3.945,5.86 -5.601,8.23 13.355,-2.35 26.605,-5.04 39.761,-8.07 0.418,-1.65 0.571,-3.77 0.547,-5.89 -11.832,2.25 -23.41,4.16 -34.707,5.73" /><path
         id="path56"
         style="fill:#d22027;fill-opacity:1;fill-rule:nonzero;stroke:none"
         d="m 952.789,1476.58 -11.973,-0.1 c -2.371,24.25 -14.996,45.57 -23.265,57.15 2.64,-0.31 5.304,-0.64 7.98,-0.99 25.262,-27.56 27.528,-48.2 27.258,-56.06" /><path
         id="path58"
         style="fill:#d22027;fill-opacity:1;fill-rule:nonzero;stroke:none"
         d="m 879.477,1476.6 -12.004,-1.11 c -1.535,33.05 -16.426,52.85 -26.481,62.46 4.102,0.03 8.246,0.02 12.461,-0.04 31.961,-27.84 28.262,-53.35 26.024,-61.31" /><path
         id="path60"
         style="fill:#d22027;fill-opacity:1;fill-rule:nonzero;stroke:none"
         d="m 840.023,1562.75 c 2.106,-2.5 5.586,-7.08 8.036,-12.29 -5.059,0.03 -10.036,-0.01 -14.938,-0.1 -2.266,3.02 -6.273,8.19 -10.719,13.25 5.891,-0.22 11.762,-0.51 17.621,-0.86" /><path
         id="path62"
         style="fill:#ffffff;fill-opacity:1;fill-rule:nonzero;stroke:none"
         d="m 858.285,1550.32 c -1.496,4.25 -3.722,8.24 -5.93,11.59 13.528,-1.03 26.993,-2.41 40.375,-4.13 1.668,-2.34 3.563,-5.83 5.333,-9.59 -13.723,1.17 -26.985,1.85 -39.778,2.13" /><path
         id="path64"
         style="fill:#d22027;fill-opacity:1;fill-rule:nonzero;stroke:none"
         d="m 914.359,1554.69 c 1.621,-2.15 3.723,-5.02 6.34,-8.81 -4.019,0.49 -7.992,0.91 -11.945,1.31 -1.02,2.47 -2.461,5.73 -4.18,9.01 3.278,-0.48 6.531,-1 9.785,-1.51" /><path
         id="path66"
         style="fill:#d22027;fill-opacity:1;fill-rule:nonzero;stroke:none"
         d="m 977.109,1542.13 c 5.032,-1.23 10.036,-2.52 15.032,-3.85 0.839,-1.35 1.797,-3.12 2.793,-5.45 -5.993,1.38 -11.903,2.65 -17.77,3.85 0.094,1.67 0.106,3.53 -0.055,5.45" /><path
         id="path68"
         style="fill:#ffffff;fill-opacity:1;fill-rule:nonzero;stroke:none"
         d="m 1005.9,1530.21 c -0.55,1.71 -1.12,3.27 -1.69,4.71 12.87,-3.65 25.63,-7.65 38.25,-11.97 -0.08,-0.79 -0.15,-1.65 -0.2,-2.57 -0.71,0.16 -1.25,0.28 -1.47,0.32 -11.84,3.53 -23.47,6.68 -34.89,9.51" /><path
         id="path70"
         style="fill:#d22027;fill-opacity:1;fill-rule:nonzero;stroke:none"
         d="m 1051.57,1517.94 c 0.02,0.62 0.05,1.22 0.08,1.82 6.12,-2.19 12.21,-4.45 18.27,-6.79 l -0.48,-0.73 c -7.35,2.56 -13.29,4.39 -17.87,5.7" /><path
         id="path72"
         style="fill:#ffffff;fill-opacity:1;fill-rule:nonzero;stroke:none"
         d="m 809.102,1564.02 c 4.214,-4 8.859,-9.51 12.421,-14 -27.293,-1.05 -51.972,-3.89 -73.804,-7.66 -1.18,3.91 -3.949,12.27 -8.168,19.94 22.601,1.56 69.133,1.73 69.551,1.72" /><path
         id="path74"
         style="fill:#d22027;fill-opacity:1;fill-rule:nonzero;stroke:none"
         d="m 793.441,1478.13 c -16.546,26.98 -36.687,42.92 -49.242,50.95 4.254,0.78 8.629,1.52 13.114,2.23 29.125,-14.11 43.214,-39.88 48,-50.53 l -11.872,-2.65" /><path
         id="path76"
         style="fill:#d22027;fill-opacity:1;fill-rule:nonzero;stroke:none"
         d="m 724.734,1461.25 c -17.257,30.76 -38.246,43.84 -50.996,49.25 3.922,1.4 8.16,2.84 12.711,4.29 38.446,-17.11 50.375,-37.02 53.664,-44.55 l -15.379,-8.99" /><path
         id="path78"
         style="fill:#d22027;fill-opacity:1;fill-rule:nonzero;stroke:none"
         d="m 650.48,1432.49 c -13.621,26.51 -33.847,37.4 -45.722,41.65 4.027,2.79 8.094,5.52 12.191,8.17 29.246,-15.85 44.746,-33.83 50.641,-41.84 l -17.11,-7.98" /><path
         id="path80"
         style="fill:#d22027;fill-opacity:1;fill-rule:nonzero;stroke:none"
         d="m 584.996,1475.36 c -5.914,8.21 -18.851,24.63 -34.058,34.52 l 14.507,9.95 c 5.535,-4.73 19.071,-17.68 28.594,-37.92 -3.039,-2.14 -6.051,-4.33 -9.043,-6.55" /><path
         id="path82"
         style="fill:#ffffff;fill-opacity:1;fill-rule:nonzero;stroke:none"
         d="m 601.871,1487.32 c -13.18,27.17 -32.558,41.51 -33.433,42.14 -0.563,0.42 -1.196,0.63 -1.844,0.76 14.578,4.51 29.324,8.52 44.183,12.14 19.219,-9.95 31.7,-22.83 36.782,-28.75 -9.411,-4.09 -14.438,-6.87 -14.707,-7.03 -10.547,-5.94 -20.864,-12.4 -30.981,-19.26" /><path
         id="path84"
         style="fill:#d22027;fill-opacity:1;fill-rule:nonzero;stroke:none"
         d="m 656.855,1517.47 c -3.25,5.09 -11.496,15.78 -28.179,25.97 7.109,2 14.808,3.63 19.043,3.26 3.144,-2.51 14.195,-12.07 18.551,-25.64 -3.395,-1.24 -6.524,-2.44 -9.415,-3.59" /><path
         id="path86"
         style="fill:#ffffff;fill-opacity:1;fill-rule:nonzero;stroke:none"
         d="m 675.129,1524.18 c -4.371,13.42 -13.859,23.18 -19.121,27.81 15.355,2.77 30.844,5.02 46.418,6.86 4.512,-5.53 10.324,-13.68 14.121,-22.84 -15.981,-3.79 -29.836,-7.9 -41.418,-11.83" /><path
         id="path88"
         style="fill:#d22027;fill-opacity:1;fill-rule:nonzero;stroke:none"
         d="m 725.781,1538.11 c -3.281,8.44 -8.043,16.05 -12.437,21.99 5.234,0.54 10.484,1.01 15.742,1.44 4.266,-6.41 7.613,-15.3 9.352,-20.86 -4.336,-0.82 -8.563,-1.68 -12.657,-2.57" /><path
         id="path90"
         style="fill:#ffffff;fill-opacity:1;fill-rule:nonzero;stroke:none"
         d="m 27.5742,812.512 c 3.836,204.588 87.1138,395.428 234.4888,537.378 86.335,83.16 188.636,143.66 299.691,178.78 l -22.238,-15.26 c -1.371,-0.95 -2.149,-2.55 -2.02,-4.21 0.121,-1.67 1.121,-3.15 2.621,-3.87 16.113,-7.84 31.168,-27.01 37.395,-35.64 -13.254,-10.2 -26.102,-21.08 -38.528,-32.49 -20.593,18.7 -37.468,45.26 -37.644,45.54 -0.836,1.33 -2.277,2.15 -3.852,2.19 -1.566,0.03 -3.05,-0.71 -3.949,-1.99 l -12.172,-17.3 c -0.941,-1.34 -1.117,-3.08 -0.461,-4.58 10.106,-23.11 23.563,-38.28 33.782,-47.35 -12.653,-12.83 -24.79,-26.17 -36.446,-39.78 -19.906,18.59 -35.961,43.9 -36.133,44.17 -0.836,1.33 -2.281,2.15 -3.847,2.19 -1.567,0.04 -3.051,-0.71 -3.949,-1.99 L 422.145,1401 c -0.95,-1.34 -1.122,-3.07 -0.465,-4.57 10.55,-24.15 24.777,-39.64 35.129,-48.54 -11.383,-14.37 -22.219,-28.91 -32.493,-43.42 -20.894,17.92 -38.269,43.24 -38.453,43.51 -0.883,1.29 -2.351,2.06 -3.922,2.04 -1.566,-0.01 -3.019,-0.81 -3.878,-2.13 l -11.543,-17.71 c -0.899,-1.38 -1.012,-3.11 -0.305,-4.59 12.223,-25.43 28.273,-40.8 39.023,-48.96 -10.359,-15.63 -20.047,-31.06 -29.043,-46.03 -20.996,17.93 -38.496,43.42 -38.675,43.69 -0.883,1.3 -2.36,2.07 -3.926,2.05 -1.567,-0.02 -3.024,-0.81 -3.875,-2.13 l -11.551,-17.72 c -0.895,-1.37 -1.004,-3.11 -0.297,-4.59 13.297,-27.68 31.192,-43.4 41.223,-50.61 -8.574,-15.16 -16.34,-29.57 -23.293,-42.95 -21.879,16.39 -40.68,40.06 -40.879,40.31 -0.973,1.23 -2.496,1.9 -4.059,1.78 -1.562,-0.13 -2.957,-1.03 -3.718,-2.4 l -10.274,-18.49 c -0.797,-1.43 -0.785,-3.17 0.024,-4.6 14.714,-25.83 32.945,-40.17 43.632,-46.94 -7.422,-15.24 -13.336,-28.12 -17.707,-37.97 -21.789,16.39 -40.476,39.92 -40.675,40.18 -0.973,1.23 -2.497,1.89 -4.059,1.76 -1.563,-0.12 -2.957,-1.02 -3.723,-2.39 l -10.269,-18.49 c -0.797,-1.43 -0.789,-3.18 0.023,-4.59 15.375,-27 34.571,-41.44 45.008,-47.81 -5.734,-12.72 -11.387,-25.94 -16.895,-39.37 -21.8,16.39 -40.496,39.93 -40.699,40.18 -0.968,1.23 -2.492,1.89 -4.054,1.77 -1.563,-0.13 -2.961,-1.02 -3.723,-2.39 l -10.274,-18.49 c -0.792,-1.43 -0.785,-3.17 0.028,-4.6 15.89,-27.9 35.867,-42.388 46.027,-48.415 -4.16,-10.781 -8.207,-21.562 -12.109,-32.215 -15.512,19.883 -26.571,42.867 -26.699,43.133 -0.672,1.414 -2.012,2.397 -3.563,2.617 -1.555,0.23 -3.117,-0.34 -4.16,-1.512 l -14.109,-15.753 c -1.09,-1.223 -1.469,-2.922 -0.997,-4.489 10.364,-34.113 29.325,-53.258 36.754,-59.746 -5.164,-14.816 -9.964,-29.015 -14.32,-42.183 -15.973,20.128 -27.437,43.964 -27.566,44.238 -0.676,1.418 -2.012,2.398 -3.567,2.617 -1.554,0.227 -3.109,-0.344 -4.156,-1.508 l -14.105,-15.758 c -1.098,-1.218 -1.473,-2.925 -1,-4.492 11.468,-37.75 33.417,-57.136 38.667,-61.351 -5.496,-17.375 -9.582,-30.856 -11.894,-38.61 -16.746,20.489 -28.941,45.805 -29.074,46.082 -0.672,1.418 -2.016,2.407 -3.567,2.625 -1.55,0.223 -3.113,-0.347 -4.16,-1.515 l -14.105,-15.754 c -1.094,-1.223 -1.469,-2.922 -0.996,-4.488 11.769,-38.747 34.589,-58.157 39.046,-61.657 -5.394,-13.281 -10.824,-25.847 -16.253,-37.754 -18.649,19.317 -28.942,54.45 -29.051,54.832 -0.465,1.61 -1.75,2.848 -3.371,3.254 -1.621,0.407 -3.332,-0.082 -4.496,-1.277 l -16.336,-16.828 c -1.321,-1.352 -1.696,-3.367 -0.953,-5.11 18.168,-42.515 33.25,-56.343 41.918,-60.769 -5.211,-10.527 -10.379,-20.441 -15.473,-29.762 -6.035,3.824 -17.977,14.762 -25.145,43.91 -0.308,1.282 -1.148,2.368 -2.308,3 -1.157,0.625 -2.524,0.743 -3.77,0.313 l -22.8006,-7.86 c -2.1445,-0.738 -3.4531,-2.914 -3.1016,-5.152 0.2227,-1.461 5.9102,-34.941 42.0272,-60.555 -4.027,-6.699 -7.98,-13.039 -11.832,-18.988 -23.9608,28.039 -22.6952,44.211 -22.6795,44.375 0.1679,1.633 -0.5235,3.27 -1.8321,4.258 -1.3046,0.992 -3.0312,1.266 -4.5507,0.66 l -17.2618,-6.859 c -1.8593,-0.742 -3.0468,-2.582 -2.9492,-4.582 1.6367,-34.145 23.2539,-53.969 33.2422,-61.371 -4.2031,-5.86 -8.2226,-11.219 -12.0039,-16.078 -14.0156,17.445 -20.7812,47.039 -20.8555,47.367 -0.2851,1.281 -1.0937,2.379 -2.2265,3.039 -1.1407,0.652 -2.4961,0.804 -3.7461,0.414 L 46.3711,636.484 C 45.7188,636.277 45.168,635.898 44.6719,635.461 32.3008,692.938 26.4453,752.25 27.5742,812.512" /><path
         id="path92"
         style="fill:#d22027;fill-opacity:1;fill-rule:nonzero;stroke:none"
         d="m 601.234,1387.31 c -28.812,23.39 -50.976,31.26 -61.238,33.81 5.043,4.78 10.16,9.47 15.34,14.06 33,-13 49.039,-27.87 54.18,-33.41 l -8.282,-14.46" /><path
         id="path94"
         style="fill:#d22027;fill-opacity:1;fill-rule:nonzero;stroke:none"
         d="m 521.344,1420.37 c -8.656,7.66 -21.188,21.29 -30.754,42.08 l 6.672,9.48 c 6.215,-9.05 19.301,-26.9 34.832,-41.14 -3.617,-3.43 -7.199,-6.91 -10.75,-10.42" /><path
         id="path96"
         style="fill:#d22027;fill-opacity:1;fill-rule:nonzero;stroke:none"
         d="m 547.152,1336.35 c -32.422,17.31 -55.515,20.91 -66.214,21.51 4.589,5.5 9.273,10.96 14.027,16.37 33.605,-6.54 51.574,-17.73 57.562,-22.1 l -5.375,-15.78" /><path
         id="path98"
         style="fill:#d22027;fill-opacity:1;fill-rule:nonzero;stroke:none"
         d="m 462.688,1355.23 c -8.672,7.55 -21.543,21.33 -31.325,42.58 l 6.668,9.49 c 6.125,-8.92 18.91,-26.4 34.157,-40.53 -3.208,-3.83 -6.375,-7.67 -9.5,-11.54" /><path
         id="path100"
         style="fill:#d22027;fill-opacity:1;fill-rule:nonzero;stroke:none"
         d="m 493.75,1270.02 c -31.152,15.23 -53.598,18.57 -65.035,19.08 3.89,5.61 7.887,11.23 11.945,16.86 33.555,-5.36 51.785,-15.84 57.899,-19.98 l -4.809,-15.96" /><path
         id="path102"
         style="fill:#d22027;fill-opacity:1;fill-rule:nonzero;stroke:none"
         d="m 410.48,1284.44 c -8.855,6.85 -23.367,20.52 -34.636,42.88 l 6.328,9.72 c 6.598,-8.91 20.516,-26.53 36.738,-40.27 -2.859,-4.12 -5.664,-8.22 -8.43,-12.33" /><path
         id="path104"
         style="fill:#d22027;fill-opacity:1;fill-rule:nonzero;stroke:none"
         d="m 445.406,1196.34 c -30.09,14.71 -52.035,18.33 -63.804,19 3.3,5.6 6.711,11.27 10.207,17 33.875,-5.33 52.257,-15.89 58.406,-20.04 l -4.809,-15.96" /><path
         id="path106"
         style="fill:#d22027;fill-opacity:1;fill-rule:nonzero;stroke:none"
         d="m 363.793,1209.53 c -8.949,6.62 -24.418,20.58 -36.281,44.12 l 6.316,9.7 c 6.695,-9.05 20.945,-27.08 37.504,-40.91 -2.562,-4.34 -5.098,-8.66 -7.539,-12.91" /><path
         id="path108"
         style="fill:#d22027;fill-opacity:1;fill-rule:nonzero;stroke:none"
         d="m 408.008,1128.45 c -32.028,12.96 -54.613,14.76 -66.098,14.48 2.899,5.7 5.977,11.64 9.203,17.75 34.723,-2.86 54.098,-12.22 60.571,-15.97 l -3.676,-16.26" /><path
         id="path110"
         style="fill:#d22027;fill-opacity:1;fill-rule:nonzero;stroke:none"
         d="m 292.008,1187.48 c 7.195,-8.42 22.305,-25.02 39.453,-37.58 -2.356,-4.61 -4.602,-9.08 -6.738,-13.38 -9.52,6.21 -25.285,18.91 -38.34,40.84 l 5.625,10.12" /><path
         id="path112"
         style="fill:#d22027;fill-opacity:1;fill-rule:nonzero;stroke:none"
         d="m 375.23,1060 c -31.535,12.76 -53.917,14.71 -65.558,14.49 1.973,4.6 4.601,10.6 7.867,17.81 35.227,-2.79 54.844,-12.26 61.371,-16.05 L 375.23,1060" /><path
         id="path114"
         style="fill:#d22027;fill-opacity:1;fill-rule:nonzero;stroke:none"
         d="m 259.23,1119.03 c 7.239,-8.47 22.481,-25.2 39.747,-37.79 -3.297,-7.64 -5.672,-13.42 -5.907,-13.92 -9.355,5.93 -25.898,18.8 -39.461,41.59 l 5.621,10.12" /><path
         id="path116"
         style="fill:#d22027;fill-opacity:1;fill-rule:nonzero;stroke:none"
         d="m 340.645,983.301 c -33.336,13.539 -54.239,14.543 -63.864,13.851 2.434,6.148 4.899,12.268 7.395,18.348 34.457,-2.91 53.691,-12.22 60.14,-15.949 l -3.671,-16.25" /><path
         id="path118"
         style="fill:#d22027;fill-opacity:1;fill-rule:nonzero;stroke:none"
         d="m 263,996.285 c -9.25,5.765 -26.164,18.675 -40,41.925 l 5.617,10.12 c 7.274,-8.51 22.617,-25.36 39.988,-37.96 -1.89,-4.68 -3.761,-9.38 -5.605,-14.085" /><path
         id="path120"
         style="fill:#d22027;fill-opacity:1;fill-rule:nonzero;stroke:none"
         d="m 312.637,909.449 c -30.641,16.348 -51.012,19.871 -61.059,20.379 2.09,5.887 4.235,11.844 6.426,17.848 35.141,-6.406 53.848,-17.988 59.98,-22.449 l -5.347,-15.778" /><path
         id="path122"
         style="fill:#d22027;fill-opacity:1;fill-rule:nonzero;stroke:none"
         d="m 238.047,929.086 c -7.609,7.398 -21.762,23.883 -30.352,50.328 l 7.719,8.625 c 4.922,-9.355 15.223,-27.574 28.274,-43.164 -1.926,-5.312 -3.801,-10.578 -5.641,-15.789" /><path
         id="path124"
         style="fill:#d22027;fill-opacity:1;fill-rule:nonzero;stroke:none"
         d="m 290.844,837.48 c -33.598,17.918 -54.836,20.418 -63.68,20.454 1.899,5.851 3.906,11.972 6.016,18.328 37.133,-6.274 56.703,-18.414 63.011,-23.008 l -5.347,-15.774" /><path
         id="path126"
         style="fill:#d22027;fill-opacity:1;fill-rule:nonzero;stroke:none"
         d="m 262.844,758.438 c -30.731,16.39 -51.114,19.894 -61.141,20.386 1.563,4.031 5.324,14.418 6.348,17.871 35.242,-6.402 53.996,-18.007 60.137,-22.476 l -5.344,-15.781" /><path
         id="path128"
         style="fill:#d22027;fill-opacity:1;fill-rule:nonzero;stroke:none"
         d="m 187.523,776.84 c -6.464,5.758 -23.242,22.933 -32.918,52.73 l 7.719,8.621 c 5.258,-10 16.668,-30.109 31.012,-46.332 -1.93,-5.101 -3.867,-10.101 -5.813,-15.019" /><path
         id="path130"
         style="fill:#d22027;fill-opacity:1;fill-rule:nonzero;stroke:none"
         d="m 211.703,850.719 c -7.023,6.472 -22.726,23.402 -31.973,51.871 l 7.719,8.621 c 5.067,-9.633 15.828,-28.645 29.422,-44.523 -1.816,-5.559 -3.543,-10.891 -5.168,-15.969" /><path
         id="path132"
         style="fill:#d22027;fill-opacity:1;fill-rule:nonzero;stroke:none"
         d="m 225.484,690.145 c -26.019,14.878 -43.867,19.347 -52.964,20.636 2.335,4.91 4.668,9.961 7,15.121 34.714,-10.726 45.671,-19.047 48.605,-21.859 l -2.641,-13.898" /><path
         id="path134"
         style="fill:#d22027;fill-opacity:1;fill-rule:nonzero;stroke:none"
         d="m 159.453,712.52 c -5.758,3.062 -19.121,14.078 -36.191,53.089 l 8.734,8.996 c 4.469,-12.71 14.992,-38.382 31.422,-53.73 -1.324,-2.824 -2.648,-5.609 -3.965,-8.355" /><path
         id="path136"
         style="fill:#d22027;fill-opacity:1;fill-rule:nonzero;stroke:none"
         d="m 193.469,612.68 c -8.328,2.925 -31.969,12.804 -53.512,36.05 2.559,4.383 5.137,8.926 7.742,13.625 7.891,-7.765 27.598,-25.656 53.285,-38.515 l -7.515,-11.16" /><path
         id="path138"
         style="fill:#d22027;fill-opacity:1;fill-rule:nonzero;stroke:none"
         d="m 106.91,710.957 c 8.078,-28.656 20.879,-40.355 28.363,-44.934 -1.929,-3.425 -3.843,-6.773 -5.742,-10.031 -25.527,18.403 -34.1638,41.27 -36.6443,50.133 l 14.0233,4.832" /><path
         id="path140"
         style="fill:#d22027;fill-opacity:1;fill-rule:nonzero;stroke:none"
         d="m 169.781,565.898 c -53.25,18.481 -58.488,37.817 -58.488,37.817 1.797,2.562 3.613,5.215 5.461,7.957 22.738,-26.453 46.41,-32.641 57.98,-34.02 l -4.953,-11.754" /><path
         id="path142"
         style="fill:#d22027;fill-opacity:1;fill-rule:nonzero;stroke:none"
         d="m 81.4063,667.145 c 1.5078,-8.661 7.0625,-24.665 26.1487,-46.364 -1.778,-2.652 -3.524,-5.211 -5.246,-7.695 -8.3402,6.324 -26.3559,23.09 -28.9887,50.84 l 8.086,3.219" /><path
         id="path144"
         style="fill:#d22027;fill-opacity:1;fill-rule:nonzero;stroke:none"
         d="m 146.008,519.773 c -7.809,1.774 -34.914,10.168 -65.4572,44.27 2.6875,3.086 5.5625,6.484 8.6133,10.234 10.0156,-12.48 34.6839,-39.32 62.8669,-41.269 -1.371,-4.395 -3.453,-9.766 -6.023,-13.235" /><path
         id="path146"
         style="fill:#d22027;fill-opacity:1;fill-rule:nonzero;stroke:none"
         d="m 116.52,487.66 c -5.961,2.153 -19.102,7.5 -30.7231,16.235 -3.6563,8.781 -7.1289,17.636 -10.4492,26.55 11.2148,-9.769 26.9373,-21.847 45.6913,-32.09 -0.863,-2.808 -2.348,-6.949 -4.519,-10.695" /><path
         id="path148"
         style="fill:#d22027;fill-opacity:1;fill-rule:nonzero;stroke:none"
         d="m 60.8945,573.004 c 1.8633,-2.832 3.5352,-5.059 4.7891,-6.613 -0.6875,-0.754 -1.3594,-1.489 -2.0078,-2.192 -0.9375,2.93 -1.8828,5.86 -2.7813,8.805" /><path
         id="path150"
         style="fill:#d22027;fill-opacity:1;fill-rule:nonzero;stroke:none"
         d="m 56.1172,629.707 c 2.7148,-10.019 9.9883,-33.008 22.7695,-47.91 -2.4101,-2.969 -4.707,-5.703 -6.875,-8.234 -5.6015,7.367 -17.832,26.593 -19.3672,55.062 l 3.4727,1.082" /><path
         id="path152"
         style="fill:#ffffff;fill-opacity:1;fill-rule:nonzero;stroke:none"
         d="m 241.742,266.719 c -63.273,65.699 -113.418,140.644 -149.2654,221.64 12.6834,-7.144 23.8864,-10.578 24.6254,-10.796 1.886,-0.567 3.929,0.113 5.109,1.695 6.195,8.34 8.789,19.937 8.898,20.426 0.454,2.066 -0.527,4.171 -2.402,5.156 -28.656,15.008 -50.875,35.496 -60.2539,44.879 -0.1015,0.285 3.5547,4.851 5.7774,7.261 C 112.605,514.473 145.82,510.168 147.25,510 c 1.395,-0.16 2.785,0.309 3.789,1.277 7.566,7.278 11.305,23.551 11.703,25.383 0.321,1.445 -0.062,2.953 -1.027,4.07 -0.973,1.122 -2.406,1.715 -3.887,1.614 -27.441,-1.977 -53.902,28.344 -62.6483,39.48 3.375,4.328 6.9293,9.059 10.6173,14.153 4.969,-9.067 19.949,-25.446 65.133,-40.375 2.316,-0.766 4.836,0.375 5.789,2.628 l 9.254,21.926 c 0.629,1.5 0.437,3.215 -0.493,4.535 -0.945,1.325 -2.5,2.071 -4.125,1.969 -1.25,-0.066 -30.871,-1.18 -59.175,33.199 4.16,6.387 8.422,13.161 12.793,20.422 27.898,-29.07 57.863,-37.316 59.207,-37.676 1.929,-0.511 3.972,0.254 5.093,1.915 l 12.5,18.55 c 0.77,1.141 1,2.559 0.629,3.883 -0.371,1.328 -1.297,2.422 -2.547,2.996 -29.003,13.336 -51.515,34.965 -57.453,40.969 5.203,9.656 10.493,19.988 15.817,30.902 6.324,-0.504 26.105,-3.675 58.207,-23.07 1.312,-0.797 2.933,-0.898 4.332,-0.273 1.406,0.628 2.41,1.898 2.695,3.41 l 4.289,22.57 c 0.188,0.981 0.055,1.992 -0.367,2.898 -1.004,2.083 -8.219,12.891 -53.992,27.165 4.894,11.089 9.781,22.765 14.648,34.984 6.449,0.148 28.196,-1.219 65.188,-21.906 1.211,-0.68 2.664,-0.782 3.969,-0.285 1.296,0.503 2.308,1.554 2.753,2.875 l 8.188,24.16 c 0.598,1.75 0.101,3.691 -1.258,4.945 -0.812,0.75 -19.883,17.848 -66.105,26.43 3.047,10.074 7.589,24.816 13.332,42.711 1.507,0.183 23.925,2.363 67.125,-21.793 1.215,-0.684 2.668,-0.786 3.968,-0.289 1.297,0.503 2.309,1.554 2.754,2.871 l 8.192,24.16 c 0.593,1.754 0.097,3.691 -1.258,4.949 -0.832,0.766 -20.582,18.492 -68.703,26.906 3.769,11.239 7.824,23.075 12.109,35.289 7.028,0.059 28.649,-1.738 64.727,-21.914 1.218,-0.683 2.672,-0.785 3.968,-0.289 1.301,0.504 2.313,1.555 2.762,2.871 l 8.188,24.16 c 0.59,1.754 0.097,3.692 -1.258,4.95 -0.813,0.746 -19.692,17.668 -65.395,26.297 3.778,10.214 11.723,30.632 11.703,30.625 0.211,0.058 22.286,5.472 69.161,-14.668 1.277,-0.547 2.738,-0.496 3.976,0.132 1.242,0.629 2.137,1.782 2.442,3.141 l 5.636,24.878 c 0.41,1.81 -0.285,3.68 -1.769,4.79 -0.86,0.64 -20.395,14.87 -64.473,19.11 5.656,13.49 17.481,39.75 17.695,40.28 8.532,0.66 33.274,0.62 71.082,-15.62 1.278,-0.56 2.739,-0.5 3.977,0.12 1.242,0.64 2.137,1.79 2.441,3.15 l 5.637,24.87 c 0.41,1.81 -0.285,3.69 -1.769,4.8 -0.868,0.64 -20.664,15.02 -65.317,19.16 4.297,9.27 9.41,19.98 15.321,31.84 6.859,0.73 32.273,1.78 72.488,-15.5 1.277,-0.54 2.738,-0.49 3.976,0.14 1.243,0.63 2.137,1.78 2.446,3.13 l 5.633,24.88 c 0.406,1.81 -0.286,3.69 -1.766,4.79 -0.856,0.65 -20.231,14.74 -63.891,19.05 6.223,11.58 12.996,23.77 20.289,36.39 8.434,0.08 33.2,-1.62 69.953,-20.57 1.247,-0.63 2.696,-0.68 3.981,-0.14 1.281,0.54 2.254,1.62 2.66,2.96 l 7.356,24.42 c 0.539,1.77 -0.024,3.7 -1.422,4.91 -0.809,0.69 -18.942,15.9 -61.594,23.31 7.91,12.72 16.289,25.67 25.141,38.72 4.996,0.32 31.074,0.72 72.226,-20.49 1.234,-0.64 2.695,-0.69 3.981,-0.15 1.281,0.55 2.25,1.63 2.656,2.96 l 7.359,24.43 c 0.535,1.77 -0.015,3.69 -1.426,4.9 -0.796,0.68 -18.57,15.56 -60.226,23.06 8.976,12.15 25.965,34.13 25.965,34.13 -0.016,0 29.883,2.14 74.715,-23.02 1.207,-0.68 2.668,-0.79 3.96,-0.29 1.301,0.5 2.313,1.55 2.762,2.87 l 8.231,24.14 c 0.593,1.76 0.105,3.69 -1.258,4.95 -0.766,0.71 -17.914,16.14 -59.035,25.12 9.933,10.98 20.203,21.7 30.804,32.05 0,0 27.329,-4.5 66.543,-37.75 1.059,-0.9 2.469,-1.28 3.844,-1.04 1.371,0.24 2.567,1.07 3.254,2.29 l 12.676,22.13 c 0.918,1.61 0.804,3.6 -0.285,5.1 -0.637,0.86 -15.067,20.08 -55.703,37.01 10.304,8.81 20.886,17.2 31.73,25.12 6.016,-1.24 33.441,-8.67 49.043,-42.84 0.519,-1.14 1.473,-2.02 2.644,-2.45 1.168,-0.43 2.469,-0.38 3.602,0.15 l 26.195,12.22 c 1.188,0.55 2.086,1.58 2.489,2.82 0.394,1.24 0.257,2.6 -0.387,3.74 -0.621,1.09 -14.727,25.41 -52.598,47.17 4.297,2.63 20.828,12.01 34.871,17.63 0,0 33.801,-6.9 57.868,-53.06 0.585,-1.14 1.621,-1.99 2.851,-2.33 1.234,-0.36 2.559,-0.2 3.668,0.45 l 22.899,13.38 c 1.75,1.02 2.644,3.04 2.226,5.02 -0.254,1.17 -6.23,27 -50.605,49.67 9.179,2.6 19.328,5.17 30.421,7.53 7.188,-3.67 35.965,-20 56.942,-55.86 1.031,-1.76 3.082,-2.66 5.07,-2.21 l 20.531,4.59 c 1.293,0.29 2.403,1.11 3.059,2.26 0.648,1.15 0.785,2.53 0.367,3.79 -0.5,1.51 -11.594,33.79 -43.722,54.57 16.898,2.16 35.25,3.69 54.98,4.27 l -0.344,-0.58 c -0.008,0 -0.004,0 -0.011,0.01 1.269,-0.77 31.074,-19.43 31.214,-66.8 0.004,-1.32 0.563,-2.57 1.539,-3.46 0.969,-0.88 2.27,-1.31 3.583,-1.2 l 19.921,1.84 c 1.7,0.16 3.168,1.22 3.86,2.78 0.617,1.4 13.687,32.46 -19.77,67.21 12.008,-0.45 24.422,-1.28 37.239,-2.52 5.445,-6.65 25.894,-33.55 27.144,-63.45 0.106,-2.53 2.195,-4.51 4.723,-4.49 l 20.449,0.16 c 2.101,0.03 3.934,1.44 4.484,3.47 0.293,1.09 6.231,24.94 -21.914,59.98 10.946,-1.65 22.129,-3.63 33.571,-5.93 8.207,-7.37 26.773,-27.06 31.035,-57.76 0.25,-1.79 1.51,-3.29 3.25,-3.83 l 17.03,-5.29 c 2.4,-0.74 4.97,0.54 5.81,2.91 0.44,1.25 9.19,26.91 -5.92,51.66 4.44,-1.24 20.56,-6.3 20.86,-6.66 9.46,-11.14 27.08,-31.89 31.95,-57.69 0.35,-1.82 1.73,-3.28 3.54,-3.7 l 20.54,-4.8 c 2.49,-0.59 4.98,0.93 5.61,3.4 0.24,0.94 4.71,19.78 -8.23,43.51 8.29,-3.59 17.35,-7.73 27.14,-12.45 4.54,-7.93 22.24,-39.73 27.4,-61.49 0.47,-1.95 2.12,-3.39 4.12,-3.58 l 19.11,-1.83 c 1.97,-0.19 3.84,0.87 4.68,2.65 0.31,0.62 6.03,13.41 -4.12,37.46 9.73,-5.48 19.93,-11.47 30.5,-17.9 l -0.25,-0.16 c 0,0 0,0 0,0.01 0.12,-0.18 11.9,-18.29 9.54,-37.55 -0.3,-2.5 1.42,-4.8 3.9,-5.2 l 15.43,-2.5 c 2.03,-0.33 4.03,0.7 4.95,2.54 0.23,0.48 4.28,8.89 3.03,19.66 14.43,-9.54 29.47,-19.92 45.08,-31.2 -2.07,-4.32 -7.3,-16.49 -5.32,-25.88 0.33,-1.52 1.38,-2.77 2.8,-3.37 l 16.82,-6.94 c 2.24,-0.93 4.82,0.01 5.94,2.16 0.03,0.06 3.82,7.02 10.22,11.34 8.28,-6.34 32.14,-29.6 34.34,-31.95 -5.13,-2.4 -13.11,-7.05 -16.76,-14.03 -0.81,-1.55 -0.69,-3.42 0.31,-4.86 l 11.48,-16.42 c 1.29,-1.86 3.73,-2.52 5.78,-1.58 0.15,0.07 13.51,6.15 22.72,10.48 10.78,-12.67 21.13,-25.61 31,-38.84 -5.02,-2.05 -13.93,-6.01 -17.78,-9.71 -1.43,-1.38 -1.84,-3.51 -1.01,-5.32 l 7.78,-17.09 c 0.96,-2.11 3.33,-3.2 5.57,-2.56 0.74,0.21 17.21,4.96 24.48,8 7.15,-10.49 14.04,-21.14 20.64,-31.93 -7.52,-0.81 -21.28,-2.71 -27.38,-6.21 -1.7,-0.98 -2.61,-2.91 -2.29,-4.84 l 3.31,-19.95 c 0.41,-2.46 2.66,-4.17 5.14,-3.89 0.15,0.02 21.46,1.67 44.32,-5.03 0,0 10.66,-20.79 17.89,-43.44 -6.74,3.4 -17.72,5.85 -33.68,0.26 -2.09,-0.74 -3.38,-2.85 -3.09,-5.06 l 2.59,-19.2 c 0.3,-2.25 2.18,-3.96 4.44,-4.06 0.28,-0.01 26.79,-1.35 43.05,-15.31 2.27,-8.27 4.55,-17.13 6.79,-26.49 -11.1,2.58 -29.9,5.53 -41.64,-0.34 -2.1,-1.05 -3.09,-3.48 -2.34,-5.7 l 6.28,-18.53 c 0.72,-2.13 2.83,-3.44 5.05,-3.15 0.22,0.03 21.68,2.57 40.59,-9.37 1.11,-5.84 2.17,-11.802 3.18,-17.896 -10.02,1.473 -27.42,0.98 -47.91,-12.801 -2.08,-1.398 -2.69,-4.187 -1.39,-6.332 l 10.01,-16.394 c 1.2,-1.961 3.64,-2.766 5.77,-1.903 0.73,0.293 17.81,6.821 39.05,-2.441 1.28,-11.449 2.33,-23.211 3.08,-35.238 -12.48,2.789 -35.09,5.851 -49.05,-4.223 -1.49,-1.07 -2.21,-2.914 -1.86,-4.711 l 3.37,-17.008 c 0.46,-2.34 2.6,-3.957 4.97,-3.765 0.27,0.023 24.35,1.867 43.81,-2.973 0.2,-14.34 -0.06,-28.961 -0.89,-43.789 -8.99,5.558 -26.44,10.941 -60.37,10.765 -1.27,-0.003 -2.49,-0.527 -3.37,-1.441 -0.87,-0.918 -1.34,-2.148 -1.3,-3.418 l 0.98,-26.535 c 0.09,-2.414 1.99,-4.363 4.4,-4.508 0.33,-0.019 31.06,-2.047 56.17,-13.988 -1.64,-13.274 -3.77,-26.645 -6.46,-40.067 -11.14,7.735 -33.78,20.856 -63.56,24.618 -2.34,0.293 -4.53,-1.196 -5.12,-3.469 l -5.56,-21.258 c -0.61,-2.336 0.65,-4.758 2.92,-5.586 0.36,-0.141 36.41,-13.562 61.51,-34.738 -3.54,-12.281 -7.59,-24.551 -12.21,-36.77 -12.17,4.157 -43.65,17.082 -59.78,43.992 -0.69,1.157 -1.84,1.957 -3.17,2.204 -1.32,0.242 -2.68,-0.09 -3.74,-0.918 l -23.92,-18.707 c -2.02,-1.575 -2.4,-4.469 -0.87,-6.508 1.45,-1.926 34.37,-45.063 78.28,-51.328 -6.41,-13.809 -13.58,-27.512 -21.66,-41.028 -9.96,2.102 -37.03,10.242 -55.95,38.946 -0.7,1.058 -1.8,1.793 -3.05,2.027 -1.24,0.234 -2.53,-0.043 -3.56,-0.777 l -22.4,-15.786 c -2.07,-1.457 -2.61,-4.289 -1.22,-6.402 1.22,-1.855 28.33,-42.652 63.74,-51.937 -3.27,-4.485 -12.68,-17.36 -17.06,-23.063 -8.8,1.359 -32.61,7.703 -56.89,37.402 -1.48,1.821 -4.08,2.254 -6.09,1.028 l -20.86,-12.871 c -2.16,-1.328 -2.87,-4.133 -1.6,-6.325 0.94,-1.632 21.98,-37.628 58.28,-50.433 -8.59,-8.957 -19.01,-19.113 -31.43,-30.172 -9.7,5.434 -33.04,21.094 -50.93,54.102 -0.69,1.253 -1.9,2.132 -3.31,2.382 -1.41,0.246 -2.85,-0.164 -3.92,-1.109 l -18.73,-16.594 c -1.52,-1.351 -2.01,-3.531 -1.18,-5.402 0.73,-1.649 17.12,-38.039 49.94,-57.059 -8.01,-6.394 -16.62,-12.976 -25.83,-19.715 -10.37,3.938 -41.4,17.813 -59.87,48.747 -0.75,1.253 -2.04,2.086 -3.48,2.25 -1.45,0.171 -2.89,-0.34 -3.9,-1.387 l -21.79,-22.434 c -1.49,-1.519 -1.76,-3.859 -0.65,-5.679 0.93,-1.551 21.12,-34.313 53.57,-46.457 -10.12,-6.622 -20.81,-13.325 -32.1,-20.079 -13,6.071 -47.78,23.914 -62.57,47.329 -0.74,1.168 -1.94,1.949 -3.31,2.14 -1.37,0.192 -2.74,-0.226 -3.77,-1.14 l -19.48,-17.313 c -1.78,-1.586 -2.09,-4.262 -0.71,-6.211 1.05,-1.492 23.61,-32.91 53.29,-45.629 -7.76,-4.222 -15.77,-8.441 -24.02,-12.66 l 0.01,0.375 h 0.01 c -0.47,0.02 -47.23,2.137 -71.31,39.77 -1.34,2.093 -4.08,2.777 -6.25,1.558 l -25.31,-14.258 c -1.21,-0.679 -2.05,-1.839 -2.31,-3.195 -0.26,-1.348 0.08,-2.742 0.94,-3.816 1.06,-1.332 24.03,-29.567 59.68,-42.012 -9.61,-4.414 -19.49,-8.805 -29.67,-13.16 -9.99,2.258 -55.15,14.445 -72.27,53.551 -0.57,1.289 -1.68,2.253 -3.03,2.636 -1.35,0.375 -2.81,0.133 -3.95,-0.679 l -27.63,-19.372 c -1.038,-0.73 -1.737,-1.855 -1.933,-3.109 -0.199,-1.262 0.121,-2.539 0.891,-3.555 1.172,-1.55 25.952,-33.91 60.682,-48.386 -10.35,-4.18 -23.59,-9.719 -39.23,-16.66 -10.98,3.113 -46.69,15.386 -61.823,46.515 -0.547,1.129 -1.524,1.988 -2.715,2.395 -1.188,0.398 -2.484,0.304 -3.606,-0.254 l -28.253,-14.203 c -1.286,-0.649 -2.204,-1.844 -2.493,-3.243 -0.289,-1.41 0.082,-2.867 1.004,-3.964 1.129,-1.34 25.172,-29.536 57.723,-45.793 -6.488,-3.11 -13.203,-6.387 -20.145,-9.828 -0.082,0.043 -0.109,0.058 -0.109,0.058 -0.375,0.039 -38.375,4.215 -73.297,46.176 -1.394,1.68 -3.769,2.172 -5.719,1.187 l -25.289,-12.789 c -1.215,-0.613 -2.101,-1.722 -2.429,-3.047 -0.332,-1.324 -0.071,-2.718 0.718,-3.832 0.918,-1.312 21.543,-29.953 64.375,-49.23 -7.031,-3.742 -14.23,-7.648 -21.539,-11.684 -8.031,1.496 -45.242,9.946 -72.73,42.301 -1.524,1.789 -4.145,2.176 -6.121,0.895 l -27.594,-17.899 c -1.188,-0.769 -1.961,-2.035 -2.109,-3.445 -0.153,-1.406 0.347,-2.809 1.351,-3.805 1.383,-1.383 31.004,-30.586 64.164,-42.617 -6.711,-3.969 -13.508,-8.051 -20.367,-12.242 -10.953,-1.598 -45.727,-2.277 -80.555,43.426 -0.843,1.101 -2.132,1.777 -3.523,1.84 -1.395,0.058 -2.734,-0.504 -3.672,-1.536 l -21.066,-23.175 c -1.469,-1.622 -1.625,-4.043 -0.371,-5.84 0.914,-1.301 21.378,-29.719 69.64,-39.657 -11.722,-7.636 -23.574,-15.558 -35.523,-23.816 -10.867,0.106 -42.782,4.391 -74.824,47.039 -1.524,2.027 -4.375,2.477 -6.45,1.024 l -22.398,-15.793 c -1.035,-0.735 -1.735,-1.852 -1.93,-3.106 -0.195,-1.25 0.121,-2.527 0.891,-3.547 1.023,-1.363 24.437,-31.879 71.304,-49.379 -4.976,-3.636 -9.953,-7.328 -14.933,-11.066 -15.481,3.555 -67.914,17.375 -93.688,46.582 -1.015,1.145 -2.527,1.727 -4.046,1.551 -1.528,-0.176 -2.868,-1.082 -3.594,-2.43 l -12.973,-24.07 c -1.09,-2.016 -0.562,-4.516 1.238,-5.922 1.926,-1.5 42.289,-32.6759 80.793,-40.672 -3.422,-2.7305 -6.855,-5.4883 -10.285,-8.2734 -3.426,0.8476 -65.418,16.4609 -88.965,39.5114 -1.047,1.028 -2.523,1.504 -3.976,1.285 -1.457,-0.218 -2.723,-1.109 -3.426,-2.41 L 560.188,99.4688 c -1.208,-2.2188 -0.438,-4.9922 1.738,-6.2696 2.101,-1.2461 46.851,-27.4531 77.898,-34.5 -3.336,-2.8594 -6.656,-5.7383 -9.969,-8.6484 C 486.637,81.1484 350.824,153.473 241.742,266.719" /><path
         id="path154"
         style="fill:#d22027;fill-opacity:1;fill-rule:nonzero;stroke:none"
         d="m 1509.49,618.988 c -5.78,7.45 -12.56,17.321 -14.67,23.36 2.49,5.304 4.87,10.625 7.12,15.957 3.12,-7.5 8.8,-17.825 18.31,-25.367 l -10.76,-13.95" /><path
         id="path156"
         style="fill:#d22027;fill-opacity:1;fill-rule:nonzero;stroke:none"
         d="m 1432.39,715.02 c 18.18,-26.457 48.55,-39.102 61.5,-43.5 -1.82,-4.532 -3.7,-9.055 -5.69,-13.567 -34.34,3.496 -62.99,33.942 -71.93,44.461 l 16.12,12.606" /><path
         id="path158"
         style="fill:#d22027;fill-opacity:1;fill-rule:nonzero;stroke:none"
         d="m 1476.41,551.523 c -4.77,4.723 -13.61,15.11 -16.42,29.278 2.32,3.453 4.6,6.914 6.8,10.387 4.94,-8.629 12.8,-20.918 20.83,-27.965 l -11.21,-11.7" /><path
         id="path160"
         style="fill:#d22027;fill-opacity:1;fill-rule:nonzero;stroke:none"
         d="m 1445.92,582.324 c -27.6,5.156 -51.46,34.649 -59.16,45.117 l 14.76,10.407 c 18.85,-25.977 43.21,-35.196 55.74,-38.313 -3.62,-5.769 -7.38,-11.512 -11.34,-17.211" /><path
         id="path162"
         style="fill:#d22027;fill-opacity:1;fill-rule:nonzero;stroke:none"
         d="m 1431.22,490.422 c -4.4,4.785 -11.77,14.797 -16.18,31.199 3.96,4.426 7.42,8.473 10.37,12.078 2.85,-8.344 7.91,-19.781 16.82,-26.949 l -11.01,-16.328" /><path
         id="path164"
         style="fill:#d22027;fill-opacity:1;fill-rule:nonzero;stroke:none"
         d="m 1361.48,579.32 c 21.7,-25.211 42.82,-33.734 54.88,-36.609 -3.63,-4.391 -8.07,-9.527 -13.37,-15.289 -28.59,8.266 -48.26,33.879 -54.88,43.652 l 13.37,8.246" /><path
         id="path166"
         style="fill:#d22027;fill-opacity:1;fill-rule:nonzero;stroke:none"
         d="m 1377.84,437.367 c -3.66,5.27 -10.98,16.582 -17.56,31.535 5.11,4.321 9.93,8.532 14.49,12.621 3.32,-8.726 9.86,-24.585 17.32,-35.972 l -14.25,-8.184" /><path
         id="path168"
         style="fill:#d22027;fill-opacity:1;fill-rule:nonzero;stroke:none"
         d="m 1344.13,472.309 c -26.84,14.031 -42.99,42.179 -47.75,51.445 l 11.77,10.426 c 17.05,-29.028 37.49,-44.34 48.76,-51.098 -4.07,-3.519 -8.3,-7.105 -12.78,-10.773" /><path
         id="path170"
         style="fill:#d22027;fill-opacity:1;fill-rule:nonzero;stroke:none"
         d="m 1305.49,377.668 c -3.85,6.57 -11.29,22.168 -10.04,42.254 4.65,3.164 9.18,6.301 13.57,9.41 0.21,-12.289 1.8,-30.879 9.77,-44.203 l -13.3,-7.461" /><path
         id="path172"
         style="fill:#d22027;fill-opacity:1;fill-rule:nonzero;stroke:none"
         d="m 1245.78,485.063 c 17.4,-25.864 42.06,-39.426 55.64,-45.329 -5.48,-3.89 -11.18,-7.82 -17.06,-11.789 -27.63,6.961 -47.56,32.856 -53.62,41.641 l 15.04,15.477" /><path
         id="path174"
         style="fill:#d22027;fill-opacity:1;fill-rule:nonzero;stroke:none"
         d="m 1238.36,334.512 c -3.93,6.301 -11.85,22.051 -10.04,43.926 6.17,3.48 12.18,6.953 18.03,10.41 -0.18,-11.578 0.51,-31.95 6.64,-46.879 l -14.63,-7.457" /><path
         id="path176"
         style="fill:#d22027;fill-opacity:1;fill-rule:nonzero;stroke:none"
         d="m 1174.84,439.004 c 15.24,-20.488 42.37,-35.973 57.64,-43.559 -5.17,-3.007 -10.46,-6.019 -15.86,-9.043 -25.07,7.192 -46.89,32.555 -54.06,41.68 l 12.28,10.922" /><path
         id="path178"
         style="fill:#d22027;fill-opacity:1;fill-rule:nonzero;stroke:none"
         d="m 1186.05,298.508 c -5.35,7.586 -18.59,28.715 -16.44,49.133 5.41,2.636 10.69,5.281 15.9,7.922 -1,-11.239 0.11,-30.211 13.06,-51.086 l -12.52,-5.969" /><path
         id="path180"
         style="fill:#d22027;fill-opacity:1;fill-rule:nonzero;stroke:none"
         d="m 1149.96,352.121 c -30.26,7.152 -53,28.621 -61.51,37.715 l 16.49,9.285 c 18.45,-25.922 45.97,-35.234 62.48,-38.562 -5.71,-2.821 -11.53,-5.633 -17.46,-8.438" /><path
         id="path182"
         style="fill:#d22027;fill-opacity:1;fill-rule:nonzero;stroke:none"
         d="m 1109.96,271.488 c -16.81,16.535 -16.93,34.649 -16.02,42.289 4.54,1.864 9.01,3.735 13.45,5.602 -0.14,-14.988 8.43,-32.352 12.64,-39.961 l -10.07,-7.93" /><path
         id="path184"
         style="fill:#d22027;fill-opacity:1;fill-rule:nonzero;stroke:none"
         d="m 1073.45,319.301 c -30.2,8.621 -54.97,35.14 -63.38,45.023 l 18.97,13.313 c 15.85,-30.555 46.34,-44.637 64.42,-50.547 -2.66,-1.098 -12.47,-4.879 -20.01,-7.789" /><path
         id="path186"
         style="fill:#d22027;fill-opacity:1;fill-rule:nonzero;stroke:none"
         d="m 1037.8,234.027 c -5.46,6.024 -19.46,23.918 -19.56,48.457 7.25,3.274 14.05,6.266 20.35,8.985 -1.95,-12.18 -2.3,-32.938 11.6,-51.531 l -12.39,-5.911" /><path
         id="path188"
         style="fill:#d22027;fill-opacity:1;fill-rule:nonzero;stroke:none"
         d="m 991.848,284.086 c -26.571,11.258 -48.817,32.871 -57.567,42.152 l 18.641,9.371 c 14.144,-25.117 39.476,-38.019 55.318,-43.937 -5.25,-2.391 -10.72,-4.922 -16.392,-7.586" /><path
         id="path190"
         style="fill:#d22027;fill-opacity:1;fill-rule:nonzero;stroke:none"
         d="m 957.633,204.836 c -3.594,4.672 -10.93,17.066 -13.399,41.875 4.598,2.371 9.129,4.684 13.579,6.922 -0.84,-8.582 1.445,-21.903 13.734,-40.992 l -13.914,-7.805" /><path
         id="path192"
         style="fill:#d22027;fill-opacity:1;fill-rule:nonzero;stroke:none"
         d="m 929.621,253.191 c -35.07,14.079 -56.223,35.649 -63.984,44.707 l 16.843,8.52 c 24.297,-27.988 49.399,-39.309 64.782,-44.129 -5.758,-2.926 -11.641,-5.949 -17.641,-9.098" /><path
         id="path194"
         style="fill:#d22027;fill-opacity:1;fill-rule:nonzero;stroke:none"
         d="m 897.016,170.816 c -4.422,7.145 -15.723,26.743 -16.379,41.336 6.097,3.493 12.121,6.887 18.058,10.184 -1.925,-10.758 -1.504,-28.125 12.567,-47.922 l -14.246,-3.598" /><path
         id="path196"
         style="fill:#d22027;fill-opacity:1;fill-rule:nonzero;stroke:none"
         d="m 865.258,217.699 c -27,7.035 -54.028,29.625 -64.207,38.856 l 19.168,12.433 c 22.469,-24.8 49.484,-35.515 64.972,-39.902 -6.546,-3.688 -13.199,-7.477 -19.933,-11.387" /><path
         id="path198"
         style="fill:#d22027;fill-opacity:1;fill-rule:nonzero;stroke:none"
         d="m 829.813,133.461 c -4.497,5.637 -14.477,20.172 -15.415,38.68 5.403,3.441 10.762,6.804 16.094,10.109 0.696,-10.855 3.332,-28.75 12.512,-42.277 l -13.191,-6.512" /><path
         id="path200"
         style="fill:#d22027;fill-opacity:1;fill-rule:nonzero;stroke:none"
         d="m 749.434,232.387 c 25.839,-31.789 51.793,-40.856 69.265,-42.762 -4.191,-2.629 -8.41,-5.301 -12.648,-8.004 -42.071,5.801 -64.395,26.953 -71.25,34.668 l 14.633,16.098" /><path
         id="path202"
         style="fill:#d22027;fill-opacity:1;fill-rule:nonzero;stroke:none"
         d="m 762.797,87.5898 c -4.356,5.8008 -13.981,20.4692 -16.211,38.7892 4.484,3.203 8.957,6.351 13.414,9.465 -0.816,-10.246 1.09,-25.477 14.742,-42.5627 l -11.945,-5.6915" /><path
         id="path204"
         style="fill:#d22027;fill-opacity:1;fill-rule:nonzero;stroke:none"
         d="m 679.359,188.105 c 25.735,-32.585 51.598,-42.894 67.868,-45.957 -4.164,-2.929 -8.332,-5.902 -12.5,-8.91 -38.45,12.821 -61.907,35.711 -69.918,44.614 l 14.55,10.253" /><path
         id="path206"
         style="fill:#d22027;fill-opacity:1;fill-rule:nonzero;stroke:none"
         d="m 710.445,63.7383 c -3.3,4.2617 -10.324,14.1562 -13.859,25.2851 3.785,2.9571 7.57,5.8829 11.359,8.7813 1.289,-7.6172 4.676,-19.3359 13.344,-31.1836 l -10.844,-2.8828" /><path
         id="path208"
         style="fill:#d22027;fill-opacity:1;fill-rule:nonzero;stroke:none"
         d="m 614.418,151.051 c 25.184,-24.633 66.051,-37.656 86.465,-42.914 -4.199,-3.211 -8.395,-6.449 -12.59,-9.7347 -32.512,3.4377 -70.805,29.7387 -81.875,37.8087 l 8,14.84" /><path
         id="path210"
         style="fill:#d22027;fill-opacity:1;fill-rule:nonzero;stroke:none"
         d="m 577.066,110.973 c 22.481,-18.3128 63.852,-31.0785 82.075,-36.0082 -3.356,-2.7695 -6.7,-5.5625 -10.039,-8.3828 -23.997,2.6172 -65.606,25.1797 -78.5,32.4493 l 6.464,11.9417" /><path
         id="path212"
         style="fill:#d22027;fill-opacity:1;fill-rule:nonzero;stroke:none"
         d="m 652.094,52.7539 c 3.469,2.9492 6.945,5.8789 10.418,8.7734 1.449,-5.7578 3.676,-12.7382 6.922,-19.0273 -3.329,0.5469 -6.661,1.1641 -9.985,1.75 v 0.0039 c -2.738,2.8399 -5.472,6.1445 -7.355,8.5" /><path
         id="path214"
         style="fill:#ffffff;fill-opacity:1;fill-rule:nonzero;stroke:none"
         d="M 1324.91,246.406 C 1147.5,75.5313 908.324,7.44531 681.633,40.6602 c -5.715,7.1171 -9.289,19.1796 -11.051,27.5312 6.063,4.9844 12.137,9.875 18.211,14.6953 5.656,-15.082 15.871,-26.957 16.379,-27.5351 1.172,-1.3477 3.012,-1.9102 4.734,-1.4571 l 20.739,5.5078 c 1.566,0.4219 2.812,1.6211 3.281,3.1875 0.469,1.5547 0.094,3.25 -0.992,4.4649 -13.664,15.3281 -15.965,31.9336 -16.352,37.3083 7.172,5.407 14.332,10.692 21.477,15.871 4.523,-24.0192 19.203,-40.8317 19.886,-41.5973 1.387,-1.5547 3.637,-2.0156 5.516,-1.1172 l 20.816,9.9219 c 1.344,0.6445 2.301,1.8789 2.582,3.3359 0.286,1.4571 -0.129,2.961 -1.136,4.0586 -21.274,23.2771 -16.524,42.3521 -15.024,48.4061 11.707,8.028 23.324,15.762 34.809,23.188 3.18,-24.516 18.984,-41.27 19.726,-42.039 1.414,-1.469 3.621,-1.856 5.454,-0.953 l 21.562,10.644 c 1.309,0.648 2.242,1.871 2.523,3.301 0.286,1.433 -0.121,2.922 -1.089,4.012 -12.18,13.746 -13.848,37.57 -14.032,46.5 10.879,6.652 21.594,13.039 32.09,19.132 3.098,-19.961 18.508,-43.089 19.254,-44.199 1.106,-1.64 3.121,-2.414 5.039,-1.93 l 24.43,6.172 c 1.555,0.395 2.805,1.563 3.305,3.098 0.5,1.527 0.175,3.207 -0.856,4.441 -23.016,27.692 -14.437,50.137 -12.633,54.102 8.543,4.652 16.883,9.105 25.008,13.359 4.277,-34.644 17.762,-46.257 18.375,-46.765 1.492,-1.242 3.598,-1.434 5.293,-0.481 l 21.59,12.117 c 1.148,0.649 1.976,1.747 2.269,3.032 0.297,1.289 0.039,2.64 -0.711,3.722 -20.734,29.973 -14.355,43.297 -12.906,45.618 14.254,7.035 27.571,13.355 39.751,18.949 1.89,-32.086 23.66,-52.457 24.66,-53.367 1.41,-1.29 3.46,-1.598 5.18,-0.778 l 20.82,9.926 c 1.34,0.637 2.29,1.871 2.58,3.324 0.29,1.457 -0.13,2.961 -1.13,4.059 -18.72,20.586 -14.2,46.074 -11.99,54.515 16.59,6.993 28.7,11.664 35.24,14.118 -0.32,-11.5 2.59,-31.082 22.27,-48.297 1.7,-1.489 4.22,-1.551 5.98,-0.157 l 16.46,12.958 c 1.86,1.46 2.33,4.093 1.1,6.121 -4.81,7.89 -15.63,29.707 -12.96,42.871 14.9,6.433 29.18,12.929 42.85,19.453 0.05,-27.176 20.01,-52.207 20.93,-53.344 1.37,-1.68 3.71,-2.215 5.66,-1.281 l 20.82,9.93 c 1.24,0.589 2.16,1.699 2.51,3.031 0.35,1.332 0.1,2.754 -0.69,3.883 -17.83,25.503 -15.1,48.242 -13.55,55.558 7.88,4.098 15.56,8.195 22.99,12.285 -0.38,-28.933 13.86,-46.761 14.52,-47.57 1.4,-1.707 3.79,-2.203 5.76,-1.203 l 22.31,11.367 c 1.12,0.57 1.96,1.566 2.34,2.766 0.38,1.199 0.26,2.5 -0.33,3.613 -8.4,15.812 -7.76,44.086 -7.37,52.527 10.55,6.399 20.54,12.739 30.03,19 0.58,-26.461 13.63,-44.16 14.26,-44.98 1.41,-1.871 3.98,-2.406 6.03,-1.266 l 21.59,12.125 c 1.2,0.672 2.05,1.84 2.31,3.192 0.26,1.355 -0.09,2.75 -0.95,3.824 -10.74,13.41 -10.92,38.863 -10.76,49.629 12.57,9.16 24.02,18.051 34.38,26.574 9.37,-20.539 19.56,-33.746 20.02,-34.348 1.43,-1.843 4,-2.347 6.03,-1.179 l 22.35,12.839 c 1.17,0.672 1.99,1.817 2.26,3.145 0.26,1.328 -0.06,2.707 -0.89,3.773 -9.02,11.727 -17.59,33.946 -20.34,41.442 9.86,9.164 18.31,17.637 25.44,25.23 7.81,-23.636 20.94,-33.675 21.54,-34.132 1.03,-0.762 2.33,-1.075 3.59,-0.852 1.26,0.215 2.39,0.934 3.09,1.996 l 16.68,24.734 c 0.73,1.079 0.97,2.418 0.68,3.688 -0.3,1.269 -1.12,2.359 -2.25,3.008 -11.45,6.527 -16.5,23.668 -18.54,30.59 4.39,5.793 16.4,22.3 20.59,28.179 6.45,-18.176 20.04,-28.972 20.7,-29.492 1.89,-1.48 4.61,-1.285 6.27,0.449 l 18.03,18.821 c 1,1.039 1.46,2.472 1.26,3.898 -0.2,1.422 -1.05,2.676 -2.29,3.398 -8.35,4.844 -19.04,22.286 -24.57,32.454 6.22,10.336 11.9,20.781 17.16,31.293 5.8,-10.403 14.94,-21.504 16.35,-23.2 0.91,-1.089 2.27,-1.707 3.68,-1.683 1.43,0.031 2.76,0.699 3.63,1.828 l 17.37,22.508 c 0.8,1.05 1.13,2.386 0.9,3.691 -0.23,1.301 -1.01,2.445 -2.13,3.145 -12.88,8.062 -19.82,26.086 -22.18,33.398 5.65,14.512 10.53,29.094 14.68,43.684 9.36,-10.68 14.32,-21.899 14.38,-22.028 0.8,-1.847 2.69,-2.972 4.69,-2.804 2.01,0.172 3.68,1.597 4.16,3.55 l 5.58,22.735 c 0.14,0.527 0.17,1.07 0.12,1.613 -1.14,10.691 -13.93,31.473 -18.85,39.133 2.35,12 4.28,23.961 5.81,35.848 5.84,-2.493 15.09,-7.723 21.34,-17.297 -5.84,-201.535 -88.79,-389.239 -234.23,-529.317" /></g></g></svg>