<?xml version="1.0" encoding="utf-8"?>
<!-- Generator: Adobe Illustrator 14.0.0, SVG Export Plug-In . SVG Version: 6.00 Build 43363)  -->
<!DOCTYPE svg PUBLIC "-//W3C//DTD SVG 1.1//EN" "http://www.w3.org/Graphics/SVG/1.1/DTD/svg11.dtd">
<svg version="1.1" id="caiman" xmlns="http://www.w3.org/2000/svg" xmlns:xlink="http://www.w3.org/1999/xlink" x="0px" y="0px"
	 width="717px" height="800px" viewBox="0 0 717 800" enable-background="new 0 0 717 800" xml:space="preserve">
<g>
	<g>
		<path fill="#C2C963" d="M687.365,607.1c-9.605,8.559-20.025,16.141-27.285,22.303c-16.461,13.994-39.82,31.346-61.512,44.12
			c-32.398,19.054-67.312,38.313-100.557,53.075c-5.236-3.079-11.033-7.218-11.516-13.709c6.121-7.824,5.836-18.689,3.85-28.058
			c4.541-0.199,8.639-1.62,13.178-1.704l0.039,0.207c42.457-9.654,83.771-24.211,123.227-42.615
			c13.219-6.771,25.828-13.503,38.275-21.371C671.432,615.333,679.621,611.479,687.365,607.1z"/>
		<path fill="#4C6619" d="M547.031,523.779c0.404,1.295,0.809,2.549,1.418,3.769c-5.229,1.945-11.15,1.537-16.662,1.783
			c0.73-3.567,3.607-5.798,5.758-8.396C541.029,519.681,544.475,521.507,547.031,523.779z"/>
		<path fill="#4C6619" d="M511.674,519.725c3.975,2.106,7.301,5.675,8.881,9.893c-7.91-0.163-17.031,2.754-24.33-0.651
			C500.807,525.156,504.941,518.71,511.674,519.725z"/>
		<path fill="#4C6619" d="M476.479,524.263c6.73-10.581,21.611-10.3,18.043,4.457c-4.053,1.909-9.039-0.443-13.139,1.461
			C478.713,529.454,477.57,526.534,476.479,524.263z"/>
		<path fill="#4C6619" d="M477.979,491.461c2.189,8.147-4.258,14.84-8.842,20.8c-6.811-5.394-9.164-15.122-12.486-22.868
			C463.223,487.325,471.488,489.635,477.979,491.461z"/>
		<path fill="#4C6619" d="M448.703,469.236c-3.443-9.122-7.055-18.204-9.408-27.611c21.494-4.176,25.344,13.304,12.893,24.778
			C452.227,468.308,450.082,468.632,448.703,469.236z"/>
		<path fill="#4C6619" d="M440.674,413.65c0.975,1.053,1.584,2.511,1.908,3.889c-1.016,4.625-3.73,9.569-8.029,11.8
			c-3.002-4.902-4.543-10.788-6.447-16.18C432.16,412.638,436.904,411.903,440.674,413.65z"/>
		<path fill="#4C6619" d="M412.535,371.316c17.271-3.646,29.842,3.366,20.717,18.733c-2.184,3.729-5.836,7.621-10.012,11.435
			C419.465,391.429,415.291,381.818,412.535,371.316z"/>
		<path fill="#4C6619" d="M412.453,326.994c1.785,7.746-0.447,18.207-5.27,24.373c-5.068-7.583-6.084-17.76-9.242-26.764
			C402.926,323.511,408.234,324.401,412.453,326.994z"/>
		<path fill="#4C6619" d="M401.504,282.028c14.881,8.03,4.262,16.71-9.729,26.681c-3.326-10.176-8.842-20.476-8.678-31.301
			C391.574,278.947,396.318,279.232,401.504,282.028z"/>
		<path fill="#4C6619" d="M383.826,241.4c29.684-8.597,8.918,18.733,0.77,25.058c-0.484,0.162-1.418,0.404-2.23,0.728
			C381.072,258.634,382.734,249.834,383.826,241.4z"/>
		<path fill="#FFFEF5" d="M320.814,74.018c-0.121,0.083-0.24,0.122-0.408,0.162c-16.541-0.566-34.789,2.107-51.166-4.055
			c-7.828-24.043,23.596-49.956,42.615-31.179C322.682,47.016,318.586,62.867,320.814,74.018z"/>
		<path fill="#FFFEF5" d="M282.861,156.979c2.598,7.908,1.137,18.733-3.652,25.018c-6.77-4.016-9.162-13.056-13.863-19.418
			C271.592,161.604,276.66,157.667,282.861,156.979z"/>
		<path fill="#6D9134" d="M70.23,154.547c-9.246-3.445-19.344-5.639-29.195-7.543c-5.802-2.514-12.164-3.405-18.246-5.349
			c-6.57-3.002-16.098-2.638-20.191-9.164c4.055-8.153,10.418-15.736,17.755-21.007c2.392-3.365,5.841-5.801,11.559-8.271
			c16.949-7.341,28.626-3.365,48.093,4.582c10.417,4.257,25.824,14.719,38.559,11.924c12.489-2.756,21.205-13.991,35.883-8.68
			c2.354,0.855,5.111,2.883,8.516,3.041c11.557-6.692,24.207-4.499,36.211-2.352c13.379-5.472,25.791-13.337,38.195-21.652
			c10.299-2.027,20.682-2.594,30.17-6.486c0.848-0.53,1.295-0.728,1.744-0.934c2.635,1.624,5.068,3.651,7.254,5.717
			c15.656,2.638,34.631,0.531,43.871-14.191c0.168-0.04,0.287-0.079,0.408-0.162c0.086,0,0.164,0,0.244,0
			c25.016,19.303,55.832,18.246,78.703,30.209c8.355,4.379,16.83,8.72,19.016,18.493c2.92,13.134-11.15,38.884-18.289,62.928
			c-4.822,16.338-12.891,34.831-16.662,55.753c-1.092,8.434-2.754,17.233-1.461,25.786c-0.771,3.406,0.975,6.652,0.732,10.222
			c-0.164,10.825,5.352,21.125,8.678,31.301c1.785,5.275,3.686,10.826,6.166,15.895c3.158,9.004,4.174,19.181,9.242,26.764
			c-0.445,7.135,3.65,13.094,5.352,19.949c2.756,10.502,6.93,20.112,10.705,30.168c0.688,4.135,3.447,7.825,4.865,11.675
			c1.904,5.392,3.445,11.277,6.447,16.18c1.012,4.139,2.146,8.679,4.742,12.286c2.354,9.407,5.965,18.489,9.408,27.611
			c1.906,6.938,5.473,13.465,7.947,20.156c3.322,7.746,5.676,17.475,12.486,22.868c1.014,4.66,4.664,8.23,7.342,12.002
			c1.092,2.271,2.234,5.191,4.904,5.918c4.1-1.904,9.086,0.448,13.139-1.461c0.527,0.167,1.139,0.208,1.703,0.246
			c7.299,3.405,16.42,0.488,24.33,0.651c3.689,0.365,7.662,0.85,11.232-0.286c5.512-0.246,11.434,0.162,16.662-1.783
			c7.303,1.015,15.129-0.407,21.736-3.447c-10.908-15.085-16.869-40.869-17.52-62.116c-0.564-17.115,3.043-23.035,19.139-30.535
			c27.537-12.898,69.422-24.247,105.465-27.286c-2.998,6.525-19.664,13.134-26.961,17.026
			c-12.367,6.569-25.992,12.893-35.154,23.478c2.838,25.018,19.783,40.548,37.018,53.849c16.746,12.893,26.318,17.801,42.373,34.062
			c9.77,9.932,14.883,18.853,17.273,27.528c4.66,16.908-8.883,33.212-24.453,46.994c-7.744,4.38-15.934,8.233-22.301,12.248
			c-12.447,7.868-25.057,14.6-38.275,21.371c-39.455,18.404-80.77,32.961-123.227,42.615l-0.039-0.207
			c-4.539,0.084-8.637,1.505-13.178,1.704c1.986,9.368,2.271,20.233-3.85,28.058c0.482,6.491,6.279,10.63,11.516,13.709
			c5.592,21.082,11.998,28.949-3.65,40.303c-11.639,8.434-37.588,13.748-54.455,25.913c-1.502-0.286-2.598-1.623-3.65-2.717
			c-0.73-2.677-1.865-5.313-0.854-8.111l-6.123-0.321c-5.84,4.132-8.27,9.565-11.676,12.364
			c-9.609,7.867-16.947-0.448-18.695-18.163c-6.686,0.482-8.348,10.743-15.121,12.204c-8.396-5.561,1.822-16.061-1.947-23.4
			c11.395-10.175,25.264-15.366,40.428-16.094c0.08-2.313-0.285-4.705,0.484-6.979c-0.201-0.155-0.404-0.322-0.609-0.479
			c-12.322-1.91-24.123-3.083-33.734-5.395c-34.303-8.149-43.994-31.14-17.029-60.985c7.135-7.947,14.678-12.689,23.559-20.189
			c-2.027-3.003-4.338-6.898-5.107-10.305l-0.166,0.04c-3.689-10.54-2.756-26.514-2.029-40.829c1.705-34.102-3.887-73.96-6.24-106.6
			h-0.043c-0.162-2.517-0.484-5.03-0.93-7.461c-18.287,13.219-36.252,21.854-36.531,45.775
			c-11.234-1.173-12.49-14.597-15.166-22.381c-5.561,4.542-6.369,13.06-8.723,19.663c-9.121-7.702-13.014-22.34-10.744-34.338
			c-6.201-1.338-11.15,6.28-17.027,7.619c-2.963-12.489,13.055-17.801,15.729-25.586c1.338-3.933-0.281-7.337,0.203-9.447
			c5.719-25.464,43.266-27.325,59.85-55.021c-1.58-3.002-2.068-7.544-2.146-11.558l-0.529,0.043
			c-0.729-28.467-10.868-55.271-13.141-83.448h0.045c-0.609-2.233-1.176-4.546-1.625-6.855l-0.361,0.04
			c-4.258-10.418-7.055-22.385-16.059-30.249c-0.201-0.527-0.57-1.176-0.852-1.909c22.708-46.867,46.547-96.946,39.008-151.041
			l-0.609,0.083c-0.729-3.607-3.16-6.934-5.068-9.852l0.123-0.202c-9.327-5.029-15.408-7.056-23.479-8.759
			c-35.316-7.381-30.006,24.167-59.971,44.199c-0.162,0.281-0.324,0.566-0.486,0.808c-6.201,0.688-11.27,4.625-17.516,5.599
			c-1.863,0.483-3.85,0.562-5.592,1.457c-5.641,0.852-11.32,1.053-17.037,1.131c-4.861,1.142-9.404-1.781-14.105-1.131
			c-3.854-2.146-8.395-2.471-12.654-3.893c-3.525-3.001-7.258-3.69-10.338-5.595c-18.33-11.356-14.475-18.531-36.494-5.6
			c-2.717,1.585-10.014,6.369-11.717,10.221c-11.84,3.489-18.492,13.222-24.898,2.594c-2.187-3.607,0.649-7.097-1.58-13.946
			c-0.812-0.65-1.826-1.663-2.594-2.229c-11.072-3.607-22.425,1.5-32.074,6.771C87.621,153.534,78.988,154.508,70.23,154.547z"/>
		<path fill="#FFFEF5" d="M259.754,164.035c0.805,8.03-1.666,16.18-4.627,23.64c-9.447-0.649-11.801-14.354-12.41-22.508
			C248.434,165.088,254.113,164.886,259.754,164.035z"/>
		<path fill="#FFFEF5" d="M268.508,72.557c0.609,1.338,0.242,2.312-0.449,3.167c-5.146,1.014-10.459,4.094-15.609,2.187
			c-8.107,4.625-18.895,2.882-27.979,4.625c-3.281-1.179-5.471-4.585-5.998-7.868C226.666,52.606,255.453,58.649,268.508,72.557z"/>
		<path fill="#C2C963" d="M99.018,513.396c1.502-4.261,6.244-7.175,10.663-7.341c0.607,8.436,3.608,21.412,14.798,20.722
			c3.086-8.149,0.491-19.948,7.42-27.045c2.314,4.217,6.004,8.192,9.492,11.515c0.242,0.241,0.488,0.488,0.773,0.649
			c0.645,0,1.338,0.085,1.9-0.161c-3.283-16.624,5.885-27.735,9.082-37.43c6.49-19.457-7.498-25.217-21.528-46.219
			c0.733-9.289,7.013-17.603,8.272-27.09c20.598-43.788,44.926-85.802,63.902-130.404c-26.602-30.086-52.957-68.116-46.385-111.424
			c1.703-3.852,9-8.636,11.717-10.221c22.02-12.932,18.164-5.757,36.494,5.6c3.08,1.905,6.812,2.594,10.338,5.595
			c-0.891,2.84,0,5.999-1.416,8.759c0.24,1.295,1.092,2.431,0.934,3.813c0.561,1.782,2.391,2.835,4.252,2.51
			c3.729-2.835,6.898-7.017,8.885-11.19c4.701-0.649,9.244,2.273,14.105,1.131c0.609,8.155,2.963,21.859,12.41,22.508
			c2.961-7.459,5.432-15.61,4.627-23.64c1.742-0.895,3.729-0.974,5.592-1.457c4.701,6.363,7.094,15.403,13.863,19.418
			c4.789-6.284,6.25-17.11,3.652-25.018c0.162-0.242,0.324-0.526,0.486-0.808c29.965-20.032,24.654-51.58,59.971-44.199
			c8.07,1.703,14.152,3.73,23.479,8.759l-0.123,0.202c1.908,2.918,4.34,6.245,5.068,9.852l0.609-0.083
			c7.539,54.095-16.299,104.174-39.008,151.041c0.281,0.733,0.65,1.382,0.852,1.909c9.004,7.864,11.801,19.831,16.059,30.249
			l0.361-0.04c0.449,2.309,1.016,4.622,1.625,6.855h-0.045c2.273,28.177,12.412,54.981,13.141,83.448l0.529-0.043
			c0.078,4.014,0.566,8.556,2.146,11.558c-16.584,27.695-54.131,29.557-59.85,55.021c-0.484,2.11,1.135,5.515-0.203,9.447
			c-2.674,7.785-18.691,13.097-15.729,25.586c5.877-1.339,10.826-8.957,17.027-7.619c-2.27,11.998,1.623,26.636,10.744,34.338
			c2.354-6.604,3.162-15.121,8.723-19.663c2.676,7.784,3.932,21.208,15.166,22.381c0.279-23.922,18.244-32.557,36.531-45.775
			c0.445,2.431,0.768,4.944,0.93,7.461h0.043c2.354,32.64,7.945,72.498,6.24,106.6c-0.727,14.315-1.66,30.289,2.029,40.829
			l0.166-0.04c0.77,3.406,3.08,7.302,5.107,10.305c-8.881,7.5-16.424,12.242-23.559,20.189
			c-26.965,29.846-17.274,52.836,17.029,60.985c9.611,2.312,21.412,3.484,33.734,5.395c0.205,0.157,0.408,0.324,0.609,0.479
			c-0.77,2.274-0.404,4.666-0.484,6.979c-15.164,0.728-29.033,5.919-40.428,16.094c-73.273,8.234-147.676-2.227-216.082-28.096
			c-19.461-14.925-33.814-23.601-44.965-39.577c-12.612-18.121-22.75-50.115-26.643-84.826
			C90.219,579.532,93.221,545.629,99.018,513.396z"/>
		<path fill="#4C6619" d="M269.24,70.125c16.377,6.162,34.625,3.489,51.166,4.055c-9.24,14.723-28.215,16.83-43.871,14.191
			c-2.186-2.066-4.619-4.094-7.254-5.717c-0.449,0.206-0.896,0.404-1.744,0.934c-9.488,3.893-19.871,4.459-30.17,6.486
			c-2.918-5.068-10.258-2.879-12.896-7.54c9.084-1.743,19.871,0,27.979-4.625c5.15,1.908,10.463-1.173,15.609-2.187
			c0.691-0.855,1.059-1.829,0.449-3.167C268.832,71.586,268.994,70.854,269.24,70.125z"/>
		<path fill="#FFFEF5" d="M228.611,164.035c-1.986,4.173-5.156,8.355-8.885,11.19c-1.861,0.325-3.691-0.729-4.252-2.51
			c0.158-1.382-0.693-2.519-0.934-3.813c1.416-2.76,0.525-5.919,1.416-8.759C220.217,161.563,224.758,161.888,228.611,164.035z"/>
		<path fill="#6D9134" d="M104.529,716.54c-1.211-0.403-2.674-0.038-3.604-1.133c-9.978-2.234-19.141-1.784-27.615-4.663
			c-19.098-6.527-27.168-26.967-19.142-48.254c2.8-7.462,9.979-15.244,15.007-22.218c7.461-10.301,15.326-19.71,22.5-28.063
			c0.896-0.039,1.746-0.039,2.475-0.039c3.893,34.711,14.03,66.705,26.643,84.826c11.15,15.977,25.504,24.652,44.965,39.577
			c-13.016,15.368-34.184,14.107-48.375,26.517c-5.836-2.149-6.526-9.003-7.785-14.19c-8.957-0.689-14.271,9.649-19.584,15.61
			c-6.688-4.301-10.502-12.245-12.529-19.585c-4.135-0.77-7.096,3.443-11.023,3.769c-0.611-0.28-1.015-0.648-1.422-1.014
			c2.111-19.459,22.542-25.908,39.008-27.006C104.451,719.34,104.613,718.085,104.529,716.54z"/>
		<path fill="#6D9134" d="M99.952,488.257c-23.073-32.681,13.337-70.96,39.938-87.261c-1.26,9.487-7.539,17.801-8.272,27.09
			c14.03,21.002,28.019,26.762,21.528,46.219c-3.197,9.694-12.365,20.806-9.082,37.43c-0.562,0.246-1.256,0.161-1.9,0.161
			c-0.285-0.161-0.531-0.408-0.773-0.649c-3.488-3.322-7.178-7.298-9.492-11.515c-6.929,7.097-4.334,18.896-7.42,27.045
			c-11.189,0.69-14.19-12.286-14.798-20.722c-4.419,0.166-9.161,3.08-10.663,7.341c-2.554-0.447-4.094,1.904-6.201,2.472
			C86.854,507.233,91.07,493.732,99.952,488.257z"/>
		<path fill="#FFFEF5" d="M96.262,152.358c-0.084,11.598-2.559,25.259-9.934,34.548c-0.975,0-2.396,0.16-3.204-0.57
			c-4.705-10.462-10.177-20.801-12.894-31.789C78.988,154.508,87.621,153.534,96.262,152.358z"/>
		<path fill="#FFFEF5" d="M22.789,141.655c6.082,1.944,12.444,2.834,18.246,5.349c-3.002,8.193-1.339,18.896-9.409,24.412
			c-0.605-0.039-1.338-0.123-1.865-0.364C24.367,162.819,21.612,151.343,22.789,141.655z"/>
		<path fill="#5B7725" d="M437.795,509.303c-1.742,3.729-1.5,7.862,0.527,11.554C459.693,527.102,443.512,505.405,437.795,509.303z
			 M446.717,534.847c-0.527,2.27-0.205,4.336,1.215,6.61C459.611,540.279,451.705,532.086,446.717,534.847z M528.664,567.974
			c-9.936-1.014-22.465-0.932-17.76,7.826c3.445,6.447,17.922,15.407,28.707,4.216C540.828,572.918,535.191,569.555,528.664,567.974
			z M555.104,572.514c-3.285-0.078-5.314,1.822-5.434,6.084c4.297,2.432,7.785,2.312,10.906-1.136
			C559.277,574.827,557.455,573.283,555.104,572.514z M548.41,589.949c-3.73,0.488-6.287,1.178-7.055,5.154
			c3.324,1.579,8.188,2.107,12.002,1.377C553.193,592.949,551.289,590.762,548.41,589.949z M506.199,633.092
			c-1.742,0.488-3.77,1.18-5.107,2.067c3.285,5.395,8.961,5.599,13.463,1.056C511.838,634.352,508.916,633.216,506.199,633.092z
			 M405.967,456.631c-1.625,9.323-6.408,16.947-15.898,25.179c-3.16,2.755-6.404,5.231-9.646,7.583
			c-18.287,13.219-36.252,21.854-36.531,45.775c-0.734-0.079-1.383-0.199-2.029-0.364c-7.705-26.476,6.604-46.79,24.408-64.631
			c9.045-9.047,17.922-18.898,20.639-31.588c1.584-7.42-0.201-31.832-10.664-29.354c3.283-27.979-4.258-51.54-13.828-77.856
			c-3.932-10.827-9.04-21.732-17.07-30.372c-2.598-6.446-5.756-12.647-11.15-17.351c-0.201-0.527-0.57-1.176-0.896-1.909
			c3.652-7.539,7.344-15.122,10.914-22.824c13.417-17.272,24.164-39.249,33.002-54.134c17.035-28.831,36.738-54.739,38.727-88.639
			c1.299,1.91,2.271,4.055,2.836,6.574c2.92,13.134-11.15,38.884-18.289,62.928c-4.822,16.338-12.891,34.831-16.662,55.753
			c-1.092,8.434-2.754,17.233-1.461,25.786c-0.771,3.406,0.975,6.652,0.732,10.222c-0.164,10.825,5.352,21.125,8.678,31.301
			c1.785,5.275,3.686,10.826,6.166,15.895c3.158,9.004,4.174,19.181,9.242,26.764c-0.445,7.135,3.65,13.094,5.352,19.949
			c2.756,10.502,6.93,20.112,10.705,30.168c0.688,4.135,3.447,7.825,4.865,11.675c1.904,5.392,3.445,11.277,6.447,16.18
			c1.012,4.139,2.146,8.679,4.742,12.286c2.354,9.407,5.965,18.489,9.408,27.611c1.906,6.938,5.473,13.465,7.947,20.156
			c3.322,7.746,5.676,17.475,12.486,22.868c1.014,4.66,4.664,8.23,7.342,12.002c1.092,2.271,2.234,5.191,4.904,5.918
			c0.734,2.436,2.27,4.423,3.932,6.285c36.17,12.288,73.312,23.354,112.242,27.252c22.826,2.27,111.506,7.863,97.396-30.736
			c9.488,9.772,14.514,18.57,16.865,27.124c4.66,16.908-8.883,33.212-24.453,46.994c-7.744,4.38-15.934,8.233-22.301,12.248
			c-12.447,7.868-25.057,14.6-38.275,21.371c-39.455,18.404-80.77,32.961-123.227,42.615l-0.039-0.207
			c-4.539,0.084-8.637,1.505-13.178,1.704c1.986,9.368,2.271,20.233-3.85,28.058c0.482,6.491,6.279,10.63,11.516,13.709
			c5.592,21.082,11.998,28.949-3.65,40.303c-11.639,8.434-37.549,13.748-54.416,25.873c7.863-7.262,30.332-23.358,28.463-31.101
			c-1.664-7.056-19.867-10.824-31.219-11.966c-0.041-0.04-0.084-0.04-0.123,0c-1.383-0.325-2.84-0.365-4.256-0.365
			c-0.082,0-0.205,0-0.285,0c-3.486,0.04-7.02,0.448-10.258-0.767c0.08-2.313-0.285-4.705,0.484-6.979
			c-0.201-0.155-0.404-0.322-0.609-0.479c-12.322-1.91-24.123-3.083-33.734-5.395c-10.826-2.558-19.176-6.613-24.736-11.963
			c-2.43-2.269-4.336-4.867-5.674-7.622c20.229,12.567,39.372,11.11,63.215-0.162c27.65-13.056,36.939-35.967,17.514-60.661
			c-7.904-3.808-16.705-5.353-25.344-5.028c3.613-1.781,19.711-3.404,18.049-10.256c-0.041,0.039-0.041,0-0.041,0
			c-2.555-1.219-5.391-2.028-8.314-2.435c5.68-19.461-1.26-38.521-5.92-57.093c-5.674-22.542-20.314-52.75-19.059-77.124
			c0.896-1.052,1.744-2.146,2.559-3.238C411.602,485.133,407.949,471.796,405.967,456.631z"/>
		<path fill="#6D9134" d="M589.973,521.949c-13.99-3.486-24.168-12.731-31.711-24.043c-3.365-11.717-5.227-24.491-5.596-35.922
			c-0.564-17.115,3.043-23.035,19.139-30.535c27.537-12.898,69.422-24.247,105.465-27.286c-0.645,1.378-1.861,2.757-3.525,4.094
			c-22.381,6.973-56.402,10.255-57.17,34.87c-0.492,0.525-0.975,1.014-1.42,1.54c2.838,25.018,19.783,40.548,37.018,53.849
			c16.746,12.893,26.318,17.801,42.373,34.062c0.123,0.12,0.281,0.281,0.408,0.404c14.109,38.6-74.57,33.006-97.396,30.736
			c-38.93-3.897-76.072-14.964-112.242-27.252c-1.662-1.862-3.197-3.85-3.932-6.285c4.1-1.904,9.086,0.448,13.139-1.461
			c0.527,0.167,1.139,0.208,1.703,0.246c7.299,3.405,16.42,0.488,24.33,0.651c3.689,0.365,7.662,0.85,11.232-0.286
			c5.512-0.246,11.434,0.162,16.662-1.783c7.303,1.015,15.129-0.407,21.736-3.447C576.795,524.508,583.486,523.533,589.973,521.949z
			 M584.01,466.038c0.043,1.294-0.199,2.755,0,3.972c3.084-0.812,2.881,0.084,5.066-2.189
			C587.375,466.319,585.877,466.038,584.01,466.038z M566.859,459.139c-0.605,6.653,3.854,10.832,9.855,5.237
			C574.887,459.425,570.875,457.278,566.859,459.139z"/>
		<path fill="#ABAD49" d="M626.789,640.719c13.219-6.771,25.828-13.503,38.275-21.371c6.367-4.015,14.557-7.868,22.301-12.248
			c-9.645,8.559-20.025,16.141-27.285,22.303c-16.461,13.994-39.82,31.346-61.512,44.12
			c-32.398,19.054-67.312,38.313-100.557,53.075c-5.236-3.079-11.033-7.218-11.516-13.709c6.121-7.824,5.836-18.689,3.85-28.058
			c4.541-0.199,8.639-1.62,13.178-1.704l0.039,0.207C546.02,673.68,587.334,659.123,626.789,640.719z"/>
		<path fill="#5B7725" d="M673.744,408.257c-6.082,5.108-17.68,9.853-23.436,12.933c-11.756,6.245-24.654,12.288-33.734,21.938
			C617.342,418.512,651.363,415.229,673.744,408.257z"/>
		<path fill="#3E7711" d="M589.076,467.82c-2.186,2.273-1.982,1.377-5.066,2.189c-0.199-1.217,0.043-2.678,0-3.972
			C585.877,466.038,587.375,466.319,589.076,467.82z"/>
		<path fill="#5B7725" d="M589.973,521.949c-6.486,1.584-13.178,2.559-19.787,2.151c-5.029-6.936-9.041-16.177-11.924-26.194
			C565.805,509.218,575.982,518.463,589.973,521.949z"/>
		<path fill="#3E7711" d="M576.715,464.376c-6.002,5.595-10.461,1.416-9.855-5.237C570.875,457.278,574.887,459.425,576.715,464.376
			z"/>
		<path fill="#305B0A" d="M560.576,577.462c-3.121,3.448-6.609,3.567-10.906,1.136c0.119-4.262,2.148-6.162,5.434-6.084
			C557.455,573.283,559.277,574.827,560.576,577.462z"/>
		<path fill="#305B0A" d="M553.357,596.48c-3.814,0.73-8.678,0.202-12.002-1.377c0.768-3.977,3.324-4.666,7.055-5.154
			C551.289,590.762,553.193,592.949,553.357,596.48z"/>
		<path fill="#4C6619" d="M547.031,523.779c0.404,1.295,0.809,2.549,1.418,3.769c-5.229,1.945-11.15,1.537-16.662,1.783
			c0.73-3.567,3.607-5.798,5.758-8.396C541.029,519.681,544.475,521.507,547.031,523.779z"/>
		<path fill="#305B0A" d="M528.664,567.974c6.527,1.581,12.164,4.944,10.947,12.042c-10.785,11.191-25.262,2.231-28.707-4.216
			C506.199,567.042,518.729,566.96,528.664,567.974z"/>
		<path fill="#4C6619" d="M520.555,529.617c-7.91-0.163-17.031,2.754-24.33-0.651c4.582-3.81,8.717-10.256,15.449-9.241
			C515.648,521.831,518.975,525.399,520.555,529.617z"/>
		<path fill="#305B0A" d="M514.555,636.215c-4.502,4.543-10.178,4.339-13.463-1.056c1.338-0.888,3.365-1.579,5.107-2.067
			C508.916,633.216,511.838,634.352,514.555,636.215z"/>
		<path fill="#4C6619" d="M476.479,524.263c6.73-10.581,21.611-10.3,18.043,4.457c-4.053,1.909-9.039-0.443-13.139,1.461
			C478.713,529.454,477.57,526.534,476.479,524.263z"/>
		<path fill="#4C6619" d="M477.979,491.461c2.189,8.147-4.258,14.84-8.842,20.8c-6.811-5.394-9.164-15.122-12.486-22.868
			C463.223,487.325,471.488,489.635,477.979,491.461z"/>
		<path fill="#6D9134" d="M429.279,781.664c-5.84,4.132-8.27,9.565-11.676,12.364c-9.609,7.867-16.947-0.448-18.695-18.163
			c-6.686,0.482-8.348,10.743-15.121,12.204c-8.396-5.561,1.822-16.061-1.947-23.4c11.395-10.175,25.264-15.366,40.428-16.094
			c3.238,1.215,6.771,0.807,10.258,0.767c0.08,0,0.203,0,0.285,0c1.254,0.083,2.676,0.206,4.256,0.365
			c0.039-0.04,0.082-0.04,0.123,0c11.352,1.142,29.555,4.91,31.219,11.966c1.869,7.742-20.6,23.839-28.463,31.101
			c0,0.04-0.039,0.04-0.039,0.04c-1.502-0.286-2.598-1.623-3.65-2.717c-0.73-2.677-1.865-5.313-0.854-8.111L429.279,781.664z"/>
		<path fill="#4C6619" d="M439.295,441.625c21.494-4.176,25.344,13.304,12.893,24.778c0.039,1.904-2.105,2.229-3.484,2.833
			C445.26,460.114,441.648,451.032,439.295,441.625z"/>
		<path fill="#305B0A" d="M446.717,534.847c4.988-2.761,12.895,5.433,1.215,6.61C446.512,539.183,446.189,537.116,446.717,534.847z"
			/>
		<path fill="#305B0A" d="M437.795,509.303c5.717-3.897,21.898,17.799,0.527,11.554
			C436.295,517.165,436.053,513.031,437.795,509.303z"/>
		<path fill="#4C6619" d="M440.674,413.65c0.975,1.053,1.584,2.511,1.908,3.889c-1.016,4.625-3.73,9.569-8.029,11.8
			c-3.002-4.902-4.543-10.788-6.447-16.18C432.16,412.638,436.904,411.903,440.674,413.65z"/>
		<path fill="#6D9134" d="M385.732,683.737c-1.256,0.976-2.516,1.988-3.932,2.717c3.975,2.717,5.92,2.272,10.746,0.689
			c-0.568-1.134-1.18-2.146-1.465-3.567C389.506,683.537,387.557,683.537,385.732,683.737z M386.26,669.103
			c-2.557,1.944-4.666,4.459-5.838,7.46c5.838,4.379,10.621,0.079,16.135-3.08C395.953,666.303,390.963,666.544,386.26,669.103z
			 M399.924,670.683c-0.039,0-0.039,0.039-0.082,0.083c-0.039,0.078-0.08,0.118-0.119,0.197c-0.404,0.689-0.77,1.505-1.055,2.476
			c4.824,2.27,7.578,1.382,10.66-2.476C406.049,667.681,402.314,668.005,399.924,670.683z M413.383,650.285
			c8.639-0.324,17.439,1.221,25.344,5.028c19.426,24.694,10.137,47.605-17.514,60.661c-23.844,11.272-42.986,12.729-63.215,0.162
			c-5.111-10.906-1.299-25.14,13.381-41.4c7.135-7.947,14.678-12.689,23.559-20.189c0.482-0.369,1.016-0.817,1.537-1.262
			C401.828,651.544,407.588,650.491,413.383,650.285z"/>
		<path fill="#6D9134" d="M432.811,749.342c1.416,0,2.873,0.04,4.256,0.365C435.486,749.548,434.064,749.425,432.811,749.342z"/>
		<path fill="#4C6619" d="M412.535,371.316c17.271-3.646,29.842,3.366,20.717,18.733c-2.184,3.729-5.836,7.621-10.012,11.435
			C419.465,391.429,415.291,381.818,412.535,371.316z"/>
		<path fill="#6D9134" d="M423.076,637.595c2.924,0.406,5.76,1.216,8.314,2.435c0,0,0,0.039,0.041,0
			c1.662,6.852-14.436,8.475-18.049,10.256c-5.795,0.206-11.555,1.259-16.908,3C398.344,640.512,411.482,635.892,423.076,637.595z"
			/>
		<path fill="#6D9134" d="M389.83,644.242l-0.166,0.04c-3.689-10.54-2.756-26.514-2.029-40.829
			c1.34-27.006-1.859-57.619-4.418-85.392c5.148-4.788,10.463-9.408,14.881-14.684c-1.256,24.374,13.385,54.582,19.059,77.124
			c4.66,18.572,11.6,37.632,5.92,57.093c-11.594-1.703-24.732,2.917-26.602,15.69c-0.521,0.444-1.055,0.893-1.537,1.262
			C392.91,651.544,390.6,647.648,389.83,644.242z"/>
		<path fill="#ABAD49" d="M422.143,741.116c0.205,0.157,0.408,0.324,0.609,0.479c-0.77,2.274-0.404,4.666-0.484,6.979
			c-15.164,0.728-29.033,5.919-40.428,16.094c-73.273,8.234-147.676-2.227-216.082-28.096
			c-19.461-14.925-33.814-23.601-44.965-39.577c-4.582-6.566-8.843-14.962-12.533-24.655c0.043-0.158,0.127-0.279,0.166-0.442
			l1.053,0.402c20.274,34.265,74.936,45.538,111.346,53.323c44.076,9.447,87.502,12.084,130.318,1.378
			c4.015-1.013,8.436-1.742,12.529-3.243c5.561,5.35,13.91,9.405,24.736,11.963C398.02,738.033,409.82,739.206,422.143,741.116z"/>
		<path fill="#4C6619" d="M412.453,326.994c1.785,7.746-0.447,18.207-5.27,24.373c-5.068-7.583-6.084-17.76-9.242-26.764
			C402.926,323.511,408.234,324.401,412.453,326.994z"/>
		<path fill="#6D9134" d="M372.352,130.701l-0.609,0.083c-0.729-3.607-3.16-6.934-5.068-9.852l0.123-0.202l8.881-3.976
			c2.957,4.095,15.729,7.707,23.641,1.221c-0.084-2.845-1.664-5.029-3.938-6.492l3.652-7.622c0.24,0.119,0.482,0.246,0.729,0.365
			c6.205,3.243,12.488,6.486,16.18,11.918c-1.988,33.9-21.691,59.808-38.727,88.639c-8.838,14.885-19.584,36.862-33.002,54.134
			C362.904,218.695,378.682,176.12,372.352,130.701z M392.096,129.324c-4.096,0.447-6.812,2.194-7.459,6.529
			c4.988,2.19,10.096,1.382,13.746-2.514c-1.664-2.106-3.809-3.445-6.242-4.015C392.096,129.368,392.096,129.324,392.096,129.324z"
			/>
		<path fill="#425617" d="M398.098,503.378c-4.418,5.275-9.732,9.896-14.881,14.684c-0.688-7.304-1.338-14.438-1.822-21.208h-0.043
			c-0.162-2.517-0.484-5.03-0.93-7.461c3.242-2.352,6.486-4.828,9.646-7.583c9.49-8.231,14.273-15.855,15.898-25.179
			c1.982,15.165,5.635,28.502-5.311,43.509C399.842,501.231,398.994,502.326,398.098,503.378z"/>
		<path fill="#3E7711" d="M399.924,670.683c2.391-2.678,6.125-3.002,9.404,0.28c-3.082,3.857-5.836,4.745-10.66,2.476
			c0.285-0.971,0.65-1.786,1.055-2.476c0.039-0.079,0.08-0.119,0.119-0.197C399.885,670.722,399.885,670.683,399.924,670.683z"/>
		<path fill="#4C6619" d="M401.504,282.028c14.881,8.03,4.262,16.71-9.729,26.681c-3.326-10.176-8.842-20.476-8.678-31.301
			C391.574,278.947,396.318,279.232,401.504,282.028z"/>
		<path fill="#6D9134" d="M258.088,113.877c-13.018,0.043-9.369,10.504,3.771,5.516c-0.08-0.689-0.123-3.042-0.039-3.69
			C260.639,115.053,259.385,114.402,258.088,113.877z M276.535,88.371c15.656,2.638,34.631,0.531,43.871-14.191
			c0.168-0.04,0.287-0.079,0.408-0.162c0.086,0,0.164,0,0.244,0c24.775,19.097,55.186,18.246,77.975,29.844l-3.652,7.622
			c-4.623-2.958-12.203-3.04-16.463,0.243c-3.971,1.18-4.619,3.164-3.24,5.028l-8.881,3.976c-9.327-5.029-15.408-7.056-23.479-8.759
			c-35.316-7.381-30.006,24.167-59.971,44.199c-0.162,0.281-0.324,0.566-0.486,0.808c-6.201,0.688-11.27,4.625-17.516,5.599
			c-1.863,0.483-3.85,0.562-5.592,1.457c-5.641,0.852-11.32,1.053-17.037,1.131c-4.861,1.142-9.404-1.781-14.105-1.131
			c-3.854-2.146-8.395-2.471-12.654-3.893c-3.525-3.001-7.258-3.69-10.338-5.595c-17.598-10.904-14.76-17.961-33.98-7.056
			c-0.811,0.443-1.623,0.934-2.514,1.456c-2.717,1.585-10.014,6.369-11.717,10.221c-11.84,3.489-18.492,13.222-24.898,2.594
			c-2.187-3.607,0.649-7.097-1.58-13.946c-0.812-0.65-1.826-1.663-2.594-2.229c-11.072-3.607-22.425,1.5-32.074,6.771
			c-8.641,1.176-17.273,2.15-26.031,2.189c-9.246-3.445-19.344-5.639-29.195-7.543c-5.802-2.514-12.164-3.405-18.246-5.349
			c-6.57-3.002-16.098-2.638-20.191-9.164c4.055-8.153,10.418-15.736,17.755-21.007c2.392-3.365,5.841-5.801,11.559-8.271
			c16.949-7.341,28.626-3.365,48.093,4.582c10.417,4.257,25.824,14.719,38.559,11.924c12.489-2.756,21.205-13.991,35.883-8.68
			c2.354,0.855,5.111,2.883,8.516,3.041c11.557-6.692,24.207-4.499,36.211-2.352c13.379-5.472,25.791-13.337,38.195-21.652
			c10.299-2.027,20.682-2.594,30.17-6.486c0.848-0.53,1.295-0.728,1.744-0.934C271.916,84.277,274.35,86.305,276.535,88.371z
			 M273.859,110.023c-0.043,0-0.084,0-0.084,0c-1.578,0.167-3.078,0.57-4.701,1.663c3.857,4.301,8.924,5.472,10.705-0.118
			C277.832,110.918,275.889,110.309,273.859,110.023z M365.256,106.74c-1.781,0.931-2.717,2.717-2.596,5.797
			c3.973,0.693,7.541-0.123,10.666-2.514C371.26,107.838,368.051,106.698,365.256,106.74z"/>
		<path fill="#3E7711" d="M378.918,111.727c4.26-3.282,11.84-3.2,16.463-0.243c2.273,1.462,3.854,3.647,3.938,6.492
			c-7.912,6.486-20.684,2.874-23.641-1.221C374.299,114.89,374.947,112.907,378.918,111.727z"/>
		<path fill="#4C6619" d="M383.826,241.4c29.684-8.597,8.918,18.733,0.77,25.058c-0.484,0.162-1.418,0.404-2.23,0.728
			C381.072,258.634,382.734,249.834,383.826,241.4z"/>
		<path fill="#3E7711" d="M392.141,129.324c2.434,0.57,4.578,1.909,6.242,4.015c-3.65,3.896-8.758,4.704-13.746,2.514
			c0.646-4.335,3.363-6.082,7.459-6.529C392.096,129.324,392.096,129.368,392.141,129.324z"/>
		<path fill="#C2C963" d="M357.998,716.137c1.338,2.755,3.245,5.354,5.674,7.622c-4.094,1.501-8.514,2.23-12.529,3.243
			c-42.816,10.706-86.242,8.069-130.318-1.378c-36.41-7.785-91.071-19.059-111.346-53.323l-1.053-0.402
			c-0.039,0.163-0.123,0.284-0.166,0.442c-6.605-17.027-11.633-38.028-14.109-60.171c-3.729-30.855-1.254-62.812,3.972-93.42
			c2.76,9.364,7.343,28.664,16.87,28.543c8.314-0.079,16.302-19.867,20.273-24.654c1.299,3.366,3.976,4.221,5.758,6.854
			c5.393-4.745,2.027-11.393,0.53-18.085c0.202,0.207,0.404,0.365,0.61,0.487c0.645,0,1.338,0.085,1.9-0.161
			c-3.283-16.624,5.885-27.735,9.082-37.43c6.49-19.457-7.498-25.217-21.528-46.219c0.733-9.289,7.013-17.603,8.272-27.09
			c20.559-43.669,44.805-85.596,63.785-130.08c2.834,10.344,7.66,18.937,18.201,23.641c9.975,4.501,31.469,4.222,16.951-9.69
			c10.906-0.729,22.584,0.891,31.387-4.011c-18.738-8.557-39.131-15.815-57.379-25.469c-25.627-13.542-38.643-34.34-53.115-58.019
			c-3.248-12.164-4.34-24.939-2.312-38.2c1.703-3.852,9-8.636,11.717-10.221c0.891-0.522,1.703-1.013,2.514-1.456
			c1.783,17.114,9.975,55.753,25.826,57.416c11.396,1.177,37.959-19.221,47.279-28.099c1.746,5.591,4.828,10.501,10.383,10.866
			c2.961-7.459,5.432-15.61,4.627-23.64c1.742-0.895,3.729-0.974,5.592-1.457c4.701,6.363,7.094,15.403,13.863,19.418
			c4.789-6.284,6.25-17.11,3.652-25.018c0.162-0.242,0.324-0.526,0.486-0.808c29.965-20.032,24.654-51.58,59.971-44.199
			c8.07,1.703,14.152,3.73,23.479,8.759l-0.123,0.202c1.908,2.918,4.34,6.245,5.068,9.852l0.609-0.083
			c6.33,45.419-9.447,87.994-28.139,128.217c-8.719,11.27-18.57,20.598-29.766,24.653c10.26,6.043,20.479,6.526,30.086,16.544
			c0.287,0.281,0.568,0.567,0.812,0.887c1.742,4.301,3.203,8.72,4.908,12.897l0.361-0.04c0.449,2.309,1.016,4.622,1.625,6.855
			h-0.045c2.273,28.177,12.412,54.981,13.141,83.448l0.529-0.043c0.078,4.014,0.566,8.556,2.146,11.558
			c-16.584,27.695-54.131,29.557-59.85,55.021c-0.484,2.11,1.135,5.515-0.203,9.447c-2.674,7.785-18.691,13.097-15.729,25.586
			c5.877-1.339,10.826-8.957,17.027-7.619c-1.535,8.065-0.285,17.351,3.531,24.89c-0.611,10.83,5.188,18.817,11.191,26.966
			c1.779,2.394,3.08,7.302,6.486,8.516c6.65,2.478,6.523-3.564,9.609-3.082c4.377,0.61,14.148,9.979,19.301,6.614
			c4.377-2.842,4.865-19.02,7.582-24.368c3.932-7.706,9.975-13.749,16.258-19.586c2.559,27.772,5.758,58.386,4.418,85.392
			c-0.727,14.315-1.66,30.289,2.029,40.829l0.166-0.04c0.77,3.406,3.08,7.302,5.107,10.305c-8.881,7.5-16.424,12.242-23.559,20.189
			C356.699,690.997,352.887,705.23,357.998,716.137z"/>
		<path fill="#3E7711" d="M386.26,669.103c4.703-2.559,9.693-2.8,10.297,4.38c-5.514,3.159-10.297,7.459-16.135,3.08
			C381.594,673.562,383.703,671.047,386.26,669.103z"/>
		<path fill="#3E7711" d="M391.082,683.576c0.285,1.421,0.896,2.434,1.465,3.567c-4.826,1.583-6.771,2.027-10.746-0.689
			c1.416-0.729,2.676-1.741,3.932-2.717C387.557,683.537,389.506,683.537,391.082,683.576z"/>
		<path fill="#6D9134" d="M327.383,455.735c-2.229,0.815-3.443,2.597-3.205,6.002c5.678,1.782,11.475,0.651,13.305-4.944
			c-2.715-1.825-5.678-2.19-8.717-1.462c-0.041,0-0.08,0-0.08,0C328.232,455.453,327.787,455.576,327.383,455.735z M350.615,313.86
			l-0.361,0.04c-1.705-4.178-3.166-8.597-4.908-12.897c8.031,8.64,13.138,19.545,17.07,30.372
			c9.57,26.316,17.111,49.876,13.828,77.856c10.463-2.478,12.248,21.935,10.664,29.354c-2.717,12.689-11.594,22.541-20.639,31.588
			c-17.805,17.841-32.113,38.155-24.408,64.631c-9.369-2.511-10.629-14.715-13.137-22.017c-5.561,4.542-6.369,13.06-8.723,19.663
			c-3-2.509-5.391-5.757-7.213-9.448c-3.816-7.539-5.066-16.824-3.531-24.89c-6.201-1.338-11.15,6.28-17.027,7.619
			c-2.963-12.489,13.055-17.801,15.729-25.586c1.338-3.933-0.281-7.337,0.203-9.447c5.719-25.464,43.266-27.325,59.85-55.021
			c-1.58-3.002-2.068-7.544-2.146-11.558l-0.529,0.043c-0.729-28.467-10.868-55.271-13.141-83.448h0.045
			C351.631,318.481,351.064,316.168,350.615,313.86z M337.439,464.495h-0.041c-0.85,0.854-1.662,1.785-2.309,2.676
			c2.836,0.608,6.488,0.608,9.324,0C342.104,462.873,340.117,463.928,337.439,464.495z"/>
		<path fill="#919136" d="M381.352,496.854h0.043c0.484,6.77,1.135,13.904,1.822,21.208c-6.283,5.837-12.326,11.88-16.258,19.586
			c-2.717,5.349-3.205,21.526-7.582,24.368c-5.153,3.364-14.924-6.004-19.301-6.614c-3.086-0.482-2.959,5.56-9.609,3.082
			c-3.406-1.214-4.707-6.122-6.486-8.516c-6.004-8.148-11.803-16.136-11.191-26.966c1.822,3.691,4.213,6.939,7.213,9.448
			c2.354-6.604,3.162-15.121,8.723-19.663c2.508,7.302,3.768,19.506,13.137,22.017c0.646,0.165,1.295,0.285,2.029,0.364
			c0.279-23.922,18.244-32.557,36.531-45.775C380.867,491.823,381.189,494.337,381.352,496.854z"/>
		<path fill="#3E7711" d="M365.256,106.74c2.795-0.042,6.004,1.098,8.07,3.283c-3.125,2.392-6.693,3.207-10.666,2.514
			C362.539,109.457,363.475,107.671,365.256,106.74z"/>
		<path fill="#ABAD49" d="M334.195,283.651c5.395,4.704,8.553,10.905,11.15,17.351c-0.244-0.32-0.525-0.605-0.812-0.887
			c-9.607-10.018-19.826-10.501-30.086-16.544c11.195-4.055,21.047-13.383,29.766-24.653c-3.57,7.702-7.262,15.285-10.914,22.824
			C333.625,282.476,333.994,283.125,334.195,283.651z"/>
		<path fill="#3E7711" d="M344.414,467.171c-2.836,0.608-6.488,0.608-9.324,0c0.646-0.891,1.459-1.822,2.309-2.676h0.041
			C340.117,463.928,342.104,462.873,344.414,467.171z"/>
		<path fill="#3E7711" d="M328.766,455.331c3.039-0.729,6.002-0.363,8.717,1.462c-1.83,5.596-7.627,6.727-13.305,4.944
			c-0.238-3.405,0.977-5.187,3.205-6.002c0.404-0.159,0.85-0.282,1.303-0.404C328.686,455.331,328.725,455.331,328.766,455.331z"/>
		<path fill="#FFFEF5" d="M320.814,74.018c-0.121,0.083-0.24,0.122-0.408,0.162c-16.541-0.566-34.789,2.107-51.166-4.055
			c-7.828-24.043,23.596-49.956,42.615-31.179C322.682,47.016,318.586,62.867,320.814,74.018z"/>
		<path fill="#4C6619" d="M269.24,70.125c16.377,6.162,34.625,3.489,51.166,4.055c-9.24,14.723-28.215,16.83-43.871,14.191
			c-2.186-2.066-4.619-4.094-7.254-5.717c-0.449,0.206-0.896,0.404-1.744,0.934c-9.488,3.893-19.871,4.459-30.17,6.486
			c-2.918-5.068-10.258-2.879-12.896-7.54c9.084-1.743,19.871,0,27.979-4.625c5.15,1.908,10.463-1.173,15.609-2.187
			c0.691-0.855,1.059-1.829,0.449-3.167C268.832,71.586,268.994,70.854,269.24,70.125z"/>
		<path fill="#FFFEF5" d="M282.861,156.979c2.598,7.908,1.137,18.733-3.652,25.018c-6.77-4.016-9.162-13.056-13.863-19.418
			C271.592,161.604,276.66,157.667,282.861,156.979z"/>
		<path fill="#3E7711" d="M279.779,111.568c-1.781,5.59-6.848,4.419-10.705,0.118c1.623-1.092,3.123-1.496,4.701-1.663
			c0,0,0.041,0,0.084,0C275.889,110.309,277.832,110.918,279.779,111.568z"/>
		<path fill="#FFFEF5" d="M252.449,77.91c-8.107,4.625-18.895,2.882-27.979,4.625c-3.281-1.179-5.471-4.585-5.998-7.868
			c8.193-22.061,36.98-16.018,50.035-2.11c0.609,1.338,0.242,2.312-0.449,3.167C262.912,76.737,257.6,79.818,252.449,77.91z"/>
		<path fill="#3E7711" d="M261.82,115.702c-0.084,0.648-0.041,3.001,0.039,3.69c-13.141,4.989-16.789-5.472-3.771-5.516
			C259.385,114.402,260.639,115.053,261.82,115.702z"/>
		<path fill="#FFFEF5" d="M244.744,176.809c-1.211-3.936-1.781-8.276-2.027-11.643c5.717-0.078,11.396-0.28,17.037-1.131
			c0.805,8.03-1.666,16.18-4.627,23.64C249.572,187.31,246.49,182.399,244.744,176.809z"/>
		<path fill="#ABAD49" d="M203.469,270.228c-18.326-20.797-36.533-45.371-43.748-72.859c14.473,23.678,27.488,44.477,53.115,58.019
			c18.248,9.654,38.641,16.912,57.379,25.469c-8.803,4.902-20.48,3.283-31.387,4.011c14.518,13.912-6.977,14.191-16.951,9.69
			c-10.541-4.704-15.367-13.297-18.201-23.641c0.039-0.118,0.078-0.197,0.117-0.324
			C203.676,270.473,203.592,270.354,203.469,270.228z"/>
		<path fill="#919136" d="M242.717,165.166c0.246,3.367,0.816,7.707,2.027,11.643c-9.32,8.878-35.883,29.275-47.279,28.099
			c-15.852-1.663-24.043-40.302-25.826-57.416c19.221-10.905,16.383-3.849,33.98,7.056c3.08,1.905,6.812,2.594,10.338,5.595
			c-0.891,2.84,0,5.999-1.416,8.759c0.24,1.295,1.092,2.431,0.934,3.813c0.561,1.782,2.391,2.835,4.252,2.51
			c3.729-2.835,6.898-7.017,8.885-11.19C233.312,163.385,237.855,166.308,242.717,165.166z"/>
		<path fill="#FFFEF5" d="M228.611,164.035c-1.986,4.173-5.156,8.355-8.885,11.19c-1.861,0.325-3.691-0.729-4.252-2.51
			c0.158-1.382-0.693-2.519-0.934-3.813c1.416-2.76,0.525-5.919,1.416-8.759C220.217,161.563,224.758,161.888,228.611,164.035z"/>
		<path fill="#6D9134" d="M141.554,511.408c-0.04-0.039-0.123-0.119-0.163-0.162c-3.488-3.322-7.178-7.298-9.492-11.515
			c-6.929,7.097-4.334,18.896-7.42,27.045c-11.189,0.69-14.19-12.286-14.798-20.722c-4.419,0.166-9.161,3.08-10.663,7.341
			c-2.554-0.447-4.094,1.904-6.201,2.472c-4.545-6.604-3.168-16.054,1.703-22.542c10.826,3.488,28.016,11.677,18.73-6.284
			c-6.004-11.599-16.378-15.935-20.235-26.887c3.449-24.247,27.694-47.438,46.876-59.158c-1.26,9.487-7.539,17.801-8.272,27.09
			c14.03,21.002,28.019,26.762,21.528,46.219c-3.197,9.694-12.365,20.806-9.082,37.43c-0.562,0.246-1.256,0.161-1.9,0.161
			C141.958,511.773,141.756,511.615,141.554,511.408z M108.869,438.342c-0.768,0.691-1.417,1.498-1.944,2.636
			c4.827,2.353,5.714,1.987,9.571-1.056C114.021,436.838,111.95,437.489,108.869,438.342z M111.301,448.398
			c-2.835,0.565-5.188,1.702-7.135,4.216c2.193,5.191,6.938,6.043,11.965,3.651C116.693,451.481,114.425,448.684,111.301,448.398z"
			/>
		<path fill="#5B7725" d="M104.529,716.54c-1.211-0.403-2.674-0.038-3.604-1.133c-9.978-2.234-19.141-1.784-27.615-4.663
			c-9.57-3.247-16.342-10.018-19.746-18.572c8.797,7.258,25.141,9.974,33.898,6.284c11.959-5.024,16.742-15.329,20.797-26.115
			c3.69,9.693,7.951,18.089,12.533,24.655c11.15,15.977,25.504,24.652,44.965,39.577c-13.016,15.368-34.184,14.107-48.375,26.517
			c-1.252-0.484-2.265-1.175-3.121-2.026c5.964-8.231,20.195-22.666,19.99-26.888c-0.324-7.499-11.477-10.826-21.811-11.996
			c-1.909-0.246-3.773-0.408-5.561-0.491c0,0,0,0-0.039,0c-0.931-0.237-1.861-0.562-2.795-1.015
			C104.451,719.34,104.613,718.085,104.529,716.54z"/>
		<path fill="#919136" d="M141.554,511.408c1.497,6.692,4.862,13.34-0.53,18.085c-1.782-2.634-4.459-3.488-5.758-6.854
			c-3.972,4.787-11.959,24.575-20.273,24.654c-9.527,0.121-14.11-19.179-16.87-28.543c0.286-1.786,0.571-3.571,0.896-5.354
			c1.502-4.261,6.244-7.175,10.663-7.341c0.607,8.436,3.608,21.412,14.798,20.722c3.086-8.149,0.491-19.948,7.42-27.045
			c2.314,4.217,6.004,8.192,9.492,11.515C141.431,511.289,141.514,511.369,141.554,511.408z"/>
		<path fill="#6D9134" d="M106.842,721.688c0.039,0,0.039,0,0.039,0c1.83,0.408,3.691,0.491,5.561,0.491
			c10.334,1.17,21.486,4.497,21.811,11.996c0.205,4.222-14.026,18.656-19.99,26.888c-3.04-3.001-3.689-8.108-4.664-12.164
			c-8.957-0.689-14.271,9.649-19.584,15.61c-6.688-4.301-10.502-12.245-12.529-19.585c-4.135-0.77-7.096,3.443-11.023,3.769
			c-0.611-0.28-1.015-0.648-1.422-1.014c2.111-19.459,22.542-25.908,39.008-27.006C104.98,721.126,105.911,721.451,106.842,721.688z
			"/>
		<path fill="#3E7711" d="M111.301,448.398c3.124,0.285,5.393,3.083,4.83,7.867c-5.027,2.392-9.771,1.54-11.965-3.651
			C106.113,450.101,108.466,448.964,111.301,448.398z"/>
		<path fill="#5B7725" d="M99.952,488.257c-6.446-9.124-8.231-18.694-6.938-28.103c3.857,10.952,14.231,15.288,20.235,26.887
			c9.285,17.961-7.904,9.772-18.73,6.284C96.016,491.298,97.842,489.551,99.952,488.257z"/>
		<path fill="#3E7711" d="M108.869,438.342c3.081-0.853,5.152-1.504,7.627,1.58c-3.857,3.043-4.744,3.408-9.571,1.056
			C107.452,439.84,108.102,439.033,108.869,438.342z"/>
		<path fill="#6D9134" d="M112.441,722.18c-1.869,0-3.73-0.083-5.561-0.491C108.668,721.771,110.532,721.934,112.441,722.18z"/>
		<path fill="#6D9134" d="M59.809,666.789c-1.014,4.744,4.989,9.125,8.553,0.04c-3.238-4.497-5.146-2.598-8.391,0L59.809,666.789z
			 M79.678,644.282c-4.869,1.462-9.246,4.182-8.518,9.979C88.596,657.343,88.516,642.747,79.678,644.282z M108.26,672.341
			c-4.055,10.786-8.838,21.091-20.797,26.115c-8.758,3.689-25.102,0.974-33.898-6.284c-3.406-8.596-3.406-19.015,0.604-29.682
			c2.8-7.462,9.979-15.244,15.007-22.218c7.461-10.301,15.326-19.71,22.5-28.063c0.896-0.039,1.746-0.039,2.475-0.039
			C96.627,634.312,101.654,655.313,108.26,672.341z"/>
		<path fill="#FFFEF5" d="M96.262,152.358c-0.084,11.598-2.559,25.259-9.934,34.548c-0.975,0-2.396,0.16-3.204-0.57
			c-4.705-10.462-10.177-20.801-12.894-31.789C78.988,154.508,87.621,153.534,96.262,152.358z"/>
		<path fill="#3E7711" d="M79.678,644.282c8.838-1.535,8.918,13.061-8.518,9.979C70.432,648.464,74.809,645.744,79.678,644.282z"/>
		<path fill="#3E7711" d="M59.971,666.829c3.244-2.598,5.152-4.497,8.391,0c-3.563,9.085-9.566,4.704-8.553-0.04L59.971,666.829z"/>
		<path fill="#FFFEF5" d="M41.035,147.003c-3.002,8.193-1.339,18.896-9.409,24.412c-0.605-0.039-1.338-0.123-1.865-0.364
			c-5.394-8.232-8.148-19.708-6.972-29.396C28.871,143.599,35.233,144.489,41.035,147.003z"/>
	</g>
	<g>
		<path fill-rule="evenodd" clip-rule="evenodd" d="M288.422-0.169c7.678,0.103,9.182,6.384,14.596,8.759
			C297.258,10.431,290.184,5.217,288.422-0.169z"/>
		<path fill-rule="evenodd" clip-rule="evenodd" d="M246.572,14.427c-7.877,2.503-12.828,7.928-13.623,17.518
			c-5.182-9.131,3.443-17.668,9.732-21.41C245.156,10.653,246.455,11.949,246.572,14.427z"/>
		<path fill-rule="evenodd" clip-rule="evenodd" d="M286.473,62.111c0.855,4.534-3.209-0.658-2.918,1.948
			c-0.596,3.837,5.34,1.139,7.783,1.944c0.271,5.571-6.828,5.746-9.732,2.918c0-1.944,0-3.889,0-5.837
			C282.74,62.27,284.217,61.801,286.473,62.111z"/>
		<path fill-rule="evenodd" clip-rule="evenodd" d="M72.381,118.553c3.088,0.883-1.129,5.956-1.949,6.811
			c-4.131,4.339-14.449,6.216-18.488,9.733c1.873,3.223,10.301,2.067,13.626,0.975c3.156-0.087,0.681-5.805,4.862-4.867
			c1.604,10.085-19.617,10.625-21.406,2.919C57.301,129.427,68.496,127.645,72.381,118.553z"/>
		<path fill-rule="evenodd" clip-rule="evenodd" d="M370.162,127.312c0.717-1.734,1.77-0.143,2.924,0
			c7.281,64.734-18.34,110.688-38.93,153.757c9.047,8.145,12.646,21.739,17.518,34.062c-3.592,0.69-3.748-5.052-4.867-7.784
			c-3.635-8.91-8.396-18.849-14.594-25.303C351.508,236.359,380.379,194.477,370.162,127.312z"/>
		<path fill-rule="evenodd" clip-rule="evenodd" d="M190.131,237.279c11.93,2.87,26.604,8.663,43.791,9.728
			c20.377,1.268,42.596,1.025,63.254,0c-15.795,4.476-45.461,3.731-67.146,1.948C214.32,247.665,200.027,242.47,190.131,237.279z"/>
		<path fill-rule="evenodd" clip-rule="evenodd" d="M318.586,243.118c0.596,3.833-5.342,1.141-7.783,1.944
			C308.531,243.356,317.406,244.601,318.586,243.118z"/>
		<path fill-rule="evenodd" clip-rule="evenodd" d="M212.512,300.536c16.434,6.597,37.23,8.83,58.393,10.699
			c-13.135,2.495-26.793-0.142-38.93-2.914C224.656,306.642,216.473,305.532,212.512,300.536z"/>
		<path fill-rule="evenodd" clip-rule="evenodd" d="M350.699,318.05c1.135-0.158,1.73,0.217,1.949,0.97
			c2.89,31.171,12.867,55.254,13.621,88.56c-4.268-10.029-2.807-22.122-4.863-34.057c-1.824-10.589-6.065-20.604-7.79-31.144
			C352.326,334.455,353.203,325.355,350.699,318.05z"/>
		<path fill-rule="evenodd" clip-rule="evenodd" d="M166.777,359.892c24.787,7.001,50.074,13.503,76.879,18.492
			c-19.555-0.19-40.236-6.347-59.365-11.676C178.16,365.001,171.137,364.186,166.777,359.892z"/>
		<path fill-rule="evenodd" clip-rule="evenodd" d="M275.77,382.276c-1.164,3.505-10.893,0.035-14.6-0.97
			C253.734,379.276,270.443,381.782,275.77,382.276z"/>
		<path fill-rule="evenodd" clip-rule="evenodd" d="M285.498,383.251c1.299,0,2.6,0,3.893,0c0,0.646,0,1.294,0,1.944
			c-1.293,0-2.594,0-3.893,0C285.498,384.545,285.498,383.896,285.498,383.251z"/>
		<path fill-rule="evenodd" clip-rule="evenodd" d="M401.305,392.006c3.295,4.888,7.754,8.479,8.76,13.629
			c2.277,11.705-4.225,16.789-4.867,24.331c-1.088,12.757,5.365,18.677,2.92,31.137c-2.654,13.52-17.324,21.352-28.223,29.192
			c-15.918,11.455-34.77,18.469-34.061,46.714c-12.697-0.281-15.99-9.959-16.545-22.386c-4,5.073-8.945,13.329-6.811,21.414
			c-4.717-1.907-10.082-9.186-12.65-15.573c-2.438-6.057-3.521-13.46-1.945-21.409c-6.473-1.269-9.43,9.376-17.516,9.733
			c-3.535-13.666,8.562-19.927,15.568-26.278c-2.574-14.907,4.236-20.545,11.676-27.248c4.998-4.491,6.99-6.75,13.625-10.702
			c14.422-8.585,31.314-19.22,38.926-36.009c2.35,3.536-1.953,9.197-3.893,11.682c-3.41,4.361-9.305,10.184-13.621,13.621
			c-8.154,6.501-19.078,10.557-27.252,16.544c-7.52,5.511-12.785,10.982-15.568,21.41c-0.189,3.758-0.031,7.17,0.975,9.729
			c-7.75,4.901-14.691,10.611-17.52,20.44c4.547-0.339,12.287-5.869,18.492-7.786c-4.506,14.423,0.688,27.692,6.811,36.977
			c4.076-6.953,2.396-19.665,11.678-21.406c1.084,10.92,3.781,20.227,12.65,23.355c3.248-9.719,3.475-18.162,9.734-25.304
			c7.133-8.143,19.768-13.057,29.195-20.432c5.986-4.692,15.363-12.847,19.461-19.467c11.121-17.971-2.498-50.298-7.783-65.201
			c3.809,2.052,3.404,7.278,4.861,10.706c1.576,3.698,4.816,6.543,4.867,10.705C412.092,415.63,406.418,399.917,401.305,392.006z"/>
		<path fill-rule="evenodd" clip-rule="evenodd" d="M168.723,464.991c31.699,9.701,69.707,10.345,108.018,15.574
			c1.432,0.195,5.871-1.627,5.84,1.944c-37.139-1.341-71.881-4.504-103.156-12.646C176.082,468.992,170.916,468.137,168.723,464.991
			z"/>
		<path fill-rule="evenodd" clip-rule="evenodd" d="M379.895,494.191c1.133-0.158,1.73,0.215,1.949,0.977
			c2.625,21.129,4.098,43.349,5.836,66.17c2.27,29.754-2.443,59.301,2.92,85.638c-8.84-21.941-2.385-55.523-4.863-86.612
			C383.914,537.544,382.445,513.642,379.895,494.191z"/>
		<path fill-rule="evenodd" clip-rule="evenodd" d="M128.822,559.39c16.73,0.843,33.1,5.692,49.633,8.76
			c51.195,9.495,104.01,12.15,165.436,11.68c-3.199,3.665-9.814,1.89-13.627,1.945C256.438,582.848,188.211,574.064,128.822,559.39z
			"/>
		<path fill-rule="evenodd" clip-rule="evenodd" d="M499.592,684.933c1.143-2.573,5.732-3.389,7.789-3.896
			c42.412-10.438,85.252-24.66,121.645-42.82c1.652-0.361,1.834,0.758,1.941,1.945C590.191,658.102,548.02,674.645,499.592,684.933z
			"/>
		<path fill-rule="evenodd" clip-rule="evenodd" d="M131.74,660.606c2.709,1.503,8.232,0.194,8.76,3.887
			C138.365,662.41,131.891,664.666,131.74,660.606z"/>
		<path fill-rule="evenodd" clip-rule="evenodd" d="M167.746,670.331c45.781,10.443,97.285,10.841,152.789,12.654
			c2.447,0.078,7.32-1.773,8.754,1.947c-53.969-0.436-108.172-1.48-153.758-11.681C173.369,672.769,168.744,673.53,167.746,670.331z
			"/>
		<path fill-rule="evenodd" clip-rule="evenodd" d="M74.324,683.959c-6.094-4.576-10.422,1.964-13.621,5.837
			c3.983,5.567,9.605,4.372,17.514,4.862c0.534-4.093-7.607,0.477-6.811-3.889c5.203-0.34,9.305,0.428,12.651,1.949
			c-3.429,7.404-23.438,4.419-25.304-1.949C59.286,684.679,69.656,676.649,74.324,683.959z"/>
		<path fill-rule="evenodd" clip-rule="evenodd" d="M393.521,699.527c1.223,0.239,0.98,1.933,0,1.948
			c-9.008,1.695-15.047,6.361-19.467,12.649c5.947,5.536,21.961,4.442,28.221,0c-2.941-2.25-10.033-0.34-14.596-0.976
			c3.223-4.456,13.404-2.676,17.518,0c-3.635,8.746-27.504,9.313-33.086,1.949C375.344,706.007,383.732,702.071,393.521,699.527z"/>
		<path fill-rule="evenodd" clip-rule="evenodd" d="M551.17,526.305c5.807-0.036,9.381-2.295,14.596-2.922
			c-7.381-15.648-19.1-45.214-16.543-70.065c2-19.425,22.57-24.065,39.898-30.167c18.199-6.403,37.357-12.271,58.391-16.543
			c8.043-1.636,16.219-5.177,22.379-5.842c5.205-0.558,10.492-1.381,15.576,2.921c-5.164,4.793-12.438,6.718-18.492,9.733
			c-17.086,8.514-36.199,18.2-49.633,32.113c2.363,17.788,11.389,28.106,22.387,38.925c4.371,4.3,8.131,9.618,11.676,12.653
			c3.131,2.679,7.576,3.51,10.703,5.84c3.311,2.458,6.033,5.982,9.732,8.76c6.646,4.979,14.412,9.62,21.412,15.568
			c10.93,9.281,16.422,21.01,23.354,36.006c-0.551,23.585-15.398,33.493-30.17,45.735c-7.949,6.59-16.785,13.215-24.328,19.466
			c-46.713,38.724-107.762,74.417-162.516,101.209c4.65,6.698,7.701,15.007,8.758,25.301c-11.08,17.431-35.082,22.097-54.494,31.14
			c-6.422,2.996-11.176,8.84-18.492,7.786c-2.859-2.47-3.611-14.618,1.949-14.595c-3.479,4.679,2.352,6.977,1.943,11.682
			c3.785-0.531,6.086-5.607,9.732-7.786c7.18-4.3,17.324-4.72,26.273-7.792c12.137-4.158,20.727-10.408,27.25-18.487
			c-1.883-26.987-16.789-40.949-31.141-55.468c4.354-1.511,9.012,9.83,11.68,9.726c8.693-0.315,7.26-23.708,5.836-34.053
			c5.367,9.25,5.715,31.022-0.973,38.925c2.234,2.63,4.41,5.321,7.785,6.811c27.045-9.274,51.273-23.49,75.906-36.01
			c24.291-12.339,47.836-26.744,67.146-44.766c13.281-6.358,24.715-18.429,37.957-29.192c10.967-8.924,40.07-30.553,33.086-52.553
			c-3.402-10.708-11.473-22.067-19.465-30.171c-6.396-6.476-11.809-9.467-19.463-15.569c-3.17-2.521-5.545-6.343-8.76-8.758
			c-5.654-4.249-11.293-6.87-16.545-11.674c-13.387-12.258-32.424-26.158-33.082-48.658c5.197-11.53,18.65-15.909,29.191-21.408
			c11.152-5.826,22.109-12.685,34.061-16.546c-43.434-0.69-83.957,15.099-115.805,32.114c-10.527,15.104-2.738,49.312,3.893,67.146
			c2.389,6.425,5.854,12.164,9.73,14.599c9.148-0.451,19.004-1.23,28.223-3.893c-0.557,2.139-4.082,3.088-5.836,3.893
			c-25.523,11.732-75.68,9.265-111.916,8.754c-0.389,4.627,6.73,10.126,9.732,14.603c-4.752,0.885-5.439-4.266-7.785-6.816
			c-2.344-2.545-6.379-4.767-8.758-7.786c-2.945-3.721-4.801-9.298-7.785-13.621c-2.859-4.14-6.459-7.492-8.76-11.677
			c-4.965-9.036-7.508-19.825-11.678-30.17c-15.736-39.01-31.127-81.736-43.791-123.587c-4.861-16.072-11.062-30.921-16.543-46.712
			c-0.959-2.753-0.832-6.043-1.947-8.76c-1.498-3.644-4.357-5.82-4.863-11.673c-1.914-21.989-0.191-43.681,4.863-63.256
			c5.139-19.907,10.85-39.916,18.49-57.417c0-1.944,0-3.893,0-5.84c6.648-11.492,16.338-31.836,5.838-43.788
			c-6.846-7.8-23.441-12.469-37.949-17.518c-11.494-4-31.305-5.884-41.85-11.682c-4.564-2.506-6.32-6.668-10.701-7.784
			c-4.012,1.861-5.287,6.256-9.732,8.759c-8.393,4.728-21.482,5.425-33.09,3.896c7.85,9.115,28.072,5.813,37.955,0.97
			c-4.764,3.932-12.318,7.63-19.463,7.789c-11.395,0.242-20.662-6.648-25.301-13.63c-8.98,7.247-20.189,12.252-32.115,16.545
			c-1.734-3.445,3.83-2.99,5.838-3.889c6.521-2.926,16.777-7.06,21.408-12.656c-5.578,3.861-11.654,3.212-17.518,4.871
			c-17.43,4.921-29.955,16.766-47.684,21.407c1.684,2.534,8.586-0.151,8.762,3.893c-14.916-1.984-31.549-6.942-44.768,0
			c1.949,1.944,6.076,1.714,7.785,3.893c-8.717,1.936-12.545-6.067-20.434-6.811c-14.396-1.363-27.696,13.265-46.711,9.733
			c-21.844-10.059-59.797-31.869-83.693-10.708c-1.221,5.267-1.363,11.61-2.918,16.544c-3.51,0.261-6.732,0.246-5.842-3.892
			c3.152-1.201,0.744,3.148,3.896,1.944c2.598-2.265,1.033-8.696,2.918-11.674c-5.096,2.052-10.948,11.75-14.6,18.489
			c11.713,6.506,27.018,9.46,41.847,13.625c11.962,3.357,26.439,9.555,44.765,5.836c13.896-2.819,25.914-16.084,40.873-5.836
			c0.918,7.943-0.471,13.281,1.943,18.488c1.133-0.158,1.736,0.213,1.949,0.97c9.574,0.023,16.588-7.421,25.303-13.622
			c8.174-5.821,17.418-14.453,26.273-12.651c4.734,0.962,8.988,7.877,12.65,11.678c18.33,10.113,33.018,15.007,52.551,12.651
			c21.629-2.609,40.82-13.894,50.605-31.139c6.348-11.194,11.135-25.323,27.246-24.329c3.248,0.202,6.824,1.983,10.705,2.918
			c10.512,2.542,21.146,3.667,27.252,11.682c-15.112-7.05-37.068-16.711-50.607-4.871c-1.67,1.465-2.848,4.205-4.865,6.811
			c-1.598,2.067-4.5,3.972-5.838,5.844c-3.676,5.133-5.152,10.407-9.732,15.57c-4.482,5.052-7.439,7.286-13.621,10.704
			c-0.039,10.339,0.838,21.6-4.867,26.272c-9.477-2.201-7.82-15.534-16.543-18.488c-4.666,1.992-1.906,8.229-2.922,12.651
			c-1.035,4.516-3.846,8.653-4.863,11.678c-11.145-0.859-11.416-12.589-13.627-22.385c-4.273,0.06-8.043-0.387-10.701-1.944
			c-4.52,2.854-6.959,12.667-12.652,11.677c-6.068-1.053-4.182-7.154-3.893-15.569c-3.758-4.007-9.512-4.086-14.6-7.785
			c-4.004-2.915-6.139-9.477-13.623-9.733c-9.383-0.321-18.791,10.05-26.275,13.626c1.396,9.93-1.318,21.695,0,31.139
			c0.783,5.594,3.949,12.136,5.84,18.488c5.992,20.148,14.256,34.395,26.273,48.657c3.008,3.572,5.742,7.889,8.758,10.708
			c6.393,5.971,14.85,9.701,21.412,15.569c4.383,3.92,7.043,9.429,12.65,11.682c-10.117-2.543-18.77-14.969-28.223-21.415
			c-23.016,53.216-55.031,97.431-73.959,154.732c5.674,12.168,17.039,18.642,23.357,30.17c2.6,17.363-8.773,26.335-10.706,38.93
			c-0.95,6.182,1.956,11.341-0.974,18.481c-6.637-1.793-9.001-7.863-12.652-12.647c-6.037,5.641-3.139,20.216-6.811,28.223
			c-10.592-2.061-16.947-8.353-15.568-22.385c-4.365-0.467-4.348,3.441-7.785,3.896c-0.606,20.005-7.484,41.59-7.785,63.255
			c-0.705,50.003,10.498,102.058,35.031,133.322c9.053,6.02,18.488,11.603,28.221,18.494c10.484,7.412,22.211,13.772,38.926,18.483
			c20.086,5.663,41.271,10.96,65.201,14.603c21.455,3.265,42.664,8.451,68.119,7.785c9.879-0.26,20.254-3.991,31.145-4.868
			c8.549-0.69,17.871,0.964,24.328-1.949c5.799-2.613,11.498-6.984,17.514-10.699c5.666-2.446,19.16,2.938,18.492-5.844
			c-1.797-2.535-8.113-3.336-11.678-3.889c-4.654-0.729-9.24-0.277-13.623-0.976c-18.934-3.017-34.379-11.149-42.818-24.328
			c1.472-32.264,21.686-45.782,41.842-59.364c-0.846-4.736,1.33-6.455,1.949-9.729c4.414-3.531,9.441-9.097,17.518-9.733
			c7.82-0.616,16.992,2.163,21.406,6.811c-12.98-6.5-34.094-4.604-36.98,9.736c11.248-4.96,39.615-4.098,45.74,7.785
			c-9.896-4.83-17.244-10.917-34.059-8.758c-21.457,2.747-59.404,37.364-52.551,60.329c1.903,6.377,12.368,12.284,19.465,16.546
			c2.689,1.623,5.066,4.055,6.809,4.869c18.535,8.688,45.512,6.273,68.121,8.762c-5.971,4.249-18.213-0.953-27.246,0
			c2.529,2.556-1.572,0.759-0.977,3.888c1.312,6.802,16.652-0.429,18.494,5.836c-17.844-2.718-38.791-0.682-49.633,7.791
			c-6.633,5.182-14.531,14.97-7.785,27.243c5.752-3.976,7.492-11.966,15.57-13.621c-1.367,9.26,3.314,20.608,11.678,23.354
			c8.906-5.36,12.402-16.139,24.328-18.49c-6.332,3.729-9.93,10.185-16.545,13.63c-5.488,21.636-23.98-0.081-21.41-13.63
			c-5.172,0.68-8.354,11.753-15.568,13.63c-8.414-3.723-2.77-15.325-0.971-22.391c-25.276-1.401-52.012,2.026-84.668,0
			c-46.607-2.89-93.553-14.713-128.453-30.165c-9.029,10.929-27.707,11.023-39.9,18.49c-4.375,2.679-6.129,6.805-10.703,8.761
			c-5.915-2.519-9.566-7.31-8.758-16.543c-9.983,2.191-15.107,11.616-17.52,18.484c-7.959-0.254-12.698-11.872-14.596-21.407
			c-4.984,0.477-8.195,7.001-13.625,3.896c-0.432-9.519,4.432-18.459,11.678-23.362c7.986-5.401,19.748-3.477,28.221-8.751
			c-11.062-5.726-24.898-1.719-35.031-5.844c-4.099-1.663-5.825-6.908-10.707-6.812c-8.831-7.983-11.702-26.641-5.838-42.819
			c3.234-8.927,12.418-20.414,18.488-28.222c3.532-4.537,7.303-8.466,10.707-12.651c3.524-4.337,6.804-10.284,11.678-10.704
			c-2.989-28.855-3.928-68.29,3.893-95.37c-1.164-2.559-3.334,4.587-5.84,0.973c-4.906-9.97-2.238-25.048,6.814-29.189
			c-8.656-7.916-10.644-23.775-5.842-36.984c8.174-22.469,34.526-41.096,49.633-53.52c9.709-31.94,30.668-57.322,42.816-87.587
			c2.791-6.954,4.729-14.552,7.785-21.41c2.861-6.416,5.346-12.811,9.734-18.489c-14.605-16.864-27.451-35.483-39.9-54.498
			c-4.986-14.477-10.932-33.184-6.816-53.521c-4.049,0.491-12.562,9.052-21.404,4.862c-4.526-4.688-2.994-9.404-3.894-17.517
			c-11.03-6.443-22.269-0.341-32.112,3.896c-2.222,14.001-3.018,29.42-12.652,36.006c-8.536-8.059-11.17-22.788-16.543-34.058
			c-7.271-0.547-16.478-4.879-26.278-5.845c-3.555,8.446-2.284,21.723-11.677,24.328c-7.413-5.56-7.793-18.155-9.729-29.191
			c-6.494-3.889-16.311-4.451-21.41-9.733c0.545-6.573,6.62-11.42,10.703-15.57c7.689-7.817,12.627-12.866,23.355-18.493
			c11.344-5.939,22.51-5.281,36.01,0c4.921,1.933,10.531,3.841,14.595,5.845c12.802,6.295,20.132,16.401,36.007,10.699
			c6.074-2.178,17.055-10.097,26.276-9.729c4.882,0.194,8.981,4.608,13.622,4.867c6.125,0.341,11.416-4.333,17.516-4.867
			c5.93-0.519,11.346,3.861,17.52,3.893c7.219,0.036,14.799-5.829,21.406-9.733c6.609-3.901,13.139-8.007,17.518-12.648
			c-7.625-2.843-15.922-4.839-16.543-12.656c-0.57-7.167,9.104-16.005,18.492-17.514c13.244-2.126,25.268,7.86,32.113,12.652
			c-1.494-20.873,5.863-36.153,22.383-38.925c4.895-0.824,13.467-0.491,18.49,1.944c1.877,0.911,7.016,5.639,7.785,6.815
			c5.076,7.753,4.205,18.04,3.893,29.192c5.986,2.748,11.105,7.775,17.514,10.706c6.324,2.886,13.744,3.612,18.492,8.759
			c11.368,3.334,28.274,7.674,40.872,12.647c12.293,4.854,25.902,9.246,24.33,27.251c-1.229,14.037-9.471,26.53-13.625,38.924
			c-4.447,13.274-8.287,28.169-12.65,41.847c-3.326,10.414-7.475,18.536-10.705,30.165c4.979-0.181,10.828-3.69,15.57-0.974
			c3.275,15.341-10.668,21.724-17.518,30.169c1.119,1.153,1.1,3.441,0.973,5.841c10.861,4.878,27.455,3.216,27.248,15.57
			c-0.15,9.068-11.785,12.672-18.488,18.489c2.043,4.122,4.215,8.109,4.865,13.625c7.596-0.459,13.385,0.888,17.516,3.892
			c0.424,11.773-3.445,19.261-6.811,27.249c1.207,5.603,4.053,9.566,4.865,15.57c10.83-0.127,22.342-0.931,26.273,5.84
			c-0.365,13.253-8.76,18.489-14.594,26.272c1.125,3.414,3.828,5.255,3.893,9.733c7.459-0.323,14.752-0.48,16.543,4.863
			c-0.971,6.819-5.668,9.906-8.76,14.599c1.705,1.866,2.062,5.072,2.918,7.789c8.174,2.207,18.939,1.818,22.387,8.754
			c0.145,11.181-5.961,16.103-10.709,22.387c2.115,5.995,5.463,10.754,6.816,17.519c7.848,0.257,15.793,0.418,21.408,2.913
			c2.594,9.868-4.338,15.645-7.787,22.385c1.104,4.081,4.072,6.307,5.84,9.729c4.072-3.061,7.258-7.013,12.65-8.759
			c-1.342,0.401,6.395,4.754,3.893,1.949c2.604,2.913,3.959,5.885,1.945,11.681c5.715-3.146,7.516-9.199,14.598-8.76
			c7.746,0.477,9.562,9.812,15.57,9.729c6.297-0.083,8.109-9.609,14.598-9.729C546.375,518.411,546.627,523.549,551.17,526.305z
			 M317.611,47.515c-0.984-3.041-7.029-10.652-8.754-11.681c-8.244-4.894-20.967-3.402-28.225,1.948
			c-8.316,6.134-11.979,18.207-10.705,31.14c13.273,5.147,33.191,5.024,48.658,2.922C318.873,63.782,319.742,54.072,317.611,47.515z
			 M219.328,75.731c3.994,8.799,23.469,4.162,31.137,1.948c-5.555-1.472-0.854-9.962,3.893-5.836
			c0.311,2.582-5.453-0.911-3.893,2.918c2.207,2.149,7.414-1.421,4.869,2.918c3.793-1.718,10.02-1.006,12.65-3.888
			C258.396,59.782,224.395,53.296,219.328,75.731z M269.928,75.731c-12.348,4.848-29.021,5.371-43.789,7.789
			c3.705-0.066,6.652,2.372,10.701,2.918c12.811,1.735,26.164-2.146,34.064-6.811c7.186,15.435,42.797,8.196,46.707-5.836
			c-15.244,2.993-32.375,2.07-47.684-2.922C269.928,72.494,269.928,74.112,269.928,75.731z M31.508,170.133
			c5.303-4.756,6.125-13.99,7.785-22.384c-6.4-0.416-10.588-3.038-16.543-3.893C24.855,153.427,25.247,164.716,31.508,170.133z
			 M71.406,155.533c3.662,10.608,7.967,20.578,12.651,30.169c9.183-5.416,9.483-19.711,11.678-32.113
			C87.799,154.413,80.724,156.091,71.406,155.533z M267.012,164.292c4.992,4.739,6.104,13.356,12.65,16.543
			c1.734-6.192,5.551-15.011,2.918-22.384C276.592,159.604,271.674,161.821,267.012,164.292z M217.379,174.021
			c6.027-0.458,6.41-6.561,9.734-9.729c-3.494-1.05-6.637-2.452-10.709-2.918C216.508,167.06,214.545,170.164,217.379,174.021z
			 M243.656,166.236c0.865,9.188,3.438,16.679,9.729,20.441c4.051-5.038,5.053-13.115,5.842-21.415
			C254.41,165.963,249.531,166.601,243.656,166.236z M384.762,242.145c-0.566,6.906-3.682,16.409-0.975,23.355
			c5.611-7.041,13.123-12.181,14.596-23.355C394.438,239.397,389.807,242.894,384.762,242.145z M392.547,307.347
			c3.912-7.769,15.195-8.166,14.596-20.44c-5.258-5.441-14.41-6.994-23.355-8.755C386.184,288.407,388.346,298.896,392.547,307.347z
			 M406.172,349.193c5.561-3.524,4.293-13.875,5.838-21.415c-3.387-1.801-7.176-3.207-12.652-2.914
			C400.779,333.821,404.711,340.268,406.172,349.193z M424.662,399.793c1.645-4.745,7.525-8.927,9.732-14.598
			c3.893-10.018-6.197-16.703-20.438-12.647C417.498,381.655,420.262,391.539,424.662,399.793z M143.418,509.762
			c-5.484-22.033,12.301-29.224,9.732-51.579c-4.925-12.744-24.518-19.03-23.354-34.058c0.108-1.388,0.396-2.068,0.971-2.92
			c2.931-4.324,7.845-13.733,6.815-19.467c-19.585,18.698-42.904,33.652-42.821,72.014c2.95,9.376,12.093,16.354,16.544,20.439
			c-6.03,0.84-7.342-3.041-11.677-3.896c-5.378,5.456-10.45,14.323-6.812,23.354c3.523-3.294,14.584-7.46,18.488-13.621
			c-0.004,12.979,1.271,24.685,13.625,25.304c-0.074-12.403,1.549-23.102,7.785-29.196
			C133.674,502.651,139.633,509.314,143.418,509.762z M434.395,427.042c4.033-2.122,6.146-6.179,5.836-12.646
			c-1.73-1.248-9.082-1.877-10.703,0C431.943,417.817,433.859,421.737,434.395,427.042z M450.934,466.94
			c3.971-4.462,6.039-10.833,7.787-17.519c-2.955-4.513-10.334-9.757-17.516-6.811C445.027,450.143,446.314,460.213,450.934,466.94z
			 M469.426,509.762c2.406-6.353,8.873-8.644,7.785-18.491c-6.51-0.626-12.99-1.284-18.49-2.921
			C461.74,496.036,463.73,504.749,469.426,509.762z M478.186,524.356c1.311,4.856,8.34,3.982,14.594,3.893
			c0.111-5.297,0.609-10.988-3.893-11.678C483.949,517.799,481.84,521.848,478.186,524.356z M497.646,529.225
			c7.9,0.114,15.432-0.14,21.41-1.945C514.385,517.376,501.473,520.745,497.646,529.225z M533.652,528.249
			c3.135-1.405,8.166-0.918,12.652-0.97C545.938,518.133,533.898,521.53,533.652,528.249z M54.862,665.467
			c-8.161,48.063,33.614,46.188,68.118,51.579c-3.443,2.749-17.125-3.865-17.512,1.941c0.498,4.37,9.791-0.064,11.678,2.923
			c-23.105-0.776-46.85,2.889-50.606,24.328c4.213-1.553,10.022-5.86,14.599-3.889c-4.564,8.174,4.681,15.768,10.703,19.46
			c2.1-10.226,11.254-13.4,20.438-16.544c-4.095,4.3,1.425,11.79,3.893,15.566c14.465-9.857,37.201-11.45,46.713-26.268
			c-44.144-19.442-63.07-64.094-70.068-120.677c-0.055-0.595-0.146-1.154-0.975-0.972C79.56,630.475,65.732,646.488,54.862,665.467z
			"/>
	</g>
</g>
</svg>
