<?xml version="1.0" encoding="utf-8"?>
<!-- Generator: Adobe Illustrator 14.0.0, SVG Export Plug-In . SVG Version: 6.00 Build 43363)  -->
<!DOCTYPE svg PUBLIC "-//W3C//DTD SVG 1.1//EN" "http://www.w3.org/Graphics/SVG/1.1/DTD/svg11.dtd">
<svg version="1.1" id="animal" xmlns="http://www.w3.org/2000/svg" xmlns:xlink="http://www.w3.org/1999/xlink" x="0px" y="0px"
	 width="800px" height="773px" viewBox="0 0 800 773" enable-background="new 0 0 800 773" xml:space="preserve">
<g>
	<g>
		<path d="M568.962,376.394c6.802,1.16,15.557,10.91,9.29,17.542c-3.45,2.455-9.153,0.201-10.084-3.776
			C566.776,385.749,567.073,380.54,568.962,376.394z"/>
		<path fill="#D37C09" d="M530.159,728.062c14.427-2.086,27.991-8.293,42.319-10.746c4.443,16.953-7.824,54.193-38.238,34.066
			c-1.199-0.797-1.924-1.197-4.282-2.223C531.752,742.39,532.546,734.798,530.159,728.062z"/>
		<path fill="#D37C09" d="M530.159,728.062c2.387,6.736,1.593,14.328-0.201,21.098c-3.881,23.283-40.195,26.068-50.941,5.572
			c1.923-6.135,1.657-12.605,2.387-18.941c9.584-1.555,19.236-2.521,28.823-3.914C516.925,730.952,523.591,729.786,530.159,728.062z
			"/>
		<path d="M515.963,390.918c8.191,7.534,14.131,19.673,12.172,31.048c-0.93,1.49-2.95,2.617-4.709,2.189
			c-4.843-2.52-7.926-7.992-8.59-13.299C513.842,404.618,512.779,396.327,515.963,390.918z"/>
		<path fill="#D37C09" d="M481.403,735.79c-0.729,6.336-0.464,12.807-2.387,18.941c-9.223,24.207-47.433,13.363-46.965-10.98
			C448.534,741.03,464.953,737.851,481.403,735.79z"/>
		<path fill="#FFFFFD" d="M478.618,152.55c0.067,0.2,0.132,0.396,0.229,0.563c1.296,2.221,3.284,4.08,5.111,5.9
			c6.666,10.818,11.673,20.135,16.383,29.922c23.684,49.381-8.791,93.729-66.432,71.277c-1.029-0.402-4.579-2.294-7.832-1.658
			c-10.409-7.432-18.174-18.845-24.707-30.252c-12.106,10.15-22.255,24.447-34.129,35.751c-0.664,0.337-1.227,0.603-2.056,1.134
			c-16.882,8.123-28.724,11.834-43.182,9.25c-19.771-3.55-39.205-13.629-45.307-32.804c-2.588-8.123-1.692-19.966-1.062-31.243
			c1.26-22.783,9.419-37.708,29.85-56.248c2.487-0.402,4.278-2.189,6.103-3.75c1.36-0.33,1.924-0.959,3.187-1.627
			c28.651-14.691,58.872-20.762,80.028,7.068c3.385,4.477,5.708,8.719,8.195,14.49c0.363,0.499,1.026,1.497,1.59,1.827
			c3.682-5.94,4.842-10.546,7.927-15.159C429.098,132.417,454.571,131.691,478.618,152.55z"/>
		<path d="M456.396,407.372c15.191,4.275,19.136,32.24,2.189,35.654c-3.284-1.096-4.509-5.143-4.247-8.291
			C452.946,425.911,453.441,415.464,456.396,407.372z"/>
		<path fill="#E56607" d="M427.873,262.797c-7.164,23.878-14.796,48.189-28.49,68.725c-10.747-14.465-17.646-31.179-23.418-43.383
			c-4.476-9.458-5.337-20.568-8.723-24.085c11.874-11.304,22.022-25.601,34.129-35.751c6.533,11.407,14.298,22.82,24.707,30.252
			C425.715,260.342,427.241,261.372,427.873,262.797z"/>
		<path fill="#CE9446" d="M483.959,159.014c-1.827-1.82-3.815-3.68-5.111-5.9c-0.098-0.168-0.162-0.363-0.229-0.563
			c26.267,11.374,48.192,32.603,66,61.656c11.342,18.54,24.38,38.473,20.93,60.296c-1.956-0.031-1.26,2.294-2.354,3.155
			c-3.55,10.345-10.316,15.618-19.405,18.772c-37.739,13.035-86.396-9.224-115.915-33.633c-0.632-1.426-2.158-2.455-1.795-4.242
			c3.253-0.636,6.803,1.256,7.832,1.658c57.641,22.451,90.115-21.896,66.432-71.277
			C495.632,179.149,490.625,169.833,483.959,159.014z"/>
		<path d="M397.922,409.659c3.349,6.736,13.698,19.705,8.891,29.254c-2.59,5.111-11.84,8.195-16.154-0.998
			C388.435,428.069,391.785,417.024,397.922,409.659z"/>
		<path fill="#8C3104" d="M406.379,85.854c-3.051,2.52-4.311,5.137-7.76,6.6c-1.127-2.189,0.731-4.184,0.796-6.367
			c2.521-4.049,3.881-9.387,6.73-14.264c6.634-11.214,16.616-25.705,29.585-23.314C445.817,66.446,419.146,75.339,406.379,85.854z"
			/>
		<path fill="#8C3104" d="M398.22,84.389c0.366,0.699,0.797,1.166,1.195,1.697c-0.064,2.184-1.923,4.178-0.796,6.367
			c-0.765,1.258-0.895,2.715-0.798,4.179c-1.327,0.194-2.651,0.233-3.978,0c-3.315-13.901-14.925-37.079-11.874-63.847
			c1.458-12.904,6.136-28.392,19.5-32.175c18.609,8.758,0.135,55.82-1.692,77.346C399.713,78.688,398.287,82.401,398.22,84.389z"/>
		<path fill="#D37C09" d="M366.779,744.548c0.429,24.311-37.746,35.219-46.965,10.98c-1.924-6.141-1.658-12.607-2.391-18.941
			C333.878,738.646,350.293,741.827,366.779,744.548z"/>
		<path fill="#CE9446" d="M365.187,265.188c-14.861,22.283-29.319,30.479-43.517,39.197c-7.53,4.613-13.564,7.197-21.457,8.758
			c-18.605,3.648-48.624,1.328-59.966-6.898c-1.791-1.295-3.45-3.35-4.18-4.178c-33.632-36.089-2.952-88.955,31.807-123.016
			c9.718-9.523,23.314-20.23,37.611-24.908c-20.431,18.54-28.59,33.465-29.85,56.248c-0.63,11.277-1.525,23.12,1.062,31.243
			c6.102,19.175,25.536,29.254,45.307,32.804C336.463,277.022,348.305,273.311,365.187,265.188z"/>
		<path d="M335.835,403.29c3.711,6.803,1.426,18.178,4.21,26.438c-2.021,5.273-10.514,12.236-14.659,5.008
			C323.03,423.521,331.124,412.813,335.835,403.29z"/>
		<path fill="#D37C09" d="M317.424,736.587c0.732,6.334,0.467,12.801,2.391,18.941c-10.747,20.496-47.065,17.742-50.945-5.578
			c-1.79-6.795-2.588-14.361-0.197-21.092c6.931,1.826,13.995,3.018,21.092,3.984C298.952,734.132,308.239,735.097,317.424,736.587z
			"/>
		<path d="M278.421,399.443c5.108,9.321,2.986,29.157-9.552,31.243c-2.685-0.129-2.058-3.215-3.184-4.709
			C267.179,416.292,269.17,404.288,278.421,399.443z"/>
		<path fill="#CE9446" d="M536.659,718.409c-7.796,4.91-17.413,10.586-26.433,13.467c-9.587,1.393-19.239,2.359-28.823,3.914
			c-16.45,2.061-32.869,5.24-49.352,7.961c-21.76-0.299-43.48,1.754-65.272,0.797c-16.486-2.721-32.901-5.902-49.355-7.961
			c-9.185-1.49-18.472-2.455-27.66-3.744l0.032-0.305c-3.745-1.82-7.463-2.85-11.375-4.51c-5.539-2.35-10.715-6.166-16.186-8.984
			l-0.132,0.266c-0.133,0-0.267,0-0.396,0c-18.378-10.416-42.424-29.52-55.293-52.141c-10.912-19.137-22.487-38.738-26.898-58.605
			c-5.339-24.279-2.649-49.057,1.194-74.826c5.075-34.158,18.608-67.494,31.973-97.047l-0.163-0.096
			c1.924-6.07,5.206-11.947,8.293-17.285c5.603,4.582,15.254,1.627,25.004-6.398c0.434,0.201,1.062,1.264,1.128,2.453
			c-6.136,22.984,13.201,49.883,35.722,38.676c4.014-1.99,6.103-5.08,11.112-7.166c4.872-3.783,7.794-13.137,13.662-13.564
			c1.296,11.473,5.475,20.795,10.583,25.736c15.42,14.99,40.528,4.477,47.959-17.678c4.113,14,12.337,25.904,25.535,29.617
			c18.443,5.176,31.645-6.465,41.362-22.652c10.545,12.637,27.129,22.555,44.18,19.635c14.26-7.062,15.287-24.41,16.248-37.676
			c1.163-0.033,2.158,0.795,2.721,1.094c15.357,15.65,35.555,22.783,51.076,6.465c8.062-8.525,12.208-19.369,13.233-32.273
			c7.299,3.551,10.016,10.119,17.349,10.055c2.521,5.207,4.379,15.32,8.059,19.4c13.5,29.787,27.229,63.381,32.369,97.908
			c3.849,25.736,6.537,50.58,1.195,74.826c-4.41,19.867-15.983,39.438-26.898,58.605c-12.869,22.621-36.879,41.756-55.289,52.141
			c-0.13,0-0.266,0-0.396,0L536.659,718.409z"/>
		<path d="M237.726,380.106c-1.327,7.567,2.521,24.215-10.247,23.184C223.828,395.329,231.391,385.217,237.726,380.106z"/>
		<path fill="#D37C09" d="M226.847,718.079c14.294,1.957,27.463,9.121,41.825,10.779c-2.391,6.73-1.593,14.297,0.197,21.092
			c-2.62,1.166-2.652,1.166-4.278,2.223C233.879,772.54,221.272,734.067,226.847,718.079z"/>
		<path fill="#8C3104" d="M393.844,96.632c1.326,0.233,2.65,0.194,3.978,0c45.67-1.924,91.411,5.507,136.915,4.976
			c32.635-18.41,62.98-41.129,88.523-68.692c0.661-0.33,1.324-0.628,2.255-0.628c0.895,0.99,0.562,2.455,0.232,3.083
			c-2.487,2.922-1.195,11.479-2.259,17.147c-3.879,20.826-14.823,40.065-22.982,59.169c1.127,0.933,2.785,0.032,4.11,0.233
			c7.631-2.391,21.396-6.666,25.607,2.785c-4.774,13.1-22.355,7.729-32.571,10.812c6.368,3.945,17.678,7.598,15.855,17.742
			c-6.702,9.121-18.508,3.92-27.029,0.934c10.977,20.359,23.78,37.676,37.578,56.215c24.875,33.432,49.284,68.49,66.101,109.885
			c6.2,15.32,12.438,28.521,17.51,41.388c7.53,19.142,13.137,39.076,17.711,60.634c14.462,6.336,68.357,29.947,38.142,44.871
			c-4.71,2.326-8.855,0.369-13.96,5.539c23.113,8.324,58.007,27.926,45.835,56.617c-7.463,4.082-16.02,5.57-24.509,6.367
			c2.188,9.523,20.463,36.848,24.477,55.756c0.365,1.691,0.265,4.043,0.032,5.24c-2.686,12.641-13.433,13.002-33.566,4.943
			c5.539,11.771,9.918,25.77,12.938,43.609c1.49,8.725,2.721,21.461-6.734,23.521c-8.988,1.955-30.116-11.246-37.977-17.25
			c-9.749-7.398-17.646-13.564-26.203-21.559c-9.749,14.264-17.31,31.379-31.871,41.361c-10.116,16.646-32.306,25.736-50.347,35.783
			c-16.053,8.959-33.633,13.766-49.155,20.199c-14.328,2.453-27.893,8.66-42.319,10.746c-6.568,1.725-13.234,2.891-19.933,3.814
			c9.02-2.881,18.637-8.557,26.433-13.467l0.068,0.104c0.13,0,0.266,0,0.396,0c18.41-10.385,42.42-29.52,55.289-52.141
			c10.915-19.168,22.488-38.738,26.898-58.605c5.342-24.246,2.653-49.09-1.195-74.826c-5.14-34.527-18.869-68.121-32.369-97.908
			c-3.68-4.08-5.538-14.193-8.059-19.4c-7.333,0.064-10.05-6.504-17.349-10.055c-1.025,12.904-5.172,23.748-13.233,32.273
			c-15.521,16.318-35.719,9.186-51.076-6.465c-0.562-0.299-1.558-1.127-2.721-1.094c-0.961,13.266-1.988,30.613-16.248,37.676
			c-17.051,2.92-33.635-6.998-44.18-19.635c-9.718,16.188-22.919,27.828-41.362,22.652c-13.198-3.713-21.422-15.617-25.535-29.617
			c-7.431,22.154-32.539,32.668-47.959,17.678c-5.108-4.941-9.287-14.264-10.583-25.736c-5.868,0.428-8.79,9.781-13.662,13.564
			c-5.01,2.086-7.099,5.176-11.112,7.166c-22.521,11.207-41.857-15.691-35.722-38.676c-0.065-1.189-0.694-2.252-1.128-2.453
			c-9.75,8.025-19.401,10.98-25.004,6.398c-3.087,5.338-6.369,11.215-8.293,17.285l0.163,0.096
			c-13.364,29.553-26.897,62.889-31.973,97.047c-3.844,25.77-6.533,50.547-1.194,74.826c4.411,19.867,15.986,39.469,26.898,58.605
			c12.869,22.621,36.915,41.725,55.293,52.141c0.129,0,0.263,0,0.396,0l0.132-0.266c5.471,2.818,10.646,6.635,16.186,8.984
			c3.912,1.66,7.63,2.689,11.375,4.51l-0.032,0.305c-7.097-0.967-14.161-2.158-21.092-3.984
			c-14.362-1.658-27.531-8.822-41.825-10.779c-26.964-8.855-54.294-19.965-78.473-34.826c-6.666-7.793-18.01-10.643-21.524-21.123
			c-14.562-9.982-22.121-27.098-31.873-41.363c-7.829,8.061-21.56,17.615-27.199,22.688c-10.944,9.787-30.083,17.549-36.846,16.117
			c-9.321-1.924-8.693-12.602-7.035-22.912c2.688-16.816,6.932-30.551,13.138-44.283c-20.431,8.193-30.283,7.629-33.335-4.213
			c-3.249-12.436,17.977-47.029,22.588-56.051c0.994-1.99,1.892-2.988,2.09-5.041c-8.26-1.859-17.381-2.52-24.977-6.867
			c-1.69-2.688-2.753-6.367-2.986-8.752c-2.121-23.916,26.639-37.914,44.912-47.1c-6.472-3.816-17.349-2.189-22.226-10.08
			c-1.128-17.943,11.909-22.523,21.195-28.723c12.703-8.461,26.47-11.109,30.546-18.773c1.163-2.223,1.261-6.037,1.961-8.855
			c9.314-38.208,21.752-61.061,32.269-87.096c15.356-38.109,34.991-68.459,58.075-98.672c16.052-21.027,31.477-43.221,45.206-67.163
			c-8.524,2.948-19.535,7.956-26.832-0.369c-2.62-10.313,9.187-14.394,15.657-18.306c-10.251-3.117-27.697,2.286-32.603-10.748
			c5.435-11.044,20.231-3.181,29.318-2.721c0.429-0.492,0.629-1.159,0.797-1.658c-12.275-22.719-24.114-47.393-24.279-73.66
			c-0.466-0.629-0.965-0.894-1.327-1.295c-0.564-0.766-0.629-2.384,0.362-3.116c1.163-0.097,2.125,0.595,2.889,1.393
			c24.908,26.235,53.43,49.019,85.502,66.133C305.783,100.079,349.601,99.917,393.844,96.632z M367.242,264.054
			c3.386,3.517,4.247,14.627,8.723,24.085c5.772,12.204,12.671,28.918,23.418,43.383c13.694-20.535,21.326-44.847,28.49-68.725
			c29.52,24.409,78.176,46.668,115.915,33.633c9.089-3.154,15.855-8.428,19.405-18.772c1.095-0.861,0.398-3.187,2.354-3.155
			c3.45-21.823-9.588-41.756-20.93-60.296c-17.808-29.054-39.733-50.282-66-61.656c-24.047-20.859-49.521-20.134-66.104,4.442
			c-3.085,4.613-4.245,9.219-7.927,15.159c-0.563-0.33-1.227-1.328-1.59-1.827c-2.487-5.771-4.811-10.014-8.195-14.49
			c-21.156-27.83-51.377-21.76-80.028-7.068c-1.263,0.668-1.826,1.297-3.187,1.627c-1.824,1.561-3.615,3.348-6.103,3.75
			c-14.297,4.678-27.894,15.385-37.611,24.908c-34.759,34.061-65.438,86.927-31.807,123.016c0.729,0.828,2.389,2.883,4.18,4.178
			c11.342,8.227,41.36,10.547,59.966,6.898c7.893-1.561,13.927-4.145,21.457-8.758c14.197-8.719,28.655-16.914,43.517-39.197
			C366.016,264.657,366.578,264.391,367.242,264.054z M578.252,393.937c6.267-6.633-2.488-16.382-9.29-17.542
			c-1.889,4.146-2.186,9.354-0.794,13.766C569.099,394.138,574.802,396.392,578.252,393.937z M528.135,421.966
			c1.959-11.375-3.98-23.514-12.172-31.048c-3.184,5.409-2.121,13.7-1.127,19.938c0.664,5.307,3.747,10.779,8.59,13.299
			C525.185,424.583,527.205,423.456,528.135,421.966z M458.585,443.026c16.946-3.414,13.002-31.379-2.189-35.654
			c-2.954,8.092-3.449,18.539-2.058,27.363C454.076,437.884,455.301,441.931,458.585,443.026z M406.812,438.913
			c4.808-9.549-5.542-22.518-8.891-29.254c-6.137,7.365-9.487,18.41-7.264,28.256C394.973,447.108,404.223,444.024,406.812,438.913z
			 M340.045,429.728c-2.784-8.26-0.499-19.635-4.21-26.438c-4.711,9.523-12.805,20.23-10.449,31.445
			C329.531,441.964,338.024,435.001,340.045,429.728z M268.869,430.687c12.538-2.086,14.66-21.922,9.552-31.243
			c-9.251,4.845-11.242,16.849-12.735,26.534C266.812,427.472,266.185,430.558,268.869,430.687z M227.479,403.29
			c12.769,1.031,8.92-15.617,10.247-23.184C231.391,385.217,223.828,395.329,227.479,403.29z"/>
		<path fill="#B77D37" d="M537.123,718.513c-0.13,0-0.266,0-0.396,0l-0.068-0.104c-7.796,4.91-17.413,10.586-26.433,13.467
			c-9.587,1.393-19.239,2.359-28.823,3.914c-16.45,2.061-32.869,5.24-49.352,7.961c-21.76-0.299-43.48,1.754-65.272,0.797
			c-16.486-2.721-32.901-5.902-49.355-7.961c-9.185-1.49-18.472-2.455-27.66-3.744l0.032-0.299
			c-3.745-1.826-7.463-2.855-11.375-4.516c-5.539-2.35-10.715-6.166-16.186-8.984l-0.132,0.266c-0.133,0-0.267,0-0.396,0
			c-18.378-10.416-42.424-29.52-55.293-52.141c-10.912-19.137-22.487-38.738-26.898-58.605c-3.019-13.734-3.479-27.629-2.585-41.789
			c0.659,1.328,1.328,2.617,2.02,3.912c18.71,34.625,59.734,67.895,92.406,90.082c34.161,23.184,56.452,32.273,95.519,42.652
			c40.268,10.68,92.603,20.43,135.59,15.656c14.66-1.627,28.853-3.383,42.981-5.643
			C542.596,715.325,539.812,717.017,537.123,718.513z"/>
		<path fill="#8C3104" d="M365.187,265.188c0.829-0.531,1.392-0.797,2.056-1.127c3.386,3.51,4.247,14.62,8.723,24.078
			c5.441,11.537,11.907,27.097,21.691,40.992c0.563,0.797,1.128,1.594,1.727,2.391c13.694-20.535,21.326-44.847,28.49-68.725
			c29.52,24.409,78.176,46.668,115.915,33.633c9.089-3.154,15.855-8.428,19.405-18.772c1.095-0.861,0.398-3.187,2.354-3.155
			c3.45-21.823-9.588-41.756-20.93-60.296c-17.808-29.054-39.733-50.282-66-61.656c-24.047-20.859-49.521-20.134-66.104,4.442
			c-3.085,4.613-4.245,9.227-7.927,15.159c-0.563-0.33-1.227-1.328-1.59-1.827c-2.487-5.765-4.811-10.014-8.195-14.49
			c-18.637-24.545-44.341-22.719-69.779-11.874c-3.421,1.457-6.867,3.051-10.249,4.806c-1.263,0.668-1.826,1.297-3.187,1.627
			c-1.824,1.561-3.615,3.348-6.103,3.75c-14.297,4.678-27.894,15.393-37.611,24.908c-34.759,34.061-65.438,86.934-31.807,123.016
			c0.729,0.828,2.389,2.889,4.18,4.178c11.342,8.227,41.36,10.547,59.966,6.898c7.893-1.554,13.927-4.145,21.457-8.758
			C335.867,295.667,350.325,287.471,365.187,265.188z M564.518,133.278c31.678,46.24,61.262,93.963,89.817,141.691
			c16.22,27.13,41.86,66.833,53.662,104.975c6.304,20.264,8.661,40.131,3.583,57.377c10.915-2.684,25.208-0.195,37.646,0.367
			c2.024,12.205-6.035,16.02-15.191,19.602c-4.906,1.924-10.114,3.811-14.294,6.9c20.331,11.77,45.573,10.48,56.884,35.848
			c-8.525,8.791-20.07,10.812-32.54,11.383c9.819,14.691,25.34,32.338,31.743,48.816c8.557,21.992,3.051,25.576-11.183,27.363
			c-5.006,0.629-11.141,1.031-18.138,1.924c7.094,23.152,17.446,44.309,20.694,69.385c-0.068,0-0.133,0.033-0.229,0.033v-0.129
			c-31.91-10.65-67.795-66.004-87.265-105.973c-22.553-46.266-26.666-93.893-43.946-141.121c2.223,14.029,3.252,26.928,5.009,40.195
			c-0.098,68.258-2.618,142.721,53.465,183.311c-6.138,9.887-12.668,19.539-22.255,26.107c-9.021,14.861-27.693,23.715-44.413,32.57
			c-29.216,9.518-55.619,15.354-82.12,19.531c16.816-10.941,35.953-27.725,46.965-47.062c10.915-19.168,22.488-38.738,26.898-58.605
			c5.342-24.246,2.653-49.084-1.195-74.826c-5.14-34.527-18.869-68.121-32.369-97.908c-3.68-4.08-5.538-14.193-8.059-19.4
			c-7.333,0.064-10.05-6.504-17.349-10.049c-1.025,12.898-5.172,23.75-13.233,32.268c-15.521,16.318-35.719,9.193-51.076-6.465
			c-0.562-0.299-1.558-1.127-2.721-1.094c-0.961,13.266-1.988,30.613-16.248,37.676c-17.051,2.92-33.635-6.998-44.18-19.635
			c-9.718,16.188-22.919,27.828-41.362,22.652c-13.198-3.713-21.422-15.617-25.535-29.617
			c-7.431,22.154-32.539,32.668-47.959,17.678c-5.108-4.941-9.287-14.264-10.583-25.736c-5.868,0.428-8.79,9.781-13.662,13.564
			c-5.01,2.092-7.099,5.176-11.112,7.166c-22.521,11.207-41.857-15.691-35.722-38.676c-0.065-1.189-0.694-2.252-1.128-2.453
			c-9.75,8.025-19.401,10.98-25.004,6.398c-3.087,5.346-6.369,11.215-8.293,17.285l0.163,0.096
			c-13.364,29.553-26.897,62.889-31.973,97.047c-1.659,11.18-3.12,22.193-3.779,33.037c-14.197-28.723-19.007-65.803-20.633-101.625
			c-3.248,24.545-7.164,49.154-13.991,72.539c-4.911,16.746-11.312,32.9-20.069,47.957c13.299-28.025,13.202-75.488,14.128-101.893
			c1.626-45.236-0.431-85.865,10.249-128.023c9.82-38.706,21.026-79.866,33.898-118.105c13.464-40.066,36.716-68.491,53.498-106.367
			c-2.322,0.499-18.842-0.201-26.104-2.656c8.26-5.999,17.546-8.091,27.991-8.06c-23.712-20.327-49.119-50.547-61.358-78.738
			c-0.065-1.425-0.13-2.85-0.13-4.275c-0.466-0.629-0.965-0.894-1.327-1.295c-0.564-0.759-0.629-2.384,0.362-3.116
			c1.163-0.097,2.125,0.595,2.889,1.393c6.931,7.294,14.161,14.329,21.655,21.06c16.285,23.716,40.168,46.965,65.24,55.619
			c49.886-6.497,107.627-1.159,152.471,1.096c27.064,1.359,54.359,3.018,81.323,5.408c32.471,2.883,31.146-4.645,44.445-19.965
			c27.362-16.085,52.966-35.291,75.255-57.977c-7.134,30.479-28.889,63.548-48.89,82.82c5.573-0.531,11.941,1.392,17.746,0.427
			C578.98,127.811,572.181,131.127,564.518,133.278z M578.252,393.937c6.267-6.633-2.488-16.382-9.29-17.542
			c-1.889,4.146-2.186,9.354-0.794,13.766C569.099,394.138,574.802,396.392,578.252,393.937z M528.135,421.966
			c1.959-11.375-3.98-23.514-12.172-31.041c-3.184,5.402-2.121,13.693-1.127,19.932c0.664,5.307,3.747,10.779,8.59,13.299
			C525.185,424.583,527.205,423.456,528.135,421.966z M458.585,443.026c16.946-3.414,13.002-31.373-2.189-35.654
			c-2.954,8.092-3.449,18.539-2.058,27.363C454.076,437.884,455.301,441.931,458.585,443.026z M406.812,438.913
			c4.808-9.549-5.542-22.518-8.891-29.254c-6.137,7.365-9.487,18.41-7.264,28.262C394.973,447.108,404.223,444.024,406.812,438.913z
			 M340.045,429.728c-2.784-8.26-0.499-19.635-4.21-26.438c-4.711,9.523-12.805,20.238-10.449,31.445
			C329.531,441.964,338.024,435.001,340.045,429.728z M268.869,430.687c12.538-2.086,14.66-21.922,9.552-31.243
			c-9.251,4.845-11.242,16.849-12.735,26.534C266.812,427.472,266.185,430.558,268.869,430.687z M227.479,403.29
			c12.769,1.031,8.92-15.617,10.247-23.184C231.391,385.217,223.828,395.336,227.479,403.29z"/>
		<path fill="#682102" d="M730.055,641.53c-9.749-7.393-17.646-13.564-26.203-21.559c-23.447-28.057-42.65-54.164-47.029-81.455
			c-1.591-9.852-3.913-17.049-7.295-28.158c-3.65-11.979-3.252-27.66-5.939-41.096c-1.192-5.936-2.086-11.674-2.817-17.348
			c-1.757-13.268-2.786-26.166-5.009-40.195c17.28,47.229,21.394,94.855,43.946,141.121c19.47,39.969,55.354,95.322,87.265,105.973
			v0.129C757.485,659.772,737.617,647.302,730.055,641.53z"/>
		<path fill="#D37C09" d="M316.796,754.169c0.894,0.691,1.724,1.424,2.553,2.188c-11.274,19.604-46.667,16.584-50.479-6.4
			c-0.527-2.059-0.995-4.146-1.292-6.303C283.991,737.519,303.859,743.983,316.796,754.169z"/>
		<path fill="#CE9446" d="M212.684,436.69l-0.163-0.096c1.924-6.07,5.206-11.939,8.293-17.285
			c5.603,4.582,15.254,1.627,25.004-6.398c0.434,0.201,1.062,1.264,1.128,2.453c-6.136,22.984,13.201,49.883,35.722,38.676
			c4.014-1.99,6.103-5.074,11.112-7.166c4.872-3.783,7.794-13.137,13.662-13.564c1.296,11.473,5.475,20.795,10.583,25.736
			c15.42,14.99,40.528,4.477,47.959-17.678c4.113,14,12.337,25.904,25.535,29.617c18.443,5.176,31.645-6.465,41.362-22.652
			c10.545,12.637,27.129,22.555,44.18,19.635c14.26-7.062,15.287-24.41,16.248-37.676c1.163-0.033,2.158,0.795,2.721,1.094
			c15.357,15.658,35.555,22.783,51.076,6.465c8.062-8.518,12.208-19.369,13.233-32.268c7.299,3.545,10.016,10.113,17.349,10.049
			c2.521,5.207,4.379,15.32,8.059,19.4c13.5,29.787,27.229,63.381,32.369,97.908c3.849,25.742,6.537,50.58,1.195,74.826
			c-4.41,19.867-15.983,39.438-26.898,58.605c-11.012,19.338-30.148,36.121-46.965,47.062c-14.129,2.26-28.321,4.016-42.981,5.643
			c-42.987,4.773-95.322-4.977-135.59-15.656c-39.066-10.379-61.357-19.469-95.519-42.652
			c-32.672-22.188-73.696-55.457-92.406-90.082c-0.691-1.295-1.36-2.584-2.02-3.912c0.659-10.844,2.12-21.857,3.779-33.037
			C185.786,499.579,199.319,466.243,212.684,436.69z"/>
		<path fill="#3F1101" d="M694.235,635.226c-56.083-40.59-53.562-115.053-53.465-183.311c0.731,5.674,1.625,11.412,2.817,17.348
			c2.688,13.436,2.289,29.117,5.939,41.096c3.382,11.109,5.704,18.307,7.295,28.158c4.379,27.291,23.582,53.398,47.029,81.455
			C700.503,624.849,697.419,630.089,694.235,635.226z"/>
		<path fill="#D37C09" d="M266.547,741.399l0.797-0.104c0.033,0.797,0.133,1.594,0.233,2.357c0.297,2.156,0.765,4.244,1.292,6.303
			c-2.62,1.16-2.652,1.16-4.278,2.223c-22.654,15.021-35.454-1.957-38.376-18.312C240.479,731.081,259.085,731.313,266.547,741.399z
			"/>
		<path fill="#3F1101" d="M122.238,585.646c8.758-15.057,15.158-31.211,20.069-47.957c-1.132,35.02-16.455,68.154-39.538,95.387
			c-2.557-4.178-5.108-8.363-7.793-12.309c7.264-7.1,13.632-14.658,19.171-22.549c0.097-0.07,0.129-0.135,0.162-0.201
			C117.396,594.565,120.016,590.386,122.238,585.646z"/>
		<path fill="#BF582B" d="M707.997,379.944c-11.802-38.142-37.442-77.845-53.662-104.975
			c-28.556-47.729-58.14-95.451-89.817-141.691c7.663-2.15,14.463-5.467,21.063-10.28c-5.805,0.965-12.173-0.958-17.746-0.427
			c20.001-19.272,41.756-52.342,48.89-82.82c2.221-2.223,4.378-4.51,6.535-6.835c0.661-0.33,1.324-0.628,2.255-0.628
			c0.895,0.998,0.562,2.455,0.232,3.083c-2.487,2.922-1.195,11.479-2.259,17.147c-3.879,20.832-14.823,40.065-22.982,59.169
			c1.127,0.933,2.785,0.032,4.11,0.233c7.631-2.391,21.396-6.666,25.607,2.785c-4.774,13.105-22.355,7.729-32.571,10.812
			c6.368,3.951,17.678,7.598,15.855,17.749c-6.702,9.12-18.508,3.913-27.029,0.927c10.977,20.366,23.78,37.676,37.578,56.215
			c24.875,33.432,49.284,68.49,66.101,109.885c6.2,15.32,12.438,28.521,17.51,41.395c3.316,8.389,6.237,16.945,8.823,25.704
			L707.997,379.944z"/>
		<path fill="#682102" d="M262.235,719.044c5.471,2.818,10.646,6.635,16.186,8.984c3.912,1.66,7.63,2.689,11.375,4.516l-0.032,0.299
			c-7.097-0.967-14.161-2.158-21.092-3.984c-14.362-1.658-27.531-8.822-41.825-10.779c-26.964-8.855-54.294-19.965-78.473-34.826
			c-6.666-7.793-18.01-10.643-21.524-21.123c-10.513-7.23-17.379-18.146-24.08-29.055c23.083-27.232,38.406-60.367,39.538-95.387
			c6.827-23.385,10.743-47.994,13.991-72.539c1.626,35.822,6.436,72.902,20.633,101.625c-0.895,14.16-0.434,28.055,2.585,41.789
			c4.411,19.867,15.986,39.469,26.898,58.605c12.869,22.621,36.915,41.725,55.293,52.141c0.129,0,0.263,0,0.396,0L262.235,719.044z"
			/>
		<path fill="#BF582B" d="M743.124,461.269c2.222-0.299,4.278,1.127,6.436,1.457c23.113,8.324,58.007,27.926,45.835,56.617
			c-7.463,4.082-16.02,5.57-24.509,6.367c2.188,9.523,20.463,36.854,24.477,55.756c0.365,1.691,0.265,4.049,0.032,5.24
			c-2.621,12.406-13.034,12.969-32.438,5.371l1.689-4.477c14.233-1.787,19.739-5.371,11.183-27.363
			c-6.403-16.479-21.924-34.125-31.743-48.816c12.47-0.57,24.015-2.592,32.54-11.383c-11.311-25.367-36.553-24.078-56.884-35.848
			c4.18-3.09,9.388-4.977,14.294-6.9L743.124,461.269z"/>
		<path fill="#BF582B" d="M774.766,635.265c1.49,8.719,2.721,21.455-6.734,23.516c-0.266,0.064-0.528,0.098-0.829,0.129
			c-3.248-25.076-13.601-46.232-20.694-69.385c6.997-0.893,13.132-1.295,18.138-1.924l-1.689,4.477
			c-0.362-0.129-0.729-0.266-1.128-0.428C767.367,603.421,771.746,617.419,774.766,635.265z"/>
		<path fill="#BF582B" d="M725.378,412.315c14.462,6.336,68.357,29.947,38.142,44.871c-4.71,2.326-8.855,0.369-13.96,5.539
			c-2.157-0.33-4.214-1.756-6.436-1.457l-9.089-3.979c9.156-3.582,17.216-7.396,15.191-19.602
			c-12.438-0.562-26.731-3.051-37.646-0.367c5.078-17.246,2.721-37.113-3.583-57.377l8.493-2.552
			C719.907,388.632,722.825,400.208,725.378,412.315z"/>
		<path fill="#682102" d="M627.567,693.903c-2.021,1.062-4.009,2.156-5.934,3.213c-16.053,8.959-33.633,13.766-49.155,20.199
			c-14.328,2.453-27.893,8.66-42.319,10.746c-6.568,1.729-13.234,2.891-19.933,3.814c9.02-2.881,18.637-8.557,26.433-13.467
			l0.068,0.104c0.13,0,0.266,0,0.396,0c2.688-1.496,5.473-3.188,8.324-5.078C571.948,709.257,598.352,703.421,627.567,693.903z"/>
		<path d="M568.962,376.394c6.802,1.16,15.557,10.91,9.29,17.542c-3.45,2.455-9.153,0.201-10.084-3.776
			C566.776,385.749,567.073,380.54,568.962,376.394z"/>
		<path fill="#AA6007" d="M572.479,717.315c1.031,3.918,1.16,8.893,0.398,13.998c-14.228-3.551-28.653,3.582-41.494,10.383
			c0.532-4.611,0.303-9.287-1.224-13.635C544.586,725.976,558.15,719.769,572.479,717.315z"/>
		<path fill="#D37C09" d="M531.253,742.856c0.065-0.4,0.098-0.795,0.13-1.16c12.841-6.801,27.267-13.934,41.494-10.383
			c-2.586,17.082-15.223,35.559-38.637,20.068c-1.199-0.797-1.924-1.197-4.282-2.223
			C530.489,747.099,530.956,744.981,531.253,742.856z"/>
		<path fill="#CE9446" d="M488.004,259.682c20.33-12.342,26.796-40.598,12.338-70.746c-4.71-9.787-9.717-19.104-16.383-29.915
			c-1.827-1.827-3.815-3.687-5.111-5.907c-0.098-0.162-0.162-0.363-0.229-0.563c26.267,11.374,48.192,32.603,66,61.656
			c11.342,18.54,24.38,38.473,20.93,60.296c-1.956-0.031-1.26,2.294-2.354,3.155c-3.55,10.345-10.316,15.618-19.405,18.772
			c-37.739,13.035-86.396-9.224-115.915-33.633c-0.632-1.426-2.158-2.455-1.795-4.242c3.253-0.636,6.803,1.256,7.832,1.658
			C456.363,268.965,475,267.571,488.004,259.682z"/>
		<path fill="#BF582B" d="M534.736,101.608c2.257-1.264,4.511-2.553,6.733-3.881c-13.3,15.32-11.975,22.848-44.445,19.965
			c-26.964-2.391-54.259-4.049-81.323-5.408c-44.844-2.255-102.585-7.593-152.471-1.096c-25.072-8.654-48.955-31.903-65.24-55.619
			c19.402,17.413,40.695,32.74,63.847,45.073c43.946-0.563,87.764-0.726,132.007-4.01c1.326,0.233,2.65,0.2,3.978,0
			C443.491,94.708,489.232,102.139,534.736,101.608z"/>
		<path fill="#AA6007" d="M510.227,731.876c6.698-0.924,13.364-2.086,19.933-3.814c1.526,4.348,1.756,9.023,1.224,13.635
			c-0.262,0.131-0.526,0.299-0.829,0.43c-12.067-12.107-36.183-2.457-50.611,8.789c0.334-1.723,0.531-3.445,0.699-5.176
			c0.267-3.316,0.396-6.633,0.762-9.949C490.987,734.235,500.64,733.269,510.227,731.876z"/>
		<path fill="#D37C09" d="M531.383,741.696c-0.032,0.365-0.064,0.76-0.13,1.16c-0.232-0.266-0.466-0.498-0.699-0.73
			C530.856,741.995,531.121,741.827,531.383,741.696z"/>
		<path fill="#D37C09" d="M530.554,742.126c0.233,0.232,0.467,0.465,0.699,0.73c-0.297,2.125-0.764,4.242-1.295,6.303
			c-3.881,23.283-40.195,26.068-50.941,5.572c0.395-1.264,0.695-2.52,0.926-3.816C494.371,739.669,518.486,730.019,530.554,742.126z
			"/>
		<path d="M515.963,390.925c8.191,7.527,14.131,19.666,12.172,31.041c-0.93,1.49-2.95,2.617-4.709,2.189
			c-4.843-2.52-7.926-7.992-8.59-13.299C513.842,404.618,512.779,396.327,515.963,390.925z"/>
		<path fill="#FFFFFD" d="M500.342,188.936c14.458,30.148,7.992,58.404-12.338,70.746c-36.584,13.597-81.593-23.516-85.868-57.914
			c-16.021,24.844-52.57,45.211-81.958,22.492c-26.036-20.133-13.5-56.947,4.846-80.3c25.438-10.845,51.143-12.671,69.779,11.874
			c3.385,4.477,5.708,8.726,8.195,14.49c0.363,0.499,1.026,1.497,1.59,1.827c3.682-5.933,4.842-10.546,7.927-15.159
			c16.583-24.576,42.057-25.302,66.104-4.442c0.067,0.2,0.132,0.401,0.229,0.563c1.296,2.221,3.284,4.08,5.111,5.907
			C490.625,169.833,495.632,179.149,500.342,188.936z"/>
		<path fill="#AA6007" d="M481.403,735.79c-0.365,3.316-0.495,6.633-0.762,9.949c-14.297-4.541-32.273,1.199-45.242,10.055
			c-2.188-3.453-3.448-7.496-3.348-12.043C448.534,741.03,464.953,737.851,481.403,735.79z"/>
		<path fill="#D37C09" d="M479.942,750.915c-0.23,1.297-0.531,2.553-0.926,3.816c-7.495,19.699-34.23,16.182-43.617,1.062
			c12.969-8.855,30.945-14.596,45.242-10.055C480.474,747.47,480.276,749.192,479.942,750.915z"/>
		<path fill="#F4F4E6" d="M397.193,232.021c-10.316,9.717-19.47,22.052-29.951,32.04c-0.664,0.33-1.227,0.596-2.056,1.127
			c-16.882,8.123-28.724,11.834-43.182,9.25c-19.771-3.55-39.205-13.629-45.307-32.804c-2.588-8.123-1.692-19.966-1.062-31.243
			c1.26-22.783,9.419-37.708,29.85-56.248c2.487-0.402,4.278-2.189,6.103-3.75c1.36-0.33,1.924-0.959,3.187-1.627
			c3.382-1.755,6.828-3.349,10.249-4.806c-18.346,23.353-30.882,60.167-4.846,80.3c29.388,22.719,65.938,2.352,81.958-22.492
			c4.275,34.398,49.284,71.511,85.868,57.914c-13.004,7.889-31.641,9.283-54.094,0.531c-1.029-0.402-4.579-2.294-7.832-1.658
			c-0.99-0.701-1.956-1.465-2.883-2.223c-4.842-3.951-9.056-8.791-12.835-13.998c-3.316-4.477-6.235-9.258-8.989-14.031
			C399.947,229.5,398.586,230.725,397.193,232.021z"/>
		<path d="M456.396,407.372c15.191,4.281,19.136,32.24,2.189,35.654c-3.284-1.096-4.509-5.143-4.247-8.291
			C452.946,425.911,453.441,415.464,456.396,407.372z"/>
		<path fill="#8C3104" d="M435.73,48.508c10.087,17.943-16.584,26.831-29.352,37.346c-3.051,2.52-4.311,5.137-7.76,6.6
			c-1.127-2.189,0.731-4.178,0.796-6.367c2.521-4.049,3.881-9.387,6.73-14.264C412.779,60.609,422.762,46.118,435.73,48.508z"/>
		<path fill="#E56607" d="M426.078,258.555c-0.363,1.787,1.163,2.816,1.795,4.242c-7.164,23.878-14.796,48.189-28.49,68.725
			c-0.599-0.797-1.163-1.594-1.727-2.391c2.19-30.349,0.864-66.367-0.463-97.11c1.393-1.296,2.754-2.521,4.178-3.718
			c2.754,4.773,5.673,9.555,8.989,14.031l-0.101,0.097c1.891,17.943-0.73,43.317-4.944,59.37c8.76-11.473,14.629-30.68,17.88-45.469
			C424.122,257.09,425.088,257.854,426.078,258.555z"/>
		<path fill="#F4AD7D" d="M423.195,256.333c-3.251,14.789-9.12,33.996-17.88,45.469c4.214-16.053,6.835-41.427,4.944-59.37
			l0.101-0.097C414.14,247.542,418.354,252.381,423.195,256.333z"/>
		<path d="M397.922,409.659c3.349,6.736,13.698,19.705,8.891,29.254c-2.59,5.111-11.84,8.195-16.154-0.992
			C388.435,428.069,391.785,417.024,397.922,409.659z"/>
		<path fill="#8C3104" d="M401.47,0.61c18.609,8.758,0.135,55.82-1.692,77.346c-0.064,0.731-1.49,4.444-1.558,6.438
			c0.366,0.693,0.797,1.16,1.195,1.691c-0.064,2.189-1.923,4.178-0.796,6.367c-0.765,1.258-0.895,2.721-0.798,4.179
			c-1.327,0.2-2.651,0.233-3.978,0c-3.315-13.896-14.925-37.079-11.874-63.847C383.428,19.881,388.105,4.394,401.47,0.61z"/>
		<path fill="#BF5106" d="M397.193,232.021c1.327,30.743,2.653,66.762,0.463,97.11c-9.784-13.896-16.25-29.455-21.691-40.992
			c-4.476-9.458-5.337-20.568-8.723-24.078C377.724,254.073,386.877,241.738,397.193,232.021z"/>
		<path fill="#AA6007" d="M366.779,744.548c0.097,5.24-1.593,9.854-4.412,13.596c-11.511-13.232-28.558-12.203-43.217-5.174
			c-1.195-5.371-1.095-10.908-1.727-16.383C333.878,738.646,350.293,741.827,366.779,744.548z"/>
		<path fill="#CE9446" d="M365.187,265.188c-14.861,22.283-29.319,30.479-43.517,39.197c-7.53,4.613-13.564,7.204-21.457,8.758
			c-18.605,3.648-48.624,1.328-59.966-6.898c-1.791-1.289-3.45-3.35-4.18-4.178c-33.632-36.082-2.952-88.955,31.807-123.016
			c9.718-9.516,23.314-20.23,37.611-24.908c-20.431,18.54-28.59,33.465-29.85,56.248c-0.63,11.277-1.525,23.12,1.062,31.243
			c6.102,19.175,25.536,29.254,45.307,32.804C336.463,277.022,348.305,273.311,365.187,265.188z"/>
		<path fill="#D37C09" d="M319.15,752.97c14.659-7.029,31.706-8.059,43.217,5.174c-9.853,13.234-33.367,16.189-41.593-0.498
			c0,0-0.033,0-0.033-0.033c-0.331-0.658-0.661-1.359-0.927-2.084C319.549,754.698,319.315,753.837,319.15,752.97z"/>
		<path d="M335.835,403.29c3.711,6.803,1.426,18.178,4.21,26.438c-2.021,5.273-10.514,12.236-14.659,5.008
			C323.03,423.528,331.124,412.813,335.835,403.29z"/>
		<path fill="#D37C09" d="M319.814,755.528c-0.168,0.299-0.298,0.562-0.466,0.828c-0.829-0.764-1.659-1.496-2.553-2.188
			c0.764-0.436,1.558-0.83,2.354-1.199C319.315,753.837,319.549,754.698,319.814,755.528z"/>
		<path fill="#AA6007" d="M319.15,752.97c-0.797,0.369-1.591,0.764-2.354,1.199c-12.937-10.186-32.805-16.65-49.219-10.516
			c-0.101-0.764-0.2-1.561-0.233-2.357c-0.398-4.211-0.064-8.453,1.328-12.438c6.931,1.826,13.995,3.018,21.092,3.984
			c9.188,1.289,18.476,2.254,27.66,3.744C318.056,742.062,317.955,747.599,319.15,752.97z"/>
		<path d="M278.421,399.443c5.108,9.321,2.986,29.157-9.552,31.243c-2.685-0.129-2.058-3.215-3.184-4.709
			C267.179,416.292,269.17,404.288,278.421,399.443z"/>
		<path fill="#AA6007" d="M267.344,741.296l-0.797,0.104c-7.462-10.086-26.067-10.318-40.332-7.533
			c-1.026-5.838-0.829-11.578,0.632-15.787c14.294,1.957,27.463,9.121,41.825,10.779
			C267.279,732.843,266.945,737.085,267.344,741.296z"/>
		<path fill="#682102" d="M235.899,120.542c-10.445-0.031-19.731,2.061-27.991,8.06l-9.088-0.927
			c0.828-0.466,1.626-0.926,2.357-1.359c-10.251-3.117-27.697,2.286-32.603-10.748c5.435-11.044,20.231-3.181,29.318-2.721
			c0.429-0.492,0.629-1.159,0.797-1.658c-11.608-21.487-22.821-44.703-24.149-69.385C186.78,69.995,212.188,100.214,235.899,120.542
			z"/>
		<path fill="#682102" d="M114.147,598.218c-5.539,7.891-11.907,15.449-19.171,22.549c-7.829,8.061-21.56,17.615-27.199,22.688
			c-10.944,9.787-30.083,17.549-36.846,16.123c-9.321-1.926-8.693-12.607-7.035-22.918c2.688-16.816,6.932-30.551,13.138-44.283
			c-20.431,8.193-30.283,7.629-33.335-4.213c-3.249-12.436,17.977-47.029,22.588-56.051c0.994-1.99,1.892-2.982,2.09-5.041
			c-8.26-1.859-17.381-2.52-24.977-6.867c-1.69-2.682-2.753-6.367-2.986-8.752c-2.121-23.916,26.639-37.914,44.912-47.1
			c-6.472-3.816-17.349-2.189-22.226-10.08c-1.128-17.943,11.909-22.523,21.195-28.723c12.703-8.461,26.47-11.109,30.546-18.773
			c1.163-2.223,1.261-6.037,1.961-8.855c9.314-38.208,21.752-61.061,32.269-87.096c15.356-38.109,34.991-68.459,58.075-98.672
			c16.052-21.027,31.477-43.221,45.206-67.163c-8.524,2.948-19.535,7.962-26.832-0.369c-2.322-9.153,6.698-13.396,13.3-16.946
			l9.088,0.927c7.262,2.455,23.781,3.155,26.104,2.656c-16.782,37.876-40.034,66.301-53.498,106.367
			c-12.872,38.239-24.078,79.399-33.898,118.105c-10.68,42.158-8.623,82.787-10.249,128.023
			c-0.926,26.404-0.829,73.867-14.128,101.893c-2.456,4.209-5.073,8.324-7.929,12.371
			C114.276,598.083,114.244,598.147,114.147,598.218z"/>
		<path d="M237.726,380.106c-1.327,7.567,2.521,24.215-10.247,23.184C223.828,395.336,231.391,385.217,237.726,380.106z"/>
		<path fill="#8C3104" d="M114.31,598.017c2.855-4.047,5.473-8.162,7.929-12.371C120.016,590.386,117.396,594.565,114.31,598.017z"
			/>
	</g>
	<g>
		<path fill-rule="evenodd" clip-rule="evenodd" d="M727.026,412.464c8.521,2.85,22.62,11.207,31.842,16.721
			c6.537,3.904,16.95,8.154,16.716,17.508c-0.235,9.459-13.347,13.262-23.88,14.33c5.299,5.5,15.644,6.73,23.88,11.938
			c9.974,6.311,33.07,31.471,20.697,46.168c-5.01,5.947-13.441,6.959-24.678,7.963c5.15,11.783,16.312,27.078,21.494,42.98
			c3.375,10.365,7.177,24.008-3.98,28.658c-8.12,3.389-17.286-2.422-25.474-5.57c0.546,3.043,2.477,6.406,3.979,10.346
			c3.738,9.801,9.23,25.281,10.349,37.416c1.354,14.697-3.919,23.949-19.104,19.104c-1.843-0.59-4.376-2.391-6.368-3.188
			c-17.366-6.904-34.592-22.039-47.761-34.23c-9.639,14.512-16.814,31.484-31.839,40.598c-1.322,8.369-8.626,10.93-15.127,15.127
			c-3.854,2.486-7.174,5.492-11.142,7.961c-11.229,6.982-25.186,12.723-36.615,19.9c-2.753,0.648-3.363-1.492-4.779,0
			c-9.379,4.684-19.223,8.9-30.248,11.938c2.659,20.49-7.948,44.434-28.655,41.395c-6.441-0.945-10.134-5.578-15.919-8.758
			c-0.161,3.822-1.224,6.738-1.595,10.352c-7.357,4.904-18.549,12.496-30.248,10.346c-8.537-1.574-13.778-9.484-18.306-15.127
			c-2.747,3.621-5.093,7.65-7.962,11.148c-18.838,10.107-39.914-2.131-41.391-21.492c-20.46,0.467-41.697,2.707-62.088,0.795
			c-2.396,15.406-22.273,34.729-41.394,21.488c-3.543-2.449-5.743-6.35-7.961-11.143c-5.567,4.969-10.188,13.488-19.104,15.127
			c-11.829,2.176-22.586-5.357-30.248-10.354c-0.425-3.283-1.167-6.256-1.591-9.547c-4.584,0.881-9.532,6.977-15.126,7.961
			c-21.158,3.705-33.3-21.623-28.655-41.393c-9.564-2.566-19.161-5.746-28.654-9.555c-11.816-4.73-23.237-9.783-33.434-15.918
			c-4.438-2.668-10.248-5.24-15.126-8.758c-2.153-1.549-3.368-4.152-5.571-5.572c-6.299-4.061-13.774-5.523-15.919-14.328
			c-14.323-9.82-21.772-26.52-31.841-40.598c-5.602,3.648-11.538,10.449-19.104,15.924c-11.593,8.389-21.171,16.162-35.819,20.695
			c-13.676,4.232-19.24-3.322-18.311-18.312c1.069-17.178,9.672-36.062,15.126-48.551c-8.386,2.643-17.072,8.57-25.471,5.57
			c-3.936-1.406-8.081-6.412-8.758-11.141c-0.752-5.254,1.985-11.389,3.98-17.518c4.745-14.562,15.726-31.08,21.491-42.184
			c-8.898-1.982-18.845-2.914-24.676-7.963c-11.53-24.895,19.379-50.377,40.597-55.723c-7.957-2.719-19.134-1.963-22.29-8.752
			c-3.607-7.766,3.44-15.689,7.164-22.289c15.57-7.781,27.736-18.969,44.579-25.473c5.765-26.591,15.899-50.644,26.268-74.029
			c8.022-18.1,12.159-37.345,21.491-54.13c1.512-2.721,3.326-5.26,4.776-7.961c6.568-12.225,14.715-27.207,23.084-39.004
			c6.605-9.303,14.919-18.08,22.287-27.861c14.505-19.24,28.146-38.473,40.598-58.904c-6.789,5.967-22.66,8.059-27.862-0.797
			c-0.715-12.385,7.599-15.747,16.717-18.307c-7.638-2.494-19.978,0.207-27.062-3.18c-2.601-1.244-6.259-5.338-6.371-7.962
			c-0.477-11.181,20.749-7.288,29.456-3.983c-0.577-4.586-4.12-8.305-6.369-12.735c-6.724-13.229-10.386-30.647-15.922-45.372
			c0-4.508,0-9.018,0-13.531c-1.283-2.695-3.884-5.592-1.591-9.549c3.214,1.074,5.653,4.133,7.958,6.367
			c11.363,11,24.315,24.078,37.414,34.229c5.465,4.23,11.896,6.265,18.31,10.346c3.226,2.055,5.477,5.908,8.754,7.962
			c2.126,1.328,6.281,2.909,9.553,4.774c2.785,1.587,6.494,4.191,8.755,4.774c6.725,1.741,19.33,0.906,26.271,0.796
			c6.957-0.109,14.108-2.494,21.49-2.384c3.442,0.046,6.82,1.31,10.349,1.588c23.188,1.858,47.094-5.235,70.843-3.978
			c-3.12-15.852-16.935-45.67-9.552-73.232c1.874-7.004,6.053-17.161,9.552-19.901c1.9-1.489,7.559-3.446,9.555-3.187
			c7.631,1.011,10.889,13.701,9.551,25.477c-0.519,4.561-2.078,10.392-3.184,15.918c-2.743,13.7-7.631,32.24-8.759,44.574
			c5.183-11.131,12.014-25.264,20.698-33.427c5.17-4.864,17.969-9.769,19.899,1.587c1.176,6.898-6.057,15.819-11.142,19.9
			c-4.833,3.881-11.893,5.985-16.72,9.555c-5.675,4.197-9.571,8.604-12.736,12.736c38.521-1.516,72.294,2.254,111.443,3.978
			c6.592,0.291,14.226,2.318,19.104,1.593c4.776-0.713,13.536-6.199,18.307-8.758c5.542-2.967,9.658-7.657,15.126-11.143
			c6.406-4.08,12.846-6.115,18.307-10.345c12.664-9.813,25.39-22.589,37.413-34.229c2.303-2.229,4.722-5.273,7.961-6.367
			c1.728,3.258,0.66,7.216-1.593,8.751c0,4.78,0,9.556,0,14.329c-6.799,20.264-12.317,41.809-23.084,58.113
			c8.456-2.598,29.824-7.656,30.248,3.182c0.435,11.038-20.59,11.148-33.432,11.142c7.902,3.472,19.372,8.091,16.716,18.313
			c-2.718,10.455-21.063,7.586-27.862,1.586c14.271,23.625,30.46,45.832,47.763,67.662c14.96,18.877,27.214,39.172,39.8,61.295
			c11.642,20.457,19.745,48.24,30.248,71.639C714.722,366.859,722.395,388.937,727.026,412.464z M403.054,53.463
			c2.104-10.455,5.495-21.195,6.366-29.449c1.76-16.634-5.723-26.947-16.716-16.718c-2.957,8.265-8.431,16.919-9.552,27.861
			c-1.69,16.513,2.427,28.244,5.575,39.801c2.195,8.078,1.82,17.387,7.957,20.697C397.905,81.558,400.021,68.544,403.054,53.463z
			 M608.422,47.893c-4.492,4.496-8.1,9.367-12.736,13.532c-4.689,4.21-9.551,7.792-14.328,11.938
			c-5.153,4.482-11.136,6.504-16.717,10.352c-3.281,2.262-5.473,5.785-8.755,7.961c-4.547,3.013-11.012,4.619-15.122,7.956
			c-2.928,2.377-2.346,3.769-3.98,4.78c-36.727-1.465-73.58-3.939-109.85-6.368c-15.722-1.056-31.8,0.065-47.763,0.79
			c-18.574,0.85-37.855,4.502-54.923,3.188c-10.605-0.816-20.609-0.699-31.842,0c-10.469,0.647-20.979-1.199-31.042,0.797
			c-5.503-4.839-13.188-6.271-19.103-10.352c-3.039-2.093-4.897-5.844-7.962-7.955c-5.94-4.1-12.39-5.855-17.513-10.352
			c-12.037-10.559-24.844-22.815-35.819-33.432c-2.067-1.996-3.956-5.352-7.165-5.572c3.281,3.582,1.117,8.123,1.594,11.939
			c0.87,6.977,3.213,14.75,5.571,21.493c2.354,6.731,4.706,14.29,7.163,19.899c4.309,9.828,13.89,17.848,12.736,27.862
			c-7.181-2.856-25.257-9.374-30.249,0c2.86,11.466,22.867,5.792,32.636,10.345c-5.458,5.422-16.871,4.885-15.92,16.721
			c7.849,9.71,23.963-1.082,31.046-1.594c-15.178,19.407-27.554,40.545-42.188,60.496c-7.255,9.893-14.555,19.266-21.493,29.449
			c-10.433,15.326-19.404,32.578-28.655,48.559c-9.52,16.441-16.628,33.951-24.678,52.536
			c-10.209,23.579-20.616,48.538-24.674,76.419c-17.407,14.699-48.802,15.412-51.743,44.576c2.235,3.6,7.177,4.494,10.35,7.164
			c6.925-0.025,14.429-0.635,15.919,4.773c-22.981,10.293-54.945,18.838-48.556,53.332c7.122,4.289,19.172,6.084,27.861,6.369
			c-3.483,7.857-9.111,19.537-13.531,27.861c-1.614,3.031-4.357,5.836-5.575,8.758c-2.127,5.098-6.866,19.344-6.368,23.879
			c0.513,4.637,5.141,10.299,9.553,11.141c9.323,1.787,19.447-7.514,27.861-8.75c-0.422,4.547-5.733,6.463-7.962,11.141
			c-3.705,7.785-5.257,19.789-7.163,29.449c-1.993,10.105-5.061,21.545,1.592,28.658c10.932,0.311,19.774-4.049,26.269-7.164
			c2.388-1.146,5.383-2.074,7.165-3.182c2.865-1.787,5.202-4.969,7.961-7.164c3.103-2.475,6.834-4.023,9.552-6.367
			c8.356-7.225,15.385-16.85,23.084-25.473c7.867-8.814,13.472-19.498,21.491-27.861c3.694-11.998,10.458-23.768,14.328-37.416
			c1.882-6.633,3.752-13.771,5.571-20.691c1.781-6.775,5.173-13.318,6.368-19.898c1.542-8.486,0.828-17.557,2.391-26.268
			c1.43-8.021,3.688-16.131,4.773-23.885c1.872-13.346,1.908-27.234,3.98-39.004c0.651-3.699,0.998-8.5,3.981-11.143
			c-4.594,22.188-5.16,46.732-9.552,66.865c-1.707,7.812-1.584,15.34-2.391,23.08c-1.639,15.756-6.229,27.512-8.755,40.598
			c-1.532,7.93-2.271,16.467-4.777,23.877c-2.98,8.824-9.652,15.904-11.142,24.682c-11.356,12.787-20.455,27.836-31.843,40.598
			c3.433,5.117,6.656,10.162,10.348,15.119c3.823,5.137,6.395,11.213,10.35,15.924c4.823,5.738,13.622,8.271,15.126,16.711
			c2.753,2.301,6.005,3.33,8.754,5.578c2.559,2.086,4.295,5.818,7.166,7.955c0.971,0.725,3.342,0.725,4.773,1.594
			c6.378,3.867,14.437,9.232,20.697,11.939c5.908,2.559,12.337,2.648,15.125,7.164c10.365,3.084,19.389,6.252,30.245,9.555
			c19.787,6.018,42.043,13.117,62.885,16.713c5.616,0.973,11.593,0.68,17.514,1.594c2.672,0.414,5.315,1.963,7.962,2.391
			c7.821,1.256,15.75,1.896,23.877,3.18c12.26,1.943,25.141,4.646,37.412,5.572c14.674,1.113,30.58-1.607,46.169-1.588
			c4.995,0,9.523,1.18,14.329,0.791c14.919-1.205,33.841-5.967,46.965-7.955c4.732-0.721,9.792-0.033,14.326-0.797
			c2.788-0.473,5.261-1.982,7.961-2.391c5.982-0.9,12.018-0.621,17.514-1.594c20.742-3.66,43.69-10.15,62.088-15.916
			c8.68-2.721,16.353-6.445,23.084-8.758c8.836-3.031,14.387-5.48,21.494-9.549c14.51-8.318,29.558-17.586,42.187-26.273
			c1.499-8.441,10.3-10.975,15.123-16.713c3.799-4.521,6.606-10.066,10.349-15.127c3.699-5.002,6.461-10.916,10.348-15.916
			c-11.284-13.125-21.152-27.668-31.839-41.395c-2.335-8.402-8.127-15.604-11.146-24.674c-2.51-7.547-3.125-15.6-4.773-23.885
			c-2.613-13.111-7.25-26.053-8.758-40.598c-3.091-29.816-8.784-60.328-11.143-89.148c4.914,13.416,4.68,27.855,6.368,42.184
			c1.646,13.986,5.723,27.52,7.161,41.395c1.111,10.703,1.839,19.012,3.981,26.268c1.017,3.441,1.521,7.076,2.39,10.354
			c5.552,20.986,13.766,40.908,20.693,58.105c7.53,8.512,13.646,18.334,21.493,27.064c7.884,8.771,14.437,18.793,23.084,26.268
			c2.646,2.287,6.498,3.934,9.553,6.369c3.229,2.572,5.545,6.029,8.755,7.961c1.463,0.881,4.211,1.381,6.368,2.383
			c7.341,3.436,15.86,7.555,26.268,7.166c6.64-7.035,3.592-18.533,1.593-28.652c-1.93-9.793-3.523-21.805-7.164-29.455
			c-2.163-4.547-8.033-6.473-7.164-11.143c7.832,1.814,18.189,10.457,27.064,8.752c4.719-0.9,9.186-6.822,9.552-11.938
			c0.236-3.273-1.809-6.854-3.185-11.143c-4.146-12.949-8.233-20.082-13.531-30.252c-3.615-6.932-7.92-13.229-7.958-19.104
			c9.509,1.459,19.964-2.061,27.063-5.57c6.786-38.785-32.657-43.986-56.517-57.311c3.852-2.08,6.89-0.266,11.142-0.797
			c9.552-1.193,20.296-6.277,19.9-14.328c-0.453-9.252-19.342-18.205-27.063-22.291c-4.023-2.125-7.823-5.312-10.345-6.369
			c-3.286-1.365-7.739-0.627-9.557-3.18c-4.611-28.399-14.139-53.975-24.674-78.008c-8.463-19.304-15.573-37.941-24.678-54.129
			c-9.474-16.85-18.4-33.873-28.654-49.355c-6.867-10.365-14.744-20.029-22.287-30.246c-14.887-20.158-28.273-41.626-42.985-62.09
			c7.366,3.142,28.268,12.373,31.042,1.594c2.831-10.98-12.398-10.008-15.92-16.72c11.414-2.909,30.317,1.665,32.637-10.345
			c-6.096-8.707-24.225-0.785-30.249,0c-1.208-5.164,2.369-9.238,4.777-13.533c5.986-10.669,10.691-20.748,15.123-33.433
			c3.809-10.896,5.636-23.728,6.368-34.229C619.843,39.172,613.715,42.6,608.422,47.893z M409.42,69.385
			c-5.12,6.686-8.726,15.141-9.552,22.291c2.728-3.174,6.491-6.977,11.146-10.352c10.747-7.799,30.897-13.564,24.674-31.838
			C422.477,50.821,416.019,60.778,409.42,69.385z M251.812,757.931c6.265-0.797,9.377-5.869,15.92-7.961
			c-2.023-4.955-1.992-13.189-0.797-19.104c-15.035-1.412-24.985-7.916-38.206-11.143
			C224.69,736.892,233.778,760.231,251.812,757.931z M532.006,730.069c1.198,5.914,1.228,14.148-0.798,19.104
			c6.792,2.307,9.782,7.312,16.717,7.961c17.021,1.594,24.888-19.227,23.084-36.613
			C558.244,720.755,546.693,729.099,532.006,730.069z M481.855,738.827c0.302,6.135-0.212,11.461-1.589,15.924
			c5.411,6.529,12.684,14.633,25.472,12.734c4.269-0.633,17.424-6.711,19.102-8.758c2.132-2.59,4.892-10.967,5.575-15.922
			c0.519-3.777,0.907-10.658-1.595-11.939C514.8,735.155,496.749,735.415,481.855,738.827z M268.529,744.399
			c0.482,3.096,3.934,13.129,5.571,15.125c2.275,2.771,16.038,8.285,19.899,8.752c13.772,1.684,19.08-6.879,24.678-12.734
			c-1.38-4.459-1.892-9.783-1.594-15.918c-15.565-3.271-33.497-4.178-48.555-7.961C268.985,736.042,267.917,740.487,268.529,744.399
			z M454.795,766.688c18.2,1.873,27.459-12.436,24.674-28.658c-14.591,3.453-30.669,5.416-46.167,7.963
			C435.867,757.187,444.773,765.653,454.795,766.688z M359.271,760.321c2.199-4.438,5.076-8.193,6.367-13.533
			c-15.809-2.5-31.868-4.746-46.961-7.961C314.454,767.116,345.137,774.288,359.271,760.321z"/>
		<path fill-rule="evenodd" clip-rule="evenodd" d="M404.646,171.278c7.411-16.454,17.082-33.361,35.82-35.823
			c7.819-1.03,17.093,1.517,23.881,4.774c5.264,2.533,11.773,8.842,19.104,13.533c6.559,4.197,14.436,7.584,19.9,11.938
			c4.229,3.375,8.722,9.096,13.532,13.533c9.659,8.913,16.46,14.99,23.881,26.268c3.092,4.709,5.697,9.665,8.754,14.329
			c5.883,8.985,12.995,21.06,15.123,30.251c0.819,3.525,0.27,7.955,0.797,11.939c0.551,4.139,2.025,7.1,1.594,10.346
			c-0.271,2.04-1.225,1.406-2.391,3.983c-0.544,1.204-0.393,4.022-0.794,4.774c-0.692,1.289-3.237,5.065-4.776,7.164
			c-11.134,15.191-45.783,16.604-67.662,10.346c-2.232-0.635-4.143-2.469-6.367-3.181c-8.486-2.728-15.45-5.778-23.085-9.556
			c-13.736-6.788-22.989-11.607-32.635-21.492c-7.855,25.846-17.919,49.478-28.656,72.441c-5.401-1.93-6.306-9.075-8.757-13.531
			c-5.18-9.433-9.083-19.221-14.326-30.252c-3.781-7.949-7.985-14.647-9.553-25.471c-9.723,4.521-15.061,17.832-25.473,25.471
			c-6.067,4.449-14.275,8.291-21.491,12.734c-14.269,8.785-35.072,12.057-58.11,9.555c-18.055-1.963-29.354-11.031-36.616-24.674
			c-4.61-8.668-6.799-26.301-3.978-42.19c2.296-12.937,9.675-27.104,17.509-38.206c14.488-20.529,33.89-41.038,57.313-53.334
			c3.071-1.613,6.479-3.18,9.551-4.78c0.549-0.278,1.29,0.751,2.392,0c10.021-6.834,26.347-16.797,41.391-18.308
			c13.568-1.359,26.848,2.482,34.229,7.963c2.987,2.215,4.153,6.146,7.163,10.345C396.307,158.309,402.068,162.798,404.646,171.278z
			 M386.336,147.393c-10.977-5.389-22.138-10.371-36.616-8.758c-4.197,0.473-8.895,2.662-13.531,3.984
			c-15.27,4.34-27.849,10.48-36.617,18.307c-5.843,6.627-10.579,14.361-16.717,20.696c-4.32,10.974-5.755,18.158-6.368,32.636
			c-1.097,26.08,3.197,39.302,18.312,47.762c16.009,8.959,36.923,15.262,57.31,7.962c4.379-1.567,9.107-5.396,11.941-7.165
			c1.756-1.102,3.777-0.836,4.777-1.594c2.699-2.047,5.037-5.967,7.959-8.758c3.103-2.961,7.158-5.137,9.551-7.961
			c5.737-6.75,9.49-15.185,15.92-20.691c-0.651,8.208,4.794,12.522,9.552,19.104c4.991,6.898,8.049,11.59,14.329,14.33
			c10.241,4.463,28.408,7.377,41.394,6.367c10.271-0.803,17.815-3.239,23.085-7.164c10.558-7.878,18.42-20.717,16.717-39.801
			c-1.439-16.117-7.127-26.34-13.533-38.213c-8.052-14.912-17.458-28.38-31.046-34.223c-6.315-2.721-16.201-5.273-23.88-3.984
			c-8.889,1.496-20.546,10.63-24.676,15.923c-4.855,6.218-6.096,13.415-9.552,21.493
			C401.223,164.877,393.03,156.883,386.336,147.393z M430.117,262.02c6.98,8.24,15.897,15.314,26.269,19.9
			c16.129,7.125,32.937,14.783,52.535,17.51c5.555,0.777,11.868,1.166,16.717,0.797c21.943-1.658,32.697-11.143,39.8-27.064
			c-0.65-21.914-7.487-37.631-18.306-54.13c-6.142-9.36-12.033-18.818-18.312-26.269c-14.075-16.713-31.793-30.361-47.757-38.206
			c2.257,0.9,2.963,4.197,4.774,7.165c7.445,12.191,16.386,25.84,19.9,39.8c1.722,6.841,3.497,13.526,3.98,19.899
			c2.225,29.501-17.73,45.683-44.578,46.966c-13.135,0.628-23.822-3.103-35.819-8.759
			C425.884,259.895,430.348,262.292,430.117,262.02z M259.771,188.788c-18.919,20.748-42.13,48.092-35.818,89.945
			c1.271,8.434,6.406,13.889,10.348,19.104c3.905,5.176,4.589,7.164,8.755,9.555c10.97,6.283,23.602,5.416,40.598,5.571
			c15.562,0.143,23.537-0.829,35.819-7.962c8.03-4.657,18.18-11.109,23.88-15.916c3.094-2.609,4.094-3.518,6.368-6.367
			c2.996-3.758,6.683-6.556,9.552-9.555c1.862-1.943,5.937-5.52,3.185-4.774c-13.659,9.548-36.931,12.075-54.126,5.571
			c-6.158-2.326-16.426-8.234-20.697-11.939c-12.253-10.637-14.126-25.73-12.736-44.574c1.066-14.459,0.985-26.56,5.57-35.026
			c1.157-2.132,3.819-3.161,5.571-5.571c1.766-2.428,2.346-5.9,3.981-7.961c1.351-1.703,4.052-3.084,5.573-4.773
			c3.642-4.068,6.032-6.369,7.959-8.759C285.964,163.601,272.377,174.963,259.771,188.788z M383.949,248.488
			c-5.503,5.727-11.673,9.71-14.33,15.917c3.351,6.127,2.509,13.195,4.778,19.109c1.943,5.059,6.234,10.682,7.165,13.531
			c4.349,13.346,11.361,22.752,19.103,32.637c9.753-20.496,19.548-40.953,25.472-65.277c-0.289-2.572-3.608-4.749-1.591-7.158
			c-12.051-5.195-16.327-18.171-23.881-27.862C393.802,234.975,390.165,242.016,383.949,248.488z"/>
		<path fill-rule="evenodd" clip-rule="evenodd" d="M392.704,199.133c-4.618-2.527-3.975-7.969-9.552-7.955
			c-4.418,0.006-7.329,5.428-8.755,10.345c3.297,6.446,9.364,1.587,17.511,2.39c-0.888,0.979-0.694,1.633,0.796,1.588
			c-0.661,7.832-10.043,12.962-17.51,9.555c-12.399-5.662-1.042-30.297,11.938-24.674
			C389.397,191.358,391.056,195.012,392.704,199.133z"/>
		<path fill-rule="evenodd" clip-rule="evenodd" d="M423.75,197.545c-1.303,3.621-3.113-1.594-5.571-1.594
			c-2.724,0.727-5.704,1.192-7.962,2.385c-0.375,2.96-1.26,2.979-1.589,7.164c3.141,5.59,14.104,1.205,19.899,0
			c1.221,6.264-3.407,6.679-3.981,11.148c-8.729,3.894-17.671,0.078-19.106-7.164C403.328,198.809,414.608,189.584,423.75,197.545z"
			/>
		<path fill-rule="evenodd" clip-rule="evenodd" d="M594.097,390.97c0.923-0.129,1.415,0.182,1.589,0.797
			c-2.134,11.641-4.698,25.174-15.92,26.268c-8.783,0.861-12.871-6.193-19.102-11.141c1.23,8.66-3.515,11.35-3.185,19.104
			c-9.403,11.459-14.961,26.086-34.229,23.883c-13.471-1.541-19.815-12.424-30.249-18.314c0.805,9.414,0.875,21.432-3.183,28.66
			c-2.165,3.848-10.037,10.332-13.532,11.143c-5.976,1.393-14.845-0.531-19.9-2.385c-9.613-3.531-18.019-12.574-23.084-19.104
			c-7.243,9.963-13.125,23.801-27.065,25.471c-21.143,2.527-36.211-12.838-39.8-31.846c-6.079,9.537-9.737,23.289-22.287,24.682
			c-2.553,0.279-5.445-1.197-9.552-1.594c-5.807-0.557-9.943-0.232-13.532-2.391c-9.005-5.402-12.506-17.535-14.331-29.447
			c-5.543,4.967-11.15,12.857-19.899,18.307c-7.028,4.377-14.066,7.223-23.88,3.186c-13.875-5.713-19.411-17.146-17.51-39.801
			c-5.021,2.152-11.927,9.297-23.084,7.957c-8.23-5.035-7.688-18.846-8.758-31.043c5.204,7.748,0.641,22.621,8.758,26.27
			c6.918,3.107,14.908-3.785,19.104-7.166c2.592-2.086,6.277-2.436,6.367-5.57c2.936,3.582,0.098,8.006,0,11.938
			c-0.338,13.816,2.261,27.68,11.146,32.637c1.078,0.602,9.087,3.783,10.348,3.984c10.3,1.611,15.061-4.348,23.08-7.963
			c2.74-2.352,4.59-6.336,7.165-9.555c2.181-2.721,4.907-6.789,7.961-6.369c3.3,12.297,6.709,29.736,19.9,32.637
			c6.704,1.477,16.162,1.031,22.287-3.18c5.549-3.816,9.999-11.934,13.532-18.307c1.145-2.066,1.483-5.086,3.981-6.367
			c0.645,5.207,1.185,10.799,3.981,15.916c2.13,3.904,6.645,9.555,9.551,11.938c4.104,3.377,19.642,8.928,28.654,5.578
			c9.873-3.674,18.838-16.064,23.084-26.275c1.422,1.238,0.531,4.781,2.392,5.578c2.545,3.02,5.826,6.918,10.345,9.549
			c2.037,1.186,4.483,1.166,7.165,2.391c4.521,2.066,13.476,7.838,23.083,5.57c7.039-1.658,14.628-14.898,15.92-23.088
			c0.92-5.803-0.738-11.076,0.797-15.916c6.932,4.057,15.084,12.82,23.084,16.715c16.616,8.09,33.527-7.029,40.597-19.104
			c0.396-7.955,5.364-14.252,2.388-23.082c7.167,2.514,9.244,10.643,15.922,11.939C587.91,416.714,589.799,401.651,594.097,390.97z"
			/>
	</g>
</g>
</svg>
