<?xml version="1.0" encoding="UTF-8" standalone="no"?>
<svg
   xmlns:dc="http://purl.org/dc/elements/1.1/"
   xmlns:cc="http://creativecommons.org/ns#"
   xmlns:rdf="http://www.w3.org/1999/02/22-rdf-syntax-ns#"
   xmlns:svg="http://www.w3.org/2000/svg"
   xmlns="http://www.w3.org/2000/svg"
   viewBox="0 0 357.33334 933.33331"
   height="933.33331"
   width="357.33334"
   xml:space="preserve"
   id="svg2"
   version="1.1"><metadata
     id="metadata8"><rdf:RDF><cc:Work
         rdf:about=""><dc:format>image/svg+xml</dc:format><dc:type
           rdf:resource="http://purl.org/dc/dcmitype/StillImage" /></cc:Work></rdf:RDF></metadata><defs
     id="defs6" /><g
     transform="matrix(1.3333333,0,0,-1.3333333,0,933.33333)"
     id="g10"><g
       transform="scale(0.1)"
       id="g12"><path
         id="path14"
         style="fill:#c60e00;fill-opacity:1;fill-rule:nonzero;stroke:none"
         d="m 2407.94,4765.87 c 38.48,-162.17 85.49,-345.18 14.09,-507.66 -15.56,-16.13 -34.95,-24.38 -56.69,-31.42 -32.62,8.24 -52.87,36.13 -67.85,64.35 65.5,150.39 64.61,321.94 110.45,474.73" /><path
         id="path16"
         style="fill:#dbac42;fill-opacity:1;fill-rule:nonzero;stroke:none"
         d="m 2495.78,3554.39 c -50.26,-44.07 -120.16,-20.28 -179.5,-29.36 -13.79,37.85 2.36,77.23 -5.27,116.29 3.81,31.73 -0.61,64.06 5.27,95.18 56.97,3.25 118.09,3.53 173.91,-9.4 31.44,-49.92 37.01,-121.89 5.59,-172.71" /><path
         id="path18"
         style="fill:#bc8b33;fill-opacity:1;fill-rule:nonzero;stroke:none"
         d="m 2316.28,3736.5 c -5.88,-31.12 -1.46,-63.45 -5.27,-95.18 -36.16,8.26 -72.88,0 -109.3,0 -2.93,6.48 -4.4,14.69 -12.34,24.67 11.76,29.69 -6.74,58.46 -9.38,86.97 32.01,22.32 70.77,27.9 109.84,27.61 22.92,-7.34 6.78,-35.83 26.45,-44.07" /><path
         id="path20"
         style="fill:#bc8b33;fill-opacity:1;fill-rule:nonzero;stroke:none"
         d="m 2316.28,3525.03 c -3.24,-1.5 -6.16,-2.96 -9.4,-4.72 -34.66,4.42 -74.02,0.58 -110.45,4.72 20.57,38.75 -0.3,76.64 5.28,116.29 36.42,0 73.14,8.26 109.3,0 7.63,-39.06 -8.52,-78.44 5.27,-116.29" /><path
         id="path22"
         style="fill:#0044b2;fill-opacity:1;fill-rule:nonzero;stroke:none"
         d="m 2297.49,4291.14 c 14.98,-28.22 35.23,-56.11 67.85,-64.35 21.74,7.04 41.13,15.29 56.69,31.42 -30.24,-162.15 -150.11,-284.63 -223.25,-430.66 -13.52,-8.49 -28.49,-14.08 -41.14,-24.06 -30.84,9.38 -55.5,33.47 -85.77,43.45 73.73,145.45 155.4,295.55 225.62,444.2" /><path
         id="path24"
         style="fill:#bc8b33;fill-opacity:1;fill-rule:nonzero;stroke:none"
         d="m 2198.78,3827.55 c 27.92,-9.98 61.39,-3.5 83.71,-24.95 1.47,-5.57 4.71,-14.68 7.34,-22.03 -39.07,0.29 -77.83,-5.29 -109.84,-27.61 -7.05,17.05 -22.03,32.03 -22.35,50.53 12.65,9.98 27.62,15.57 41.14,24.06" /><path
         id="path26"
         style="fill:#bc8b33;fill-opacity:1;fill-rule:nonzero;stroke:none"
         d="m 2189.37,3665.99 c 7.94,-9.98 9.41,-18.19 12.34,-24.67 -5.58,-39.65 15.29,-77.54 -5.28,-116.29 -9.41,-18.26 -18.79,-36.72 -31.73,-52.91 -61.39,17.62 -134.83,18.52 -195.65,49.34 6.76,33.51 7.05,70.8 3.52,105.78 3.53,17.32 0.9,35.53 1.8,52.87 69.01,15.25 150.97,27.61 215,-14.12" /><path
         id="path28"
         style="fill:#e89c05;fill-opacity:1;fill-rule:nonzero;stroke:none"
         d="m 1848.33,5979.94 c -47.01,17.64 -79.02,-33.19 -124.55,-26.71 -6.17,7.04 -3.24,16.73 -3.24,24.07 9.12,12.95 19.67,27.02 21.74,42.89 -22.04,7.35 -42.9,-17.9 -60.53,-27.6 l -47.56,16.73 c 28.48,65.49 84.88,124.56 153.32,220.63 24.1,24.4 57.87,48.17 63.46,83.43 64.32,26.42 82.54,95.47 130.73,134.82 67.84,-7.63 136.58,10.86 204.46,-6.76 119.83,0.88 353.68,-90.77 417.72,-169.78 40.82,-50.54 51.11,-117.78 52.87,-184.2 6.17,-234.12 -160.11,-419.78 -309.63,-574.86 -13.79,63.42 -74,148.02 -147.17,125.13 -2.34,4.11 -4.7,8.49 -6.77,12.34 -31.41,8.81 -64.91,20.82 -98.39,21.14 -127.5,52.87 -187.42,195.33 -246.46,308.73" /><path
         id="path30"
         style="fill:#bc8b33;fill-opacity:1;fill-rule:nonzero;stroke:none"
         d="m 2179.99,3752.96 c 2.64,-28.51 21.14,-57.28 9.38,-86.97 -64.03,41.73 -145.99,29.37 -215,14.12 5.55,47.3 -16.2,89.01 -24.71,133.96 39.96,14.69 77.25,42.29 122.21,32.87 30.27,-9.98 54.93,-34.07 85.77,-43.45 0.32,-18.5 15.3,-33.48 22.35,-50.53" /><path
         id="path32"
         style="fill:#bc8b33;fill-opacity:1;fill-rule:nonzero;stroke:none"
         d="m 2196.43,3525.03 c 36.43,-4.14 75.79,-0.3 110.45,-4.72 -7.07,-68.74 -91.95,-87.84 -148.35,-71.97 2.07,8.8 5.29,17.92 6.17,23.78 12.94,16.19 22.32,34.65 31.73,52.91" /><path
         id="path34"
         style="fill:#bc8b33;fill-opacity:1;fill-rule:nonzero;stroke:none"
         d="m 1947.3,3456.86 c 14.7,17.33 12.67,43.77 21.75,64.6 60.82,-30.82 134.26,-31.72 195.65,-49.34 -0.88,-5.86 -4.1,-14.98 -6.17,-23.78 -64.34,-42.89 -140.99,-39.38 -214.15,-13.22 -0.58,7.33 1.46,16.45 2.92,21.74" /><path
         id="path36"
         style="fill:#c4b59b;fill-opacity:1;fill-rule:nonzero;stroke:none"
         d="m 1618.31,6366.25 c 189.18,98.71 400.68,161.57 618.65,167.44 -0.9,-37.92 -37.28,-59.35 -50.8,-92.25 -67.88,17.62 -136.62,-0.87 -204.46,6.76 -48.19,-39.35 -66.41,-108.4 -130.73,-134.82 -8.8,-0.29 -14.1,-1.79 -21.18,-3.56 -72.53,5.91 -162.42,-7.02 -211.48,56.43" /><path
         id="path38"
         style="fill:#bc8b33;fill-opacity:1;fill-rule:nonzero;stroke:none"
         d="m 1972.57,3627.24 c 3.53,-34.98 3.24,-72.27 -3.52,-105.78 -9.08,-20.83 -7.05,-47.27 -21.75,-64.6 -40.22,18.78 -112.8,-14.41 -124.54,46.98 4.41,39.37 12.36,74.94 11.74,115.16 44.67,9.12 92.26,17.61 138.07,8.24" /><path
         id="path40"
         style="fill:#bc8b33;fill-opacity:1;fill-rule:nonzero;stroke:none"
         d="m 1972.57,3627.24 c -45.81,9.37 -93.4,0.88 -138.07,-8.24 -21.42,29.66 -18.79,68.73 -37,99.31 -4.99,0.87 -9.7,0.87 -17.04,0.58 -10.59,82.85 81.07,115.44 148.06,116.32 7.06,-7.06 14.11,-14.09 21.14,-21.14 8.51,-44.95 30.26,-86.66 24.71,-133.96 -0.9,-17.34 1.73,-35.55 -1.8,-52.87" /><path
         id="path42"
         style="fill:#ead903;fill-opacity:1;fill-rule:nonzero;stroke:none"
         d="m 1781.36,4473.54 c 42.88,12.65 56.1,61.39 73.43,97.54 2.64,0.57 5.28,1.18 8.8,1.49 12.63,-49.98 32.62,-107.81 80.21,-136.9 5.58,-0.6 12.03,-0.89 18.2,0.57 57.57,46.13 66.69,122.5 96.96,182.74 14.09,-16.75 20.85,-46.41 49.34,-47.62 3.23,1.21 6.74,2.07 9.7,5 14.39,26.44 17.62,62.6 43.46,80.21 11.75,-22.32 30.55,-44.92 59.64,-47.28 2.64,0.86 5.28,1.75 8.8,3.2 13.52,17.63 20.29,39.08 24.1,60.82 3.25,6.15 7.06,11.77 13.51,17.33 23.79,-28.51 46.13,2.92 61.11,20.55 4.1,-62.55 -11.76,-133.06 -42.32,-190.34 -3.5,-1.47 -6.16,-2.36 -8.52,-3.25 -17.89,-4.99 -21.42,19.68 -35.54,17.94 -23.5,-30.56 -4.11,-131.6 -56.68,-107.82 -25.85,-53.16 -36.72,-151.26 -114.87,-154.21 -14.98,7.05 -22.32,29.97 -39.94,29.37 -21.45,-32.62 -35.86,-75.19 -70.51,-95.48 -19.68,4.71 -28.48,24.4 -41.42,37.04 -32.3,-33.79 -44.06,-90.19 -90.2,-111.93 -91.33,-6.49 -79.61,113.09 -91.94,172.11 -60.79,-80.18 -129.83,-5.27 -129.83,69.34 -20.57,-1.18 -27.6,-36.39 -51.1,-29.97 -5.02,4.13 -8.51,10.3 -13.53,14.69 -17.91,46.41 -5.29,99.03 -2.65,147.19 -16.44,2.95 -24.67,-17.93 -41.1,-18.22 -4.43,1.46 -12.95,2.63 -19.1,5.29 -36.73,74.03 -23.5,169.51 -5.58,248.22 26.14,-44.35 32.88,-106.35 74.31,-140.13 16.15,4.41 22.34,27.93 40.52,27.93 14.42,-31.43 16.47,-81.69 57.89,-91.96 31.73,5.59 35.55,45.55 60.51,59.95 11.76,-45.85 24.67,-100.78 74.34,-123.41" /><path
         id="path44"
         style="fill:#fffff3;fill-opacity:1;fill-rule:nonzero;stroke:none"
         d="m 2236.96,6533.69 c -217.97,-5.87 -429.47,-68.73 -618.65,-167.44 -85.76,67.27 -59.64,199.75 -40.23,295.22 57.56,152.76 234.39,46.99 309.9,-25.56 5.88,-3.24 11.44,-5.89 19.1,-4.99 3.5,3.52 5.86,5.59 8.53,7.66 -0.89,12.33 6.45,22.6 7.63,28.46 65.5,322.55 388.06,43.19 313.72,-133.35" /><path
         id="path46"
         style="fill:#bc8b33;fill-opacity:1;fill-rule:nonzero;stroke:none"
         d="m 1822.76,3503.84 c 11.74,-61.39 84.32,-28.2 124.54,-46.98 -1.46,-5.29 -3.5,-14.41 -2.92,-21.74 -33.2,-76.66 -136.62,-79.29 -183.61,-16.48 -9.96,31.74 14.69,54.37 19.69,82.85 13.22,5.6 28.81,8.83 42.3,2.35" /><path
         id="path48"
         style="fill:#bc8b33;fill-opacity:1;fill-rule:nonzero;stroke:none"
         d="m 1928.52,3835.21 c -66.99,-0.88 -158.65,-33.47 -148.06,-116.32 -28.2,0.86 -56.68,-1.78 -84.59,1.77 5.59,101.91 162.73,241.16 232.65,114.55" /><path
         id="path50"
         style="fill:#e89c05;fill-opacity:1;fill-rule:nonzero;stroke:none"
         d="m 1928.52,5407.43 c -56.4,-14.69 -70.81,18.19 -96.65,44.06 -110.45,110.45 -180.65,258.19 -208.27,383.64 -16.15,73.44 -10.59,125.45 10.59,174.19 l 47.56,-16.73 c 17.63,9.7 38.49,34.95 60.53,27.6 -2.07,-15.87 -12.62,-29.94 -21.74,-42.89 0,-7.34 -2.93,-17.03 3.24,-24.07 45.53,-6.48 77.54,44.35 124.55,26.71 59.04,-113.4 118.96,-255.86 246.46,-308.73 -9.7,-112.2 -75.5,-205.95 -166.27,-263.78" /><path
         id="path52"
         style="fill:#dbac42;fill-opacity:1;fill-rule:nonzero;stroke:none"
         d="m 1584.81,3543.81 c 13.52,4.39 27.02,8.81 40.53,13.23 v -0.29 c 36.72,2.35 74.04,-21.47 81.97,-58.75 -16.44,-1150.37 -6.17,-2303.69 -35.84,-3453.1797 H 1466.73 C 1453.8,1170.53 1482.31,2297.08 1487.3,3423.35 c 36.4,16.76 76.66,44.67 81.66,87.55 2.34,1.46 4.69,2.64 6.75,4.13 2.64,9.7 5.3,19.37 7.64,29.06 l 1.46,-0.28" /><path
         id="path54"
         style="fill:#dbac42;fill-opacity:1;fill-rule:nonzero;stroke:none"
         d="m 1834.5,3619 c 0.62,-40.22 -7.33,-75.79 -11.74,-115.16 -13.49,6.48 -29.08,3.25 -42.3,-2.35 -23.78,12.35 -48.17,-5.27 -73.15,-3.49 -7.93,37.28 -45.25,61.1 -81.97,58.75 v 0.29 c -13.51,-4.42 -27.01,-8.84 -40.53,-13.23 l -1.46,0.28 c 8.81,33.77 16.15,68.17 10.27,104.29 12.37,19.68 5.59,43.78 5.31,65.22 31.41,10.28 64.92,2.07 96.94,7.06 27.91,-3.55 56.39,-0.91 84.59,-1.77 7.34,0.29 12.05,0.29 17.04,-0.58 18.21,-30.58 15.58,-69.65 37,-99.31" /><path
         id="path56"
         style="fill:#bc8b33;fill-opacity:1;fill-rule:nonzero;stroke:none"
         d="m 1598.93,3713.6 c 0.28,-21.44 7.06,-45.54 -5.31,-65.22 -52.56,24.38 -111.91,29.66 -169.2,26.45 -14.98,36.14 -16.71,82.24 -38.76,118.07 54.05,62.6 155.09,55.54 206.21,-3.5 7.94,-25.27 -2.64,-51.69 7.06,-75.8" /><path
         id="path58"
         style="fill:#bc8b33;fill-opacity:1;fill-rule:nonzero;stroke:none"
         d="m 1487.3,3423.35 c -20.85,18.53 -53.18,2.64 -73.44,24.1 0,4.7 0,9.41 0,14.11 10.27,16.15 6.75,36.72 17.61,52.88 45.53,-2.08 92.54,4.67 137.49,-3.54 -5,-42.88 -45.26,-70.79 -81.66,-87.55" /><path
         id="path60"
         style="fill:#bc8b33;fill-opacity:1;fill-rule:nonzero;stroke:none"
         d="m 1424.42,3644.87 c 3.81,-42.03 9.41,-86.09 7.05,-130.43 -10.86,-16.16 -7.34,-36.73 -17.61,-52.88 -70.22,15.54 -156,-10.58 -227.37,24.67 4.98,41.14 12.62,84.29 7.63,126.91 0.59,5.29 1.16,10.56 1.16,17.61 63.76,51.7 158.94,44.65 229.14,14.12" /><path
         id="path62"
         style="fill:#bc8b33;fill-opacity:1;fill-rule:nonzero;stroke:none"
         d="m 1424.42,3644.87 c 0,9.1 0,19.09 0,29.96 57.29,3.21 116.64,-2.07 169.2,-26.45 5.88,-36.12 -1.46,-70.52 -10.27,-104.29 -2.34,-9.69 -5,-19.36 -7.64,-29.06 -2.06,-1.49 -4.41,-2.67 -6.75,-4.13 -44.95,8.21 -91.96,1.46 -137.49,3.54 2.36,44.34 -3.24,88.4 -7.05,130.43" /><path
         id="path64"
         style="fill:#bc8b33;fill-opacity:1;fill-rule:nonzero;stroke:none"
         d="m 1591.87,3789.4 c -51.12,59.04 -152.16,66.1 -206.21,3.5 -6.16,6.48 -12.94,13.22 -14.11,21.17 52.01,59.62 135.43,135.12 212.69,59.05 9.99,-26.45 12.33,-55.55 7.63,-83.72" /><path
         id="path66"
         style="fill:#bc8b33;fill-opacity:1;fill-rule:nonzero;stroke:none"
         d="m 1424.42,3644.87 c -70.2,30.53 -165.38,37.58 -229.14,-14.12 -9.08,41.15 -19.67,81.37 -49.34,112.81 0,2.35 0,4.71 0,7.06 51.7,51.4 119.55,91.64 192.4,78.71 8.53,-9.69 22.06,-10.27 33.21,-15.26 1.17,-7.95 7.95,-14.69 14.11,-21.17 22.05,-35.83 23.78,-81.93 38.76,-118.07 0,-10.87 0,-20.86 0,-29.96" /><path
         id="path68"
         style="fill:#bc8b33;fill-opacity:1;fill-rule:nonzero;stroke:none"
         d="m 1045.48,3591.97 c 47.59,17.34 97.83,23.22 148.64,21.17 4.99,-42.62 -2.65,-85.77 -7.63,-126.91 -2.66,-7.63 -1.48,-18.82 -8.82,-28.19 -43.49,0.28 -88.44,5.58 -128.37,27.02 -2.63,4.68 -3.82,10.58 -6.78,16.43 3.82,29.98 -1.74,60.82 2.96,90.48" /><path
         id="path70"
         style="fill:#bc8b33;fill-opacity:1;fill-rule:nonzero;stroke:none"
         d="m 1194.12,3613.14 c -50.81,2.05 -101.05,-3.83 -148.64,-21.17 -2.35,35.86 -27.62,61.4 -33.5,95.19 38.79,30.55 83.14,55.83 133.96,56.4 29.67,-31.44 40.26,-71.66 49.34,-112.81 0,-7.05 -0.57,-12.32 -1.16,-17.61" /><path
         id="path72"
         style="fill:#bc8b33;fill-opacity:1;fill-rule:nonzero;stroke:none"
         d="m 1413.86,3447.45 c -64.06,-77.85 -170.4,-75.21 -257.35,-41.14 -3.54,20.59 19.69,32.33 21.16,51.73 7.34,9.37 6.16,20.56 8.82,28.19 71.37,-35.25 157.15,-9.13 227.37,-24.67 0,-4.7 0,-9.41 0,-14.11" /><path
         id="path74"
         style="fill:#bc8b33;fill-opacity:1;fill-rule:nonzero;stroke:none"
         d="m 1338.34,3829.33 c -72.85,12.93 -140.7,-27.31 -192.4,-78.71 -6.46,7.06 -13.22,16.74 -15.86,26.44 24.96,99.87 141.89,135.12 208.26,52.27" /><path
         id="path76"
         style="fill:#bc8b33;fill-opacity:1;fill-rule:nonzero;stroke:none"
         d="m 992.301,3827.87 c 57.569,22.92 99.289,-14.09 137.779,-50.81 2.64,-9.7 9.4,-19.38 15.86,-26.44 0,-2.35 0,-4.71 0,-7.06 -50.82,-0.57 -95.17,-25.85 -133.96,-56.4 -7.64,12.34 -9.98,27.02 -17.042,39.35 -32.297,11.77 -74.297,-9.98 -101.653,15.87 27.031,34.97 68.164,55.51 99.016,85.49" /><path
         id="path78"
         style="fill:#0044b2;fill-opacity:1;fill-rule:nonzero;stroke:none"
         d="m 1076.9,4368.1 c -35.23,-91.35 22.91,-248.23 132.51,-152.17 -22.35,-149.24 -142.22,-262.61 -217.109,-388.06 -30.852,-29.98 -71.985,-50.52 -99.016,-85.49 -34.07,-16.43 -77.246,-9.09 -113.965,-5.88 -55.507,91.65 18.821,188.59 50.52,269.1 -48.449,-7.36 -87.805,-66.98 -141.574,-49.63 -41.133,83.98 44.355,172.12 55.507,248.2 -59.921,-24.68 -121.882,-87.25 -191.816,-55.51 -12.031,121.89 56.992,236.17 109.297,337.21 -30.274,0.32 -60.84,-9.98 -92.266,-5.56 -71.375,50.55 -41.113,145.1 0.606,210.91 10.871,16.76 22.316,31.73 32.902,43.49 -24.992,-165.99 149.52,-138.36 249.383,-109.3 -18.516,-48.45 -74.024,-95.47 -49.356,-153.62 3.243,-1.47 5.606,-3.24 8.243,-4.71 73.73,-0.89 146.582,39.96 210.904,58.75 -14.68,-45.52 -61.959,-107.19 -14.09,-149.2 22.33,-12.97 49.92,7.03 69.32,-8.53" /><path
         id="path80"
         style="fill:#bc8b33;fill-opacity:1;fill-rule:nonzero;stroke:none"
         d="m 1087.19,3369.9 c -27.03,-4.4 -52.01,7.03 -71.69,24.68 -1.75,21.72 -17.605,41.43 -12.04,62.56 13.83,9.71 21.46,23.21 22.63,39.65 7.35,2.63 12.05,3.24 16.43,4.7 2.96,-5.85 4.15,-11.75 6.78,-16.43 39.93,-21.44 84.88,-26.74 128.37,-27.02 -1.47,-19.4 -24.7,-31.14 -21.16,-51.73 -23.22,-12.34 -45.53,-27.88 -69.32,-36.41" /><path
         id="path82"
         style="fill:#c60e00;fill-opacity:1;fill-rule:nonzero;stroke:none"
         d="m 920.316,3489.74 c 35.86,0.31 70.235,17.03 105.774,7.05 -1.17,-16.44 -8.8,-29.94 -22.63,-39.65 -5.565,-21.13 10.29,-40.84 12.04,-62.56 -16.434,-582.53 -45.809,-1170.34 -66.98,-1759.02 -4.102,-6.19 -16.719,-10.88 -17.618,-15.57 -37.011,-163.33 -132.761,-467.68 -344.57,-366.61 -25.262,12.05 -41.133,24.37 -71.394,59.04 0.292,5.28 0.593,11.44 2.07,15.55 17.605,21.17 49.629,37.31 51.406,66.7 -8.234,0.59 -19.101,-2.36 -24.387,-4.1 -20.566,-6.5 -46.132,-16.47 -69.023,-9.42 -39.07,79.6 -4.414,176.25 -39.395,252.62 157.188,610.76 246.204,1244.09 382.5,1861.87 33.77,0.29 68.731,-0.88 102.207,-5.9" /><path
         id="path84"
         style="fill:#0044b2;fill-opacity:1;fill-rule:nonzero;stroke:none"
         d="m 977.602,1574.73 c -19.961,14.99 -3.516,48.49 -29.082,60.83 21.171,588.68 50.546,1176.49 66.98,1759.02 19.68,-17.65 44.66,-29.08 71.69,-24.68 37.9,-365.44 51.98,-735.56 88.42,-1096.6 -10.87,-14.68 -32.3,-0.6 -46.13,-10.02 4.99,-24.68 32.61,-49.63 53.47,-61.95 27.31,-223.54 55.24,-531.13 -205.348,-626.6" /><path
         id="path86"
         style="fill:#618e00;fill-opacity:1;fill-rule:nonzero;stroke:none"
         d="m 1850.97,6313.38 c -5.59,-35.26 -39.36,-59.03 -63.46,-83.43 -68.44,-96.07 -124.84,-155.14 -153.32,-220.63 -21.18,-48.74 -26.74,-100.75 -10.59,-174.19 27.62,-125.45 97.82,-273.19 208.27,-383.64 25.84,-25.87 40.25,-58.75 96.65,-44.06 90.77,57.83 156.57,151.58 166.27,263.78 33.48,-0.32 66.98,-12.33 98.39,-21.14 2.07,-3.85 4.43,-8.23 6.77,-12.34 10.27,-128.98 60.51,-252.04 93.42,-373.68 34.96,-52.27 117.78,-51.7 139.53,-113.98 -16.15,-35.82 -61.68,-5.88 -91.05,-14.97 -12.66,-21.14 17.61,-47.88 -0.89,-69.63 -44.95,7.35 -84.31,37.61 -124.25,55.23 -2.67,-12.63 -4.42,-29.38 -20,-33.2 -24.67,2.93 -40.53,20.86 -59.92,32.6 -2.65,-3.51 -4.4,-8.21 -6.47,-12.03 -0.88,-32.33 -5.58,-64.63 -20.55,-93.71 -3.22,-1.47 -5.89,-2.93 -8.53,-4.43 -41.99,5.31 -72.55,49.98 -110.45,54.08 -12.93,-35.83 -15.86,-80.17 -52.87,-102.21 -62.27,-16.47 -82.56,71.67 -137.48,73.72 -5.59,-19.09 -15.87,-39.36 -34.95,-47.9 -46.12,19.67 -24.09,83.13 -47.88,119.27 -50.24,-39.06 -124.28,-68.15 -155.69,13.52 -5.02,0.89 -8.84,0.89 -12.65,1.19 -8.21,-7.35 -19.96,-10.28 -27.31,-18.84 -4.1,-1.43 -10.27,-1.43 -15.29,-1.43 -2.04,1.16 -3.82,2.93 -5.57,4.68 -17.63,8.51 -23.49,29.69 -32.33,44.67 -3.51,0 -6.16,-0.89 -8.81,-1.5 -10.87,-37 -41.71,-61.1 -71.96,-81.64 -40.24,-0.57 -66.69,54.62 -74.03,92.23 -2.64,3.24 -6.47,4.11 -10.27,4.99 -34.68,-21.71 -57.57,-65.78 -100.78,-71.08 -27.03,21.74 -54.95,48.16 -62.28,83.13 -2.04,0.89 -4.99,1.18 -8.2,1.46 -31.44,-15.26 -62.57,-71.94 -101.07,-49.62 -4.39,59.61 13.22,120.42 31.73,175.04 -61.1,-25.82 -124.248,-64.89 -192.12,-70.16 -16.757,27.6 2.344,61.68 10.872,88.7 -3.243,2.35 -6.77,3.21 -9.981,3.81 -7.062,-3.81 -14.113,-5.88 -20.851,-6.74 -14.122,-6.77 -17.938,-23.53 -31.446,-30.58 -46.133,26.45 -101.035,-32.01 -145.711,1.21 18.797,77.82 162.176,146.87 227.383,243.2 105.444,156.01 272.904,461.22 330.764,584.03 16.43,34.04 41.71,68.12 27.31,110.72 -133.65,-16.74 -243.21,-114.28 -361.601,-136.88 65.801,142.46 223.851,219.13 359.561,272 4.71,4.13 7.63,9.71 9.7,13.52 -102.24,22.35 -212.69,-12.94 -317.562,-12.63 -2.07,4.1 -0.586,10.59 0.273,15.3 146.599,121.28 346.059,144.2 520.859,195.01 -70.79,59.07 -173.02,73.16 -256.47,108.44 102.53,67.24 255.58,28.77 364,-21.17 -19.41,-95.47 -45.53,-227.95 40.23,-295.22 49.06,-63.45 138.95,-50.52 211.48,-56.43 7.08,1.77 12.38,3.27 21.18,3.56" /><path
         id="path88"
         style="fill:#0044b2;fill-opacity:1;fill-rule:nonzero;stroke:none"
         d="m 729.984,3485.65 c 27.911,7.92 58.457,9.4 88.125,9.99 -136.296,-617.78 -225.312,-1251.11 -382.5,-1861.87 -24.961,-14.08 -24.375,-53.75 -53.75,-62.25 -141.875,95.76 -180.664,304.6 -35.828,415.37 -18.508,13.79 -41.125,-5.6 -60.519,-7.95 -4.121,57.29 11.465,111.93 26.738,166.83 50.52,182.47 106.035,368.43 162.148,557 77.864,260.87 202.11,529.35 255.586,782.88" /><path
         id="path90"
         style="fill:#dbac42;fill-opacity:1;fill-rule:nonzero;stroke:none"
         d="m 1026.09,3496.79 c -35.539,9.98 -69.914,-6.74 -105.774,-7.05 -33.476,5.02 -68.437,6.19 -102.207,5.9 -29.668,-0.59 -60.214,-2.07 -88.125,-9.99 -37.617,10.84 -45.839,49.63 -68.164,75.2 -14.402,81.95 14.688,187.99 117.5,175.65 36.719,-3.21 79.895,-10.55 113.965,5.88 27.356,-25.85 69.356,-4.1 101.653,-15.87 7.062,-12.33 9.402,-27.01 17.042,-39.35 5.88,-33.79 31.15,-59.33 33.5,-95.19 -4.7,-29.66 0.86,-60.5 -2.96,-90.48 -4.38,-1.46 -9.08,-2.07 -16.43,-4.7" /><path
         id="path92"
         style="fill:#c60e00;fill-opacity:1;fill-rule:nonzero;stroke:none"
         d="m 2071.87,3846.94 c -44.96,9.42 -82.25,-18.18 -122.21,-32.87 -7.03,7.05 -14.08,14.08 -21.14,21.14 -69.92,126.61 -227.06,-12.64 -232.65,-114.55 -32.02,-4.99 -65.53,3.22 -96.94,-7.06 -9.7,24.11 0.88,50.53 -7.06,75.8 4.7,28.17 2.36,57.27 -7.63,83.72 -77.26,76.07 -160.68,0.57 -212.69,-59.05 -11.15,4.99 -24.68,5.57 -33.21,15.26 -66.37,82.85 -183.3,47.6 -208.26,-52.27 -38.49,36.72 -80.21,73.73 -137.779,50.81 74.889,125.45 194.759,238.82 217.109,388.06 -109.6,-96.06 -167.74,60.82 -132.51,152.17 -19.4,15.56 -46.99,-4.44 -69.32,8.53 -47.869,42.01 -0.59,103.68 14.09,149.2 -64.322,-18.79 -137.174,-59.64 -210.904,-58.75 -2.637,1.47 -5,3.24 -8.243,4.71 -24.668,58.15 30.84,105.17 49.356,153.62 -99.863,-29.06 -274.375,-56.69 -249.383,109.3 -10.586,-11.76 -22.031,-26.73 -32.902,-43.49 l -72.871,28.22 c 103.691,189.46 224.14,372.77 322.851,569.28 13.508,7.05 17.324,23.81 31.446,30.58 6.738,0.86 13.789,2.93 20.851,6.74 3.211,-0.6 6.738,-1.46 9.981,-3.81 -8.528,-27.02 -27.629,-61.1 -10.872,-88.7 67.872,5.27 131.02,44.34 192.12,70.16 -18.51,-54.62 -36.12,-115.43 -31.73,-175.04 38.5,-22.32 69.63,34.36 101.07,49.62 3.21,-0.28 6.16,-0.57 8.2,-1.46 7.33,-34.97 35.25,-61.39 62.28,-83.13 43.21,5.3 66.1,49.37 100.78,71.08 3.8,-0.88 7.63,-1.75 10.27,-4.99 7.34,-37.61 33.79,-92.8 74.03,-92.23 30.25,20.54 61.09,44.64 71.96,81.64 2.65,0.61 5.3,1.5 8.81,1.5 8.84,-14.98 14.7,-36.16 32.33,-44.67 1.75,-1.75 3.53,-3.52 5.57,-4.68 5.02,0 11.19,0 15.29,1.43 7.35,8.56 19.1,11.49 27.31,18.84 3.81,-0.3 7.63,-0.3 12.65,-1.19 31.41,-81.67 105.45,-52.58 155.69,-13.52 23.79,-36.14 1.76,-99.6 47.88,-119.27 19.08,8.54 29.36,28.81 34.95,47.9 54.92,-2.05 75.21,-90.19 137.48,-73.72 37.01,22.04 39.94,66.38 52.87,102.21 37.9,-4.1 68.46,-48.77 110.45,-54.08 2.64,1.5 5.31,2.96 8.53,4.43 14.97,29.08 19.67,61.38 20.55,93.71 2.07,3.82 3.82,8.52 6.47,12.03 19.39,-11.74 35.25,-29.67 59.92,-32.6 15.58,3.82 17.33,20.57 20,33.2 39.94,-17.62 79.3,-47.88 124.25,-55.23 4.99,-4.12 10.26,-7.91 12.33,-9.12 3.24,-97.5 54.65,-192.08 54.65,-290.48 -45.84,-152.79 -44.95,-324.34 -110.45,-474.73 -70.22,-148.65 -151.89,-298.75 -225.62,-444.2 z m 256.75,864.25 c -14.98,-17.63 -37.32,-49.06 -61.11,-20.55 -6.45,-5.56 -10.26,-11.18 -13.51,-17.33 -3.81,-21.74 -10.58,-43.19 -24.1,-60.82 -3.52,-1.45 -6.16,-2.34 -8.8,-3.2 -29.09,2.36 -47.89,24.96 -59.64,47.28 -25.84,-17.61 -29.07,-53.77 -43.46,-80.21 -2.96,-2.93 -6.47,-3.79 -9.7,-5 -28.49,1.21 -35.25,30.87 -49.34,47.62 -30.27,-60.24 -39.39,-136.61 -96.96,-182.74 -6.17,-1.46 -12.62,-1.17 -18.2,-0.57 -47.59,29.09 -67.58,86.92 -80.21,136.9 -3.52,-0.31 -6.16,-0.92 -8.8,-1.49 -17.33,-36.15 -30.55,-84.89 -73.43,-97.54 -49.67,22.63 -62.58,77.56 -74.34,123.41 -24.96,-14.4 -28.78,-54.36 -60.51,-59.95 -41.42,10.27 -43.47,60.53 -57.89,91.96 -18.18,0 -24.37,-23.52 -40.52,-27.93 -41.43,33.78 -48.17,95.78 -74.31,140.13 -17.92,-78.71 -31.15,-174.19 5.58,-248.22 6.15,-2.66 14.67,-3.83 19.1,-5.29 16.43,0.29 24.66,21.17 41.1,18.22 -2.64,-48.16 -15.26,-100.78 2.65,-147.19 5.02,-4.39 8.51,-10.56 13.53,-14.69 23.5,-6.42 30.53,28.79 51.1,29.97 0,-74.61 69.04,-149.52 129.83,-69.34 12.33,-59.02 0.61,-178.6 91.94,-172.11 46.14,21.74 57.9,78.14 90.2,111.93 12.94,-12.64 21.74,-32.33 41.42,-37.04 34.65,20.29 49.06,62.86 70.51,95.48 17.62,0.6 24.96,-22.32 39.94,-29.37 78.15,2.95 89.02,101.05 114.87,154.21 52.57,-23.78 33.18,77.26 56.68,107.82 14.12,1.74 17.65,-22.93 35.54,-17.94 2.36,0.89 5.02,1.78 8.52,3.25 30.56,57.28 46.42,127.79 42.32,190.34" /><path
         id="path94"
         style="fill:#c60e00;fill-opacity:1;fill-rule:nonzero;stroke:none"
         d="m 276.402,4110.76 c 30.262,222.96 116.629,418.9 220.321,608.68 l 72.871,-28.22 c -41.719,-65.81 -71.981,-160.36 -0.606,-210.91 31.426,-4.42 61.992,5.88 92.266,5.56 -52.305,-101.04 -121.328,-215.32 -109.297,-337.21 69.934,-31.74 131.895,30.83 191.816,55.51 -11.152,-76.08 -96.64,-164.22 -55.507,-248.2 53.769,-17.35 93.125,42.27 141.574,49.63 -31.699,-80.51 -106.027,-177.45 -50.52,-269.1 -102.812,12.34 -131.902,-93.7 -117.5,-175.65 -202.39,-107.24 -398.34,-258.5 -625.1247,-312.87 -55.8125,210.34 100.7697,368.38 248.2307,514.39 -32.606,-13.24 -66.68,-22.03 -94.883,-42.02 -0.293,0 -0.293,-0.28 -0.293,-0.28 -29.961,-10.02 -61.113,-26.14 -91.9531,-12.35 -15.8594,92.52 48.4691,190.36 101.6411,277.9 25.558,42.01 68.75,77.26 76.964,125.14" /><path
         id="path96"
         style="fill:#e89c05;fill-opacity:1;fill-rule:nonzero;stroke:none"
         d="m 2093.21,6413.84 c 73.44,-51.13 164.2,-66.09 238.82,-118.71 95.76,-66.95 114.58,-147.74 163.93,-241.43 17.31,119.54 61.39,186.81 -59.34,269.38 -105.16,71.94 -222.66,67.24 -343.41,90.76 z M 1787.69,5972 c -20.26,-9.99 -40.26,-22.04 -64.03,-18.77 -6.17,7.04 -3.24,16.73 -3.24,24.07 9.12,12.95 19.68,27.02 21.74,42.89 -22.03,7.35 -42.89,-17.9 -60.51,-27.6 l -47.58,16.73 c 28.48,65.49 84.59,124.56 153.34,220.63 24.08,24.4 57.85,48.17 63.46,83.43 64.34,26.42 82.52,95.47 130.72,134.82 67.83,-7.63 136.58,10.86 204.45,-6.76 119.86,0.88 353.69,-90.77 417.72,-169.78 40.82,-50.54 51.11,-117.78 52.87,-184.2 6.17,-234.12 -160.11,-419.78 -309.62,-574.86 -13.8,63.42 -74.01,148.02 -147.18,125.13 -2.34,4.11 -4.69,8.49 -6.73,12.34 -31.45,8.81 -64.92,20.82 -98.43,21.14 -127.49,52.87 -187.41,195.33 -246.46,308.73 -22.62,8.52 -41.71,1.18 -60.52,-7.94" /><path
         id="path98"
         style="fill:#dbac42;fill-opacity:1;fill-rule:nonzero;stroke:none"
         d="m 2312.93,3617.25 c 0,7.95 -0.58,16.15 -2.04,24.07 3.83,31.73 -0.6,64.06 5.27,95.18 57.01,3.25 118.12,3.53 173.91,-9.4 20,-32.02 29.67,-72.85 25.56,-111.6 -62.85,-26.16 -151.87,-23.81 -202.98,-7.67 0.28,2.96 0.28,6.18 0.28,9.42" /><path
         id="path100"
         style="fill:#c19133;fill-opacity:1;fill-rule:nonzero;stroke:none"
         d="m 2515.63,3615.5 c -2.07,-21.74 -8.51,-42.92 -19.97,-61.11 -50.22,-44.07 -120.13,-20.28 -179.5,-29.36 -9.98,27.01 -4.39,54.9 -3.51,82.8 51.11,-16.14 140.13,-18.49 202.98,7.67" /><path
         id="path102"
         style="fill:#f9dba5;fill-opacity:1;fill-rule:nonzero;stroke:none"
         d="m 2436.62,6323.08 c 120.73,-82.57 76.65,-149.84 59.34,-269.38 -49.35,93.69 -68.17,174.48 -163.93,241.43 -74.62,52.62 -165.38,67.58 -238.82,118.71 120.75,-23.52 238.25,-18.82 343.41,-90.76" /><path
         id="path104"
         style="fill:#c60e00;fill-opacity:1;fill-rule:nonzero;stroke:none"
         d="m 2407.82,4765.87 c 38.48,-162.17 85.49,-345.18 14.11,-507.66 -15.57,-16.13 -34.97,-24.38 -56.71,-31.42 -32.58,8.24 -52.87,36.13 -67.85,64.35 65.51,150.39 64.65,321.94 110.45,474.73" /><path
         id="path106"
         style="fill:#618e00;fill-opacity:1;fill-rule:nonzero;stroke:none"
         d="m 1787.41,6229.95 c -68.75,-96.07 -124.86,-155.14 -153.34,-220.63 -21.15,-48.74 -26.74,-100.75 -10.59,-174.19 27.62,-125.45 97.82,-273.19 208.27,-383.64 25.85,-25.87 40.25,-58.75 96.65,-44.06 66.41,42.29 119.29,103.67 146.59,177.4 10.27,27.31 17.05,56.11 19.68,86.38 33.51,-0.32 66.98,-12.33 98.43,-21.14 2.04,-3.85 4.39,-8.23 6.73,-12.34 10.28,-128.98 60.53,-252.04 93.42,-373.68 34.96,-52.27 117.81,-51.7 139.53,-113.98 -16.15,-35.82 -61.68,-5.88 -91.05,-14.97 -12.62,-21.14 17.62,-47.88 -0.88,-69.63 -44.94,7.35 -84.32,37.61 -124.26,55.23 -2.63,-12.63 -4.41,-29.38 -19.99,-33.2 -24.68,2.93 -40.54,20.86 -59.93,32.6 -2.64,-3.51 -4.38,-8.21 -6.46,-12.03 -0.88,-32.33 -5.55,-64.63 -20.55,-93.71 -3.22,-1.47 -5.86,-2.93 -8.53,-4.43 -42,5.31 -72.55,49.98 -110.46,54.08 -12.91,-35.83 -15.86,-80.17 -52.87,-102.21 -62.26,-16.47 -82.52,71.67 -137.46,73.72 -5.6,-19.09 -15.87,-39.36 -34.97,-47.9 -46.12,19.67 -24.09,83.13 -47.88,119.27 -50.23,-39.06 -124.28,-68.15 -155.68,13.52 -5,0.89 -8.81,0.89 -12.66,1.19 -8.2,-7.35 -19.96,-10.28 -27.3,-18.84 -4.11,-1.43 -10.28,-1.43 -15.27,-1.43 -2.07,1.16 -3.82,2.93 -5.59,4.68 -17.62,8.51 -23.5,29.69 -32.31,44.67 -3.53,0 -6.16,-0.89 -8.8,-1.5 -10.87,-37 -41.75,-61.1 -71.98,-81.64 -40.26,-0.57 -66.69,54.62 -74.05,92.23 -2.63,3.24 -6.45,4.11 -10.27,4.99 -34.65,-21.71 -57.57,-65.78 -100.74,-71.08 -2.36,2.06 -4.71,3.82 -7.06,5.87 -24.67,20.55 -48.48,45.53 -55.23,77.26 -2.06,0.89 -4.98,1.18 -8.22,1.46 -9.99,-4.99 -19.69,-13.79 -29.98,-23.18 -48.18,51.99 1.48,178.3 13.5,240 -46.38,-1.2 -96.61,-36.43 -136.862,-22.63 104.842,124.24 170.372,301.71 236.462,449.44 34.38,77.58 82.25,151.87 108.99,230.88 26.74,78.75 10.88,169.52 27.03,249.7 -137.47,10.29 -342.81,-122.78 -453.263,-210.63 65.773,141.89 223.523,218.28 358.963,271.15 1.75,1.5 3.25,3.25 4.42,4.99 51.7,5.6 106.32,13.23 140.12,40.57 -89.61,93.12 -325.49,2.64 -415.378,-34.97 l 0.566,-8.23 c -12.617,-1.18 -25.273,-1.47 -37.597,-1.47 -2.039,4.1 -0.586,10.59 0.312,15.3 146.567,121.28 346.027,144.2 520.817,195.01 -70.79,59.07 -173.01,73.16 -256.43,108.44 102.49,67.24 255.54,28.77 363.96,-21.17 -19.4,-95.47 -45.53,-227.95 40.25,-295.22 49.05,-63.45 138.93,-50.52 211.51,-56.43 7.03,1.77 12.33,3.27 21.15,3.56 -5.61,-35.26 -39.38,-59.03 -63.46,-83.43" /><path
         id="path108"
         style="fill:#c60e00;fill-opacity:1;fill-rule:nonzero;stroke:none"
         d="m 1473.68,4741.16 c -17.93,-78.71 -31.16,-174.19 5.57,-248.22 6.16,-2.66 14.69,-3.83 19.1,-5.29 16.44,0.29 24.67,21.17 41.13,18.22 -2.65,-48.16 -15.29,-100.78 2.65,-147.19 4.99,-4.39 8.51,-10.56 13.5,-14.69 23.5,-6.42 30.55,28.79 51.14,29.97 0,-74.61 69.01,-149.52 129.82,-69.34 12.35,-59.02 0.58,-178.6 91.95,-172.11 46.1,21.74 57.86,78.14 90.16,111.93 12.95,-12.64 21.74,-32.33 41.43,-37.04 34.68,20.29 49.05,62.86 70.5,95.48 17.62,0.6 24.98,-22.32 39.95,-29.37 78.14,2.95 89.01,101.05 114.86,154.21 52.59,-23.78 33.19,77.26 56.72,107.82 14.08,1.74 17.62,-22.93 35.55,-17.94 2.34,0.89 4.98,1.78 8.51,3.25 30.55,57.28 46.42,127.79 42.29,190.34 -14.98,-17.63 -37.3,-49.06 -61.11,-20.55 -6.45,-5.56 -10.27,-11.18 -13.5,-17.33 -3.83,-21.74 -10.57,-43.19 -24.08,-60.82 -3.54,-1.45 -6.18,-2.34 -8.83,-3.2 -29.07,2.36 -47.88,24.96 -59.61,47.28 -25.86,-17.61 -29.09,-53.77 -43.5,-80.21 -2.93,-2.93 -6.45,-3.79 -9.7,-5 -28.48,1.21 -35.25,30.87 -49.34,47.62 -30.26,-60.24 -39.36,-136.61 -96.94,-182.74 -6.16,-1.46 -12.64,-1.17 -18.2,-0.57 -47.6,29.09 -67.57,86.92 -80.21,136.9 -3.54,-0.31 -6.18,-0.92 -8.81,-1.49 -17.33,-36.15 -30.57,-84.89 -73.44,-97.54 -49.63,22.63 -62.58,77.56 -74.34,123.41 -24.96,-14.4 -28.77,-54.36 -60.49,-59.95 -41.43,10.27 -43.49,60.53 -57.87,91.96 -18.22,0 -24.38,-23.52 -40.53,-27.93 -41.43,33.78 -48.2,95.78 -74.33,140.13 z m -208.89,-77.83 c -4.37,-151.87 -10.86,-306.41 -55.5,-447.4 -109.58,-96.06 -167.74,60.82 -132.47,152.17 -19.4,15.56 -47.03,-4.44 -69.34,8.53 -47.886,42.01 -0.6,103.68 14.08,149.2 -64.31,-18.79 -137.181,-59.64 -210.912,-58.75 -2.636,1.47 -5,3.24 -8.242,4.71 -24.668,58.15 30.879,105.17 49.375,153.62 -68.73,-19.97 -173.035,-39.37 -222.949,4.99 87.813,160.14 173.898,324.05 303.137,457.99 6.492,-14.4 21.746,-22.35 28.191,-33.18 33.203,18.5 83.43,35.51 120.16,37.58 37.03,2.06 75.78,-24.1 115.46,6.76 2.35,-2.05 4.7,-3.81 7.06,-5.87 43.17,5.3 66.09,49.37 100.74,71.08 3.82,-0.88 7.64,-1.75 10.27,-4.99 7.36,-37.61 33.79,-92.8 74.05,-92.23 30.23,20.54 61.11,44.64 71.98,81.64 2.64,0.61 5.27,1.5 8.8,1.5 8.81,-14.98 14.69,-36.16 32.31,-44.67 1.77,-1.75 3.52,-3.52 5.59,-4.68 4.99,0 11.16,0 15.27,1.43 7.34,8.56 19.1,11.49 27.3,18.84 3.85,-0.3 7.66,-0.3 12.66,-1.19 31.4,-81.67 105.45,-52.58 155.68,-13.52 23.79,-36.14 1.76,-99.6 47.88,-119.27 19.1,8.54 29.37,28.81 34.97,47.9 54.94,-2.05 75.2,-90.19 137.46,-73.72 37.01,22.04 39.96,66.38 52.87,102.21 37.91,-4.1 68.46,-48.77 110.46,-54.08 2.67,1.5 5.31,2.96 8.53,4.43 15,29.08 19.67,61.38 20.55,93.71 2.08,3.82 3.82,8.52 6.46,12.03 19.39,-11.74 35.25,-29.67 59.93,-32.6 15.58,3.82 17.36,20.57 19.99,33.2 39.94,-17.62 79.32,-47.88 124.26,-55.23 4.98,-4.12 10.28,-7.91 12.32,-9.12 3.25,-97.5 54.65,-192.08 54.65,-290.48 -45.8,-152.79 -44.94,-324.34 -110.45,-474.73 -70.22,-148.65 -151.86,-298.75 -225.62,-444.2 -44.92,9.42 -82.25,-18.18 -122.17,-32.87 -7.07,7.05 -14.12,14.08 -21.18,21.14 -69.91,126.61 -227.06,-12.64 -232.65,-114.55 -32.01,-4.99 -65.5,3.22 -96.93,-7.06 -9.71,24.11 0.88,50.53 -7.06,75.8 4.7,28.17 2.35,57.27 -7.63,83.72 -77.26,76.07 -160.68,0.57 -212.69,-59.05 -11.16,4.99 -24.68,5.57 -33.2,15.26 -7.63,9.41 -15.58,17.05 -24.39,23.22 -25.23,123.94 -8.2,236.75 -13.5,366.01 -6.18,150.12 -34.95,292.58 -34.95,444.77 h -0.61" /><path
         id="path110"
         style="fill:#0044b2;fill-opacity:1;fill-rule:nonzero;stroke:none"
         d="m 2365.22,4226.79 c 21.74,7.04 41.14,15.29 56.71,31.42 -30.26,-162.15 -150.11,-284.63 -223.27,-430.66 -13.51,-8.49 -28.48,-14.08 -41.11,-24.06 -30.86,9.38 -55.53,33.47 -85.8,43.45 73.76,145.45 155.4,295.55 225.62,444.2 14.98,-28.22 35.27,-56.11 67.85,-64.35" /><path
         id="path112"
         style="fill:#ead903;fill-opacity:1;fill-rule:nonzero;stroke:none"
         d="m 2328.51,4711.19 c 4.13,-62.55 -11.74,-133.06 -42.29,-190.34 -3.53,-1.47 -6.17,-2.36 -8.51,-3.25 -17.93,-4.99 -21.47,19.68 -35.55,17.94 -23.53,-30.56 -4.13,-131.6 -56.72,-107.82 -25.85,-53.16 -36.72,-151.26 -114.86,-154.21 -14.97,7.05 -22.33,29.97 -39.95,29.37 -21.45,-32.62 -35.82,-75.19 -70.5,-95.48 -19.69,4.71 -28.48,24.4 -41.43,37.04 -32.3,-33.79 -44.06,-90.19 -90.16,-111.93 -91.37,-6.49 -79.6,113.09 -91.95,172.11 -60.81,-80.18 -129.82,-5.27 -129.82,69.34 -20.59,-1.18 -27.64,-36.39 -51.14,-29.97 -4.99,4.13 -8.51,10.3 -13.5,14.69 -17.94,46.41 -5.3,99.03 -2.65,147.19 -16.46,2.95 -24.69,-17.93 -41.13,-18.22 -4.41,1.46 -12.94,2.63 -19.1,5.29 -36.73,74.03 -23.5,169.51 -5.57,248.22 26.13,-44.35 32.9,-106.35 74.33,-140.13 16.15,4.41 22.31,27.93 40.53,27.93 14.38,-31.43 16.44,-81.69 57.87,-91.96 31.72,5.59 35.53,45.55 60.49,59.95 11.76,-45.85 24.71,-100.78 74.34,-123.41 42.87,12.65 56.11,61.39 73.44,97.54 2.63,0.57 5.27,1.18 8.81,1.49 12.64,-49.98 32.61,-107.81 80.21,-136.9 5.56,-0.6 12.04,-0.89 18.2,0.57 57.58,46.13 66.68,122.5 96.94,182.74 14.09,-16.75 20.86,-46.41 49.34,-47.62 3.25,1.21 6.77,2.07 9.7,5 14.41,26.44 17.64,62.6 43.5,80.21 11.73,-22.32 30.54,-44.92 59.61,-47.28 2.65,0.86 5.29,1.75 8.83,3.2 13.51,17.63 20.25,39.08 24.08,60.82 3.23,6.15 7.05,11.77 13.5,17.33 23.81,-28.51 46.13,2.92 61.11,20.55" /><path
         id="path114"
         style="fill:#9b7335;fill-opacity:1;fill-rule:nonzero;stroke:none"
         d="m 2312.65,3607.83 c -0.88,-27.9 -6.47,-55.79 3.51,-82.8 -3.23,-1.5 -6.16,-2.96 -9.39,-4.72 -34.66,4.42 -74.03,0.58 -110.46,4.72 14.11,26.72 8.82,52.83 5.89,79.88 1.17,0.88 2.34,1.75 3.24,2.64 5.57,-9.98 9.98,-20.85 12.62,-33.19 49.65,-41.42 70.8,3.21 94.87,42.89 0,-3.24 0,-6.46 -0.28,-9.42" /><path
         id="path116"
         style="fill:#bc8b33;fill-opacity:1;fill-rule:nonzero;stroke:none"
         d="m 2205.44,3607.55 c -1.18,2.36 -2.68,4.71 -4.13,6.74 -0.87,8.83 -0.87,17.93 0.32,27.03 36.4,0 73.12,8.26 109.26,0 1.46,-7.92 2.04,-16.12 2.04,-24.07 -24.07,-39.68 -45.22,-84.31 -94.87,-42.89 -2.64,12.34 -7.05,23.21 -12.62,33.19" /><path
         id="path118"
         style="fill:#bc8b33;fill-opacity:1;fill-rule:nonzero;stroke:none"
         d="m 2316.16,3736.5 c -5.87,-31.12 -1.44,-63.45 -5.27,-95.18 -36.14,8.26 -72.86,0 -109.26,0 -2.97,6.48 -4.43,14.69 -12.37,24.67 11.76,29.69 -6.75,58.46 -9.39,86.97 32.01,22.32 70.8,27.9 109.88,27.61 22.9,-7.34 6.74,-35.83 26.41,-44.07" /><path
         id="path120"
         style="fill:#bc8b33;fill-opacity:1;fill-rule:nonzero;stroke:none"
         d="m 2289.75,3780.57 c -39.08,0.29 -77.87,-5.29 -109.88,-27.61 -7.05,17.05 -22.03,32.03 -22.32,50.53 12.63,9.98 27.6,15.57 41.11,24.06 27.92,-9.98 61.4,-3.5 83.73,-24.95 1.48,-5.57 4.69,-14.68 7.36,-22.03" /><path
         id="path122"
         style="fill:#fffff3;fill-opacity:1;fill-rule:nonzero;stroke:none"
         d="m 1923.13,6667.04 c 65.51,322.55 388.04,43.19 313.72,-133.35 -217.97,-5.87 -429.48,-68.73 -618.64,-167.44 -85.78,67.27 -59.65,199.75 -40.25,295.22 57.58,152.76 234.43,46.99 309.9,-25.56 5.88,-3.24 11.49,-5.89 19.11,-4.99 3.53,3.52 5.89,5.59 8.53,7.66 -0.9,12.33 6.44,22.6 7.63,28.46" /><path
         id="path124"
         style="fill:#c4b59b;fill-opacity:1;fill-rule:nonzero;stroke:none"
         d="m 2236.85,6533.69 c -0.86,-37.92 -37.3,-59.35 -50.81,-92.25 -67.87,17.62 -136.62,-0.87 -204.45,6.76 -48.2,-39.35 -66.38,-108.4 -130.72,-134.82 -8.82,-0.29 -14.12,-1.79 -21.15,-3.56 -72.58,5.91 -162.46,-7.02 -211.51,56.43 189.16,98.71 400.67,161.57 618.64,167.44" /><path
         id="path126"
         style="fill:#9b7335;fill-opacity:1;fill-rule:nonzero;stroke:none"
         d="m 2196.31,3525.03 c 36.43,-4.14 75.8,-0.3 110.46,-4.72 -7.04,-68.74 -91.96,-87.84 -148.35,-71.97 2.06,8.8 5.31,17.92 6.17,23.78 12.93,16.19 22.33,34.65 31.72,52.91" /><path
         id="path128"
         style="fill:#bc8b33;fill-opacity:1;fill-rule:nonzero;stroke:none"
         d="m 2205.44,3607.55 c -0.9,-0.89 -2.07,-1.76 -3.24,-2.64 -0.3,2.92 -0.57,6.17 -0.89,9.38 1.45,-2.03 2.95,-4.38 4.13,-6.74" /><path
         id="path130"
         style="fill:#9b7335;fill-opacity:1;fill-rule:nonzero;stroke:none"
         d="m 1974.53,3594.62 c -0.28,10.9 -0.89,22.03 -2.06,32.62 3.52,17.32 0.88,35.53 1.78,52.87 0.86,0.27 1.46,0.27 2.34,0.56 h 0.29 c 28.21,-118.36 131.02,-145.95 225.32,-75.76 2.93,-27.05 8.22,-53.16 -5.89,-79.88 -9.39,-18.26 -18.79,-36.72 -31.72,-52.91 -61.4,17.62 -134.83,18.52 -195.65,49.34 4.7,23.24 6.17,48.2 5.59,73.16" /><path
         id="path132"
         style="fill:#bc8b33;fill-opacity:1;fill-rule:nonzero;stroke:none"
         d="m 2201.31,3614.29 c 0.32,-3.21 0.59,-6.46 0.89,-9.38 -94.3,-70.19 -197.11,-42.6 -225.32,75.76 68.44,15.01 149.22,26.45 212.38,-14.68 7.94,-9.98 9.4,-18.19 12.37,-24.67 -1.19,-9.1 -1.19,-18.2 -0.32,-27.03" /><path
         id="path134"
         style="fill:#bc8b33;fill-opacity:1;fill-rule:nonzero;stroke:none"
         d="m 2179.87,3752.96 c 2.64,-28.51 21.15,-57.28 9.39,-86.97 -63.16,41.13 -143.94,29.69 -212.38,14.68 h -0.29 c -0.6,2.68 -1.17,5.63 -1.78,8.56 2.36,43.77 -17.32,82.85 -25.23,124.84 39.92,14.69 77.25,42.29 122.17,32.87 30.27,-9.98 54.94,-34.07 85.8,-43.45 0.29,-18.5 15.27,-33.48 22.32,-50.53" /><path
         id="path136"
         style="fill:#9b7335;fill-opacity:1;fill-rule:nonzero;stroke:none"
         d="m 2164.59,3472.12 c -0.86,-5.86 -4.11,-14.98 -6.17,-23.78 -64.32,-42.89 -141.01,-39.38 -214.15,-13.22 -0.57,7.33 1.45,16.45 2.95,21.74 14.68,17.33 12.62,43.77 21.72,64.6 60.82,-30.82 134.25,-31.72 195.65,-49.34" /><path
         id="path138"
         style="fill:#cc8912;fill-opacity:1;fill-rule:nonzero;stroke:none"
         d="m 2094.67,5671.21 c -2.63,-30.27 -9.41,-59.07 -19.68,-86.38 -82.53,-9.41 -158.64,50.26 -201.21,125.74 -33.79,59.93 -30.55,217.69 -86.09,261.43 18.81,9.12 37.9,16.46 60.52,7.94 59.05,-113.4 118.97,-255.86 246.46,-308.73" /><path
         id="path140"
         style="fill:#e89c05;fill-opacity:1;fill-rule:nonzero;stroke:none"
         d="m 1873.78,5710.57 c 42.57,-75.48 118.68,-135.15 201.21,-125.74 -27.3,-73.73 -80.18,-135.11 -146.59,-177.4 -56.4,-14.69 -70.8,18.19 -96.65,44.06 -110.45,110.45 -180.65,258.19 -208.27,383.64 -16.15,73.44 -10.56,125.45 10.59,174.19 l 47.58,-16.73 c 17.62,9.7 38.48,34.95 60.51,27.6 -2.06,-15.87 -12.62,-29.94 -21.74,-42.89 0,-7.34 -2.93,-17.03 3.24,-24.07 23.77,-3.27 43.77,8.78 64.03,18.77 55.54,-43.74 52.3,-201.5 86.09,-261.43" /><path
         id="path142"
         style="fill:#bc8b33;fill-opacity:1;fill-rule:nonzero;stroke:none"
         d="m 1976.59,3680.67 c -0.88,-0.29 -1.48,-0.29 -2.34,-0.56 0.28,3.24 0.56,6.19 0.56,9.12 0.61,-2.93 1.18,-5.88 1.78,-8.56" /><path
         id="path144"
         style="fill:#bc8b33;fill-opacity:1;fill-rule:nonzero;stroke:none"
         d="m 1974.81,3689.23 c 0,-2.93 -0.28,-5.88 -0.56,-9.12 -0.9,-17.34 1.74,-35.55 -1.78,-52.87 -42.58,8.8 -86.64,2.03 -128.38,-6.46 -6.17,10.84 -12.02,22.02 -16.44,32.87 -2.35,-2.35 -4.71,-4.68 -6.78,-6.74 -8.18,23.78 -10.55,49.66 -23.49,71.4 -4.99,0.87 -9.69,0.87 -17.04,0.58 -10.55,82.85 81.11,115.44 148.06,116.32 7.06,-7.06 14.11,-14.09 21.18,-21.14 7.91,-41.99 27.59,-81.07 25.23,-124.84" /><path
         id="path146"
         style="fill:#9b7335;fill-opacity:1;fill-rule:nonzero;stroke:none"
         d="m 1974.53,3594.62 c 0.58,-24.96 -0.89,-49.92 -5.59,-73.16 -9.1,-20.83 -7.04,-47.27 -21.72,-64.6 -40.25,18.78 -112.8,-14.41 -124.55,46.98 4.41,39.37 12.33,74.94 11.75,115.16 3.21,0.6 6.45,1.21 9.67,1.78 34.08,-58.18 88.13,-104.6 130.44,-26.16" /><path
         id="path148"
         style="fill:#bc8b33;fill-opacity:1;fill-rule:nonzero;stroke:none"
         d="m 1972.47,3627.24 c 1.17,-10.59 1.78,-21.72 2.06,-32.62 -42.31,-78.44 -96.36,-32.02 -130.44,26.16 41.74,8.49 85.8,15.26 128.38,6.46" /><path
         id="path150"
         style="fill:#9b7335;fill-opacity:1;fill-rule:nonzero;stroke:none"
         d="m 1947.22,3456.86 c -1.5,-5.29 -3.52,-14.41 -2.95,-21.74 -33.21,-76.66 -136.58,-79.29 -183.61,-16.48 -9.97,31.74 14.7,54.37 19.68,82.85 13.22,5.6 28.81,8.83 42.33,2.35 11.75,-61.39 84.3,-28.2 124.55,-46.98" /><path
         id="path152"
         style="fill:#bc8b33;fill-opacity:1;fill-rule:nonzero;stroke:none"
         d="m 1695.75,3720.66 c 5.59,101.91 162.74,241.16 232.65,114.55 -66.95,-0.88 -158.61,-33.47 -148.06,-116.32 -28.19,0.86 -56.68,-1.78 -84.59,1.77" /><path
         id="path154"
         style="fill:#bc8b33;fill-opacity:1;fill-rule:nonzero;stroke:none"
         d="m 1844.09,3620.78 c -3.22,-0.57 -6.46,-1.18 -9.67,-1.78 -6.2,8.55 -10.58,17.92 -13.55,27.91 2.07,2.06 4.43,4.39 6.78,6.74 4.42,-10.85 10.27,-22.03 16.44,-32.87" /><path
         id="path156"
         style="fill:#c19133;fill-opacity:1;fill-rule:nonzero;stroke:none"
         d="m 1625.26,3557.04 c -13.51,-4.42 -27.02,-8.84 -40.52,-13.23 l -1.51,0.28 c 3.81,14.41 7.35,29.08 9.71,44.06 100.77,-9.68 158.62,-10.29 227.93,58.76 2.97,-9.99 7.35,-19.36 13.55,-27.91 0.58,-40.22 -7.34,-75.79 -11.75,-115.16 -13.52,6.48 -29.11,3.25 -42.33,-2.35 -23.77,12.35 -48.16,-5.27 -73.12,-3.49 -7.95,37.28 -45.24,61.1 -81.96,58.75 v 0.29" /><path
         id="path158"
         style="fill:#dbac42;fill-opacity:1;fill-rule:nonzero;stroke:none"
         d="m 1594.71,3638.97 c -0.32,3.27 -0.6,6.2 -1.18,9.41 12.34,19.68 5.57,43.78 5.29,65.22 31.43,10.28 64.92,2.07 96.93,7.06 27.91,-3.55 56.4,-0.91 84.59,-1.77 7.35,0.29 12.05,0.29 17.04,-0.58 12.94,-21.74 15.31,-47.62 23.49,-71.4 -69.31,-69.05 -127.16,-68.44 -227.93,-58.76 2.64,16.76 3.52,33.48 1.77,50.82" /><path
         id="path160"
         style="fill:#dbac42;fill-opacity:1;fill-rule:nonzero;stroke:none"
         d="M 1707.22,3498 C 1690.75,2347.63 1701.05,1194.34 1671.36,44.8203 h -121.89 c -19.68,109.3207 4.1,257.0587 4.1,360.7697 0,136.89 0,273.469 0,410.09 0,280.52 -17.33,471.18 -8.79,767.89 4.09,146.57 -7.95,344.86 0,488.49 8.22,154.51 15.56,309.66 17.31,462.38 1.76,149.81 8.53,295.26 8.82,445.05 0,88.71 -13.52,172.73 -8.82,261.75 4.42,80.5 38.18,195.65 8.82,270.53 l -0.29,0.31 c 1.74,0.89 3.52,1.76 4.99,2.95 2.64,9.7 5.28,19.37 7.62,29.06 l 1.51,-0.28 c 13.5,4.39 27.01,8.81 40.52,13.23 v -0.29 c 36.72,2.35 74.01,-21.47 81.96,-58.75" /><path
         id="path162"
         style="fill:#bc8b33;fill-opacity:1;fill-rule:nonzero;stroke:none"
         d="m 1598.82,3713.6 c 0.28,-21.44 7.05,-45.54 -5.29,-65.22 -48.48,22.63 -102.82,28.8 -155.68,26.73 -9.13,12.91 -17.94,27.6 -26.45,43.49 v 0.29 c -6.18,25.55 -12.05,51.69 -25.85,74.01 54.05,62.6 155.11,55.54 206.21,-3.5 7.94,-25.27 -2.65,-51.69 7.06,-75.8" /><path
         id="path164"
         style="fill:#9b7335;fill-opacity:1;fill-rule:nonzero;stroke:none"
         d="m 1427.84,3609.59 c -1.19,11.76 -2.36,23.81 -3.53,35.28 0,9.1 0,19.09 0,29.96 4.41,0.28 8.82,0.57 13.54,0.28 37.86,-53.76 82.82,-79.01 156.86,-36.14 1.75,-17.34 0.87,-34.06 -1.77,-50.82 -2.36,-14.98 -5.9,-29.65 -9.71,-44.06 -2.34,-9.69 -4.98,-19.36 -7.62,-29.06 -1.47,-1.19 -3.25,-2.06 -4.99,-2.95 -0.58,-0.31 -1.19,-0.89 -1.76,-1.18 -44.95,8.21 -91.97,1.46 -137.5,3.54 1.77,32.01 -0.85,64.03 -3.52,95.15" /><path
         id="path166"
         style="fill:#bc8b33;fill-opacity:1;fill-rule:nonzero;stroke:none"
         d="m 1593.53,3648.38 c 0.58,-3.21 0.86,-6.14 1.18,-9.41 -74.04,-42.87 -119,-17.62 -156.86,36.14 52.86,2.07 107.2,-4.1 155.68,-26.73" /><path
         id="path168"
         style="fill:#bc8b33;fill-opacity:1;fill-rule:nonzero;stroke:none"
         d="m 1584.13,3873.12 c 9.98,-26.45 12.33,-55.55 7.63,-83.72 -51.1,59.04 -152.16,66.1 -206.21,3.5 -6.17,6.48 -12.94,13.22 -14.11,21.17 52.01,59.62 135.43,135.12 212.69,59.05" /><path
         id="path170"
         style="fill:#c19133;fill-opacity:1;fill-rule:nonzero;stroke:none"
         d="m 1570.91,3511.77 c 29.36,-74.88 -4.4,-190.03 -8.82,-270.53 -4.7,-89.02 8.82,-173.04 8.82,-261.75 -0.29,-149.79 -7.06,-295.24 -8.82,-445.05 -1.75,-152.72 -9.09,-307.87 -17.31,-462.38 -7.95,-143.63 4.09,-341.92 0,-488.49 -8.54,-296.71 8.79,-487.37 8.79,-767.89 0,-136.621 0,-273.2 0,-410.09 0,-103.711 -23.78,-251.449 -4.1,-360.7697 h -82.85 c -12.94,1125.7097 15.58,2252.2597 20.57,3378.5297 36.43,16.76 76.66,44.67 81.67,87.55 0.57,0.29 1.18,0.87 1.76,1.18 l 0.29,-0.31" /><path
         id="path172"
         style="fill:#9b7335;fill-opacity:1;fill-rule:nonzero;stroke:none"
         d="m 1568.86,3510.9 c -5.01,-42.88 -45.24,-70.79 -81.67,-87.55 -20.85,18.53 -53.2,2.64 -73.45,24.1 0,4.7 0,9.41 0,14.11 10.27,16.15 6.76,36.72 17.62,52.88 45.53,-2.08 92.55,4.67 137.5,-3.54" /><path
         id="path174"
         style="fill:#bc8b33;fill-opacity:1;fill-rule:nonzero;stroke:none"
         d="m 1437.85,3675.11 c -4.72,0.29 -9.13,0 -13.54,-0.28 -5.57,13.51 -9.4,28.48 -12.91,43.77 8.51,-15.89 17.32,-30.58 26.45,-43.49" /><path
         id="path176"
         style="fill:#9b7335;fill-opacity:1;fill-rule:nonzero;stroke:none"
         d="m 1195.78,3582.28 c 0,10.27 -0.6,20.56 -1.78,30.86 0.59,5.29 1.18,10.56 1.18,17.61 9.98,7.93 20.57,14.71 31.72,19.69 40.86,-91.34 122.21,-132.76 200.94,-40.85 2.67,-31.12 5.29,-63.14 3.52,-95.15 -10.86,-16.16 -7.35,-36.73 -17.62,-52.88 -70.22,15.54 -156,-10.58 -227.37,24.67 3.81,31.16 9.12,63.75 9.41,96.05" /><path
         id="path178"
         style="fill:#bc8b33;fill-opacity:1;fill-rule:nonzero;stroke:none"
         d="m 1424.31,3644.87 c 1.17,-11.47 2.34,-23.52 3.53,-35.28 -78.73,-91.91 -160.08,-50.49 -200.94,40.85 60.82,29.37 138.08,20.25 197.41,-5.57" /><path
         id="path180"
         style="fill:#bc8b33;fill-opacity:1;fill-rule:nonzero;stroke:none"
         d="m 1411.4,3718.89 v -0.29 c 3.51,-15.29 7.34,-30.26 12.91,-43.77 0,-10.87 0,-20.86 0,-29.96 -59.33,25.82 -136.59,34.94 -197.41,5.57 -6.17,13.52 -11.15,27.91 -15.26,43.2 -26.73,14.97 -41.42,37.59 -60.81,61.97 51.11,49.05 116.93,86.35 187.41,73.72 8.52,-9.69 22.04,-10.27 33.2,-15.26 1.17,-7.95 7.94,-14.69 14.11,-21.17 13.8,-22.32 19.67,-48.46 25.85,-74.01" /><path
         id="path182"
         style="fill:#9b7335;fill-opacity:1;fill-rule:nonzero;stroke:none"
         d="m 1413.74,3461.56 c 0,-4.7 0,-9.41 0,-14.11 -64.03,-77.85 -170.37,-75.21 -257.33,-41.14 -3.52,20.59 19.69,32.33 21.15,51.73 7.35,9.37 6.17,20.56 8.81,28.19 71.37,-35.25 157.15,-9.13 227.37,-24.67" /><path
         id="path184"
         style="fill:#547203;fill-opacity:1;fill-rule:nonzero;stroke:none"
         d="m 898.207,6091.85 c 110.453,87.85 315.793,220.92 453.263,210.63 -16.15,-80.18 -0.29,-170.95 -27.03,-249.7 -26.74,-79.01 -74.61,-153.3 -108.99,-230.88 -66.09,-147.73 -131.62,-325.2 -236.462,-449.44 40.252,-13.8 90.482,21.43 136.862,22.63 -12.02,-61.7 -61.68,-188.01 -13.5,-240 -21.72,-19.99 -44.65,-41.74 -71.1,-26.44 -4.39,59.61 13.23,120.42 31.74,175.04 -61.11,-25.82 -124.256,-64.89 -192.127,-70.16 -16.726,27.6 2.356,61.68 10.879,88.7 -3.222,2.35 -6.758,3.21 -9.988,3.81 -7.051,-3.81 -14.082,-5.88 -20.859,-6.74 -14.114,-6.77 -17.922,-23.53 -31.438,-30.58 -46.094,26.45 -101.035,-32.01 -145.703,1.21 18.809,77.82 162.168,146.87 227.363,243.2 105.473,156.01 272.913,461.22 330.783,584.03 16.46,34.04 41.71,68.12 27.34,110.72 C 1125.55,6211.14 1016,6113.6 897.602,6091 c 0,0.28 0.285,0.57 0.605,0.85" /><path
         id="path186"
         style="fill:#bc8b33;fill-opacity:1;fill-rule:nonzero;stroke:none"
         d="m 1150.83,3755.61 c -1.76,-1.79 -3.25,-3.22 -5,-4.99 -6.45,7.06 -13.23,16.74 -15.86,26.44 22.03,88.71 116.62,126.29 183.88,75.49 8.81,-6.17 16.76,-13.81 24.39,-23.22 -70.48,12.63 -136.3,-24.67 -187.41,-73.72" /><path
         id="path188"
         style="fill:#547203;fill-opacity:1;fill-rule:nonzero;stroke:none"
         d="m 1401.71,6408.56 c -33.8,-27.34 -88.42,-34.97 -140.12,-40.57 2.31,2.93 4.1,6.21 5.27,8.53 -90.19,19.71 -186.54,-5.29 -279.962,-11.16 l -0.566,8.23 c 89.888,37.61 325.768,128.09 415.378,34.97" /><path
         id="path190"
         style="fill:#a30c04;fill-opacity:1;fill-rule:nonzero;stroke:none"
         d="m 1300.35,4218.56 c 5.3,-129.26 -11.73,-242.07 13.5,-366.01 -67.26,50.8 -161.85,13.22 -183.88,-75.49 -38.47,36.72 -80.22,73.73 -137.786,50.81 74.926,125.45 194.796,238.82 217.106,388.06 44.64,140.99 51.13,295.53 55.5,447.4 h 0.61 c 0,-152.19 28.77,-294.65 34.95,-444.77" /><path
         id="path192"
         style="fill:#9b7335;fill-opacity:1;fill-rule:nonzero;stroke:none"
         d="m 1211.64,3693.64 c 4.11,-15.29 9.09,-29.68 15.26,-43.2 -11.15,-4.98 -21.74,-11.76 -31.72,-19.69 -9.1,41.15 -19.69,81.37 -49.35,112.81 0,2.35 0,4.71 0,7.06 1.75,1.77 3.24,3.2 5,4.99 19.39,-24.38 34.08,-47 60.81,-61.97" /><path
         id="path194"
         style="fill:#bc8b33;fill-opacity:1;fill-rule:nonzero;stroke:none"
         d="m 1194,3613.14 c 1.18,-10.3 1.78,-20.59 1.78,-30.86 -65.81,-59.33 -93.43,-28.17 -131.91,15.57 41.99,12.94 85.77,17.05 130.13,15.29" /><path
         id="path196"
         style="fill:#bc8b33;fill-opacity:1;fill-rule:nonzero;stroke:none"
         d="m 1034.79,3629.87 c -8.2,18.79 -19.39,36.43 -22.89,57.29 38.75,30.55 83.1,55.83 133.93,56.4 29.66,-31.44 40.25,-71.66 49.35,-112.81 0,-7.05 -0.59,-12.32 -1.18,-17.61 -44.36,1.76 -88.14,-2.35 -130.13,-15.29 -8.81,10.3 -17.93,20.87 -28.48,31.12 -0.33,0.3 -0.33,0.61 -0.6,0.9" /><path
         id="path198"
         style="fill:#9b7335;fill-opacity:1;fill-rule:nonzero;stroke:none"
         d="m 1195.78,3582.28 c -0.29,-32.3 -5.6,-64.89 -9.41,-96.05 -2.64,-7.63 -1.46,-18.82 -8.81,-28.19 -43.49,0.28 -88.41,5.58 -128.38,27.02 -2.63,4.68 -3.8,10.58 -6.77,16.43 3.84,29.98 -1.75,60.82 2.97,90.48 6.17,2.36 12.32,4.43 18.49,5.88 38.48,-43.74 66.1,-74.9 131.91,-15.57" /><path
         id="path200"
         style="fill:#0044b2;fill-opacity:1;fill-rule:nonzero;stroke:none"
         d="m 1182.84,2201.33 c 27.34,-223.54 55.23,-531.13 -205.336,-626.6 -19.981,14.99 -3.504,48.49 -29.07,60.83 21.14,588.68 50.515,1176.49 66.966,1759.02 19.66,-17.65 44.65,-29.08 71.68,-24.68 37.91,-365.44 51.98,-735.56 88.41,-1096.6 -10.87,-14.68 -32.3,-0.6 -46.09,-10.02 4.99,-24.68 32.58,-49.63 53.44,-61.95" /><path
         id="path202"
         style="fill:#9b7335;fill-opacity:1;fill-rule:nonzero;stroke:none"
         d="m 1177.56,3458.04 c -1.46,-19.4 -24.67,-31.14 -21.15,-51.73 -23.2,-12.34 -45.55,-27.88 -69.33,-36.41 -27.03,-4.4 -52.02,7.03 -71.68,24.68 -1.76,21.72 -17.623,41.43 -12.03,62.56 13.8,9.71 21.42,23.21 22.6,39.65 7.36,2.63 12.06,3.24 16.44,4.7 2.97,-5.85 4.14,-11.75 6.77,-16.43 39.97,-21.44 84.89,-26.74 128.38,-27.02" /><path
         id="path204"
         style="fill:#a30c04;fill-opacity:1;fill-rule:nonzero;stroke:none"
         d="m 1102.35,5155.09 c 10.29,9.39 19.99,18.19 29.98,23.18 3.24,-0.28 6.16,-0.57 8.22,-1.46 6.75,-31.73 30.56,-56.71 55.23,-77.26 -39.68,-30.86 -78.43,-4.7 -115.46,-6.76 -36.73,-2.07 -86.957,-19.08 -120.16,-37.58 -6.445,10.83 -21.699,18.78 -28.191,33.18 C 802.73,4954.45 716.645,4790.54 628.832,4630.4 c -22.637,19.68 -34.082,52.62 -26.453,104.31 -10.586,-11.76 -22.043,-26.73 -32.902,-43.49 l -72.84,28.22 c 103.679,189.46 224.129,372.77 322.82,569.28 13.516,7.05 17.324,23.81 31.438,30.58 6.777,0.86 13.808,2.93 20.859,6.74 3.23,-0.6 6.766,-1.46 9.988,-3.81 -8.523,-27.02 -27.605,-61.1 -10.879,-88.7 67.871,5.27 131.017,44.34 192.127,70.16 -18.51,-54.62 -36.13,-115.43 -31.74,-175.04 26.45,-15.3 49.38,6.45 71.1,26.44" /><path
         id="path206"
         style="fill:#0044b2;fill-opacity:1;fill-rule:nonzero;stroke:none"
         d="m 1076.82,4368.1 c -35.27,-91.35 22.89,-248.23 132.47,-152.17 -22.31,-149.24 -142.18,-262.61 -217.106,-388.06 -30.84,-29.98 -71.946,-50.52 -98.977,-85.49 -34.082,-16.43 -77.285,-9.09 -114.004,-5.88 -55.508,91.65 18.82,188.59 50.547,269.1 -48.477,-7.36 -87.832,-66.98 -141.602,-49.63 -41.132,83.98 44.356,172.12 55.508,248.2 -59.922,-24.68 -121.883,-87.25 -191.797,-55.51 -12.05,121.89 56.973,236.17 109.278,337.21 -30.274,0.32 -60.821,-9.98 -92.227,-5.56 -5.605,3.82 -10.312,7.91 -14.707,12.34 15.274,29.66 30.559,58.18 46.113,85.77 9.7,17.33 19.102,34.36 28.516,51.98 49.914,-44.36 154.219,-24.96 222.949,-4.99 -18.496,-48.45 -74.043,-95.47 -49.375,-153.62 3.242,-1.47 5.606,-3.24 8.242,-4.71 73.731,-0.89 146.602,39.96 210.912,58.75 -14.68,-45.52 -61.966,-107.19 -14.08,-149.2 22.31,-12.97 49.94,7.03 69.34,-8.53" /><path
         id="path208"
         style="fill:#bc8b33;fill-opacity:1;fill-rule:nonzero;stroke:none"
         d="m 1145.83,3750.62 c 0,-2.35 0,-4.71 0,-7.06 -50.83,-0.57 -95.18,-25.85 -133.93,-56.4 -7.66,12.34 -10.02,27.02 -17.052,39.35 -32.325,11.77 -74.325,-9.98 -101.641,15.87 27.031,34.97 68.137,55.51 98.977,85.49 57.566,22.92 99.316,-14.09 137.786,-50.81 2.63,-9.7 9.41,-19.38 15.86,-26.44" /><path
         id="path210"
         style="fill:#bc8b33;fill-opacity:1;fill-rule:nonzero;stroke:none"
         d="m 1063.87,3597.85 c -6.17,-1.45 -12.32,-3.52 -18.49,-5.88 -0.9,13.55 -5,25.56 -9.99,37 10.55,-10.25 19.67,-20.82 28.48,-31.12" /><path
         id="path212"
         style="fill:#c19133;fill-opacity:1;fill-rule:nonzero;stroke:none"
         d="m 774.809,3651.61 c 11.738,-21.74 14.687,-46.7 10.879,-70.8 102.5,-10.87 185.957,-25.55 249.102,49.06 0.27,-0.29 0.27,-0.6 0.6,-0.9 4.99,-11.44 9.09,-23.45 9.99,-37 -4.72,-29.66 0.87,-60.5 -2.97,-90.48 -4.38,-1.46 -9.08,-2.07 -16.44,-4.7 -35.536,9.98 -69.911,-6.74 -105.732,-7.05 -33.515,5.02 -68.457,6.19 -102.246,5.9 -29.668,-0.59 -60.215,-2.07 -88.125,-9.99 -37.617,10.84 -45.82,49.63 -68.164,75.2 -0.566,3.53 -1.172,7.34 -1.465,11.16 -7.625,59.61 7.637,128.06 56.407,154.5 33.183,-13.79 52.296,-40.21 58.164,-74.9" /><path
         id="path214"
         style="fill:#dbac42;fill-opacity:1;fill-rule:nonzero;stroke:none"
         d="m 1034.79,3629.87 c -63.145,-74.61 -146.602,-59.93 -249.102,-49.06 3.808,24.1 0.859,49.06 -10.879,70.8 -5.868,34.69 -24.981,61.11 -58.164,74.9 16.757,8.85 37.316,12.91 62.558,9.99 36.719,-3.21 79.922,-10.55 114.004,5.88 27.316,-25.85 69.316,-4.1 101.641,-15.87 7.032,-12.33 9.392,-27.01 17.052,-39.35 3.5,-20.86 14.69,-38.5 22.89,-57.29" /><path
         id="path216"
         style="fill:#c60e00;fill-opacity:1;fill-rule:nonzero;stroke:none"
         d="m 785.375,2359.08 c 0,0.28 0,0.61 0.313,0.9 45.246,378.95 101.933,749.64 134.55,1129.76 35.821,0.31 70.196,17.03 105.732,7.05 -1.18,-16.44 -8.8,-29.94 -22.6,-39.65 -5.593,-21.13 10.27,-40.84 12.03,-62.56 -16.451,-582.53 -45.826,-1170.34 -66.966,-1759.02 -4.133,-6.19 -16.75,-10.88 -17.637,-15.57 -37.004,-163.33 -132.774,-467.68 -344.57,-366.61 -12.043,5.57 -21.75,11.43 -32.024,19.69 33.77,45.52 77.844,99.88 93.703,151.57 28.485,93.41 35.828,200.04 50.828,298.47 32.598,212.38 36.125,423.88 86.641,635.97" /><path
         id="path218"
         style="fill:#a30c04;fill-opacity:1;fill-rule:nonzero;stroke:none"
         d="m 920.238,3489.74 c -32.617,-380.12 -89.304,-750.81 -134.55,-1129.76 -0.313,-0.29 -0.313,-0.62 -0.313,-0.9 -50.516,-212.09 -54.043,-423.59 -86.641,-635.97 -15,-98.43 -22.343,-205.06 -50.828,-298.47 -15.859,-51.69 -59.933,-106.05 -93.703,-151.57 -11.465,9.08 -23.515,21.13 -39.383,39.35 0.321,5.28 0.606,11.44 2.071,15.55 17.644,21.17 49.656,37.31 51.414,66.7 -8.242,0.59 -19.082,-2.36 -24.383,-4.1 -20.578,-6.5 -46.106,-16.47 -69.035,-9.42 -39.063,79.6 -4.414,176.25 -39.356,252.62 157.149,610.76 246.164,1244.09 382.461,1861.87 33.789,0.29 68.731,-0.88 102.246,-5.9" /><path
         id="path220"
         style="fill:#c60e00;fill-opacity:1;fill-rule:nonzero;stroke:none"
         d="m 716.645,3726.51 c -48.77,-26.44 -64.032,-94.89 -56.407,-154.5 -90.761,-49.63 -278.789,-110.73 -353.086,-84.91 -14.394,106.93 44.922,219.17 101.36,305.8 47.273,72.58 147.449,149.24 166.238,232.37 -52.871,-18.5 -120.137,-49.63 -178.008,-49.63 -0.879,0 -1.465,0 -2.344,0 2.637,169.21 76.973,355.72 159.805,517.01 4.395,-4.43 9.102,-8.52 14.707,-12.34 31.406,-4.42 61.953,5.88 92.227,5.56 -52.305,-101.04 -121.328,-215.32 -109.278,-337.21 69.914,-31.74 131.875,30.83 191.797,55.51 -11.152,-76.08 -96.64,-164.22 -55.508,-248.2 53.77,-17.35 93.125,42.27 141.602,49.63 -31.727,-80.51 -106.055,-177.45 -50.547,-269.1 -25.242,2.92 -45.801,-1.14 -62.558,-9.99" /><path
         id="path222"
         style="fill:#023b8e;fill-opacity:1;fill-rule:nonzero;stroke:none"
         d="m 729.867,3485.65 c 27.91,7.92 58.457,9.4 88.125,9.99 C 681.695,2877.86 592.68,2244.53 435.531,1633.77 c -24.98,-14.08 -24.394,-53.75 -53.758,-62.25 -141.886,95.76 -180.675,304.6 -35.859,415.37 -18.508,13.79 -41.105,-5.6 -60.5,-7.95 -4.101,57.29 11.445,111.93 26.738,166.83 50.508,182.47 106.016,368.43 162.141,557 77.859,260.87 202.098,529.35 255.574,782.88" /><path
         id="path224"
         style="fill:#a30c04;fill-opacity:1;fill-rule:nonzero;stroke:none"
         d="m 284.84,3762.37 c 51.687,51.1 101.922,100.75 141.855,150.39 l -29.953,62.88 c 57.871,0 125.137,31.13 178.008,49.63 -18.789,-83.13 -118.965,-159.79 -166.238,-232.37 -56.438,-86.63 -115.754,-198.87 -101.36,-305.8 74.297,-25.82 262.325,35.28 353.086,84.91 0.293,-3.82 0.899,-7.63 1.465,-11.16 -202.39,-107.24 -398.32,-258.5 -625.0975,-312.87 -55.8203,210.34 100.7425,368.38 248.2345,514.39" /><path
         id="path226"
         style="fill:#023b8e;fill-opacity:1;fill-rule:nonzero;stroke:none"
         d="m 628.832,4630.4 c -9.414,-17.62 -18.816,-34.65 -28.516,-51.98 -15.554,-27.59 -30.839,-56.11 -46.113,-85.77 -51.992,52.57 -23.203,137.75 15.274,198.57 10.859,16.76 22.316,31.73 32.902,43.49 -7.629,-51.69 3.816,-84.63 26.453,-104.31" /><path
         id="path228"
         style="fill:#a30c04;fill-opacity:1;fill-rule:nonzero;stroke:none"
         d="m 276.313,4110.76 c 30.234,222.96 116.621,418.9 220.324,608.68 l 72.84,-28.22 c -38.477,-60.82 -67.266,-146 -15.274,-198.57 -82.832,-161.29 -157.168,-347.8 -159.805,-517.01 0.879,0 1.465,0 2.344,0 l 29.953,-62.88 c -39.933,-49.64 -90.168,-99.29 -141.855,-150.39 -32.629,-13.24 -66.699,-22.03 -94.895,-42.02 -0.293,0 -0.293,-0.28 -0.293,-0.28 -29.98,-10.02 -61.113,-26.14 -91.9528,-12.35 -15.8476,92.52 48.4688,190.36 101.6408,277.9 25.578,42.01 68.75,77.26 76.973,125.14" /><path
         id="path230"
         style="fill:#000000;fill-opacity:1;fill-rule:evenodd;stroke:none"
         d="m 2122.41,6953.71 c -35.74,-12.14 -87.62,20.34 -126.85,28.2 39.76,42.68 99.2,-12.28 126.85,-28.2" /><path
         id="path232"
         style="fill:#000000;fill-opacity:1;fill-rule:evenodd;stroke:none"
         d="m 1713.51,6946.65 c 3.61,-29.06 -16.47,-13.8 -28.18,-21.14 -44.18,-27.66 -61.22,-78.83 -105.74,-105.74 29.95,52.32 55.26,146.76 133.92,126.88" /><path
         id="path234"
         style="fill:#000000;fill-opacity:1;fill-rule:evenodd;stroke:none"
         d="m 1981.45,6622.34 c 6.2,-22.66 -23.25,-9.63 -21.18,-28.2 19.45,-39.3 35.64,11.79 63.45,7.06 7.31,-42.52 -15.59,-54.88 -56.39,-49.37 -17.67,23.63 -32.02,66.1 14.12,70.51" /><path
         id="path236"
         style="fill:#000000;fill-opacity:1;fill-rule:evenodd;stroke:none"
         d="m 1847.47,6573 c -4.35,-16.82 -30.69,-11.59 -21.17,-42.29 24.22,1.15 45.56,28.46 63.46,14.09 -0.12,-21.03 -18.3,-23.96 -21.12,-42.32 -16.11,7.38 -42.57,4.48 -56.38,14.12 -2.72,33.22 0.56,60.53 35.21,56.4" /><path
         id="path238"
         style="fill:#000000;fill-opacity:1;fill-rule:evenodd;stroke:none"
         d="m 2122.41,6403.8 c 17.56,1.08 21.87,-11.07 35.3,-14.12 -2.64,-23.52 -37.53,-7.91 -35.3,14.12" /><path
         id="path240"
         style="fill:#000000;fill-opacity:1;fill-rule:evenodd;stroke:none"
         d="m 2009.62,6382.63 c 18.24,-16.99 24.37,-46.13 35.28,-70.52 -45.38,-4.13 -46.13,36.87 -35.28,70.52" /><path
         id="path242"
         style="fill:#000000;fill-opacity:1;fill-rule:evenodd;stroke:none"
         d="m 1480.85,4493.15 c 37.75,-7.16 35.12,26.06 70.52,21.18 -10.5,-47.21 -33.39,-145.04 14.11,-169.2 15.95,16.93 26.21,39.57 49.34,49.34 6.2,-54.9 11.7,-110.48 56.4,-126.9 34.26,10.43 42.29,47.04 77.58,56.39 -1.86,-95.93 5.21,-192.98 70.51,-190.34 63.45,2.55 57.83,110.93 112.79,141 -4.3,-37.18 6.2,-59.55 35.23,-63.46 24.39,34.38 42.11,75.39 70.51,105.74 14.23,-16.28 23.42,-37.63 49.34,-42.28 58.01,33.68 76.48,106.84 91.64,183.32 25.7,4.52 8.71,-33.59 28.22,-35.26 14.81,36.92 10.96,92.43 35.24,119.85 23.86,2.72 11.12,-31.21 42.33,-21.15 14.46,51.42 49.11,119.96 35.23,176.27 -0.28,-31.21 -43.15,-34.09 -56.41,-14.12 -8.99,-33.28 -11.57,-72.98 -42.28,-84.59 -28.05,9.54 -53.41,21.79 -63.44,49.37 -20.15,-26.89 -21.18,-72.87 -49.35,-91.69 -27.32,7.97 -34.77,35.8 -56.41,49.37 -16.06,-73.59 -44.28,-179.05 -105.79,-176.25 -54.16,2.44 -62.6,85.56 -91.64,133.93 -9.16,-47.21 -29.99,-82.82 -70.51,-98.68 -53.24,14.91 -62.71,73.55 -84.57,119.86 -11.47,-26.17 -23.4,-51.81 -56.39,-56.4 -35.52,11.46 -45.11,48.94 -56.46,84.57 -13.38,17.5 -19.16,-32.02 -49.33,-21.12 -26.41,39.36 -43.79,87.79 -63.47,133.91 -11.36,-89.78 -19.68,-155.02 7.06,-232.66 z m 56.41,0 c -9.65,10 -37.31,-29.65 -63.47,-7.01 -34.37,43.28 -19.44,143.17 -14.05,204.45 3.96,45.44 -7.76,103.97 21.11,126.92 -3.11,-94.79 30.29,-153.06 63.46,-211.52 23.12,6.03 33.33,51.44 56.39,35.25 -0.34,-47.36 13.67,-80.35 42.35,-98.71 45.73,3.61 28.17,70.49 77.51,70.49 -9.23,-72.7 23.64,-103.25 56.4,-133.95 61.05,9.5 45.38,95.69 98.73,112.83 -5.04,-80.23 32.66,-117.73 70.47,-155.14 32.24,17.53 61.15,52.33 77.56,91.69 16.36,39.24 5.29,95.88 42.29,119.86 8.15,-29.47 6.21,-69.08 42.35,-70.53 16.81,30.13 34.66,59.34 42.29,98.69 31.31,-13.32 26.62,-62.65 70.5,-63.45 23.35,26.01 29.84,68.85 42.28,105.77 21.36,0.19 6.83,-35.5 28.18,-35.26 35.06,16.66 27.08,76.36 49.4,105.75 27.09,-8.41 1.27,-16.97 0,-28.18 -8.95,-78.43 -7.91,-204.23 -56.4,-253.82 -21.51,-0.29 -27.42,14.88 -42.33,21.17 -4.48,-44.9 -13.5,-85.2 -28.18,-119.86 -19.97,-5.85 -18.31,9.94 -35.28,7.05 -4.53,-80.08 -40.24,-129 -98.69,-155.13 -18.19,7.68 -33.91,17.84 -42.29,35.28 -23.51,-32.91 -41.93,-70.92 -70.51,-98.74 -24.27,3.96 -35.86,20.55 -49.34,35.28 -25.36,-35.8 -43.9,-78.32 -77.57,-105.78 -101.73,-12.4 -98.12,80.54 -105.74,162.19 -39.94,-44.19 -133.28,-32.54 -126.92,70.51 -9.23,17.84 -36.49,-42.58 -49.33,-21.17 -42.58,11.59 -31,114.63 -21.17,155.07" /><path
         id="path244"
         style="fill:#000000;fill-opacity:1;fill-rule:evenodd;stroke:none"
         d="m 754.711,3682.39 c 46.699,-27.69 58.867,-137.99 0,-162.13 37.461,45.84 27.656,114.12 0,162.13" /><path
         id="path246"
         style="fill:#000000;fill-opacity:1;fill-rule:evenodd;stroke:none"
         d="m 747.652,2124.34 c 28.465,2.41 2.645,-23.3 0,-42.36 -3.781,-27.3 4.246,-85 -21.172,-91.63 7.45,25.09 8.036,93.78 21.172,133.99" /><path
         id="path248"
         style="fill:#000000;fill-opacity:1;fill-rule:evenodd;stroke:none"
         d="m 705.309,1877.55 c 4.707,0 9.414,0 14.109,0 0,-9.39 0,-18.81 0,-28.21 -4.695,0 -9.402,0 -14.109,0 0,9.4 0,18.82 0,28.21" /><path
         id="path250"
         style="fill:#000000;fill-opacity:1;fill-rule:evenodd;stroke:none"
         d="m 966.195,1792.93 c 0,-67.33 -10.625,-138.22 21.172,-197.36 68.323,53.3 140.053,77.56 176.253,162.13 49.63,115.96 9,268.98 14.05,430.04 -19.56,29.76 -55.24,43.44 -63.39,84.62 17.68,5.78 60.7,-13.72 56.39,14.1 -42.85,342.59 -60.82,710.01 -91.68,1064.6 -9.18,4.36 -47.79,10.21 -63.46,28.17 7.7,-526.44 -49.335,-1052.14 -49.335,-1586.3 z m 197.425,1621.58 c 83.59,-19.44 209.71,-30.13 232.66,49.35 -65.81,-13.13 -154.98,-10.22 -204.49,14.12 0.34,-30.88 -17.61,-43.56 -28.17,-63.47 z m -415.968,56.41 C 691.313,3216.63 585.289,2983.32 500.883,2744.72 457.797,2623 424.535,2497.12 388.07,2371.07 c -36.004,-124.61 -84.793,-252.09 -91.66,-387.76 17.852,15.31 73.352,21.73 91.66,14.1 -51.777,-48.64 -127.488,-93.68 -133.945,-176.25 -7.539,-96.19 68.391,-179.7 126.914,-232.65 36.719,66.27 69.356,105.11 84.609,183.31 10.508,53.85 24.395,106.92 35.235,162.14 43.769,222.47 101.262,441.87 133.965,655.68 22.949,149.98 55.031,296.45 84.57,444.14 29.609,147.85 41.602,300.18 91.68,437.14 -1.602,5.45 -0.215,13.88 -7.051,14.08 -15.488,-8.04 -28.797,-18.22 -56.395,-14.08 z m 260.828,-35.29 c 19.8,-90.93 147.23,-48.66 162.19,21.17 -50.08,-14 -105.73,6.26 -133.97,35.22 -3.21,-25 -23.8,-32.58 -28.22,-56.39 z M 930.961,3485 c -31.152,-292.53 -68.672,-601.38 -112.793,-888.3 -14.238,-92.49 -17.051,-180.96 -28.23,-267.95 -2.981,-23.21 2.351,-60.02 -21.172,-77.53 41.707,416.56 109.636,806.93 141.023,1233.78 -28.223,0 -56.406,0 -84.629,0 -52.031,-145.87 -60.019,-307.84 -91.621,-465.3 -30.926,-154.26 -65.234,-306.18 -91.641,-465.34 -25.75,-155.01 -58.339,-310.93 -91.668,-465.32 -47.511,-220.08 -142.199,-492.56 -56.406,-705.03 48.895,0.47 59.266,39.49 112.801,35.3 -9.531,-56.25 -69.316,-62.32 -84.57,-112.85 45.664,-24.28 83.886,-71.32 148.027,-63.4 68.047,8.32 177.461,150.13 204.484,204.42 30.692,61.8 27.137,104.53 42.286,169.19 8.367,35.93 31.257,68.67 35.222,105.76 15.489,143.71 -0.515,312.05 7.071,479.42 19.503,428.89 55.695,862.94 35.273,1240.84 43.942,76.01 -9.063,37.47 -63.457,42.31 z m 838.939,-63.46 c 42.86,-57.34 160.99,-38.39 169.2,35.26 -71.66,-10.56 -111.47,10.73 -140.97,42.29 -12.85,-22.38 -32.71,-37.75 -28.23,-77.55 z m -338.41,28.21 c 58.25,-21.58 119.82,4.41 126.94,56.39 -55.15,-5.96 -148.62,26.39 -126.94,-56.39 z m 521.72,-7.06 c 79.64,-22.78 163.41,-28.75 197.44,35.29 -76.66,-6.17 -126.64,14.36 -176.27,35.21 -10.6,-19.96 -7.85,-53.24 -21.17,-70.5 z m 225.61,14.11 c 49.57,-13.6 128.1,15.26 112.79,63.46 -18.83,-18.37 -62.14,-1.44 -84.57,0 -8.38,-22.18 -23.81,-37.3 -28.22,-63.46 z m -1128.01,126.91 c 0,-32.94 0,-65.81 0,-98.71 41.44,-7.9 70.69,-28 126.86,-21.14 5.28,44.12 9.64,89.1 7.06,140.99 -54.33,2.68 -98.28,-5.07 -133.92,-21.14 z m 789.61,28.17 c 7.57,-49.28 -20.65,-94.38 0,-133.9 31.21,-13.09 87.83,-7.06 105.74,-14.12 14.63,44.12 25.47,92.03 21.17,155.08 -35.75,16.87 -92.83,0.63 -126.91,-7.06 z m 366.62,21.18 c 0.18,-36.72 16.18,-73.44 0,-105.75 35.41,-4.33 83.3,6.61 98.69,0 0,35.23 0,70.49 0,105.75 -30.88,16.08 -62.94,-0.52 -98.69,0 z m -1001.14,0 c 1.96,-53.7 0.3,-103.69 -14.11,-141.04 51.47,-28.46 148.77,-24.31 218.55,-14.04 20.53,46 11.18,125.53 7.05,162.13 -55.08,30.3 -161.97,26.11 -211.49,-7.05 z m 232.66,-112.8 c 44.64,0 89.28,0 133.97,0 4.53,42.45 20.88,73.09 14.06,126.92 -46.36,12.38 -94.55,22.89 -155.1,21.11 -1.3,-53.03 12.35,-91.06 7.07,-148.03 z m 542.89,148.03 c 1.71,-26 6.02,-95.42 -7.07,-140.98 52.27,-27.67 130.59,-42.51 190.38,-42.31 29.49,45.58 38.44,90.57 28.16,162.18 -36.88,48.95 -152.21,52.65 -211.47,21.11 z m -1304.317,14.1 c -18.301,-63.51 1.836,-122.77 28.176,-162.13 78.543,-19.08 220.496,-25.33 331.391,-14.12 7.57,73.32 -7.34,154.06 -42.282,162.15 8.262,19.9 1.387,29.94 -7.051,49.37 -142.695,-9.27 -233.008,42.65 -310.234,-35.27 z M 2319.84,3534.37 c 61.11,2.35 117.74,9.18 169.19,21.11 32.48,42.01 22.21,124.33 -7.05,162.18 -46.7,9.71 -108.38,4.38 -155.08,14.09 -10.21,-57.38 -9.64,-149.12 -7.06,-197.38 z m -1297.26,155.08 c 8.22,-34.13 19.16,-65.47 35.24,-91.65 30.41,18.99 79.18,19.53 126.91,21.14 -3.04,48.63 -17.15,86.23 -42.28,112.81 -59.95,5.91 -81.02,-27.09 -119.87,-42.3 z m 1163.29,49.35 c 15.89,-21.75 13.48,-61.74 21.17,-91.62 32.87,0 65.81,0 98.69,0 1.04,45.63 1.66,90.9 -14.12,119.84 -36.89,14.12 -91.11,1.61 -105.74,-28.22 z m -21.11,49.33 c 9.47,-4.61 13.14,-15.02 14.06,-28.16 27.88,12.07 52.77,27.14 98.74,21.13 -11.19,52.15 -99.55,16.41 -112.8,7.03 z m -373.68,-56.38 c 0,7.05 0,14.1 0,21.16 28.62,-27.76 28.45,-84.37 42.27,-126.91 42.58,4.48 84,9.99 133.98,7.06 5.45,80.66 -6.89,143.51 -35.23,190.37 -80.66,7.69 -151.12,-32.13 -141.02,-91.68 z M 1361,3809.31 c -89.51,34.63 -154.23,-12.74 -204.43,-56.4 18.01,-36.01 35.96,-72.12 49.33,-112.8 41.55,45.04 162.1,43.38 211.49,7.07 -6.01,66.78 -24.04,121.6 -56.39,162.13 z m -282.01,7.06 c -75.1,16.86 -128.576,-37.64 -169.201,-77.57 14.121,0 28.242,0 42.285,0 6.203,17.32 6.379,40.68 28.223,42.3 -5.606,-13.16 -11.817,-25.81 -14.102,-42.3 18.703,-0.06 40.275,2.66 49.335,-7.05 -11.19,-10.54 -5.15,-28.81 7.05,-35.24 23.54,32.87 70.87,41.94 112.82,56.4 -23.48,16.46 -38.39,41.54 -56.41,63.46 z m 507.6,-42.32 c -26.74,63.95 -132.6,69.03 -190.31,28.21 4.2,-45.13 27.02,-71.66 28.16,-119.87 65.59,-0.22 124.63,-6.99 169.2,-28.16 -5.1,47.75 -5.39,83.37 -7.05,119.82 z m 373.68,35.26 c -0.57,-49.93 27.48,-71.19 21.18,-126.92 50.38,22.95 162.08,21.04 204.42,-7.05 5.97,135.92 -127.77,202.7 -225.6,133.97 z m -761.42,56.4 c -14.8,-32.3 -65.41,-66.03 -49.35,-105.74 42.13,42.25 107.99,83.13 176.27,77.54 -37.31,14.43 -68.57,34.85 -126.92,28.2 z m 507.6,-133.96 c 21.46,4.41 60.76,-9.02 70.51,7.05 -6.36,60.53 76.19,92.97 141.03,105.74 -81.53,78.89 -191.63,-23.44 -211.54,-112.79 z m -126.86,133.96 c -70.34,68.62 -182.9,-9.98 -190.36,-63.45 43.71,53.43 163.22,54.97 197.36,-7.06 1.44,27.25 0.29,51.98 -7,70.51 z m 733.19,169.2 c 42.8,66.1 91.12,140.57 98.69,204.48 -16.24,-9.58 -31.38,-20.28 -56.4,-21.17 -28.52,13.77 -45.62,38.98 -63.46,63.46 -54.9,-161.29 -140.74,-291.63 -211.48,-437.14 38.9,5.76 51.8,-43.26 77.58,-28.17 58.1,59.78 108.26,146.22 155.07,218.54 z M 804.047,4457.94 c -26.512,32.19 -11.25,59.43 0,91.62 10.449,29.92 49.746,59.79 28.183,70.52 -102.644,-47.94 -255.664,-39.83 -239.726,105.73 -29.316,-65.8 -102.176,-173.67 -28.164,-239.67 44.23,-9.01 82.734,17.4 112.793,0 -61.445,-91.3 -118.699,-186.79 -119.852,-338.43 107.235,-17.9 147.332,68.82 211.485,70.51 -31.211,-77.22 -101.203,-152.14 -77.512,-260.86 75.156,-6.28 102.422,70.47 162.129,56.4 -43.535,-69.04 -127.813,-183.59 -63.445,-274.96 40.449,-3.21 53.523,10.04 84.628,0 129.774,128.75 279.474,275.11 324.284,465.31 -92.38,-86.72 -167.65,50.77 -126.91,162.16 -23.47,0 -46.99,0 -70.52,0 -51.807,39.79 9.18,125.28 7.06,155.11 -53.875,-35.41 -121.582,-56.97 -204.433,-63.44 z M 2305.73,4281.68 c 46.37,-84.32 120.26,-35.46 133.97,42.28 18.71,105.97 -25.71,268.89 -35.24,366.63 -2.4,24.26 13.95,45.67 -7.05,56.39 -10.33,-175.36 -50.72,-320.58 -91.68,-465.3 z m -634.51,1699.1 c 17.04,32.41 76.49,59.67 98.68,63.45 -2.06,-40.22 -41.01,-43.54 -42.28,-84.63 38.27,-8.6 68.96,45.16 119.85,28.23 34.66,-11.53 51.98,-106.17 77.58,-148.05 10.72,-17.65 32.46,-42.97 49.33,-63.46 18.14,-22.06 40.69,-56.66 49.34,-63.46 89.05,-69.45 266.11,-25.62 310.24,-126.88 2.69,-25.48 9.35,-47.05 21.11,-63.46 100.47,129.56 275,289.66 289.04,493.52 5.24,75.35 -6.58,183.16 -56.39,246.73 -50.03,63.93 -215.84,140.4 -345.44,162.18 -103.46,17.34 -182.82,5.18 -267.9,14.08 -18.81,-34.64 -43.37,-70.81 -63.44,-91.63 -97.43,-101.04 -179.43,-207.24 -260.89,-317.28 -32.72,-95.87 -29.55,-189.11 0,-282 20.7,-64.87 66.43,-131.67 105.8,-190.38 42.11,-62.87 88.12,-129.94 148.03,-148.01 105.45,42.56 165.41,130.64 176.25,267.87 -30.87,-2.66 -36.25,20.14 -63.46,21.18 -64.53,83.48 -132.13,163.92 -169.2,274.94 -63.87,10.96 -88.98,-50.38 -141.02,-28.17 -10.67,36.83 35.63,53.3 21.17,70.49 -19.06,-7.09 -45.5,-43.41 -56.4,-35.26 z m -42.28,387.76 c 52.71,-65.06 192.13,-68.76 260.82,-21.14 49.8,34.49 47.16,93.41 91.69,112.8 58.23,-17.39 126.56,10.59 190.36,-7.06 24.73,17.56 44.29,40.28 56.4,70.52 -250.04,-1.44 -417.92,-85.03 -599.27,-155.12 z m 204.41,-84.59 c 2.75,7.63 8.5,16.93 0,7.06 -36.6,-49 -181.06,-61.23 -218.53,0 52.79,-33.34 172.98,-43.3 204.49,14.08 -238.11,-38.88 -305.3,154.28 -253.83,359.54 -82.74,28.46 -236.57,72.17 -331.41,21.17 107.87,-21.41 178.73,-79.81 282.07,-105.74 -33.57,-35.47 -82.62,-25.82 -126.91,-35.26 -154.87,-33.02 -315.16,-91.66 -423.035,-169.23 66.305,3.73 164.435,16.18 253.815,14.11 32.03,-0.74 72.3,8.15 84.57,-14.11 -153.24,-62.94 -325.932,-144.03 -380.67,-282 61.731,52.82 160.42,74.64 239.71,112.8 37.29,17.96 84.51,67.36 133.91,28.23 -83.31,-174.44 -181.07,-369.66 -274.95,-535.82 -53.404,-94.61 -98.502,-192.49 -169.197,-253.83 -58.281,-50.55 -137.403,-70.34 -162.129,-155.08 90.187,-3.27 137.637,36.2 211.476,49.34 -6.933,-35.34 -38.261,-46.33 -28.164,-98.68 82.618,11.36 138.854,49.11 204.424,77.51 -24.61,-52.96 -41.65,-113.43 -42.29,-190.34 55.94,0.43 56,56.77 112.8,56.4 0.68,-48.66 30.82,-67.9 63.45,-84.61 43.62,15.15 54.69,62.83 98.7,77.58 10.33,-43.78 36.83,-71.32 56.41,-105.77 53.82,11.99 73.88,57.74 98.73,98.71 24.16,-8.72 9.58,-56.23 42.28,-56.4 15.67,-15.23 31.91,28.84 63.46,21.15 19.16,-93.76 105.74,-51.15 155.09,-14.09 6.31,-45.42 11.76,-91.66 28.23,-126.92 39.76,0.12 24.9,54.97 56.41,63.46 2.74,-25.3 30.97,-33.73 49.33,-49.36 24.79,-21.09 31.67,-47.25 63.46,-42.32 51.35,8.01 38.61,81.06 70.51,126.91 23.4,-40.05 62.42,-64.43 112.8,-77.54 12.62,34.39 6.47,87.52 28.17,112.8 19.73,-13.18 31.96,-33.89 63.46,-35.26 13.88,4.91 -1.72,39.36 14.11,42.32 35.05,-28.38 76.53,-50.39 126.91,-63.46 3.16,30.37 -19.22,60.24 -7.05,77.54 21.17,-9.36 53.92,-7.17 84.57,-7.05 -17.62,43.48 -56.06,66.15 -105.75,77.57 -59.66,123.76 -124.33,279.7 -133.96,430.08 -29.79,-1.61 -45.51,10.84 -70.46,14.09 -17.96,-123.08 -81.76,-200.27 -169.26,-253.8 59.03,-11.51 124.5,-16.53 155.15,-56.41 -30.94,-20.76 -97.88,-5.54 -133.98,-21.16 23.24,-7.36 39.25,-21.87 49.35,-42.29 -34.66,14.69 -65.98,32.7 -84.57,63.45 46.99,0 93.97,0 140.96,0 -34.71,35.43 -118.47,52.62 -183.3,35.23 -82.81,78.31 -201.17,209.18 -246.72,352.52 -34.71,109.06 -51.01,215.43 0,303.16 37.17,63.97 102.3,123.7 140.97,176.26 -50.66,-36.5 -181.65,-48.6 -197.37,7.06 86.57,-62.54 201.16,1.71 253.76,56.4 z m 218.6,521.7 c -103.09,3.56 -108.54,-110.9 -141.01,-204.45 -26.46,41.36 -42.98,44.09 -91.63,70.48 -37.93,20.57 -111.95,67.62 -162.21,56.4 -105.67,-23.53 -110.9,-276.03 -49.34,-352.51 182.17,83.39 381.88,149.29 627.45,169.23 35.35,125.91 -97.02,257.87 -183.26,260.85 z M 1812.26,3513.19 c 30.86,64.64 -0.47,131.06 -14.13,190.37 -61.1,0 -122.2,0 -183.31,0 -13.72,-110.44 -20.03,-246.47 -112.8,-296.1 -6.25,-669.05 -22.61,-1158.92 -21.17,-1826.01 0.98,-452.43 7.34,-962.641 0,-1395.95 -0.68,-41.488 -4.26,-77.488 -7.06,-119.8711 -0.85,-13.3594 12.92,-49.0781 -14.05,-56.3789 1.54,71.9805 5.28,146.68 0,225.602 -28.46,424.07 -3.44,890.408 7.05,1325.408 6.72,280.52 -17.21,699.79 0,1078.71 12.11,267.66 3.15,536.37 0,782.57 -61.62,29.23 -89.79,-44.58 -141.02,-56.39 -61.68,-14.21 -115.73,4.96 -169.2,28.19 -20.61,-7.63 -26.57,-29.86 -56.41,-28.19 4.77,-145.68 26,-288.89 42.29,-430.06 24.96,-215.9 -2.35,-439.11 42.28,-655.69 4.13,-25.22 -20.82,-21.4 -42.28,-21.17 -6.78,-18.74 40.74,-43.64 56.4,-63.43 -3.44,-139.46 40.22,-328.9 -21.18,-458.27 -14.74,-31.03 -53.3,-67.39 -77.51,-98.69 -28.35,-36.6 -74.82,-82.16 -133.965,-91.66 -22.773,7.78 -5.164,55.95 -21.179,70.49 -26.164,-121.19 -60.129,-255.88 -140.969,-338.39 -25.067,-25.58 -68.496,-58.79 -91.68,-63.47 -83.476,-16.8 -162.89,42.93 -211.484,98.73 10.273,31.99 41.074,43.51 56.398,70.47 -36.379,-4.13 -70.051,-30.54 -98.683,-21.1 -3.106,81.46 -22.09,147.1 -14.121,239.68 -14.122,4.44 -27.118,-52.56 -56.407,-56.41 -68.847,52.78 -165.507,171.13 -148.054,289.06 9.754,65.83 63.398,97.96 98.711,148.07 -33.606,6.43 -50.207,-29.28 -77.539,-7.06 143.308,502.94 285.593,1006.92 451.179,1487.61 -22.324,19.96 -46.25,38.3 -49.336,77.54 C 450.57,3436.6 279.066,3290.84 21.4688,3231.2 c -0.1954,59.49 -33.711,117.31 -14.10161,183.31 19.23831,64.78 65.56641,117.34 119.84381,183.29 77.258,93.83 143.613,164.75 225.605,246.74 30.489,30.5 57.266,64.14 91.661,77.58 C 357.426,3824.2 251.148,3729.38 162.465,3611.88 87.5742,3512.69 13.3828,3389.73 42.6211,3259.37 c 171.2309,60.91 337.3359,131.01 479.4339,232.65 41.652,29.85 79.347,80.76 133.906,84.64 -12.207,103.88 15.898,167.41 112.805,162.14 -39.414,94.96 13.711,196.42 56.394,253.83 -36.484,3.55 -85.82,-70.78 -148.027,-42.33 -23.125,97.52 31.68,174 63.469,239.72 -46.594,-7.51 -94.68,-74.49 -190.372,-56.4 -21.808,144.28 51.915,253.36 105.731,345.45 -28.281,-6.91 -61.844,-8.63 -98.68,-7.03 -60.363,55.61 -33.449,153.11 0,218.55 14.285,27.94 37.586,67.47 56.395,56.39 -31.719,-191.85 131.621,-138.9 246.777,-112.79 25.527,-5.23 -24.512,-42.49 -35.293,-63.46 -14.922,-29.15 -25.008,-58.51 -21.113,-98.69 94.387,6.66 169.199,32.89 225.603,77.52 24.5,-32.59 -52.322,-76.77 -35.232,-148.03 14.242,-41.13 59.732,-12.05 91.632,-28.23 -9.23,-76.83 -23.35,-172.41 42.28,-183.28 68.11,-11.28 96.45,62.57 105.74,141.01 16.87,141.97 27.89,320.43 28.24,486.48 32.13,-28.2 8.26,-80.14 7.05,-112.81 -2.4,-63.11 3.61,-127.09 0,-190.37 C 1253,4227 1155.42,4004.74 1008.48,3837.51 c 55.2,22.64 89.39,-25.04 119.85,-49.38 30.41,30.3 27.89,85.15 70.52,98.75 64.03,20.34 127.31,-35.72 169.21,-63.45 48.59,46.27 133.16,143.2 225.58,56.39 9.07,-28.11 7.01,-91.82 7.06,-148.07 4.99,-6.78 51.41,4.65 77.57,0 31.86,64.88 100.8,179.98 190.37,169.22 45.1,-5.42 51.88,-44.67 84.57,-77.54 34.2,10.44 54.28,35 105.75,28.16 96.73,179.47 251.47,411.12 296.11,683.91 7.34,44.71 14.57,93.24 21.17,140.97 8.26,60.04 22.27,100.92 14.12,155.11 -10.68,70.7 -43.49,135.5 -42.28,211.52 -30.88,32.59 -94.73,32.18 -119.87,70.51 -12.17,-9.06 -8.78,-33.57 -28.22,-35.28 -29.03,3.87 -43.73,22.09 -63.46,35.28 0.86,-47.91 -6.26,-87.78 -28.17,-112.8 -45.21,8.84 -76.14,31.96 -105.8,56.4 -19.97,-41.1 -28.22,-93.94 -70.46,-112.8 -54.16,14 -81.02,55.32 -119.84,84.57 -20.43,-19.53 -22.96,-56.97 -63.46,-56.4 -13.9,35.47 -28.53,70.23 -28.24,119.86 -29.89,12.68 -51.29,-42.74 -91.62,-42.28 -36.72,0.4 -56.63,21.19 -70.51,63.45 -20.31,-3.21 -22.05,-24.95 -49.36,-21.17 -25.98,4.59 -37,24.13 -42.28,49.35 -26.72,-93.56 -143.62,-117.62 -155.14,14.1 -39.48,-19.27 -57.61,-59.89 -105.75,-70.51 -36.89,14.81 -53.86,49.51 -70.5,84.63 -31.05,-19.62 -65.86,-68.68 -105.75,-56.4 -14.98,56.08 3.84,136.27 28.17,176.26 -51.57,-9.58 -115.375,-67.85 -197.367,-70.51 -17.793,30.4 2.121,75.38 14.113,98.68 -27.539,-11.07 -35.636,-40.97 -49.406,-63.46 -39.238,-64.03 -85.937,-133.3 -126.844,-204.42 -27.832,-48.34 -48.605,-100.27 -77.578,-148.1 -26.386,-43.48 -64.894,-81.69 -91.679,-126.87 -53.418,-90.26 -98.645,-198.23 -140.989,-303.15 -42.519,-105.39 -78.554,-220.59 -91.66,-345.49 13.887,-11.09 37.844,27.7 49.375,42.33 -0.144,-35.29 -32.734,-64.6 -56.406,-91.66 -23.203,-26.54 -58.77,-52.87 -77.566,-84.59 -23.469,-39.71 -35.774,-90.77 -56.399,-133.98 -21.719,-45.5 -52.91,-85.26 -49.336,-140.99 40.156,-15.56 73.75,20.79 126.906,14.09 -34.023,-27.54 -126.574,-67.48 -169.2301,-21.13 8.1836,88.39 53.3591,155.15 91.6601,218.55 29.57,48.91 60.996,94.24 98.711,141 -13.992,71.91 32.617,144.1 56.406,218.57 17.891,56.11 30.371,111.88 49.336,162.15 79.102,209.46 191.797,366.83 296.094,549.92 52.266,91.69 83.144,192.44 141.035,282 -38.094,10.32 -102.988,-41.14 -148.086,-7.05 23.633,102.35 126.856,125.59 190.371,197.42 41.711,47.17 74.004,120.42 112.793,183.28 36.211,58.68 81.366,119.49 112.806,176.25 17.04,30.67 25.01,68.36 42.34,98.73 46.71,81.9 116.48,170.92 155.09,267.88 -73.97,-1.36 -147.8,-24.59 -211.5,-56.41 -64.244,-32.04 -120.591,-80.92 -183.306,-84.56 -8.379,77.66 55.773,112.45 112.793,155.07 72.813,54.46 169.093,130.17 274.943,155.12 -113.02,21.06 -253.54,-28.08 -345.451,-28.2 -3.496,52.06 62.207,70.17 98.691,91.63 119.45,70.23 302.71,122.27 451.26,141.03 -73.44,55.82 -191.06,67.47 -289.07,98.68 27.03,48.6 148.55,59.5 239.67,49.37 62.37,-6.91 119.51,-34.42 155.14,-49.37 60.64,152.91 265.41,46.91 331.34,-35.23 40.96,71.32 44.46,180.68 133.97,190.38 160.29,17.32 309.02,-249.56 169.2,-380.74 152.32,-9.67 273.11,-49.64 373.67,-119.86 91.97,-64.26 133.11,-235.41 84.57,-387.74 -24.43,-76.71 -92.94,-173.5 -140.95,-239.71 -60.47,-83.32 -116.31,-167.25 -169.2,-211.51 -29.2,19.47 -19.81,52.69 -35.3,77.54 -22.83,36.65 -56.05,47.51 -91.63,70.51 17.16,-135.57 45.45,-260.08 84.58,-373.68 40.22,-42.06 145.96,-56.12 141.03,-119.85 -7.41,-39.19 -68.33,-14.06 -98.68,-14.09 10.84,-199.13 130.57,-420.58 133.9,-648.63 1.61,-106.23 -39.24,-200.14 -70.51,-282.02 -14.74,-38.67 -23.35,-81.76 -35.23,-105.74 -21.46,-43.31 -61.62,-79.12 -84.63,-119.85 -26.8,-47.54 -43.48,-92.66 -70.46,-133.95 45.68,-15.43 93.23,-28.95 91.63,-91.66 42.91,-0.52 152.05,7.11 197.43,-14.1 14.12,-53.68 30.12,-173.77 -28.23,-211.49 -44.64,-28.92 -100.87,1.31 -155.08,-7.07 -26.79,-20.42 -34.14,-61.9 -70.52,-77.56 -15.67,-6.71 -39.18,2.52 -63.46,0 -7.05,-0.72 -17.5,-13.02 -28.16,-14.09 -12.91,-1.3 -21.74,9.04 -28.23,7.06 -20.08,-6.11 -32.07,-25.96 -49.35,-28.19 -46.17,-6.06 -95.65,5.73 -133.97,21.13 -35.39,-82.53 -159.45,-82.25 -204.41,-7.03 -5.52,38.36 10.78,54.97 21.1,77.51 -16.57,0.18 -20.71,-12.1 -42.28,-7.02 -22.9,-128.54 -7.41,-322.99 -7.06,-472.35 1.32,-510.22 -21.86,-1049.32 -28.17,-1565.17 -0.86,-69.54 14.06,-136.48 14.06,-204.42 0,-382.822 -15.78,-829.158 -28.18,-1240.88031 -26.68,15.69141 -13.65,55.19921 -14.1,77.57031 -0.59,26.301 -1.21,57.492 0,84.609 7.17,157.653 20.53,320.321 21.16,472.36 0.4,98.613 -14.69,195.933 -14.11,296.113 4.99,851.258 28.57,1727.948 21.17,2580.358 -9.41,35.24 -57.42,31.91 -91.69,42.29 3.1,8.7 9.01,14.53 21.18,14.12 39.81,-11.9 74.18,-29.22 98.68,-56.41 33.4,12 54.33,1.14 91.7,0" /></g></g></svg>