<?xml version="1.0" encoding="UTF-8" standalone="no"?>
<svg
   xmlns:dc="http://purl.org/dc/elements/1.1/"
   xmlns:cc="http://creativecommons.org/ns#"
   xmlns:rdf="http://www.w3.org/1999/02/22-rdf-syntax-ns#"
   xmlns:svg="http://www.w3.org/2000/svg"
   xmlns="http://www.w3.org/2000/svg"
   viewBox="0 0 58.426666 66.666664"
   height="66.666664"
   width="58.426666"
   xml:space="preserve"
   id="svg2"
   version="1.1"><metadata
     id="metadata8"><rdf:RDF><cc:Work
         rdf:about=""><dc:format>image/svg+xml</dc:format><dc:type
           rdf:resource="http://purl.org/dc/dcmitype/StillImage" /></cc:Work></rdf:RDF></metadata><defs
     id="defs6" /><g
     transform="matrix(1.3333333,0,0,-1.3333333,0,66.666667)"
     id="g10"><g
       transform="scale(0.1)"
       id="g12"><path
         id="path14"
         style="fill:#231f20;fill-opacity:1;fill-rule:evenodd;stroke:none"
         d="m 324.883,84.7734 -1.309,-4.0976 -1.465,-3.5195 -1.609,-2.3321 -1.027,-2.0508 -0.586,-1.6211 0.586,-1.7578 1.757,-1.8945 3.653,-2.7812 4.258,-4.836 4.394,-4.5312 3.945,-4.1016 3.958,-3.9648 3.21,-3.8008 2.93,-4.0977 2.207,-4.5429 1.602,-5.7032 0.293,-1.6211 0.449,-2.039 0.293,-2.0508 0.293,-2.4922 -0.293,-2.1992 -0.586,-2.0391 -1.035,-1.6211 -1.602,-1.3086 -2.793,-0.4492 -2.636,-0.1367 -2.625,0.4297 -2.493,0.5859 -2.636,1.0352 -2.637,0.8789 -2.637,1.1601 -2.187,0.8789 -2.344,-6.7265 -2.781,-3.66017 -3.223,-1.17188 -3.371,0.58594 -3.66,1.90234 -3.371,1.60157 -2.93,1.1719 -2.48,-0.4297 L 302.93,10.3906 301.902,8.92578 301.023,7.03125 300.586,4.83594 299.855,3.22266 298.977,1.60938 297.805,0.4375 296.191,0 l -8.632,1.31641 -6.739,3.51953 -5.566,5.41796 -4.824,6.4453 -4.258,7.6094 -3.652,7.4687 -3.665,7.461 -4.246,6.3008 -2.636,-1.6133 -2.637,-2.0508 -2.773,-2.1953 -2.93,-2.0508 -3.223,-1.4648 -3.074,-1.0274 -3.227,0.293 -3.074,1.1719 -2.926,2.9297 -0.879,3.2226 0.293,3.5156 1.614,3.8086 1.898,4.1016 2.207,3.9453 1.746,3.957 1.028,3.5039 -0.293,4.6875 -0.149,5.7227 -0.293,6.7305 0.293,6.2968 0.735,6.1446 1.613,4.539 2.637,2.637 4.089,-0.149 8.067,-2.3395 8.484,-1.9063 8.352,-1.0156 8.781,-0.5859 h 8.484 l 8.645,0.4296 8.789,0.7344 8.777,1.0235 5.125,1.0273 3.957,0.5825 2.481,0.293 1.621,-0.731 0.586,-1.4648 -0.156,-2.9297 -0.723,-4.2383 -1.035,-6.3008 v 0" /><path
         id="path16"
         style="fill:#f18720;fill-opacity:1;fill-rule:evenodd;stroke:none"
         d="m 315.371,71.1523 4.836,-6.1406 5.555,-6.0078 5.722,-5.7031 5.996,-6.1524 4.981,-6.2968 3.945,-6.8868 2.5,-7.6093 0.293,-8.6407 -1.621,-0.8789 -1.308,-0.5859 h -1.329 l -1.308,0.293 -1.465,0.5859 -1.316,0.4375 -1.321,0.4414 -1.316,0.1445 -2.492,1.1719 -1.614,1.1758 -1.316,1.6094 -0.879,1.1719 -1.172,1.1718 -0.879,0.4414 -1.308,-0.2929 -1.758,-1.3203 -0.879,-1.3165 -0.293,-2.3437 -0.156,-2.3477 -0.43,-2.6328 -1.316,-1.9062 -2.051,-1.4649 -3.52,-0.2929 -5.125,0.8789 -1.757,0.8789 -1.172,0.8789 -0.879,0.8789 -0.723,0.5859 -0.879,0.7422 -1.035,0.1367 h -1.309 l -1.757,-0.4297 -2.051,-1.0351 -1.172,-1.8945 -0.73,-2.2071 -0.586,-2.48044 -0.735,-2.05078 -1.023,-1.75782 -1.465,-0.8789 h -2.348 l -7.468,2.92968 -5.997,4.39456 -4.98,5.7031 -4.102,6.4453 -3.808,7.0313 -3.36,7.0312 -3.664,7.0195 -4.097,6.3008 -3.078,-0.5859 -2.051,-1.4649 -1.895,-1.7578 -1.621,-2.0507 -2.187,-1.9063 -2.637,-1.7539 -3.66,-1.1719 -4.692,-0.5859 -2.195,0.5859 -1.309,1.0235 -1.031,1.7578 -0.293,1.7578 v 2.0508 l 0.442,1.4648 0.726,1.3086 1.035,0.5859 1.172,0.8789 1.309,1.6211 1.023,2.1875 1.176,2.4922 0.879,2.7813 0.879,2.6367 0.586,2.7852 0.586,2.3437 0.144,2.0391 0.149,1.914 -0.149,1.8946 v 1.914 l -0.293,1.8946 -0.144,1.9062 -0.149,1.9023 v 1.6133 l -0.293,3.0742 0.149,2.7852 v 2.625 l 0.437,2.3438 0.149,2.1992 0.586,1.7656 0.437,1.3086 1.028,0.7344 8.777,-2.1993 9.812,-1.7578 10.246,-1.1718 10.84,-0.586 h 10.84 l 10.828,0.4492 10.688,0.8789 10.398,1.1641 0.43,-2.6289 -0.281,-3.0859 -0.879,-3.3594 -1.172,-3.6602 -1.613,-3.5156 -1.614,-3.2148 -1.609,-2.793 -1.465,-2.3438 v 0" /><path
         id="path18"
         style="fill:#231f20;fill-opacity:1;fill-rule:evenodd;stroke:none"
         d="m 63.3984,96.3477 1.7539,-4.1016 1.9024,-3.2227 1.7578,-2.207 1.4648,-1.8945 0.586,-1.4649 -0.293,-1.9023 -1.6094,-2.3438 -3.0781,-3.0781 -3.8008,-5.2734 -3.664,-4.8242 -3.6602,-4.5391 -3.2187,-4.25 -3.0782,-4.1016 -2.4882,-4.6875 -1.7539,-4.8242 -0.879,-5.7109 -0.2929,-1.7578 -0.1485,-2.043 -0.1445,-2.207 0.1445,-2.3438 0.4414,-2.0508 0.879,-2.039 1.3125,-1.4649 2.0507,-1.1718 2.4922,-0.293 2.6367,0.1445 2.6329,0.7344 2.6367,0.8789 2.3398,1.3164 2.4922,1.3086 2.1914,1.4727 2.1992,1.3203 2.9297,-6.4453 3.3672,-3.5157 3.2188,-0.7343 3.5156,0.8828 3.0781,2.1953 3.0703,2.0508 2.7813,1.4648 h 2.4922 l 1.6093,-0.7305 1.3164,-1.4648 0.8789,-1.7578 1.0235,-2.0508 0.8789,-1.6133 1.1719,-1.6015 1.3203,-0.879 1.9025,-0.4492 8.051,2.1953 6.296,4.25 4.981,5.8594 3.949,6.875 3.074,7.9102 2.93,7.9101 2.926,7.9024 3.371,6.7383 2.781,-1.3204 3.074,-1.7578 3.075,-1.6133 3.222,-1.7578 3.223,-1.0234 3.219,-0.4375 3.074,0.5859 3.078,1.461 2.484,3.2265 0.731,3.5039 -1.024,3.5157 -1.753,3.3789 -2.637,3.8086 -2.488,3.6523 -2.051,3.6641 -1.028,3.5039 -0.582,4.5508 -0.437,5.9961 -0.586,6.4457 -1.027,6.445 -1.465,5.703 -2.051,4.25 -2.93,2.344 -3.656,-0.735 -8.199,-3.222 -8.055,-2.637 -8.492,-1.895 -8.344,-1.464 -8.785,-0.879 -8.6367,-0.586 H 82.2852 L 73.5,111.27 l -5.2734,0.293 -3.6563,0.292 -2.7812,-0.136 -1.3203,-0.879 -0.586,-1.328 0.4375,-2.918 1.1758,-4.25 1.9023,-5.9963 v 0" /><path
         id="path20"
         style="fill:#f18720;fill-opacity:1;fill-rule:evenodd;stroke:none"
         d="m 74.8125,83.8945 -4.2422,-6.7382 -4.9805,-6.7266 -5.414,-6.5899 -4.9805,-6.5937 -4.3906,-6.7383 -3.0742,-7.3164 -1.6133,-7.6172 1.0273,-8.6406 1.3164,-0.7227 1.4649,-0.4414 1.3203,0.1485 1.4648,0.2929 1.168,0.7227 1.3164,0.5859 1.3203,0.7422 1.4649,0.4375 2.0468,1.1641 1.4688,1.3281 0.8789,1.6016 1.0234,1.3281 0.586,1.3086 1.0195,0.293 1.4649,-0.1485 2.0507,-1.0234 0.7344,-1.1719 0.5859,-2.0508 0.4375,-2.3437 0.879,-2.4805 1.3203,-1.9023 2.3359,-1.0274 3.6641,0.1485 5.1289,1.4648 1.457,1.0234 1.0273,0.8789 0.7305,1.0235 0.7344,0.7344 0.5859,0.8789 1.0235,0.2929 1.3203,0.1368 2.3437,-0.4297 1.7539,-0.8789 1.3164,-1.7579 0.8789,-2.0507 1.0274,-2.3438 L 98.6836,20.5 100,18.8867 l 1.609,-0.7344 h 2.493 l 6.734,3.9571 5.414,5.1172 4.25,6.3086 3.656,7.0234 2.782,7.4687 2.929,7.461 2.785,7.1797 3.364,6.7265 2.929,-0.2929 2.344,-1.1641 1.902,-1.6094 2.047,-1.9023 2.051,-1.7578 2.93,-1.4688 3.953,-0.8789 5.125,-0.1445 1.758,0.8789 1.172,1.3203 0.586,1.7578 0.292,2.0391 -0.437,2.0508 -0.586,1.6211 -0.883,1.3085 -1.023,0.4493 -1.465,0.7226 -1.316,1.3281 -1.321,2.0508 -1.316,2.1875 -1.317,2.7852 -1.171,2.6367 -0.879,2.6328 -0.731,2.0547 -0.586,2.0391 -0.148,1.914 -0.293,1.8946 v 1.9062 2.1953 1.9063 1.9025 1.758 l -0.438,2.929 -0.441,2.637 -0.438,2.773 -0.441,2.051 -0.586,2.051 -0.437,1.609 -0.586,1.172 -0.586,0.735 -8.93,-3.078 -9.52,-2.782 -10.25,-2.187 -10.687,-1.758 -10.8321,-1.328 -10.8359,-0.723 -10.6836,-0.449 -9.957,-0.137 -0.293,-2.636 0.4414,-3.079 1.1641,-3.3668 1.6133,-3.3594 1.9023,-3.2226 2.0508,-3.0742 1.9062,-2.3477 2.043,-2.0508 v 0" /><path
         id="path22"
         style="fill:#231f20;fill-opacity:1;fill-rule:evenodd;stroke:none"
         d="m 271.152,416.98 15.078,3.813 15.086,0.586 14.348,-2.492 12.305,-5.563 9.219,-8.195 5.125,-11.422 0.148,-14.059 -6.004,-17.273 -1.906,-3.227 -2.051,-2.781 -2.48,-2.633 -2.344,-2.488 -2.793,-2.199 -2.774,-2.344 -2.929,-2.191 -2.93,-2.637 4.102,0.145 4.238,0.441 4.101,0.879 4.258,1.172 3.801,1.758 3.516,2.191 2.925,3.078 2.629,3.512 0.45,3.512 0.722,3.664 1.035,3.515 1.602,3.071 1.758,3.078 2.343,2.777 2.637,2.195 3.223,1.469 2.344,0.586 2.187,-0.148 1.758,-0.731 1.914,-1.176 1.309,-1.465 1.328,-1.605 1.172,-1.609 1.164,-1.614 v -1.023 l 0.437,-0.734 3.074,3.078 3.371,2.777 3.516,2.637 3.945,1.906 3.965,1.758 4.239,0.73 4.101,0.293 4.395,-0.879 1.308,-0.586 1.172,-1.023 0.742,-0.879 0.879,-1.176 0.43,-1.023 0.449,-1.172 0.43,-1.461 0.586,-1.465 v -7.172 l 2.5,-0.293 h 2.629 l 2.632,0.293 h 2.786 2.636 l 2.637,-0.586 2.344,-1.172 2.344,-2.492 1.171,-1.316 1.161,-1.902 1.027,-1.465 0.879,-1.758 0.437,-1.61 0.293,-1.757 v -1.903 l -0.437,-2.199 -5.86,-10.539 2.051,0.145 1.903,-0.879 1.613,-1.606 1.465,-2.199 1.027,-2.488 0.73,-2.637 0.293,-2.484 0.149,-2.493 -2.199,-7.613 -3.653,-6.297 -5.429,-5.269 -6.582,-4.539 -7.325,-3.371 -7.754,-3.071 -7.468,-2.492 -7.024,-2.488 -7.91,-9.371 -8.789,-8.2 -9.668,-6.585 -10.391,-5.86 -11.269,-4.097 -11.426,-3.227 -12.004,-2.039 -12.156,-1.172 -1.309,-2.492 -0.586,-2.93 -0.156,-2.781 0.293,-2.922 0.293,-2.793 0.586,-2.773 0.449,-2.93 0.43,-2.781 0.293,-4.692 0.742,-4.246 0.879,-4.101 1.465,-3.809 1.601,-3.652 1.907,-3.809 2.195,-4.238 2.344,-4.688 3.515,-7.324 3.067,-7.031 2.5,-6.875 2.187,-6.738 1.621,-6.739 1.465,-7.461 0.867,-7.468 0.735,-8.645 0.144,-8.191 0.293,-8.489 v -8.066 -7.6055 l -0.437,-6.4375 -0.293,-4.9805 -0.723,-3.2227 -0.742,-1.3203 -7.324,-0.7304 -7.024,-0.8789 -7.175,-0.8789 -7.02,-1.3165 -7.324,-0.5859 -7.18,-0.8789 -7.168,-0.293 h -6.887 l -5.847,0.7305 -5.567,0.5859 -5.714,0.8789 -5.711,0.586 -5.704,0.8789 -5.71,0.8789 -5.274,1.0234 -5.129,0.8789 -2.484,6.0079 -2.051,5.996 -1.605,6.1527 -1.032,5.996 -0.726,6.445 -0.149,6.301 0.442,6.433 1.019,6.297 -3.363,0.891 -3.227,0.137 -3.367,-0.293 -3.363,-0.43 -3.664,-0.449 -3.516,-0.43 -3.363,-0.156 -3.367,0.293 -2.93,0.144 -2.488,0.293 -2.344,0.598 -2.195,0.586 -2.199,0.871 -2.192,0.586 -2.488,0.879 -2.344,0.144 -2.199,-3.808 -1.899,-4.238 -1.757,-4.395 -1.172,-4.687 -1.172,-4.395 -0.586,-4.688 -0.293,-4.687 0.437,-4.531 -1.171,-1.321 -1.024,-0.586 -1.32,0.149 -1.024,0.293 -1.312,0.73 -1.32,0.442 -1.321,0.437 -1.172,-0.144 -1.023,0.437 -1.023,0.297 -1.172,0.293 -1.172,0.293 -1.321,0.438 -1.312,0.148 -1.465,0.293 h -1.172 l -9.664,1.758 -9.664,0.867 -9.66,0.586 -9.664,-0.293 -9.813,-0.723 -9.3668,-1.465 -9.3711,-2.05 -8.9297,-2.786 -2.4922,-1.4605 -2.1953,-1.9062 -2.1992,-2.1953 -1.7578,-2.4922 -1.8985,-2.3438 -1.6093,-2.6367 -1.4688,-2.4805 -1.0234,-2.6367 -2.6367,0.7344 -1.9024,1.168 -1.4609,1.9062 -1.0274,2.1992 -1.0234,2.4883 -0.7344,2.4805 -0.8789,2.793 -0.7305,2.1875 -1.3203,9.8048 -0.4375,9.812 0.586,9.817 1.3164,9.219 2.1992,9.218 3.0742,8.789 4.0977,8.203 5.5664,7.618 -3.9571,1.757 -3.8046,1.758 -3.9532,2.188 -3.8086,2.344 -4.0976,2.785 -3.5117,3.074 -3.2227,3.223 -2.7812,3.359 -8.3477,12.746 -3.3633,1.023 -3.2226,1.309 -3.3711,1.477 -3.0703,1.746 -3.0782,2.207 -2.63669,2.629 -2.48828,2.925 -1.89844,3.079 L 0.585938,231.484 0,242.168 l 1.02344,10.836 2.78515,10.394 3.94922,10.25 5.27349,9.372 6.4414,8.781 7.4648,7.613 6.4453,5.566 6.7344,4.977 6.7344,4.539 7.3242,4.242 7.1719,3.957 7.6132,3.368 7.6094,3.218 7.4727,3.078 -5.5664,1.465 -4.8282,2.192 -4.5429,2.929 -3.9532,3.223 -3.9531,4.102 -3.3672,4.097 -3.0742,4.395 -2.6328,4.386 -1.7578,6.594 -0.5859,6.149 v 6.293 l 0.8789,6.004 1.4648,6.148 2.1953,5.562 2.6328,5.274 3.3672,4.828 6.2969,4.836 7.0312,3.512 7.4649,2.781 7.9062,1.758 8.0508,1.32 8.0507,0.586 h 8.059 l 7.906,-0.441 4.68,8.199 5.714,8.199 6.442,7.906 7.316,7.176 7.766,6.293 8.344,5.129 9.078,3.949 9.371,1.902 14.93,2.051 15.082,-0.437 14.64,-2.637 13.617,-5.414 11.856,-7.324 9.961,-10.246 7.031,-12.594 4.238,-15.524 v 0" /><path
         id="path24"
         style="fill:#f18720;fill-opacity:1;fill-rule:evenodd;stroke:none"
         d="m 271.445,394.293 -9.363,3.363 -9.816,2.93 -10.246,2.637 -10.243,2.199 -10.839,1.75 -10.688,1.172 -10.836,0.879 -10.836,0.148 -9.074,-0.293 -8.785,-0.734 -8.93,-1.172 -8.348,-1.75 -8.64,-1.906 -8.199,-2.493 -8.051,-2.781 -7.465,-3.515 0.144,11.273 2.778,10.98 4.394,10.543 6.149,9.665 7.469,8.644 8.785,7.465 9.664,6 10.687,4.394 7.907,2.047 10.101,1.465 11.274,0.586 12.007,-0.879 12.149,-2.191 11.863,-4.543 10.828,-6.735 9.082,-9.957 3.367,-5.269 2.934,-5.711 2.488,-6.004 2.188,-6.586 1.621,-6.297 1.172,-6.445 1.015,-6.586 0.293,-6.293 v 0" /><path
         id="path26"
         style="fill:#f18720;fill-opacity:1;fill-rule:evenodd;stroke:none"
         d="m 328.555,358.27 -3.965,-4.387 -4.238,-3.957 -5.125,-3.508 -5.266,-2.934 -5.711,-2.046 -6.008,-1.465 -5.996,-0.586 -6.016,0.144 1.915,3.223 1.894,3.516 1.758,3.511 1.758,3.516 1.172,3.805 0.734,3.66 0.144,3.957 -0.292,3.508 -1.465,3.664 -2.051,3.507 -2.481,3.372 -2.793,3.078 -3.066,3.074 -2.93,2.926 -3.078,3.074 -2.636,2.93 -0.145,2.488 -0.148,2.488 -0.438,2.637 -0.293,2.637 -0.43,2.777 -0.293,2.637 -0.586,2.343 v 2.051 l 8.047,2.195 8.633,1.61 8.496,0.879 8.633,-0.586 7.91,-1.465 7.766,-3.07 6.883,-4.543 6.14,-6.442 2.785,-5.269 1.465,-5.711 v -5.86 l -0.879,-6 -1.757,-5.562 -2.344,-5.711 -2.93,-5.121 -2.773,-4.984 v 0" /><path
         id="path28"
         style="fill:#231f20;fill-opacity:1;fill-rule:evenodd;stroke:none"
         d="m 290.781,347.438 3.801,1.316 3.809,1.613 3.511,2.196 3.508,2.632 2.793,3.075 2.481,3.664 1.757,3.808 1.465,3.949 0.293,3.079 v 3.07 l -0.429,3.223 -0.594,2.785 -1.028,3.074 -1.171,2.633 -1.309,2.781 -1.172,2.637 -2.344,2.34 -3.664,2.05 -4.539,1.758 -4.824,1.317 -5.273,1.171 -5.274,0.586 -4.687,0.293 -3.953,-0.437 v -0.879 L 274.23,400 v -1.023 l 0.29,-1.172 v -1.028 l 0.148,-1.023 v -0.879 l 0.145,-1.023 2.636,-2.93 3.078,-3.074 2.93,-2.926 3.066,-3.074 2.793,-3.078 2.481,-3.372 2.051,-3.507 1.465,-3.664 0.441,-2.629 v -2.637 l -0.293,-2.785 -0.441,-2.637 -0.879,-2.488 -1.016,-2.633 -1.172,-2.492 -1.172,-2.488 v 0" /><path
         id="path30"
         style="fill:#be5426;fill-opacity:1;fill-rule:evenodd;stroke:none"
         d="m 292.539,350.512 3.215,1.32 3.074,1.758 3.074,2.047 2.629,2.195 2.207,2.781 2.051,2.934 1.309,3.215 1.172,3.371 0.293,2.781 0.156,2.777 -0.449,2.641 -0.43,2.637 -1.035,2.636 -0.879,2.34 -1.172,2.34 -1.016,2.344 -2.343,2.344 -3.665,1.902 -4.39,1.609 -4.68,1.172 -5.273,1.028 -4.688,0.437 h -4.101 l -3.223,-0.73 0.145,-1.028 0.148,-1.172 v -1.171 l 0.145,-1.168 2.636,-2.93 3.078,-3.074 2.93,-2.926 3.066,-3.074 2.793,-3.078 2.481,-3.372 2.051,-3.507 1.465,-3.664 0.292,-2.196 0.149,-2.191 -0.149,-2.199 -0.144,-2.344 -0.586,-2.195 -0.734,-2.196 -0.879,-2.195 -0.723,-2.199 v 0" /><path
         id="path32"
         style="fill:#f18720;fill-opacity:1;fill-rule:evenodd;stroke:none"
         d="m 116.836,387.406 -1.316,-2.633 -1.317,-2.339 -1.465,-1.614 -1.465,-1.609 -1.609,-1.32 -1.465,-1.614 -1.465,-1.898 -0.879,-2.488 -0.878,-3.371 -0.442,-3.95 -0.14,-4.25 0.433,-4.683 0.586,-4.684 1.172,-4.836 1.906,-4.828 2.488,-4.832 -8.785,-2.633 -8.9294,-0.441 -9.0781,1.898 -8.4961,3.52 -7.7578,5.418 -6.5859,6.879 -4.9805,7.906 -2.9258,8.785 -0.7305,4.832 v 4.977 l 0.586,4.687 1.1679,4.391 1.4649,4.539 1.9023,4.098 2.0508,4.101 2.3438,3.516 4.0976,4.39 6.7383,3.66 8.4922,3.079 9.2226,2.191 9.2227,1.465 8.492,0.437 7.028,-0.586 4.539,-1.902 -0.145,-1.316 -0.148,-3.075 -0.442,-4.101 -0.437,-5.121 -0.735,-4.688 -0.437,-4.39 -0.586,-3.368 -0.293,-2.199 v 0" /><path
         id="path34"
         style="fill:#231f20;fill-opacity:1;fill-rule:evenodd;stroke:none"
         d="m 106.293,346.996 -4.535,0.879 -4.2463,1.465 -4.2461,2.199 -3.8086,2.637 -3.5156,3.363 -2.7773,3.809 -2.3438,4.101 -1.3164,4.242 -0.4414,3.079 v 3.07 l 0.293,3.223 0.8789,2.785 0.8789,3.074 1.3203,2.633 1.3164,2.781 1.6055,2.637 1.9062,2.195 3.3672,1.902 4.3906,1.907 4.9805,1.316 4.977,1.316 5.273,0.735 4.684,0.293 4.246,-0.149 -0.442,-2.488 -0.437,-2.488 -0.293,-2.199 -0.293,-2.34 -0.442,-1.758 -0.144,-1.61 -0.293,-1.32 v -0.879 l -1.316,-2.633 -1.317,-2.339 -1.465,-1.614 -1.465,-1.609 -1.609,-1.32 -1.465,-1.614 -1.465,-1.898 -0.879,-2.488 -0.734,-2.344 -0.437,-2.785 -0.289,-2.778 v -3.222 -3.223 l 0.433,-3.512 0.442,-3.515 1.023,-3.516 v 0" /><path
         id="path36"
         style="fill:#be5426;fill-opacity:1;fill-rule:evenodd;stroke:none"
         d="m 105.414,350.074 -3.949,0.731 -3.8087,1.172 -3.6563,1.906 -3.3711,2.34 -2.9297,2.925 -2.4883,3.52 -1.8984,3.656 -1.0273,3.809 -0.586,2.781 -0.1445,2.777 0.293,2.641 0.7304,2.637 0.7344,2.636 1.1641,2.34 1.0273,2.34 1.3164,2.344 2.0508,2.344 3.3711,1.902 4.2422,1.609 4.8316,1.172 4.684,1.028 4.98,0.586 h 4.247 l 3.511,-0.442 -0.437,-1.902 -0.442,-1.906 -0.293,-1.754 -0.293,-1.758 -0.293,-1.317 -0.144,-1.32 v -0.879 -0.586 l -1.316,-2.633 -1.317,-2.339 -1.465,-1.614 -1.465,-1.609 -1.609,-1.32 -1.465,-1.614 -1.465,-1.898 -0.879,-2.488 -0.585,-2.051 -0.442,-2.344 -0.433,-2.484 v -2.785 l -0.145,-2.93 0.145,-3.074 0.433,-3.075 0.586,-3.074 v 0" /><path
         id="path38"
         style="fill:#b97371;fill-opacity:1;fill-rule:evenodd;stroke:none"
         d="m 264.707,328.109 -7.312,-3.214 -6.887,-3.516 -6.875,-3.52 -6.883,-3.8 -6.883,-3.371 -7.023,-3.368 -7.18,-3.218 -7.172,-3.372 -1.906,-0.437 -2.191,-0.438 h -2.344 -2.196 l -2.492,0.438 -2.343,0.293 -1.899,1.023 -1.465,0.735 -10.25,5.562 -10.836,3.66 -11.273,2.786 -11.129,2.777 -10.832,3.371 -9.813,4.539 -8.785,6.734 -6.879,9.223 -1.757,3.516 -1.172,3.804 -1.024,4.247 -0.441,4.246 -0.293,4.539 0.586,4.101 0.586,3.949 1.32,3.372 1.172,2.343 1.609,2.043 1.758,2.055 2.047,2.051 1.758,2.343 1.613,2.196 1.024,2.34 0.734,2.488 16.543,7.762 18.301,4.683 19.324,2.348 h 20.058 l 20.208,-1.613 19.761,-3.371 18.742,-4.391 17.579,-5.418 9.953,-8.344 6.59,-8.637 3.066,-8.343 0.156,-8.496 -2.93,-7.762 -5.71,-7.609 -8.059,-6.883 -10.254,-6.446 v 0" /><path
         id="path40"
         style="fill:#231f20;fill-opacity:1;fill-rule:evenodd;stroke:none"
         d="m 278.918,337.773 -4.98,1.758 -4.543,2.199 -3.946,2.782 -3.074,3.363 -2.641,3.809 -1.754,3.953 -1.027,4.246 v 4.394 l 0.442,3.364 1.316,3.078 1.758,3.074 2.492,3.07 2.781,3.078 3.223,2.493 3.515,2.488 4.09,2.047 6.594,-6.293 4.981,-6.59 2.773,-6.445 1.035,-6.442 -0.879,-6.293 -2.5,-6.004 -4.238,-5.855 -5.418,-5.274 v 0" /><path
         id="path42"
         style="fill:#f1818b;fill-opacity:1;fill-rule:evenodd;stroke:none"
         d="m 281.555,339.973 -4.985,1.316 -4.539,1.609 -3.652,2.493 -2.93,2.925 -2.344,3.516 -1.609,3.805 -1.027,4.246 -0.293,4.394 0.293,3.219 1.32,3.074 1.758,3.078 2.332,2.778 2.637,2.637 3.222,2.343 3.367,2.199 3.813,1.61 5.562,-5.711 4.25,-6.004 2.188,-5.711 1.035,-5.855 -0.586,-5.711 -1.914,-5.563 -3.515,-5.414 -4.383,-5.273 v 0" /><path
         id="path44"
         style="fill:#231f20;fill-opacity:1;fill-rule:evenodd;stroke:none"
         d="m 115.52,335.574 5.566,1.176 5.414,1.902 4.539,2.786 3.949,3.218 3.227,4.098 2.195,4.25 1.172,4.684 0.438,4.687 -0.875,3.656 -1.321,3.516 -2.344,3.367 -2.636,3.219 -3.219,3.078 -3.516,2.781 -3.953,2.488 -4.097,2.047 -1.172,-1.754 -1.172,-1.753 -1.465,-1.614 -1.465,-1.758 -1.605,-1.609 -1.465,-1.613 -1.32,-1.758 -0.731,-1.898 -1.32,-3.372 -0.586,-3.949 -0.586,-4.101 0.293,-4.539 0.441,-4.246 1.024,-4.247 1.172,-3.804 1.757,-3.516 0.735,-1.316 0.879,-1.321 0.875,-1.316 1.172,-1.469 v 0" /><path
         id="path46"
         style="fill:#f1818b;fill-opacity:1;fill-rule:evenodd;stroke:none"
         d="m 113.18,338.652 5.707,0.586 5.422,1.465 4.242,2.195 3.66,2.934 2.633,3.508 1.906,3.957 1.172,4.391 0.437,4.687 -0.437,3.656 -1.32,3.223 -1.907,3.223 -2.191,2.777 -2.93,2.93 -3.222,2.199 -3.657,2.195 -3.957,1.61 -1.316,-1.317 -1.172,-1.465 -1.316,-1.465 -1.168,-1.464 -1.321,-1.321 -1.172,-1.465 -0.878,-1.457 -0.731,-1.464 -1.32,-3.372 -0.586,-3.949 -0.586,-4.101 0.293,-4.539 0.441,-4.246 1.024,-4.247 1.172,-3.804 1.757,-3.516 0.586,-1.316 0.735,-1.028 v 0" /><path
         id="path48"
         style="fill:#f18720;fill-opacity:1;fill-rule:evenodd;stroke:none"
         d="m 405.859,357.395 2.188,1.168 2.5,1.027 2.48,0.73 2.637,0.586 2.488,0.59 h 2.641 l 2.781,-0.297 2.637,-1.023 1.309,-1.028 1.328,-1.316 0.879,-1.172 0.878,-1.465 0.43,-1.312 0.293,-1.613 -0.137,-1.758 -0.449,-1.758 -1.172,-2.336 -1.172,-2.348 -1.464,-2.195 -1.309,-2.195 -1.328,-1.758 -1.016,-1.758 -0.586,-1.316 v -1.172 l 0.293,-0.586 0.735,-0.438 h 1.023 l 1.309,-0.148 h 1.328 l 1.308,-0.586 1.172,-0.586 1.328,-1.316 0.723,-1.907 0.731,-2.343 0.293,-2.336 0.148,-2.637 -0.441,-2.348 -0.438,-2.632 -0.879,-2.047 -1.015,-2.051 -4.688,-4.688 -5.125,-3.953 -5.566,-3.511 -5.422,-2.786 -5.86,-2.05 -5.41,-1.754 -5.117,-1.317 -4.844,-1.32 -6.433,-8.488 -7.766,-7.907 -9.219,-7.031 -10.254,-6.148 -11.562,-4.981 -12.598,-3.511 -13.469,-2.051 -14.492,-0.434 -2.343,10.828 -2.34,10.543 -2.344,10.836 -2.199,10.688 -2.481,10.691 -2.343,10.539 -2.208,10.692 -2.343,10.386 8.203,1.321 8.64,0.586 8.782,0.441 8.64,0.73 8.489,1.614 8.203,2.633 7.324,4.539 6.582,6.445 0.879,2.191 0.586,2.93 0.586,3.664 1.035,3.516 1.172,3.507 1.894,2.93 2.786,2.199 4.246,1.02 3.066,-0.441 2.207,-1.75 1.172,-2.344 1.016,-2.785 0.585,-2.336 1.172,-1.465 1.465,-0.149 2.488,1.614 2.934,2.629 3.953,3.078 4.531,3.363 5.274,2.344 4.543,1.465 4.098,-0.145 3.078,-2.199 1.601,-5.121 0.449,-1.614 -0.156,-1.757 -0.586,-1.61 -0.429,-1.754 -0.586,-1.609 v -1.906 l 0.441,-1.614 1.609,-1.753 v 0" /><path
         id="path50"
         style="fill:#231f20;fill-opacity:1;fill-rule:evenodd;stroke:none"
         d="m 356.809,261.641 -1.028,0.879 -0.879,0.585 -1.023,0.586 -1.027,0.442 -1.172,0.586 -0.879,0.437 -1.172,0.293 -0.879,0.293 -3.359,0.735 -3.078,0.14 -3.075,-0.289 -2.929,-0.586 -3.067,-0.73 -2.793,-1.172 -2.773,-1.172 -2.344,-1.469 -1.172,-0.437 -0.879,-1.028 -1.023,-1.023 -0.879,-1.465 -1.027,-1.609 -0.879,-1.754 -0.735,-1.758 -0.586,-1.906 5.129,0.734 5.274,0.879 5.261,1.172 4.985,1.172 4.676,1.605 4.687,1.907 4.395,1.902 4.25,2.051 v 0" /><path
         id="path52"
         style="fill:#be5426;fill-opacity:1;fill-rule:evenodd;stroke:none"
         d="m 354.609,260.762 -0.879,0.437 -0.878,0.297 -0.723,0.438 -0.742,0.293 -1.602,0.734 -1.621,0.586 -3.066,0.586 h -2.785 l -2.633,-0.149 -2.637,-0.586 -2.641,-0.73 -2.488,-0.879 -2.48,-1.027 -2.207,-1.321 -0.879,-0.437 -0.723,-0.734 -0.742,-1.024 -0.586,-1.172 -0.867,-1.023 -0.586,-1.461 -0.586,-1.32 -0.442,-1.61 4.239,0.731 4.394,0.879 4.246,1.027 4.25,1.023 3.953,1.461 4.094,1.465 3.809,1.902 3.808,1.614 v 0" /><path
         id="path54"
         style="fill:#f48dcc;fill-opacity:1;fill-rule:evenodd;stroke:none"
         d="m 280.234,332.359 2.2,-8.929 3.504,-14.059 4.55,-17.422 4.532,-19.035 4.101,-18.738 3.367,-16.696 1.469,-12.878 -0.441,-7.18 -5.711,-3.516 -11.282,-2.929 -15.078,-2.051 -16.98,-1.465 -17.422,-0.723 -15.664,-0.449 -12.301,0.156 -6.883,0.43 0.586,13.625 -1.023,13.035 -2.781,12.59 -4.395,11.707 -6.004,11.129 -7.465,10.25 -8.636,9.223 -9.957,7.906 -4.688,2.637 -5.121,1.609 -5.422,1.172 -5.414,0.73 -5.711,0.442 h -5.418 -5.273 l -4.973,-0.149 5.559,18.598 7.757,-2.934 8.497,-2.632 8.199,-2.047 8.492,-2.051 8.344,-2.199 8.05,-2.782 7.915,-3.511 7.464,-4.688 5.563,-2.344 5.711,-0.586 5.269,0.879 5.567,1.758 5.121,2.93 5.129,2.785 5.121,2.777 4.984,1.903 5.852,2.785 6.14,2.488 5.86,2.778 6.152,2.492 5.715,2.929 5.848,2.93 5.711,3.512 5.714,3.808 v 0" /><path
         id="path56"
         style="fill:#231f20;fill-opacity:1;fill-rule:evenodd;stroke:none"
         d="m 202.637,216.543 0.879,-0.43 0.879,-0.449 0.875,-0.586 0.878,-0.723 0.731,-0.585 0.879,-0.743 0.586,-0.722 0.734,-0.879 0.731,-1.172 0.879,-1.328 0.441,-1.16 0.586,-1.321 -1.906,0.137 h -1.61 l -1.465,0.156 h -1.171 l -1.168,0.137 h -0.879 -0.879 -0.442 v 1.465 l 0.149,1.328 v 1.172 l 0.144,1.172 v 1.172 1.171 1.165 l 0.149,1.023 v 0" /><path
         id="path58"
         style="fill:#f9f25f;fill-opacity:1;fill-rule:evenodd;stroke:none"
         d="m 202.637,214.785 1.027,-0.879 1.164,-0.722 1.172,-1.172 1.172,-1.465 0.586,-0.879 0.734,-1.035 0.438,-1.016 0.586,-1.172 -1.465,0.137 h -1.172 l -1.316,0.156 h -0.879 l -0.875,0.137 h -0.735 -0.586 -0.293 v 1.184 1.023 1.016 l 0.149,0.879 v 1.035 l 0.144,1.015 v 0.879 l 0.149,0.879 v 0" /><path
         id="path60"
         style="fill:#231f20;fill-opacity:1;fill-rule:evenodd;stroke:none"
         d="m 259.297,220.645 1.172,-0.438 1.172,-1.027 0.879,-1.172 1.027,-1.602 0.574,-1.765 0.586,-2.043 0.293,-2.051 0.156,-2.207 h -1.758 l -1.609,-0.281 h -1.762 l -1.609,-0.293 h -1.902 l -1.614,-0.149 h -1.757 l -1.602,-0.156 -0.156,0.879 v 0.879 l -0.137,0.742 v 0.723 1.464 l 0.293,1.172 0.137,1.614 0.742,1.316 0.871,1.316 1.316,1.028 1.172,1.027 1.465,0.731 1.172,0.441 0.879,-0.148 v 0" /><path
         id="path62"
         style="fill:#f9f25f;fill-opacity:1;fill-rule:evenodd;stroke:none"
         d="m 259.297,216.98 0.879,-0.281 0.879,-0.586 0.586,-0.886 0.734,-1.028 0.293,-1.015 0.437,-1.621 0.149,-1.465 0.144,-1.758 h -1.316 l -1.176,-0.281 h -1.172 l -1.171,-0.293 h -1.317 l -1.465,-0.149 h -1.316 l -1.172,-0.156 v 1.172 1.035 1.309 1.035 l 0.145,1.172 0.585,1.171 0.735,1.016 0.879,0.742 0.879,0.723 0.879,0.293 1.023,0.144 0.879,-0.293 v 0" /><path
         id="path64"
         style="fill:#231f20;fill-opacity:1;fill-rule:evenodd;stroke:none"
         d="m 274.813,284.773 0.878,-1.023 1.614,-0.879 1.906,-0.586 2.344,-0.437 h 2.195 l 2.48,0.144 2.637,0.442 2.344,0.586 h 0.586 0.742 l -0.449,1.753 -0.293,1.903 -0.43,1.609 -0.293,1.465 -0.449,1.465 -0.43,1.465 -0.449,1.32 -0.293,1.313 -1.308,0.292 h -1.329 -1.171 l -1.309,-0.144 h -1.316 l -1.172,-0.289 -1.172,-0.293 -0.879,-0.441 -1.32,-0.586 -1.028,-1.024 -1.023,-1.32 -0.735,-1.61 -0.73,-1.32 -0.293,-1.465 -0.148,-1.312 0.293,-1.028 v 0" /><path
         id="path66"
         style="fill:#f9f25f;fill-opacity:1;fill-rule:evenodd;stroke:none"
         d="m 278.477,285.801 0.734,-0.735 0.879,-0.878 1.172,-0.293 1.465,-0.438 h 1.316 1.758 l 1.758,0.438 2.343,0.441 1.172,0.586 1.016,0.586 -0.43,1.168 -0.293,1.023 -0.293,1.028 -0.156,1.023 -0.293,1.172 -0.293,1.027 -0.293,1.172 -0.137,0.879 h -1.035 -1.015 -1.036 l -1.015,-0.293 h -1.035 l -1.016,-0.293 -0.879,-0.293 -0.879,-0.441 -1.316,-0.293 -0.879,-0.879 -0.734,-0.879 -0.438,-1.024 -0.441,-1.027 -0.145,-1.172 v -0.73 l 0.438,-0.875 v 0" /><path
         id="path68"
         style="fill:#231f20;fill-opacity:1;fill-rule:evenodd;stroke:none"
         d="m 267.5,324.16 1.172,-0.437 1.601,-0.442 1.622,-0.293 2.187,-0.144 1.758,0.144 2.199,0.293 1.902,0.442 2.051,0.437 -0.437,1.32 -0.293,1.313 -0.293,1.172 -0.293,0.879 -0.293,1.172 -0.149,0.73 v 1.027 0.586 l -1.609,-1.027 -1.613,-1.316 -1.614,-1.028 -1.609,-1.172 -1.758,-0.878 -1.601,-0.875 -1.621,-0.875 -1.309,-1.028 v 0" /><path
         id="path70"
         style="fill:#f9f25f;fill-opacity:1;fill-rule:evenodd;stroke:none"
         d="m 270.137,325.918 0.722,-0.438 1.036,-0.441 1.171,-0.293 1.309,-0.144 1.172,0.144 1.465,0.149 1.465,0.293 1.757,0.292 0.586,0.286 0.735,0.152 -0.293,1.02 -0.149,1.027 -0.293,0.879 -0.144,0.73 -0.293,1.028 -0.149,0.73 v 0.586 0.441 l -1.464,-0.734 -1.321,-0.879 -1.316,-0.73 -1.172,-1.028 -1.309,-0.73 -1.172,-0.879 -1.328,-0.734 -1.015,-0.727 v 0" /><path
         id="path72"
         style="fill:#231f20;fill-opacity:1;fill-rule:evenodd;stroke:none"
         d="m 182.727,277.156 0.586,0.735 0.73,0.148 1.312,1.902 0.879,1.758 0.442,1.906 0.144,1.903 -0.293,1.754 -0.437,1.316 -0.735,1.172 -0.878,0.586 -1.02,0.441 -1.172,-0.148 -1.465,-0.145 -1.316,-0.441 -1.613,-0.438 -1.465,-0.734 -1.465,-0.73 -1.465,-0.879 1.172,-1.172 1.316,-1.317 1.172,-1.023 1.176,-1.316 1.023,-1.172 1.028,-1.321 1.023,-1.316 1.321,-1.469 v 0" /><path
         id="path74"
         style="fill:#f9f25f;fill-opacity:1;fill-rule:evenodd;stroke:none"
         d="m 181.699,278.477 v 0.441 l 1.028,1.609 0.878,1.465 0.438,1.465 0.434,1.172 -0.289,1.172 -0.297,0.875 -0.871,1.023 -1.028,0.442 -0.879,0.437 h -0.73 -0.879 l -0.734,-0.437 -1.024,-0.293 -1.027,-0.586 -1.028,-0.586 -0.878,-0.875 0.734,-0.735 0.879,-0.878 0.879,-0.875 0.879,-0.879 0.734,-0.879 0.879,-1.028 0.879,-0.879 1.023,-1.171 v 0" /><path
         id="path76"
         style="fill:#231f20;fill-opacity:1;fill-rule:evenodd;stroke:none"
         d="m 157.98,311.715 -1.171,-1.906 -1.172,-1.61 -1.614,-1.32 -1.605,-1.02 -1.613,-0.437 -1.465,-0.293 -1.317,0.293 -1.027,0.437 -0.586,0.727 -0.437,0.734 -0.293,1.024 -0.149,1.027 -0.293,1.317 v 1.32 1.465 1.461 l 1.465,-0.438 1.613,-0.437 1.61,-0.442 1.758,-0.437 1.32,-0.293 1.754,-0.442 1.609,-0.293 1.613,-0.437 v 0" /><path
         id="path78"
         style="fill:#f9f25f;fill-opacity:1;fill-rule:evenodd;stroke:none"
         d="m 156.223,312.152 -1.028,-1.172 -0.879,-1.171 -1.019,-0.731 -1.027,-0.734 -1.024,-0.145 -1.027,-0.148 -1.024,0.441 -0.879,0.586 -0.878,1.024 -0.293,1.171 -0.149,0.879 v 0.735 0.879 0.73 l 1.027,-0.144 1.172,-0.293 1.024,-0.293 1.172,-0.293 1.027,-0.149 1.316,-0.437 1.168,-0.293 1.321,-0.442 v 0" /><path
         id="path80"
         style="fill:#231f20;fill-opacity:1;fill-rule:evenodd;stroke:none"
         d="m 125.621,313.18 0.586,-0.586 0.731,-1.028 0.441,-1.023 0.437,-1.465 0.149,-1.32 0.144,-1.606 -0.144,-1.609 -0.149,-1.762 h -1.023 -0.879 -0.879 -0.879 -1.168 -0.73 -1.028 -0.73 l 3.223,10.836 h 1.164 l 0.734,-0.437 v 0" /><path
         id="path82"
         style="fill:#f9f25f;fill-opacity:1;fill-rule:evenodd;stroke:none"
         d="m 124.309,309.957 0.433,-0.441 0.586,-0.731 0.438,-0.734 0.441,-1.024 0.145,-0.875 0.148,-1.023 v -1.027 -1.321 h -0.879 -0.879 -0.734 -0.727 -1.465 -1.316 l 2.344,7.614 h 0.586 l 0.879,-0.438 v 0" /><path
         id="path84"
         style="fill:#231f20;fill-opacity:1;fill-rule:evenodd;stroke:none"
         d="m 232.363,308.637 0.43,-1.758 0.156,-1.899 -0.293,-1.609 -0.293,-1.613 -0.742,-1.172 -0.879,-1.316 -1.019,-0.735 -1.028,-0.437 -0.879,0.144 -0.878,0.293 -1.024,0.442 -0.879,0.437 -1.172,0.731 -0.875,0.878 -1.172,0.735 -0.878,1.023 1.464,0.883 1.461,0.879 1.317,0.73 1.613,0.735 1.316,0.871 1.465,0.586 1.324,0.734 1.465,0.438 v 0" /><path
         id="path86"
         style="fill:#f9f25f;fill-opacity:1;fill-rule:evenodd;stroke:none"
         d="m 230.605,307.758 0.137,-1.172 v -1.313 l -0.137,-1.023 -0.292,-1.027 -0.59,-0.735 -0.735,-0.73 -0.879,-0.149 -0.73,-0.437 -1.172,0.144 -1.312,0.442 -1.321,1.023 -1.316,0.883 1.023,0.586 1.168,0.586 1.024,0.586 1.027,0.437 0.879,0.582 1.172,0.586 0.879,0.438 1.175,0.293 v 0" /><path
         id="path88"
         style="fill:#f18720;fill-opacity:1;fill-rule:evenodd;stroke:none"
         d="m 115.957,300.73 -8.199,-3.074 -8.1955,-3.656 -7.9062,-3.957 -7.0313,-4.535 -6.1484,-4.246 -4.5352,-4.399 -2.4922,-4.242 -0.1445,-4.101 1.4648,-1.903 2.9219,-1.461 3.957,-0.73 4.3946,-0.586 4.3906,-0.293 4.2461,-0.734 3.2187,-1.024 1.9063,-1.906 0.1445,-1.465 -0.1445,-1.758 -0.8789,-1.758 -0.7344,-1.754 -1.1719,-1.609 -0.8789,-1.32 -0.7265,-1.02 -0.1485,-0.742 0.875,-2.332 2.0508,-2.055 2.4922,-1.465 3.2184,-1.753 3.219,-1.614 3.371,-2.195 3.074,-2.629 2.637,-3.672 0.582,-1.758 0.442,-1.894 -0.293,-1.758 -0.442,-1.758 -0.879,-1.316 -1.168,-1.465 -1.316,-1.027 -1.465,-0.879 -1.32,-0.293 -1.024,-0.149 h -1.027 -0.586 -0.73 l -0.442,-0.437 -0.433,-0.586 v -1.309 l 0.433,-1.758 1.758,-2.792 2.199,-2.93 2.051,-3.211 0.879,-3.227 -0.586,-3.074 -2.93,-2.781 -5.711,-2.199 -1.172,-0.145 -0.73,-0.148 -0.4375,-0.149 -0.1485,-0.144 -0.4375,-0.137 -0.2929,-0.586 -0.7344,-0.586 -1.0234,-1.172 1.0234,-1.172 0.8789,-1.464 0.7344,-1.614 0.5825,-1.902 0.148,-1.758 v -1.758 l -0.148,-1.758 -0.438,-1.894 -1.6094,-1.621 -1.9062,-1.602 -2.4844,-1.328 -2.7852,-1.172 -2.9296,-0.586 -2.9297,-0.586 h -2.6289 l -2.3438,0.157 -8.3476,1.894 -7.7618,2.344 -7.6132,3.223 -6.8789,3.957 -6.5899,4.832 -5.418,5.703 -4.5351,7.031 -3.5156,7.91 -4.543,0.43 -4.0938,0.879 -3.8125,1.621 -3.0742,1.894 -2.9258,2.786 -2.34371,2.781 -1.75781,3.222 L 6,224.746 3.66406,236.75 l 0.29297,11.863 2.33594,11.707 4.39453,10.985 6,10.836 8.0547,9.808 9.2266,9.074 10.832,7.614 2.4883,1.758 3.664,2.343 4.3907,2.926 5.2695,2.781 5.8555,3.078 6.3007,2.93 6.586,2.485 6.8789,2.05 3.0781,1.028 3.5156,0.586 3.6563,0.586 3.6606,0.437 3.371,0.293 3.218,0.293 3.075,0.441 2.492,0.145 0.73,-0.293 0.735,-0.586 0.726,-0.586 0.879,-0.73 0.879,-0.879 1.172,-1.028 1.316,-1.023 1.762,-1.32 1.758,-2.043 0.586,-2.93 -0.442,-3.371 -0.73,-4.098 -1.613,-3.66 -1.465,-3.664 -1.614,-3.07 -1.023,-2.786 v 0" /><path
         id="path90"
         style="fill:#231f20;fill-opacity:1;fill-rule:evenodd;stroke:none"
         d="m 17.8594,210.547 1.9062,1.758 1.9063,1.894 1.6094,1.914 1.6054,2.039 1.1719,2.2 1.3203,2.199 0.8789,2.488 1.0235,2.481 0.2929,3.085 v 3.067 l -0.4375,3.078 -0.7344,2.781 -1.1718,3.074 -1.1719,2.629 -1.3164,2.637 -1.3125,2.348 -1.1719,1.465 -1.3203,1.171 -1.9062,1.321 -2.1954,0.875 -2.6367,1.023 -2.6328,1.028 -2.78124,0.73 L 6,258.418 4.83594,254.469 3.95703,250.367 3.66406,246.27 v -4.25 -4.247 L 3.95703,233.379 4.83594,229.277 6,224.746 l 0.73438,-2.051 1.02343,-2.195 1.17188,-1.906 1.46481,-1.895 1.4649,-1.621 1.7578,-1.894 1.9023,-1.172 2.3399,-1.465 v 0" /><path
         id="path92"
         style="fill:#be5426;fill-opacity:1;fill-rule:evenodd;stroke:none"
         d="m 15.0781,212.012 2.0508,1.601 1.9024,1.614 1.6132,1.753 1.7578,1.907 1.1719,2.199 1.3125,2.051 0.7344,2.343 0.8789,2.333 0.4375,2.929 v 2.793 l -0.4375,2.629 -0.4414,2.488 -1.0195,2.637 -1.0235,2.488 -1.3203,2.2 -1.1719,2.05 -1.0234,1.309 -1.3203,1.176 -1.9063,1.172 -2.0468,0.879 -2.4883,0.878 -2.3438,0.879 -2.63669,0.731 -2.63672,0.586 L 4.25,251.832 3.80859,247.871 3.37109,244.07 3.66406,239.973 3.80859,236.309 4.39453,232.5 4.98047,228.691 6,224.746 l 0.58594,-1.758 1.02734,-1.758 0.87891,-1.757 1.17187,-1.758 1.02344,-1.465 1.4648,-1.465 1.3204,-1.465 1.6054,-1.308 v 0" /><path
         id="path94"
         style="fill:#b4e7f3;fill-opacity:1;fill-rule:evenodd;stroke:none"
         d="m 197.949,209.219 -4.535,-8.047 -6.301,-7.473 -8.195,-6.14 -9.227,-5.418 -10.394,-3.957 -10.836,-2.93 -11.125,-1.602 -10.398,-0.449 h -2.93 -2.922 l -3.227,0.156 h -2.925 l -2.926,0.586 -2.492,0.723 -2.344,1.316 -1.758,1.77 -0.879,1.601 -0.433,1.465 -0.438,1.614 -0.293,1.609 -0.297,1.602 -0.293,1.476 -0.586,1.609 -0.437,1.309 -0.149,0.586 0.442,0.449 0.586,0.586 1.172,0.43 1.168,0.586 1.609,0.449 1.32,0.574 1.758,0.442 2.781,2.199 1.614,2.488 0.433,2.781 -0.289,2.786 -1.172,2.929 -1.609,2.774 -1.613,2.929 -1.465,2.2 1.758,1.023 1.757,1.023 1.465,1.321 1.61,1.172 1.171,1.464 0.875,1.614 0.442,1.902 0.293,1.758 -0.879,4.238 -1.609,3.086 -2.34,2.774 -2.785,2.199 -3.368,2.051 -3.07,2.195 -3.226,2.187 -2.6333,2.344 -0.5859,1.172 0.2929,1.172 0.7305,1.617 1.0273,1.609 0.8755,1.903 0.734,2.051 0.293,1.902 -0.293,1.758 -3.0743,3.078 -3.2227,1.609 -3.6601,0.735 h -3.3672 l -3.5117,0.144 -3.3672,0.149 -3.3711,1.019 -2.9258,1.902 3.3672,5.567 4.1016,4.39 4.6796,3.958 5.2735,3.218 5.5625,2.926 5.8597,2.637 5.855,2.344 6,2.339 10.981,3.368 10.25,0.878 9.808,-1.609 9.52,-3.516 8.496,-4.976 8.195,-6.734 7.32,-7.762 7.028,-8.93 3.808,-6.297 3.364,-7.465 2.785,-7.609 2.051,-8.059 1.171,-7.617 0.29,-7.754 -0.582,-6.882 -1.614,-6.594 v 0" /><path
         id="path96"
         style="fill:#231f20;fill-opacity:1;fill-rule:evenodd;stroke:none"
         d="m 111.859,272.621 9.227,-8.637 7.758,-5.129 5.707,-2.195 4.543,0.442 2.781,2.488 1.465,3.664 0.293,4.535 -0.735,4.832 0.149,1.906 1.754,1.164 2.637,1.028 3.222,0.879 2.93,1.465 2.191,1.757 0.879,2.637 -1.023,3.805 -1.903,2.488 -2.488,1.758 -2.93,1.465 -2.929,1.027 -2.926,1.172 -2.344,1.168 -1.609,1.465 -0.586,1.609 v 0.731 l 0.437,0.148 -2.929,0.437 h -2.778 l -2.929,-0.144 -2.785,-0.441 -2.93,-0.438 -2.922,-0.879 -3.078,-0.879 -2.93,-1.172 -3.363,-1.316 -3.371,-1.316 -3.516,-1.317 -3.219,-1.465 -3.3668,-1.32 -3.0742,-1.609 -3.3672,-1.758 -2.7813,-1.903 0.586,-0.878 1.0234,-1.024 0.4414,-0.437 0.7305,-0.735 1.0273,-0.586 0.8789,-0.73 1.8985,-1.172 2.3437,-1.027 2.3438,-0.586 2.488,-0.735 2.34,-0.437 2.637,-1.028 2.051,-1.019 2.05,-1.758 v 0" /><path
         id="path98"
         style="fill:#2c86cf;fill-opacity:1;fill-rule:evenodd;stroke:none"
         d="m 112.301,275.398 3.949,-3.363 4.395,-4.246 4.535,-3.805 4.543,-3.222 3.953,-1.907 3.66,-0.437 3.074,2.344 2.051,4.98 -0.148,1.02 -0.145,1.027 -0.293,1.316 -0.293,1.172 -0.437,1.321 -0.149,1.172 -0.144,1.023 0.293,0.734 1.168,1.606 2.195,1.023 2.637,0.883 2.781,0.731 2.344,1.027 1.902,1.316 0.73,1.907 -0.586,2.488 -2.046,2.484 -2.637,1.906 -3.223,1.758 -3.07,1.317 -3.223,1.613 -2.637,1.461 -1.757,1.609 -0.586,1.758 V 300 l 0.437,0.73 h -2.484 l -2.488,-0.144 -2.493,-0.293 -2.488,-0.438 -2.777,-0.441 -2.637,-0.879 -2.641,-0.73 -2.488,-1.028 -3.219,-1.172 -3.074,-1.167 -3.222,-1.317 -3.075,-1.32 -3.0739,-1.317 -2.9297,-1.32 -3.0703,-1.465 -2.6368,-1.898 0.879,-0.735 0.7304,-1.023 1.3203,-1.023 1.3125,-1.321 1.9063,-1.172 2.0508,-0.879 2.1954,-0.437 2.199,-0.586 2.192,-0.441 2.343,-0.586 2.196,-0.879 2.199,-1.321 v 0" /><path
         id="path100"
         style="fill:#231f20;fill-opacity:1;fill-rule:evenodd;stroke:none"
         d="m 176.133,185.645 -2.051,1.179 -2.047,0.871 -2.195,0.879 -1.906,0.742 -2.051,1.016 -1.317,0.879 -0.875,1.172 -0.293,1.316 v 0.891 l 0.293,1.015 0.293,1.321 0.434,1.172 0.293,1.316 0.293,1.316 -0.145,1.172 -0.148,1.028 -3.07,4.101 -3.371,2.344 -3.512,0.879 -3.512,-0.156 -3.223,-0.586 -2.785,-1.016 -2.34,-0.73 -1.316,-0.305 -1.902,0.305 -1.907,0.293 -2.05,0.574 -1.758,0.449 -1.899,0.586 -1.906,0.293 -1.758,0.293 -1.464,-0.156 -4.829,-1.172 -1.902,-2.344 0.293,-2.773 1.758,-3.371 2.195,-3.219 1.899,-2.922 0.734,-2.344 -1.027,-1.465 -3.071,-0.879 -3.074,-1.035 -3.078,-1.16 -2.344,-1.613 -1.461,-1.758 v -2.637 l 1.903,-2.929 4.246,-3.809 0.879,-0.723 1.32,-0.742 h 1.465 1.312 1.317 1.465 l 6.007,0.156 6.586,0.586 6.293,0.879 6.446,1.309 6.293,1.906 6.148,2.195 5.859,2.493 5.563,2.918 v 0" /><path
         id="path102"
         style="fill:#2c86cf;fill-opacity:1;fill-rule:evenodd;stroke:none"
         d="m 173.941,184.629 -2.199,1.316 -2.195,1.028 -2.199,1.015 -2.196,0.879 -1.898,1.035 -1.465,1.016 -0.883,1.172 -0.293,1.172 v 1.035 l 0.442,0.879 0.293,0.879 0.586,0.871 0.293,1.172 0.441,1.023 v 1.024 l -0.148,0.878 -2.93,4.25 -2.781,2.051 -3.075,0.879 -2.929,-0.437 -2.782,-0.891 -2.199,-1.16 -1.754,-0.879 -1.172,-0.586 -1.753,0.438 -1.614,0.585 -1.609,0.723 -1.32,0.586 -1.758,0.742 -1.606,0.586 -1.613,0.43 h -1.465 l -5.273,-0.574 -2.192,-1.77 v -2.48 l 1.614,-3.078 2.043,-3.219 2.05,-3.223 1.172,-2.785 -0.437,-2.051 -2.199,-1.015 -2.93,-0.879 -3.363,-0.586 -2.786,-1.035 -2.046,-1.309 -0.586,-1.902 1.316,-2.637 3.957,-3.813 1.609,-0.73 1.614,-0.879 0.73,-0.293 0.727,-0.293 0.879,-0.293 0.879,-0.293 5.714,0.156 6.149,0.43 6,0.879 6.297,1.172 5.855,1.758 5.86,1.906 5.707,2.344 5.421,2.781 v 0" /><path
         id="path104"
         style="fill:#231f20;fill-opacity:1;fill-rule:evenodd;stroke:none"
         d="m 185.797,268.52 -0.879,-1.317 -0.73,-1.312 -0.731,-1.172 -0.437,-1.321 -0.735,-0.878 -0.437,-1.024 -0.442,-0.59 -0.293,-0.586 -1.609,-0.879 -1.613,-1.023 -1.758,-0.73 -1.758,-1.028 -1.754,-0.879 -1.609,-1.023 -1.465,-0.875 -1.027,-1.32 -2.93,-4.106 0.293,-2.93 2.344,-1.75 3.515,-1.464 3.512,-0.875 3.371,-0.879 2.051,-1.172 v -1.907 l -1.613,-2.343 -1.465,-2.93 -1.321,-2.773 -0.586,-2.93 0.149,-2.344 1.609,-1.902 3.371,-1.028 5.856,-0.144 1.758,0.437 1.757,0.442 1.61,0.73 1.754,0.735 1.613,0.879 1.609,0.73 1.907,0.879 1.754,0.586 -0.583,5.41 -0.878,5.274 -1.465,5.566 -1.465,5.41 -2.047,5.277 -2.199,4.977 -2.488,4.836 -2.637,4.242 -0.442,0.293 -0.437,0.731 v 0" /><path
         id="path106"
         style="fill:#2c86cf;fill-opacity:1;fill-rule:evenodd;stroke:none"
         d="m 187.113,266.184 -0.586,-0.879 -0.437,-1.172 -0.442,-1.028 -0.293,-1.171 -0.437,-0.879 -0.293,-0.879 -0.289,-0.586 -0.293,-0.586 -1.609,-0.734 -1.321,-0.731 -1.609,-0.73 -1.613,-0.586 -1.614,-0.442 -1.464,-0.73 -1.458,-0.582 -1.171,-1.028 -3.664,-3.949 -0.586,-2.781 1.906,-1.77 3.223,-1.601 3.656,-0.735 3.808,-1.167 2.786,-1.172 1.164,-1.907 -0.872,-2.05 -1.757,-2.481 -1.907,-2.637 -1.464,-2.929 -0.879,-2.199 0.879,-1.903 2.636,-1.023 5.563,-0.293 1.758,0.437 1.902,0.586 1.613,0.735 1.606,0.73 1.465,1.172 1.613,0.723 1.609,1.035 1.758,0.586 -0.586,4.98 -0.879,4.824 -1.172,4.981 -1.465,4.824 -1.898,4.84 -2.051,4.535 -2.344,4.395 -2.492,3.957 v 0" /><path
         id="path108"
         style="fill:#90d691;fill-opacity:1;fill-rule:evenodd;stroke:none"
         d="m 304.395,209.668 8.339,-14.492 7.18,-14.063 5.262,-13.769 3.965,-14.336 2.343,-14.5 1.309,-15.664 -0.293,-16.836 -1.172,-18.4494 -10.976,-1.7578 -12.305,-1.7578 -13.027,-1.3164 -13.465,-0.8789 -13.469,0.1445 -12.891,1.0273 -11.855,2.3399 -10.547,3.5078 -2.48,6.7383 -1.762,6.2965 -1.321,6.438 -0.437,6.445 -0.441,6.301 0.441,6.297 1.023,6.152 1.321,5.996 -0.879,1.172 -2.93,0.149 -4.242,-0.293 -5.129,-0.735 -5.562,-0.73 -4.981,-1.028 -4.098,-0.586 -2.195,-0.292 -3.074,0.441 -2.781,0.293 -3.075,0.586 -2.785,0.586 -2.929,1.023 -2.629,0.879 -2.2,1.172 -1.609,1.023 -3.078,-3.367 -2.633,-4.394 -2.195,-4.532 -1.758,-5.136 -1.613,-5.262 -0.879,-5.129 -0.586,-4.824 -0.145,-4.832 -11.269,2.625 -11.863,1.914 -12.004,1.309 -12.008,0.292 L 106,111.426 94.7266,109.961 83.6055,107.324 73.5,103.516 70.8633,102.488 68.668,100.879 66.3242,99.2695 64.4258,97.0703 62.2266,95.0195 60.4688,92.5391 58.8555,90.332 57.5391,88 l -2.6368,3.3672 -1.7539,4.2383 -1.4648,4.6875 -0.8789,4.98 -0.7305,5.274 -0.1484,5.117 v 4.688 l 0.4414,4.25 0.5859,6.296 1.0235,6.145 1.1718,6.297 1.7539,5.996 2.1993,6.008 2.7812,5.418 3.5156,5.129 4.2422,4.675 8.4922,-3.222 7.3242,-0.43 6,1.172 5.5625,2.051 4.836,2.051 4.8285,0.722 5.273,-1.015 6,-4.258 h 11.859 l 11.864,1.172 11.418,2.636 11.129,3.516 10.543,4.98 9.664,6.446 8.929,7.609 8.2,8.934 12.882,-0.442 12.735,-0.144 12.593,0.293 12.735,0.734 12.453,1.317 12.586,1.464 12.441,1.907 12.305,2.039 4.102,-0.43 v 0" /><path
         id="path110"
         style="fill:#231f20;fill-opacity:1;fill-rule:evenodd;stroke:none"
         d="m 107.758,156.816 -11.8596,13.75 -2.9257,-1.015 -2.6368,-1.328 -3.2226,-0.879 -3.0703,-0.574 h -3.6602 l -3.8125,0.437 -4.3867,1.465 -4.543,1.894 -2.7812,-2.636 -2.1914,-3.211 -2.1992,-3.078 -1.7579,-3.371 -1.7578,-3.368 -1.3164,-3.808 -1.3164,-3.653 -0.8789,-3.808 17.2774,-19.617 37.0392,32.8 v 0" /><path
         id="path112"
         style="fill:#f5d718;fill-opacity:1;fill-rule:evenodd;stroke:none"
         d="m 102.781,157.246 -10.5388,12.012 -2.4922,-0.742 -2.3437,-1.016 -2.7813,-0.449 -2.6328,-0.281 -3.2227,0.281 -3.5156,0.586 -3.6562,1.172 -3.9571,1.757 -2.3437,-2.343 -2.043,-2.625 -2.0547,-2.637 -1.6094,-2.934 -1.7578,-2.781 -1.3164,-3.066 -1.3203,-3.223 -0.875,-3.223 16.9844,-18.75 31.4763,28.262 v 0" /><path
         id="path114"
         style="fill:#231f20;fill-opacity:1;fill-rule:evenodd;stroke:none"
         d="m 59.7344,128.555 12.4492,11.269 -1.9063,2.489 -12.2968,-11.864 1.7539,-1.894 v 0" /><path
         id="path116"
         style="fill:#231f20;fill-opacity:1;fill-rule:evenodd;stroke:none"
         d="m 52.5625,138.066 10.8359,10.11 -2.1992,2.195 -7.7578,-7.18 -0.4375,-1.316 -0.293,-1.316 -0.1484,-1.321 v -1.172 0" /><path
         id="path118"
         style="fill:#231f20;fill-opacity:1;fill-rule:evenodd;stroke:none"
         d="m 103.664,172.773 -11.4218,-10.546 2.3398,-2.2 12.152,11.868 -0.879,0.878 h -1.171 -1.02 v 0" /><path
         id="path120"
         style="fill:#231f20;fill-opacity:1;fill-rule:evenodd;stroke:none"
         d="m 367.793,351.391 1.895,1.757 2.636,2.489 2.93,2.926 3.516,3.078 3.371,2.929 3.367,2.192 3.066,1.465 h 2.93 l 1.035,-0.586 0.723,-1.61 0.293,-2.191 0.441,-2.934 0.145,-2.781 0.441,-2.93 0.586,-2.484 1.023,-2.199 2.493,0.293 3.367,0.441 3.808,0.586 3.809,0.438 3.652,0.441 h 3.368 l 2.492,-0.293 1.906,-1.027 0.437,-1.465 -0.437,-2.344 -1.32,-3.07 -1.614,-3.367 -2.047,-3.223 -1.906,-2.934 -1.601,-2.336 -0.879,-1.757 1.164,-1.321 1.609,-1.023 1.613,-0.879 2.047,-0.879 1.762,-0.582 2.195,-0.731 2.051,-0.878 2.051,-1.028 -1.465,-5.859 -3.223,-4.977 -4.687,-3.808 -5.566,-2.922 -6.582,-1.906 -6.446,-1.172 -6.289,-0.442 -5.859,-0.144 -5.567,1.027 -5.714,2.051 -5.848,2.922 -5.274,3.664 -5.128,4.387 -3.954,4.984 -2.929,5.121 -1.172,5.418 -0.137,2.492 0.43,3.363 0.742,4.102 1.016,4.242 1.171,4.25 1.614,3.516 1.758,2.777 2.046,1.172 1.614,0.438 1.32,-0.29 1.316,-0.585 1.172,-1.028 0.879,-1.023 0.879,-1.317 0.723,-1.316 0.742,-1.32 v 0" /><path
         id="path122"
         style="fill:#be5426;fill-opacity:1;fill-rule:evenodd;stroke:none"
         d="m 368.379,348.754 1.601,1.613 2.344,2.344 2.489,2.777 3.226,2.782 2.93,2.929 2.918,2.055 2.793,1.465 h 2.48 l 1.035,-0.586 0.723,-1.613 0.449,-2.344 0.586,-2.781 0.137,-2.782 0.586,-2.929 0.586,-2.489 1.027,-2.199 2.344,0.442 3.222,0.73 3.504,0.734 3.965,0.731 3.516,0.734 3.359,0.145 h 2.489 l 1.757,-0.879 0.442,-1.465 -0.586,-2.336 -1.465,-2.785 -1.758,-3.074 -2.195,-2.93 -1.906,-2.781 -1.758,-2.051 -0.723,-1.609 1.016,-1.321 1.621,-1.172 1.601,-1.023 1.907,-1.023 1.754,-0.875 1.906,-0.879 1.906,-0.879 1.902,-1.172 -1.316,-5.422 -2.934,-4.242 -4.097,-3.078 -4.836,-2.344 -5.703,-1.313 -5.711,-0.879 -5.715,-0.292 -5.274,-0.145 -5.117,1.023 -5.422,1.754 -5.554,2.93 -4.981,3.367 -4.687,4.391 -3.953,4.394 -2.786,4.977 -1.171,4.98 v 2.196 l 0.441,3.074 0.437,3.809 1.028,3.66 1.023,3.949 1.321,3.078 1.461,2.34 1.906,1.023 h 0.879 l 1.32,-0.437 0.879,-0.586 1.16,-1.168 0.879,-1.027 1.035,-1.172 0.879,-1.172 0.879,-1.172 v 0" /><path
         id="path124"
         style="fill:#231f20;fill-opacity:1;fill-rule:evenodd;stroke:none"
         d="m 170.719,390.191 1.023,0.145 h 1.172 l 1.316,-0.586 1.461,-0.879 1.172,-0.73 1.321,-1.172 1.027,-1.321 1.023,-1.46 0.586,-1.317 0.442,-1.316 0.144,-1.172 v -1.32 l -0.293,-1.024 -0.586,-1.027 -0.879,-0.735 -0.73,-0.586 -1.172,0.149 -1.176,0.437 -1.316,0.879 -1.313,0.883 -1.464,1.316 -1.321,1.172 -1.023,1.321 -0.735,1.023 -0.585,1.024 -0.293,1.171 v 1.168 l 0.441,1.028 0.293,1.172 0.437,0.73 0.442,0.734 0.586,0.293 v 0" /><path
         id="path126"
         style="fill:#842123;fill-opacity:1;fill-rule:evenodd;stroke:none"
         d="m 172.621,387.406 1.32,0.149 1.457,-0.735 0.735,-0.437 0.73,-0.735 0.735,-0.726 0.879,-1.172 0.293,-0.879 0.293,-0.879 v -0.879 -0.879 l -0.586,-1.171 -0.879,-0.731 -0.879,0.145 -0.735,0.148 -0.879,0.586 -0.73,0.437 -0.879,0.879 -0.726,0.735 -0.735,0.879 -0.437,0.73 -0.442,1.465 0.149,1.312 0.437,1.172 0.879,0.586 v 0" /><path
         id="path128"
         style="fill:#231f20;fill-opacity:1;fill-rule:evenodd;stroke:none"
         d="m 262.082,268.52 -1.762,0.441 h -1.902 l -2.195,-0.441 -1.907,-0.879 -2.05,-1.164 -1.895,-1.465 -1.914,-1.758 -1.465,-2.055 -1.465,-1.609 -0.879,-1.902 -0.429,-1.907 v -1.898 l 0.144,-1.465 0.578,-1.465 0.879,-0.879 1.172,-0.738 1.465,-0.137 1.914,0.137 2.051,0.883 2.336,1.027 2.195,1.609 2.344,1.465 1.902,1.754 1.762,1.614 0.437,1.316 0.293,1.465 v 1.758 l 0.149,1.613 -0.442,1.758 -0.293,1.312 -0.585,1.172 -0.438,0.438 v 0" /><path
         id="path130"
         style="fill:#f9f25f;fill-opacity:1;fill-rule:evenodd;stroke:none"
         d="m 259.734,265.742 -1.316,0.442 -1.465,-0.153 -1.316,-0.14 -1.321,-0.586 -1.464,-0.586 -1.465,-1.028 -1.309,-1.171 -1.328,-1.758 -1.172,-1.465 -0.723,-1.465 -0.449,-1.316 v -1.321 l 0.157,-1.019 0.429,-1.028 0.742,-0.878 1.016,-0.731 1.328,-0.148 1.465,0.293 1.602,0.586 1.613,0.734 1.465,1.172 1.316,1.172 1.465,1.312 1.172,1.465 0.437,1.172 0.442,1.172 v 1.172 1.027 l -0.293,1.172 -0.293,0.879 -0.442,0.73 -0.293,0.293 v 0" /><path
         id="path132"
         style="fill:#231f20;fill-opacity:1;fill-rule:evenodd;stroke:none"
         d="m 207.613,283.02 1.317,0.437 h 1.906 l 2.051,-0.293 2.047,-0.879 1.902,-1.023 2.051,-1.465 1.613,-1.613 1.758,-1.907 1.172,-1.75 0.871,-1.906 0.445,-1.902 0.149,-1.906 -0.301,-1.61 -0.438,-1.312 -0.875,-1.028 -1.023,-0.879 -1.758,-0.144 -1.906,0.293 -2.199,0.879 -2.047,1.019 -2.34,1.465 -2.051,1.465 -1.906,1.609 -1.317,1.614 -0.879,1.464 -0.292,1.457 -0.149,1.758 0.149,1.614 0.292,1.757 0.438,1.172 0.586,1.172 0.734,0.442 v 0" /><path
         id="path134"
         style="fill:#f9f25f;fill-opacity:1;fill-rule:evenodd;stroke:none"
         d="m 209.957,280.383 0.879,0.586 h 1.172 l 1.465,-0.293 1.312,-0.586 1.32,-0.586 1.461,-1.027 1.465,-1.321 1.469,-1.758 0.879,-1.457 0.73,-1.613 0.293,-1.172 0.149,-1.316 -0.293,-1.027 -0.293,-1.024 -0.735,-0.586 -0.73,-0.586 -1.469,-0.14 -1.316,0.14 -1.465,0.438 -1.465,0.734 -1.754,1.024 -1.316,1.171 -1.465,1.321 -1.172,1.316 -0.734,1.172 -0.293,1.172 -0.145,1.168 0.145,1.023 0.148,1.176 0.438,0.879 0.441,0.879 0.879,0.293 v 0" /><path
         id="path136"
         style="fill:#231f20;fill-opacity:1;fill-rule:evenodd;stroke:none"
         d="m 255.051,305.859 1.316,-0.437 1.465,-1.32 0.879,-1.465 1.023,-2.051 0.586,-2.195 0.442,-2.493 0.144,-2.484 0.149,-2.492 -0.442,-2.195 -0.73,-2.051 -0.879,-1.754 -1.172,-1.465 -1.465,-1.023 -1.316,-0.735 -1.321,-0.144 -1.308,0.144 -1.328,1.028 -1.016,1.609 -1.035,2.195 -0.723,2.34 -0.879,2.785 -0.293,2.637 -0.293,2.633 0.137,2.051 0.293,1.316 0.742,1.465 1.172,1.172 1.309,1.027 1.172,1.023 1.328,0.586 1.172,0.442 0.871,-0.149 v 0" /><path
         id="path138"
         style="fill:#f9f25f;fill-opacity:1;fill-rule:evenodd;stroke:none"
         d="m 254.609,302.344 1.028,-0.442 1.172,-0.73 0.586,-1.172 0.875,-1.316 0.441,-1.321 0.437,-1.609 V 294 l 0.149,-2.199 -0.442,-1.758 -0.437,-1.609 -0.586,-1.172 -0.879,-1.172 -1.023,-0.582 -1.028,-0.735 h -1.015 -1.035 l -1.172,0.879 -0.879,1.168 -0.723,1.614 -0.449,1.609 -0.43,1.906 -0.156,1.758 -0.137,1.898 0.293,1.614 0.137,1.316 0.586,1.028 0.742,1.023 0.879,0.73 0.723,0.879 0.879,0.293 0.742,0.149 0.722,-0.293 v 0" /><path
         id="path140"
         style="fill:#231f20;fill-opacity:1;fill-rule:evenodd;stroke:none"
         d="m 224.449,240.703 1.317,-0.73 1.464,-1.321 1.028,-1.609 1.023,-2.199 0.586,-2.051 0.446,-2.48 0.136,-2.637 0.156,-2.488 -0.449,-2.051 -0.726,-1.907 -1.028,-1.609 -1.023,-1.32 -1.613,-0.879 -1.317,-0.723 -1.312,-0.293 -1.321,0.137 -1.316,1.023 -1.027,1.465 -1.028,2.055 -0.73,2.344 -0.735,2.633 -0.292,2.785 -0.145,2.48 0.293,2.051 0.144,1.465 0.586,1.465 0.879,1.32 1.321,1.023 1.172,1.028 1.32,0.73 1.023,0.442 1.168,-0.149 v 0" /><path
         id="path142"
         style="fill:#f9f25f;fill-opacity:1;fill-rule:evenodd;stroke:none"
         d="m 224.008,237.043 1.027,-0.441 1.172,-0.879 0.586,-1.016 0.73,-1.328 0.586,-1.309 0.442,-1.757 v -2.051 l 0.144,-2.199 -0.437,-1.61 -0.442,-1.609 -0.586,-1.172 -0.878,-1.172 -1.024,-0.586 -0.879,-0.441 h -1.168 l -1.023,0.293 -1.172,0.879 -0.879,1.027 -0.734,1.316 -0.442,1.614 -0.437,1.902 -0.149,1.758 -0.144,2.051 0.293,1.757 0.144,1.309 0.442,1.035 0.734,0.867 0.879,0.735 0.73,0.734 0.879,0.293 0.735,0.145 0.871,-0.145 v 0" /><path
         id="path144"
         style="fill:#231f20;fill-opacity:1;fill-rule:evenodd;stroke:none"
         d="m 276.133,234.258 1.023,1.465 1.614,0.879 1.757,0.586 2.2,0.292 2.195,0.149 2.637,-0.149 2.48,-0.437 2.5,-0.879 1.75,-0.734 1.609,-1.172 1.321,-1.309 1.172,-1.465 0.586,-1.464 0.293,-1.465 v -1.465 l -0.442,-1.465 -1.465,-0.73 -1.758,-0.735 -2.343,-0.437 -2.481,-0.293 -2.793,0.144 -2.773,0.293 -2.488,0.442 -2.051,0.437 -1.321,0.879 -1.023,1.016 -0.883,1.464 -0.586,1.329 -0.586,1.601 -0.293,1.328 -0.144,1.172 0.293,0.723 v 0" /><path
         id="path146"
         style="fill:#f9f25f;fill-opacity:1;fill-rule:evenodd;stroke:none"
         d="m 279.355,232.949 0.735,1.016 0.879,0.742 1.172,0.574 1.453,0.293 1.465,0.297 1.914,-0.148 2.05,-0.293 2.188,-0.723 1.621,-0.586 1.309,-0.879 0.879,-0.879 0.878,-1.035 0.293,-0.879 0.149,-1.172 -0.149,-1.015 -0.437,-1.172 -1.172,-0.879 -1.176,-0.586 -1.609,-0.293 -1.602,-0.144 -2.05,0.144 -1.758,0.293 -1.907,0.438 -1.609,0.441 -1.172,0.586 -0.879,0.723 -0.879,1.035 -0.437,0.879 -0.441,1.015 -0.145,0.879 v 0.879 l 0.437,0.449 v 0" /><path
         id="path148"
         style="fill:#231f20;fill-opacity:1;fill-rule:evenodd;stroke:none"
         d="m 173.063,426.207 -1.758,-0.727 -1.321,-0.878 -1.171,-1.172 -0.879,-1.465 -0.586,-1.465 v -1.32 l 0.441,-1.465 0.731,-1.61 0.734,-1.32 1.316,-1.168 1.321,-0.73 1.757,-0.735 1.606,-0.293 h 1.758 l 1.758,0.149 1.906,0.437 1.609,1.028 1.606,0.875 1.027,1.172 0.879,1.168 0.437,1.464 0.149,1.614 -0.149,1.464 -0.437,1.321 -1.172,1.465 -1.168,1.023 -1.609,0.875 -1.465,0.586 -1.906,0.438 h -1.758 l -1.906,-0.145 -1.75,-0.586 v 0" /><path
         id="path150"
         style="fill:#231f20;fill-opacity:1;fill-rule:evenodd;stroke:none"
         d="m 217.273,425.766 1.465,-0.727 1.321,-1.023 0.879,-1.172 0.878,-1.321 0.442,-1.316 0.144,-1.613 -0.144,-1.321 -0.442,-1.609 -1.171,-1.168 -1.172,-1.023 -1.465,-0.879 -1.465,-0.735 -1.758,-0.293 -1.754,-0.144 -1.902,0.144 -1.613,0.442 -1.903,1.023 -1.465,0.879 -1.171,1.168 -0.735,1.172 -0.578,1.465 -0.148,1.465 0.293,1.32 0.726,1.609 0.735,1.465 1.316,1.028 1.32,0.878 1.758,0.579 1.758,0.441 h 2.051 l 1.754,-0.145 2.046,-0.589 v 0" /><path
         id="path152"
         style="fill:#e0f3f8;fill-opacity:1;fill-rule:evenodd;stroke:none"
         d="m 173.063,422.109 -1.028,-0.586 -0.437,-1.023 -0.293,-0.586 0.293,-1.027 0.586,-0.879 0.879,-0.442 0.878,-0.144 h 0.872 l 0.734,0.586 0.586,0.73 v 1.176 0.879 l -0.735,0.879 -0.73,0.437 -0.875,0.293 -0.73,-0.293 v 0" /><path
         id="path154"
         style="fill:#e0f3f8;fill-opacity:1;fill-rule:evenodd;stroke:none"
         d="m 217.273,421.672 0.735,-0.586 0.586,-1.172 v -1.906 l -0.879,-0.586 -0.735,-0.442 h -0.875 -0.585 l -1.028,0.586 -0.437,0.735 -0.293,1.023 0.293,1.028 0.437,0.878 0.879,0.442 0.879,0.293 1.023,-0.293 v 0" /><path
         id="path156"
         style="fill:#231f20;fill-opacity:1;fill-rule:evenodd;stroke:none"
         d="m 180.676,430.746 -6.735,-0.437 -6.445,-4.543 -2.785,-4.973 h -2.191 l 0.441,4.102 5.559,4.972 4.543,2.637 5.414,0.586 h 3.222 l -1.023,-2.344 v 0" /><path
         id="path158"
         style="fill:#231f20;fill-opacity:1;fill-rule:evenodd;stroke:none"
         d="m 209.516,430.309 6.441,-0.442 6.301,-4.535 3.215,-4.539 h 2.343 l -1.023,3.66 -5.414,5.414 -4.106,2.199 -5.558,0.438 h -3.223 l 1.024,-2.195 v 0" /><path
         id="path160"
         style="fill:#231f20;fill-opacity:1;fill-rule:evenodd;stroke:none"
         d="m 216.395,452.711 11.714,-4.836 8.786,-2.191 h 6.152 l 4.101,1.754 1.758,3.367 v 3.953 l -1.328,4.39 -2.48,4.106 -0.45,1.902 1.329,1.754 2.187,1.903 2.793,1.906 2.188,2.344 1.32,2.484 -0.149,2.93 -2.343,3.371 -2.481,1.609 -2.929,0.586 -3.223,0.293 h -3.223 l -3.222,0.144 -2.637,0.293 -2.051,0.731 -1.172,1.316 -0.137,1.028 v 1.023 1.32 1.172 l -0.156,1.317 -0.293,1.32 -0.582,1.168 -0.73,0.73 -4.242,2.93 -3.809,1.172 -3.664,-0.293 -3.074,-1.465 -3.075,-1.609 -2.195,-1.906 -1.758,-1.461 -1.027,-1.024 -1.898,-0.148 -1.907,-0.438 -2.05,-0.293 -1.903,-0.293 -2.195,-0.148 -1.758,-0.293 -1.754,-0.438 -1.172,-0.734 -4.101,-2.637 -1.028,-2.632 1.172,-2.489 2.637,-2.488 3.078,-2.348 2.777,-2.195 1.614,-1.898 -0.586,-1.907 -2.492,-1.609 -2.34,-2.051 -2.489,-2.191 -1.613,-2.492 -0.879,-2.2 0.879,-2.34 2.637,-2.199 5.269,-2.191 2.344,-0.293 2.488,-0.149 2.641,0.149 2.629,0.144 2.492,0.442 2.488,-0.149 2.633,-0.144 2.489,-0.879 v 0" /><path
         id="path162"
         style="fill:#f3bd14;fill-opacity:1;fill-rule:evenodd;stroke:none"
         d="m 215.957,455.344 4.836,-1.754 5.414,-2.199 5.414,-2.051 5.274,-1.758 4.394,-0.293 3.652,1.027 1.914,3.075 0.137,5.269 -0.429,1.172 -0.586,1.023 -0.743,1.172 -0.722,0.879 -0.879,1.028 -0.586,1.171 -0.293,0.735 0.144,0.586 0.735,2.043 1.758,1.758 2.05,1.757 2.344,1.614 1.895,1.902 1.172,1.754 v 1.902 l -1.309,1.762 -2.793,1.902 -3.066,1.028 -3.664,0.586 -3.512,0.293 -3.52,0.293 -2.918,0.437 -2.203,0.879 -1.172,1.168 -0.293,1.023 v 1.028 1.023 l 0.293,1.027 v 1.172 1.024 l -0.437,1.027 -0.442,0.879 -4.093,2.926 -3.371,1.023 -2.93,-0.293 -2.488,-1.316 -2.196,-1.758 -1.902,-2.047 -1.465,-1.465 -0.879,-0.879 -1.758,-0.148 -1.757,-0.293 h -1.754 -1.614 l -1.754,0.148 h -1.613 -1.465 l -1.464,-0.585 -4.977,-2.2 -1.465,-2.484 0.734,-2.195 2.637,-2.637 3.071,-2.199 3.222,-2.344 2.051,-2.047 0.293,-2.051 -1.758,-1.609 -2.488,-1.758 -2.934,-1.906 -2.336,-2.192 -1.465,-1.902 v -2.055 l 2.196,-1.902 5.125,-2.195 2.344,-0.293 2.339,-0.149 2.196,0.293 2.343,0.149 2.196,0.437 2.492,0.149 h 2.195 l 2.633,-0.586 v 0" /><path
         id="path164"
         style="fill:#231f20;fill-opacity:1;fill-rule:evenodd;stroke:none"
         d="m 257.395,137.188 33.816,38.359 36.894,-33.234 -34.109,-37.918 -36.601,32.793 v 0" /><path
         id="path166"
         style="fill:#ef6a25;fill-opacity:1;fill-rule:evenodd;stroke:none"
         d="m 262.52,137.629 28.691,32.508 31.926,-27.824 -29.141,-32.801 -31.476,28.117 v 0" /><path
         id="path168"
         style="fill:#231f20;fill-opacity:1;fill-rule:evenodd;stroke:none"
         d="m 277.449,171.895 12.883,-11.426 -2.344,-2.199 -12.297,11.418 1.758,2.207 v 0" /><path
         id="path170"
         style="fill:#231f20;fill-opacity:1;fill-rule:evenodd;stroke:none"
         d="m 305.41,108.926 -12.441,11.867 1.906,1.758 12.293,-11.281 -1.758,-2.344 v 0" /><path
         id="path172"
         style="fill:#231f20;fill-opacity:1;fill-rule:evenodd;stroke:none"
         d="m 268.379,163.691 12.734,-11.855 -2.195,-1.914 -12.453,11.426 1.914,2.343 v 0" /><path
         id="path174"
         style="fill:#231f20;fill-opacity:1;fill-rule:evenodd;stroke:none"
         d="m 313.906,117.129 -12.148,11.426 2.199,2.343 12.293,-11.425 -2.344,-2.344 v 0" /><path
         id="path176"
         style="fill:#231f20;fill-opacity:1;fill-rule:evenodd;stroke:none"
         d="m 260.176,154.609 12.304,-11.855 -1.914,-2.344 -12.148,11.856 1.758,2.343 v 0" /><path
         id="path178"
         style="fill:#231f20;fill-opacity:1;fill-rule:evenodd;stroke:none"
         d="m 322.695,126.355 -12.304,11.711 1.757,2.344 12.305,-11.855 -1.758,-2.2 v 0" /><path
         id="path180"
         style="fill:#231f20;fill-opacity:1;fill-rule:evenodd;stroke:none"
         d="m 245.098,365.156 0.722,-1.465 1.172,-1.609 1.172,-1.762 1.465,-1.609 1.328,-1.465 1.309,-1.609 1.172,-1.461 1.171,-1.758 -0.879,-0.441 -1.308,0.734 -1.172,0.73 -1.172,1.024 -1.035,0.879 -1.172,1.172 -1.016,1.172 -0.878,1.316 -0.879,1.172 -10.989,-6 -2.781,-5.129 -3.363,-4.828 -4.242,-3.809 -4.399,-3.367 -5.121,-2.488 -5.418,-1.903 -5.414,-1.32 -5.422,-0.73 -6.879,1.023 -6.152,2.199 -5.855,3.364 -5.122,3.808 -5.421,4.395 -4.973,4.535 -5.277,4.25 -5.266,3.656 -0.879,-0.293 -0.879,-0.586 -0.734,-0.73 -0.586,-0.879 -0.731,-0.731 -0.586,-0.879 -0.586,-0.879 -0.585,-0.878 -1.321,1.32 0.879,2.191 1.172,2.2 0.879,2.195 1.172,2.199 1.027,2.195 1.024,2.047 1.027,2.196 1.019,2.05 h 0.735 l 0.586,-0.879 -0.149,-1.023 -0.144,-1.172 -0.293,-1.172 -0.293,-1.168 -0.442,-1.023 -0.293,-1.172 -0.14,-1.027 v -1.321 l 8.199,-3.953 9.223,-3.363 9.371,-2.492 10.101,-1.758 9.809,-0.438 9.809,0.438 9.519,1.906 9.223,3.223 13.761,7.758 -2.925,11.714 1.172,-0.293 0.73,-0.734 0.586,-1.023 0.586,-1.321 0.293,-1.316 0.293,-1.32 0.586,-1.172 0.879,-1.313 v 0" /><path
         id="path182"
         style="fill:#f0626e;fill-opacity:1;fill-rule:evenodd;stroke:none"
         d="m 227.816,350.512 -2.781,-3.516 -3.07,-3.512 -3.52,-2.925 -3.804,-2.493 -4.539,-1.902 -4.247,-1.461 -4.539,-0.879 -4.539,-0.586 -4.39,1.024 -3.953,1.312 -3.664,1.906 -3.657,2.2 -3.515,2.633 -3.368,2.785 -3.367,2.777 -3.367,2.637 7.024,-1.903 7.472,-1.613 7.758,-1.164 8.199,-0.586 7.758,0.145 8.055,1.027 7.176,1.75 6.878,2.344 v 0" /></g></g></svg>