<?xml version="1.0" encoding="UTF-8" standalone="no"?>
<svg
   xmlns:dc="http://purl.org/dc/elements/1.1/"
   xmlns:cc="http://creativecommons.org/ns#"
   xmlns:rdf="http://www.w3.org/1999/02/22-rdf-syntax-ns#"
   xmlns:svg="http://www.w3.org/2000/svg"
   xmlns="http://www.w3.org/2000/svg"
   viewBox="0 0 67.919998 66.666664"
   height="66.666664"
   width="67.919998"
   xml:space="preserve"
   id="svg2"
   version="1.1"><metadata
     id="metadata8"><rdf:RDF><cc:Work
         rdf:about=""><dc:format>image/svg+xml</dc:format><dc:type
           rdf:resource="http://purl.org/dc/dcmitype/StillImage" /></cc:Work></rdf:RDF></metadata><defs
     id="defs6" /><g
     transform="matrix(1.3333333,0,0,-1.3333333,0,66.666667)"
     id="g10"><g
       transform="scale(0.1)"
       id="g12"><path
         id="path14"
         style="fill:#231f20;fill-opacity:1;fill-rule:evenodd;stroke:none"
         d="m 289.707,397.676 -0.312,-0.625 v -1.258 l -0.95,-0.625 -0.632,-0.633 -0.618,-1.254 -0.632,-0.625 -0.625,-0.629 -3.145,-1.882 -2.5,-1.258 -1.57,-0.625 -1.575,-0.629 -0.312,-1.254 -0.938,-1.258 -0.312,-2.508 -0.945,-3.14 4.39,-6.282 2.512,-6.273 2.195,-5.648 v -6.282 -3.136 l -1.258,-2.512 -0.937,-3.141 -1.25,-3.136 -1.57,-2.512 -2.825,-3.137 -2.519,-2.512 -2.82,-3.14 -1.262,1.258 -1.563,1.253 -1.25,1.254 -0.32,0.629 -1.262,0.633 -1.25,0.625 h -0.937 l -1.258,0.629 -2.199,-3.77 -2.508,-3.136 -2.199,-3.137 -0.313,-3.77 -0.941,-3.136 -0.317,-3.77 v -3.136 l 0.317,-3.766 1.254,-6.906 2.199,-7.536 1.566,-7.535 2.192,-8.156 2.207,1.883 2.512,2.199 2.507,2.195 3.145,1.879 2.5,1.887 3.457,0.629 1.887,-0.629 h 1.25 l 1.257,-1.254 1.25,-1.258 v -3.136 l -0.937,-2.512 v -1.883 -1.887 -1.254 -0.937 -0.945 -1.571 h 2.195 1.262 1.563 1.882 2.2 1.574 l 1.883,0.313 1.875,0.941 4.082,1.574 2.832,1.254 h 2.5 2.832 1.562 l 1.895,-1.254 1.25,-1.257 1.25,-1.571 2.519,-4.707 1.887,-4.707 3.133,-5.648 3.769,-5.965 3.77,-0.625 4.394,-1.258 4.395,-1.566 4.394,-1.258 4.383,-2.199 4.399,-2.199 3.14,-3.446 1.887,-3.769 h 3.137 3.758 l 3.144,-0.313 h 3.77 l 3.132,-0.625 h 3.149 3.758 l 3.144,-0.637 3.762,-1.57 2.508,-0.312 1.258,-0.938 h 1.886 l 0.625,-0.312 h 1.25 0.637 0.633 l 3.125,4.394 5.656,7.852 8.164,11.293 9.41,11.613 4.399,5.336 5.027,5.019 5.02,4.395 4.394,4.082 4.395,2.195 3.769,1.258 1.875,0.625 h 1.25 l 1.895,-0.625 1.25,-1.258 -0.625,-1.254 -0.625,-1.882 -0.625,-2.512 -0.633,-1.883 -0.637,-2.512 -0.625,-1.566 0.625,-1.262 0.637,-1.254 5.016,1.571 5.031,1.882 5.644,1.254 5.645,0.629 h 2.519 l 3.137,-0.629 2.508,-0.625 1.887,-1.254 2.507,-1.257 1.883,-1.571 1.887,-2.195 1.875,-3.141 -0.625,-1.566 -0.625,-2.512 -0.625,-2.824 -1.262,-2.512 -1.258,-2.507 -0.625,-2.512 -1.25,-2.196 -0.625,-3.46 5.645,-1.258 4.394,-1.563 3.145,-1.886 3.137,-2.508 2.508,-3.457 1.882,-4.395 1.887,-5.019 1.25,-5.957 -1.25,-9.102 -1.887,-10.684 -1.882,-10.351 -1.258,-11.297 -0.625,-11.301 v -11.301 l 1.258,-5.027 0.625,-5.644 1.882,-4.395 1.887,-4.395 -0.637,-0.625 v -0.625 -0.625 h -0.613 l -0.637,-0.632 h -0.632 -0.625 -0.625 -0.625 l -1.883,1.882 -1.887,2.508 -1.887,3.137 -2.508,2.52 -1.882,2.5 -1.887,2.519 -1.25,1.25 -1.262,1.262 -1.258,-3.762 -1.875,-5.027 -1.882,-5.657 -3.145,-6.269 -3.137,-5.02 -3.132,-4.394 -1.887,-0.633 -1.883,-0.625 h -1.887 l -1.25,1.258 -3.144,7.527 -2.508,7.531 -2.512,6.907 -1.886,7.527 -1.883,6.914 -1.25,6.902 -0.625,7.532 -0.625,7.539 0.625,2.5 1.25,2.519 1.25,3.77 1.258,3.449 0.636,3.445 0.625,3.145 0.625,2.82 -0.625,2.199 -2.519,0.625 -2.5,0.633 -1.895,0.625 -1.25,0.637 h -0.625 -0.637 -0.613 -0.637 l -3.765,-2.52 -3.762,-3.457 -3.769,-2.187 -3.77,-1.883 -4.394,-1.887 -4.395,-1.25 -4.395,-0.945 h -4.394 v -1.574 l -0.625,-1.875 v -1.895 l -0.625,-2.5 v -1.894 l -0.625,-1.875 v -1.883 -1.887 l -6.277,-16.316 -5.657,-16.32 -5.019,-16.329 -5.02,-16.953 -5.027,-16.9411 -3.762,-16.9453 -3.144,-16.9532 -2.508,-17.5781 6.277,0.625 5.645,0.625 6.289,1.8945 6.894,1.875 13.184,5.6563 13.184,6.2773 13.183,6.8946 12.559,6.914 11.289,6.9024 10.683,6.9062 h 2.512 l 2.508,0.625 h 1.25 1.262 0.632 0.625 0.625 0.625 v -3.7695 -3.1367 l -1.25,-3.1328 -1.257,-2.5196 -3.762,-4.3945 -4.402,-3.1328 -5.02,-3.7617 -4.395,-3.7696 -2.511,-1.8828 -1.883,-2.5117 -1.887,-2.5078 -1.25,-3.1367 -9.426,-8.7891 -9.414,-7.539 -10.046,-6.9024 -10.04,-6.2812 L 410.234,17.5781 399.563,13.8086 388.887,10.0391 378.223,6.90234 366.914,5.01953 355.613,3.14453 343.691,1.88672 332.395,1.25 308.535,0 h -24.48 l -6.907,0.625 h -7.527 l -6.906,0.625 -6.91,0.63672 -6.903,0.625 -6.593,0.63281 -6.903,0.625 -6.906,1.25 -6.277,0.625 -6.278,1.25781 -6.906,1.88672 -6.906,2.51174 -6.903,2.5078 -6.906,3.7695 -6.906,3.7696 -6.906,4.3945 -12.555,9.4141 -11.297,10.039 -10.047,9.4141 -6.902,9.414 -2.516,1.2579 -1.879,1.8867 -2.507,2.5117 -1.887,2.5078 -4.395,6.9141 -3.765,8.1562 -2.512,7.5274 -1.258,7.5388 v 3.77 3.136 l 0.633,2.508 1.254,2.512 h 1.254 1.254 0.633 l 1.253,-0.625 h 1.254 l 0.625,-0.637 1.887,-0.625 1.254,-0.625 10.672,-10.675 10.047,-10.6724 10.043,-11.289 10.668,-10.0469 5.656,-5.0313 6.273,-4.3945 6.278,-3.7578 6.277,-3.1367 6.906,-3.1446 7.532,-2.5078 8.164,-1.2617 8.16,-1.25 0.625,1.25 v 3.1445 l -0.625,3.7696 -1.574,4.3945 -2.825,11.2891 -3.761,12.5586 -5.028,13.1836 -3.761,11.3088 -3.77,9.414 -1.879,5.019 -6.281,10.039 -4.395,8.164 -3.765,6.282 -3.137,5.015 -2.512,5.024 -3.14,5.027 -4.395,6.27 -4.394,7.539 -3.137,9.414 -3.141,8.789 -2.511,8.789 -1.879,8.789 -1.883,8.164 -1.887,8.777 -1.887,8.789 -1.254,7.844 -3.761,8.168 -3.766,7.848 -4.394,8.16 -5.028,8.156 -5.015,7.223 -5.657,6.906 -5.644,6.902 -5.653,5.028 -1.257,2.508 -2.508,1.882 -2.512,1.883 -3.7655,1.254 -9.418,1.262 -10.0429,0.625 h -10.043 l -9.418,-0.625 -6.9062,-0.633 h -4.3946 l -6.9023,1.258 -6.9062,1.883 -5.6485,2.508 -5.0195,3.14 -5.0235,3.141 -3.7734,3.765 -3.7617,4.395 -2.5117,4.394 -2.50784,5.02 -1.88672,5.023 -1.88281,5.649 -1.25391,5.648 -1.88672,11.93 -0.625,13.18 2.51172,11.297 3.76562,10.05 1.88282,4.395 2.51564,4.39 2.5078,3.77 3.1328,3.766 3.1406,3.765 3.1407,3.137 3.7695,2.516 4.3906,2.507 4.3945,2.512 5.0235,1.883 5.0195,1.883 5.6563,1.258 1.8789,5.019 2.5156,5.024 3.1328,5.019 3.7695,4.395 1.8789,2.511 2.5157,1.883 2.5117,1.258 1.8828,1.254 2.5078,0.629 3.1367,0.625 2.5157,-0.625 2.5078,-0.629 1.8867,-2.512 1.2539,-1.883 0.6289,-1.882 v -1.883 -2.508 -1.887 -3.14 -3.137 l 5.0195,-1.883 3.7657,-1.883 3.1406,-1.887 2.5117,-1.878 2.5115,-2.516 2.512,-3.133 3.137,-3.769 3.765,-5.02 1.887,-4.394 1.883,-6.282 2.512,-6.273 3.761,-6.91 3.766,-6.274 4.398,-5.648 1.879,-1.887 3.141,-1.883 2.512,-1.258 3.136,-0.625 1.258,8.161 1.254,8.16 2.516,9.418 3.132,8.789 1.887,3.765 2.508,4.395 1.887,3.766 3.136,3.136 2.512,3.141 3.766,2.512 3.136,1.882 3.774,1.879 5.016,5.028 4.398,4.394 4.395,3.766 4.394,3.137 5.02,1.886 5.648,1.883 6.277,0.625 6.907,0.633 4.394,4.387 3.766,4.394 1.883,4.403 1.253,4.386 0.629,4.395 0.625,4.394 v 5.653 6.277 h 0.633 l 0.629,-0.629 h 0.313 v -0.625 l 0.941,-0.633 0.313,-0.625 1.253,-0.629 1.575,-1.254 h -0.629 l -0.946,-0.628 -0.308,-0.625 0.308,-0.629 0.946,-0.625 v -0.633 -0.625 l 0.629,-0.629 v -0.625 -0.629 -1.258 l 3.765,1.258 4.082,2.508 5.332,3.14 5.649,2.508 2.511,1.258 2.512,0.629 h 1.571 2.195 l 1.887,-1.254 1.257,-1.887 1.25,-2.507 0.313,-3.766 h 0.937 v 0.625 h 0.325 v -1.254 -1.258 -1.883 -1.253 -1.254 -1.258 -1.883 -1.254 l 6.589,-3.766 5.02,-3.14 3.457,-2.516 3.762,-3.133 2.508,-3.769 1.882,-4.395 1.262,-5.648 v -7.531 l -3.144,-5.024 -3.77,-5.648 -2.82,-6.281 -2.825,-5.649 -0.312,-3.141 v -2.507 l 0.312,-3.137 0.625,-2.516 2.2,-2.508 1.57,-2.511 3.457,-2.512 3.445,-2.512 v -0.625 h 0.95 v -0.629 h 0.312 v -0.625 l 0.938,-0.628 v -0.633 -0.625 l -0.938,-0.629 z M 279.031,42.0625 h -13.804 l -3.77,0.625 h -3.141 l -2.824,0.6328 -2.512,1.25 v 9.4141 10.039 l 0.317,11.3086 v 10.6641 l 0.941,11.3086 0.313,10.0393 2.199,9.414 1.566,8.789 5.649,-1.875 5.332,-1.258 5.344,-1.262 5.652,-1.25 5.645,-0.625 6.281,-1.257 5.652,-0.637 h 6.27 l 7.539,0.637 5.957,0.625 4.082,0.632 h 3.144 2.188 1.582 1.25 1.875 l 1.894,-8.164 1.25,-9.414 1.25,-8.7888 v -9.4141 l 0.637,-10.0508 -0.637,-9.4219 -1.25,-9.414 -1.875,-8.7891 -3.769,-1.25 -6.278,-1.25 -7.542,-0.6328 h -8.778 l -7.851,-0.625 h -8.164 -6.59 -5.024 v 0" /><path
         id="path16"
         style="fill:#b2821d;fill-opacity:1;fill-rule:evenodd;stroke:none"
         d="m 280.293,5.64453 -7.227,0.63281 -8.164,0.625 h -7.839 l -6.594,0.63672 -7.531,1.25 -7.532,0.625 -6.906,1.26174 -7.531,1.25 -8.789,2.5078 -8.789,3.1445 -7.536,3.7696 -7.531,3.7578 -6.906,3.7734 -6.906,4.3906 -6.907,5.0235 -7.531,5.6523 v 0.625 l -0.625,0.625 -1.258,1.2617 -1.253,1.2578 -2.512,2.5 -3.141,3.1446 -5.019,4.3945 -6.282,5.6445 -3.761,6.2813 -3.766,5.0273 -3.769,5.6446 -3.141,5.0195 -3.133,5.6523 -1.887,5.0235 -2.507,6.2771 -1.258,6.27 0.625,-0.625 h 1.258 l 1.253,-0.625 1.254,-0.625 1.262,-1.25 1.254,-0.633 1.254,-1.262 1.254,-1.25 10.047,-11.9334 10.043,-10.664 10.672,-10.0469 10.667,-9.4141 5.653,-3.7695 6.277,-3.7617 6.278,-3.1446 6.277,-3.1328 7.535,-2.5117 6.902,-2.5195 8.161,-1.875 8.164,-0.625 V 38.293 h 0.625 v -0.625 -0.6367 -0.625 h 0.628 0.625 0.629 0.625 l 0.633,1.2617 0.629,0.625 v 0.6328 l 0.313,1.25 v 0.625 0.625 l 0.941,1.2617 v 0.6328 l -4.395,17.5781 -4.71,16.3086 -5.332,16.3282 -6.282,15.6948 -6.902,15.692 -7.535,15.058 -8.156,14.446 -9.422,14.441 -4.387,9.414 -3.774,9.414 -3.136,8.789 -2.512,9.414 -2.508,9.415 -1.886,8.476 -1.254,10.359 -1.883,9.739 -3.766,6.898 -3.769,6.906 -3.766,6.903 -3.766,6.281 -3.769,6.273 -3.766,6.282 -4.39,6.273 -4.395,5.652 h 0.629 0.625 0.629 0.625 0.629 0.633 0.625 0.629 l 8.16,-4.394 8.789,-4.395 10.043,-5.023 10.668,-4.395 5.023,-0.937 5.649,-1.262 5.023,-0.941 h 5.023 l 5.02,0.941 4.394,1.574 5.024,1.879 4.394,3.77 h 0.625 0.629 0.625 l -1.254,-5.024 -1.253,-5.019 -1.254,-4.082 -1.258,-5.336 v -4.078 l 0.633,-4.707 1.254,-4.707 3.132,-5.332 h 0.629 0.633 0.625 l 1.254,1.562 0.629,0.313 0.625,1.25 0.633,1.258 0.629,0.949 0.625,1.25 0.629,0.316 0.625,1.258 h 0.628 0.629 0.625 l 0.633,-1.574 v -1.25 -1.258 l 0.625,-1.262 0.629,-1.25 0.625,-1.562 1.254,-1.27 1.887,-1.562 3.761,1.562 2.829,0.946 2.828,-0.946 1.879,-1.25 2.199,-1.562 2.195,-2.52 2.512,-2.512 3.137,-1.882 0.316,-0.938 1.254,-0.312 0.941,-1.258 0.317,-0.949 0.945,-0.313 0.309,-0.937 0.945,-1.25 0.312,-0.313 1.567,-9.414 -0.625,-10.684 -0.942,-10.664 v -10.984 -4.719 l 0.942,-5.644 1.254,-5.02 1.257,-5.019 1.883,-4.395 2.512,-5.019 3.133,-3.77 4.082,-4.394 7.851,-2.508 8.157,-2.512 7.84,-1.262 8.796,-1.258 h 8.782 l 8.789,1.258 8.164,1.262 8.164,2.512 5.019,3.758 4.395,3.769 4.394,4.395 3.145,5.019 3.137,5.02 2.507,5.656 1.883,5.652 1.887,5.645 1.887,11.933 1.258,12.547 -0.633,11.926 -0.625,10.996 10.039,-1.269 8.789,-1.25 8.797,-1.25 7.519,-1.575 3.145,-1.57 3.144,-1.562 2.5,-2.207 2.52,-2.813 1.875,-4.082 1.887,-4.082 1.257,-5.652 v -6.282 -1.875 -1.257 -1.262 -1.25 l -0.625,-1.258 v -1.262 -1.25 -1.882 l -6.289,-16.321 -6.269,-17.578 -6.906,-17.578 -5.653,-18.203 -5.019,-18.2033 -4.395,-18.8281 -1.25,-9.4219 -1.262,-8.7813 -0.632,-9.4218 v -8.7891 l 0.632,-1.2617 0.625,-0.625 1.262,-0.625 0.625,-0.625 1.262,-0.625 0.613,-0.6328 1.27,-0.625 0.625,-0.6367 13.183,4.3945 12.551,5.0312 12.559,5.6524 12.547,5.0195 11.933,6.2695 12.559,6.2813 11.914,6.2773 12.558,6.2774 h 0.637 v -0.6328 h 0.625 l -0.625,-1.25 -2.512,-2.5078 -3.144,-3.1368 -3.77,-3.1445 -4.394,-3.7695 -3.77,-2.5117 -3.125,-2.5079 -1.261,-1.25 -8.79,-10.0468 -9.414,-8.7891 -9.421,-6.9062 -10.04,-6.2696 -10.671,-5.6562 -10.676,-4.3907 -10.664,-3.7734 -11.297,-3.1328 -11.926,-1.8828 -11.309,-1.88674 -11.933,-1.25 -11.914,-1.26172 -24.492,-0.63281 h -24.473 z m -3.145,31.38677 h -7.527 l -3.457,0.6367 h -7.848 l -3.765,0.625 -3.453,0.6328 -3.453,1.25 0.945,10.6758 V 62.1484 74.082 l 0.312,12.5508 0.942,11.9219 0.625,11.3003 1.886,10.672 2.196,9.414 5.957,-1.875 5.976,-1.269 6.582,-1.25 5.965,-1.25 6.282,-1.258 6.582,-0.625 6.914,-0.637 6.582,-0.625 8.164,0.625 6.281,0.637 5.027,0.625 H 328 l 2.508,0.633 h 1.887 1.882 l 1.875,-0.633 1.895,-8.789 1.875,-10.051 0.625,-10.6638 0.625,-10.0391 V 72.8125 62.1484 l -1.25,-10.6718 -1.875,-10.0508 -5.02,-1.25 -6.914,-1.25 -8.476,-0.6328 -9.102,-0.625 h -9.414 l -8.476,-0.6367 h -7.852 -5.645 v 0" /><path
         id="path18"
         style="fill:none;stroke:#231f20;stroke-width:1.20000005;stroke-linecap:round;stroke-linejoin:round;stroke-miterlimit:10;stroke-dasharray:none;stroke-opacity:1"
         d="m 280.293,5.64453 -7.227,0.63281 -8.164,0.625 h -7.839 l -6.907,0.63672 -7.218,1.25 -7.532,0.625 -6.906,1.26174 -7.848,1.25 -8.472,2.5078 -9.106,3.1445 -7.219,3.7696 -7.531,3.7578 -6.906,3.7734 -6.906,4.3906 -6.907,5.0235 -7.531,5.6523 v 0.625 l -0.625,0.625 -1.258,1.2617 -1.253,1.2578 -2.512,2.5 -3.141,3.1446 -5.019,4.3945 -6.282,5.6445 -3.761,6.2813 -3.766,5.0273 -3.769,5.6446 -3.141,5.0195 -3.133,5.6523 -1.887,5.0235 -2.507,6.2771 -1.258,6.27 0.625,-0.625 h 1.258 l 1.253,-0.625 1.254,-0.625 1.262,-1.25 1.254,-0.633 1.254,-1.262 1.254,-1.25 10.047,-11.9334 10.043,-10.664 10.672,-10.0469 10.667,-9.4141 5.653,-3.7695 6.277,-3.7617 6.278,-3.1446 6.277,-3.1328 7.535,-2.5117 6.902,-2.5195 8.161,-1.875 8.164,-0.625 V 38.293 h 0.312 v -0.625 -0.6367 -0.625 h 0.941 0.625 0.629 0.625 l 0.633,1.2617 0.629,0.625 v 0.6328 l 0.313,1.25 v 0.625 0.625 l 0.941,1.2617 v 0.6328 l -4.395,17.5781 -4.71,16.3086 -5.332,16.3282 -6.282,15.6948 -6.902,15.692 -7.535,15.058 -8.156,14.446 -9.422,14.441 -4.387,9.414 -3.774,9.414 -3.136,8.789 -2.512,9.414 -2.508,9.415 -1.886,8.789 -1.254,10.046 -1.883,10.051 -3.766,6.586 -3.769,6.906 -3.766,6.903 -3.766,6.594 -3.769,5.96 -3.766,6.282 -4.39,6.273 -4.395,5.652 h 0.629 0.625 0.629 0.625 0.629 0.633 0.625 0.629 l 8.16,-4.082 8.789,-4.707 10.043,-4.711 10.668,-4.707 5.023,-0.937 5.649,-1.262 5.023,-0.941 h 5.023 l 5.02,0.941 4.394,1.574 5.024,1.879 4.394,3.77 h 0.625 0.629 0.625 l -1.254,-5.024 -1.253,-4.707 -1.571,-4.394 -0.941,-5.02 v -4.394 l 0.633,-4.707 1.254,-4.707 3.132,-5.02 h 0.629 0.633 0.625 l 1.254,1.25 0.629,0.313 0.312,1.25 0.946,1.258 0.308,0.949 0.946,1.25 0.629,0.316 0.625,1.57 h 0.628 0.629 0.625 l 0.633,-1.886 v -1.25 -1.258 l 0.625,-1.262 0.629,-1.25 0.625,-1.25 1.254,-1.261 1.574,-1.883 4.074,1.883 2.829,0.625 2.511,-0.625 2.196,-1.571 2.199,-1.562 2.195,-2.52 2.512,-2.512 3.137,-1.882 0.316,-0.625 1.254,-0.625 0.941,-1.258 0.317,-0.949 0.945,-0.313 0.309,-0.937 0.945,-1.25 0.312,-0.313 1.254,-9.414 -0.312,-10.684 -0.942,-10.664 v -10.671 -5.032 l 0.942,-5.644 1.254,-5.02 1.257,-5.019 1.883,-4.395 2.512,-5.019 2.824,-3.77 4.391,-4.394 7.851,-2.508 7.84,-2.512 8.157,-1.262 8.796,-1.258 h 8.782 l 8.789,1.258 8.164,1.262 8.164,2.512 5.019,3.758 4.395,3.769 4.394,4.395 3.145,5.019 3.137,5.02 2.507,5.656 1.883,5.652 1.887,5.645 1.887,11.933 1.258,12.547 -0.633,11.926 -0.625,10.996 10.039,-1.269 8.789,-1.25 8.797,-1.25 7.519,-1.575 3.145,-1.257 3.144,-1.875 2.5,-2.207 2.52,-2.813 1.875,-3.769 1.887,-4.395 1.257,-5.652 v -6.282 -1.875 -1.257 -1.262 -1.25 l -0.625,-1.258 v -1.262 -1.25 -1.882 l -6.289,-16.321 -6.269,-17.578 -6.906,-17.578 -5.653,-18.203 -5.019,-18.2033 -4.395,-18.8281 -1.25,-9.4219 -1.262,-8.7813 -0.632,-9.4218 v -8.7891 l 0.632,-1.2617 0.625,-0.625 1.262,-0.625 0.625,-0.625 1.262,-0.625 0.613,-0.6328 1.27,-0.625 0.625,-0.6367 13.183,4.3945 12.551,5.0312 12.559,5.6524 12.547,5.0195 11.933,6.2695 12.559,6.2813 11.914,6.2773 12.558,6.2774 h 0.637 v -0.6328 h 0.625 l -0.625,-1.25 -2.512,-2.5078 -3.144,-3.1368 -3.77,-3.1445 -4.394,-3.7695 -3.77,-2.5117 -3.125,-2.5079 -1.261,-1.25 -8.79,-10.0468 -9.414,-8.7891 -9.421,-6.9062 -10.04,-6.2696 -10.671,-5.6562 -10.676,-4.3907 -10.664,-3.7734 -11.297,-3.1328 -11.926,-1.8828 -11.309,-1.88674 -11.933,-1.25 -11.914,-1.26172 -24.492,-0.63281 h -24.473 m -3.145,31.38677 h -3.769 -3.758 l -3.457,0.6367 h -3.762 -4.086 l -3.765,0.625 -3.453,0.6328 -3.453,1.25 0.945,10.6758 V 62.1484 74.082 l 0.312,12.5508 0.942,11.9219 0.312,11.3003 2.199,10.672 2.196,9.414 5.957,-1.875 5.976,-1.269 6.582,-1.25 5.965,-1.25 6.282,-1.258 6.582,-0.625 6.601,-0.637 6.895,-0.625 8.164,0.625 6.281,0.637 5.027,0.625 H 328 l 2.508,0.633 h 1.887 1.882 l 1.875,-0.633 1.895,-8.789 1.875,-10.051 0.625,-10.6638 0.625,-10.0391 V 72.8125 62.1484 l -1.25,-10.6718 -1.875,-10.0508 -5.02,-1.25 -6.914,-1.25 -8.789,-0.6328 -8.789,-0.625 h -9.414 l -8.789,-0.6367 h -7.539 -5.645" /><path
         id="path20"
         style="fill:#79521c;fill-opacity:1;fill-rule:evenodd;stroke:none"
         d="m 470.5,130.566 -2.512,5.657 -2.519,6.277 -1.875,6.27 -1.895,6.289 -1.25,6.894 -1.25,6.289 -0.625,6.27 v 5.644 l 1.875,6.289 1.25,4.395 1.27,4.394 1.875,3.762 1.886,2.508 2.508,3.144 3.77,2.508 5.019,3.137 -1.882,1.262 -2.512,0.308 h -3.133 -3.137 l -3.144,-0.308 h -3.145 -3.136 l -2.508,0.308 v 0.95 0.312 0.938 l 1.25,1.875 1.894,1.894 1.875,2.188 1.887,3.457 1.883,2.507 1.25,2.2 1.261,2.519 v 2.188 0.312 h -0.636 l -0.625,0.945 h -0.625 -0.625 -0.625 -0.625 l -4.395,-6.277 -4.394,-5.644 -5.02,-5.657 -5.652,-5.015 -5.656,-4.399 -6.907,-3.765 -3.132,-1.887 -3.77,-1.25 -3.77,-0.625 -3.769,-0.633 -1.25,5.652 -0.625,4.395 -1.258,3.77 -1.25,3.125 -1.887,2.519 -2.507,2.82 -3.145,2.512 -3.762,3.145 1.875,5.957 5.032,8.164 6.277,9.414 7.527,9.73 8.157,8.789 7.539,7.535 3.769,3.133 3.137,1.887 2.508,1.254 h 1.882 l -3.765,-6.274 -2.512,-5.023 -1.887,-4.395 v -2.511 -1.254 h 0.637 1.25 1.887 l 5.027,2.512 6.895,4.394 3.769,1.254 3.145,0.629 3.125,0.625 3.144,0.941 h 3.145 l 3.762,0.313 h 3.769 3.758 l 1.894,-1.879 0.625,-1.254 0.625,-1.887 0.625,-0.941 -0.625,-3.766 -1.875,-3.449 -1.894,-3.453 -1.883,-4.082 -1.25,-3.766 -0.625,-3.769 3.758,-2.199 3.144,-0.946 3.133,-0.312 3.137,-0.938 3.144,-1.25 2.508,-1.57 2.512,-3.774 3.145,-5.652 -0.633,-9.414 -0.625,-9.102 -1.262,-9.101 -1.25,-8.789 -1.25,-9.414 -1.27,-9.414 -0.625,-10.039 v -10.047 h -0.625 l -1.25,2.508 -0.625,3.144 -0.632,3.137 -0.625,2.508 -0.637,2.507 -0.625,1.887 -1.875,1.25 -2.52,0.625 -0.625,-4.387 -0.625,-5.652 -1.882,-5.644 -1.887,-6.282 -2.508,-5.652 -3.137,-5.645 -2.519,-5.019 -3.133,-3.77 v 0.625 H 470.5 v 0.625 0" /><path
         id="path22"
         style="fill:#e17b24;fill-opacity:1;fill-rule:evenodd;stroke:none"
         d="M 297.246,145.637 285,147.52 l -9.102,1.882 -3.769,1.262 -2.832,0.625 -3.133,1.25 -2.199,1.887 -1.563,1.883 -1.257,2.507 -1.887,2.512 -0.942,3.145 -2.511,8.789 -1.567,12.551 v 5.027 9.414 10.351 l 1.254,11.934 1.258,5.645 1.254,5.019 1.254,5.344 1.887,3.758 2.507,2.207 2.512,2.187 h 1.57 1.563 l 1.582,-0.937 2.187,-0.313 -0.937,-9.414 -1.57,-10.676 -1.887,-11.296 -1.25,-11.622 -0.938,-5.332 v -5.644 -5.652 l 1.25,-5.02 1.563,-5.023 1.582,-5.028 2.5,-4.394 3.769,-4.395 11.297,-3.137 10.364,-1.257 4.707,-0.625 4.707,0.625 3.457,0.632 3.758,1.262 3.761,1.25 3.145,2.512 3.144,2.508 2.512,3.769 2.508,3.77 2.519,4.394 1.875,5.645 1.887,6.281 2.508,12.859 1.25,10.684 1.262,8.152 1.257,6.594 0.625,4.082 0.625,3.457 v 2.188 l 0.633,2.519 h 0.617 0.633 0.625 0.637 l 2.512,-4.707 1.882,-5.027 1.875,-5.656 0.633,-5.957 0.625,-5.645 v -5.344 l -0.625,-6.277 -0.633,-5.645 -1.25,-5.652 -1.882,-5.656 -1.887,-5.645 -2.512,-5.644 -2.508,-5.02 -3.144,-5.652 -3.133,-4.399 -3.137,-4.39 -5.019,-2.512 -4.395,-1.25 -4.394,-1.269 -4.395,-1.25 -5.019,-0.625 -4.395,-0.625 -4.394,-0.633 h -5.02 v 0" /><path
         id="path24"
         style="fill:#f29f48;fill-opacity:1;fill-rule:evenodd;stroke:none"
         d="m 296.609,163.215 -4.39,0.633 -4.406,0.625 -2.813,1.25 -3.457,1.257 -2.512,1.887 -1.883,1.875 -1.25,1.895 -1.257,2.5 -1.575,5.019 -0.937,6.289 v 6.895 8.164 l 0.937,5.019 0.313,4.082 0.945,4.708 1.262,4.394 0.312,4.082 0.938,4.395 0.937,4.707 0.95,4.394 3.757,-1.25 3.458,-0.625 3.769,-1.262 3.762,-1.257 4.402,-1.25 3.762,-1.258 3.758,-1.262 4.082,-1.25 h 3.457 3.144 3.762 l 3.144,-0.937 h 4.071 2.832 3.769 3.137 l -0.637,-4.707 -0.625,-5.02 -1.25,-5.344 -0.625,-4.707 -0.625,-5.027 -0.632,-5.645 -0.637,-5.019 -0.625,-5.02 -3.133,-6.289 -2.512,-5.019 -3.144,-3.77 -3.145,-3.125 -4.386,-1.894 -5.028,-1.25 -5.644,-1.25 -7.532,-0.633 v 0" /><path
         id="path26"
         style="fill:#ffffff;fill-opacity:1;fill-rule:evenodd;stroke:none"
         d="m 152.543,368.801 v 1.258 h 0.625 v 0.625 l 1.887,2.507 1.254,1.887 1.254,2.512 1.253,2.508 1.258,5.023 v 5.024 l -0.625,5.023 -1.258,5.023 -1.253,5.02 -1.254,4.394 h -0.629 v 0.625 h -0.629 -0.625 -0.633 l 1.258,3.77 1.883,4.395 1.882,3.761 3.141,3.774 3.137,3.133 3.136,2.515 3.774,1.254 3.762,0.625 1.254,-8.16 v -8.789 l -1.254,-9.414 -1.883,-10.043 -1.254,-4.395 -1.887,-4.394 -1.879,-4.395 -2.515,-3.769 -2.508,-3.133 -3.141,-3.141 -3.765,-3.14 -3.766,-1.883 v 0" /><path
         id="path28"
         style="fill:#231f20;fill-opacity:1;fill-rule:evenodd;stroke:none"
         d="m 228.5,426.555 -0.941,0.629 v 1.254 l 0.941,1.882 0.313,1.258 3.453,3.133 3.453,3.769 4.707,3.141 4.707,2.512 3.769,1.883 h 3.453 0.625 v -0.629 l 0.317,-0.629 0.941,-0.625 V 443.5 l -1.258,-1.254 -2.511,-1.887 -4.078,-3.132 -4.082,-3.141 -4.395,-2.508 -3.766,-2.515 -3.136,-1.879 -2.512,-0.629 v 0" /><path
         id="path30"
         style="fill:#79521c;fill-opacity:1;fill-rule:evenodd;stroke:none"
         d="m 223.477,448.523 5.023,5.653 5.648,5.019 6.278,5.024 5.965,4.394 3.453,1.254 3.136,1.258 2.512,0.629 2.824,0.625 2.829,-0.625 1.57,-0.629 2.512,-1.258 1.257,-1.883 2.813,-3.765 1.262,-4.395 1.257,-4.394 0.313,-4.395 v -4.394 l -0.313,-4.395 -0.937,-4.394 -1.258,-4.395 -1.887,-4.394 -1.57,-3.766 -2.512,-3.766 -3.144,-3.765 -3.758,-3.137 -3.77,-2.516 -4.078,-2.508 -4.082,-1.886 -1.257,-3.137 -1.883,-3.137 -1.254,-3.14 -2.199,-3.77 -1.254,-3.14 -1.254,-3.133 -0.946,-3.77 -1.253,-3.137 1.253,0.625 h 0.633 l 0.313,0.633 h 0.941 1.254 0.313 1.261 1.567 v -2.515 l -0.629,-3.133 -1.254,-3.141 -2.199,-3.14 -1.567,-3.141 -1.886,-3.141 -1.254,-3.132 -0.625,-3.141 1.879,-1.254 0.628,-1.887 0.625,-1.254 v -1.882 l -1.878,-3.766 -3.137,-4.395 -3.141,-3.765 -3.14,-4.399 -1.254,-1.879 -0.629,-1.886 -0.625,-1.879 V 328 l 0.625,1.254 1.258,0.629 0.625,0.625 0.628,0.629 0.625,0.625 h 1.254 l 1.262,0.633 1.254,-0.633 -0.941,-2.508 -0.942,-2.512 -1.258,-2.512 -1.254,-2.511 -1.253,-2.508 -1.258,-3.141 -1.258,-3.14 v -3.133 h 0.633 0.625 0.629 0.629 l 0.625,-0.633 0.628,-0.629 v -1.254 l 0.625,-1.258 -3.761,-6.273 -3.141,-5.965 -3.14,-6.594 -2.508,-6.273 -1.887,-5.969 -1.879,-6.902 -1.262,-7.215 v -7.535 h 0.629 v -0.629 l 3.766,4.711 3.141,2.508 1.257,0.312 1.258,0.633 h 0.625 1.254 l 1.254,-1.887 0.633,-2.507 0.625,-4.395 0.629,-5.344 3.761,0.313 h 2.516 l 2.512,-0.313 h 1.883 l 1.878,-1.25 1.887,-1.562 1.567,-2.52 2.828,-2.512 h 0.625 0.629 v 0.95 0.312 0.938 0.312 0.938 h 0.629 0.941 l 1.254,-1.25 1.258,-1.25 0.945,-2.207 0.309,-1.563 0.945,-1.887 0.312,-2.195 1.567,-1.25 1.886,2.188 1.883,2.519 0.313,3.137 1.254,2.82 2.199,3.145 1.879,3.449 2.519,2.824 2.825,1.883 h 1.257 l 0.938,-0.625 h 0.312 1.563 0.324 0.938 1.257 0.313 l 1.25,-1.258 0.945,-1.254 1.262,-0.312 0.312,-1.258 1.25,-1.262 0.625,-0.937 1.258,-1.25 0.942,-0.949 6.59,-2.196 6.906,-2.512 6.902,-1.57 7.852,-1.875 7.215,-1.262 7.542,-0.945 h 4.071 l 3.457,0.945 3.769,0.625 3.77,0.637 v 0.938 l 0.625,1.25 v 1.257 l 0.625,0.95 v 1.25 1.25 0.312 1.27 l -1.883,0.625 -1.887,1.25 -1.875,0.937 -1.894,0.313 h -1.875 l -1.25,0.949 h -1.582 l -2.188,0.309 -3.144,3.46 -2.52,3.133 -1.562,2.828 -2.199,3.141 -1.258,3.449 -1.25,2.824 -1.25,3.141 -1.895,3.762 h -2.5 l -1.894,-0.313 -1.875,-0.941 -1.883,-0.625 -1.262,-0.629 -1.562,-1.254 -2.2,-0.625 -1.882,-0.633 -2.508,-0.629 h -1.574 -2.2 -1.25 -1.882 -1.575 l -3.445,0.629 h -3.145 l -0.312,1.887 -0.938,1.879 -0.312,2.195 0.312,1.574 v 1.879 1.887 l 0.938,1.883 v 1.258 l -3.457,-0.633 -2.5,-1.254 -2.207,-2.512 -2.508,-1.883 -2.512,-1.882 h -2.507 -1.262 l -1.567,0.945 -1.566,0.937 -1.258,1.883 -1.254,5.653 -0.941,5.019 -0.942,5.024 -1.257,5.023 -1.254,5.02 -1.254,5.027 -0.945,4.391 -0.309,4.39 1.254,4.395 0.312,3.14 1.567,3.141 1.254,3.141 1.257,2.507 1.571,3.141 2.199,2.508 1.566,3.14 h 2.192 l 0.949,-0.628 1.258,-0.625 1.25,-1.254 1.262,-0.633 1.257,-0.625 2.188,-0.629 h 0.949 l 2.508,2.512 2.512,3.136 1.257,2.512 1.25,3.141 0.625,2.507 v 2.516 2.508 l -0.625,2.512 -1.25,5.648 -2.519,5.024 -1.563,5.019 -2.519,5.648 v 1.258 1.254 l 0.324,1.262 0.938,1.254 2.507,2.508 2.52,1.879 3.137,1.886 3.757,1.887 2.833,1.883 2.5,1.254 -2.813,0.625 -3.457,1.261 -2.512,1.254 -1.883,1.879 -1.562,1.887 -2.207,1.883 -1.25,2.511 -0.313,2.508 -1.257,5.028 v 5.015 l 1.257,5.028 2.508,5.019 3.449,6.277 3.457,5.02 1.563,4.395 1.262,3.765 0.945,3.141 -1.262,3.769 -2.508,4.395 -4.082,5.019 -2.507,1.883 -2.512,1.258 -1.25,0.629 -1.258,0.625 -1.887,0.629 -1.25,0.625 -1.257,0.629 -2.512,1.258 -1.258,2.507 -0.312,3.141 -0.637,2.508 v 2.515 1.879 2.516 l -0.625,1.879 -0.625,2.512 -5.02,-0.625 -4.394,-1.254 -3.77,-1.258 -3.765,-1.254 -3.137,-1.887 -3.453,-2.508 -2.199,-2.515 -3.454,-3.137 -1.566,-2.512 -1.883,-3.132 -1.258,-2.516 -1.254,-3.141 -1.253,-3.765 -1.258,-3.137 -1.258,-3.141 -1.879,-2.511 v -0.629 l 0.625,-0.625 0.313,-1.254 1.574,-1.254 0.625,-1.262 1.258,-1.254 0.625,-1.258 v -0.625 0" /><path
         id="path32"
         style="fill:#b2821d;fill-opacity:1;fill-rule:evenodd;stroke:none"
         d="m 222.223,447.895 -1.254,1.253 -1.574,1.258 -0.938,1.254 -1.254,1.262 -1.887,1.254 -1.882,1.254 -2.512,0.625 -1.883,0.629 -5.019,-0.629 -4.395,-1.254 -5.023,-1.879 -4.395,-1.887 -3.766,-3.14 -3.765,-3.137 -2.516,-3.766 -1.879,-4.394 1.879,-3.766 1.887,-5.023 0.629,-5.653 v -6.273 l -0.629,-7.531 -1.254,-6.907 -1.887,-7.535 -2.511,-6.902 -3.137,-6.91 -3.141,-5.645 -3.765,-5.023 -3.762,-3.141 -2.516,-1.254 -1.883,-1.258 -2.507,-0.629 h -2.516 l -1.883,0.629 -2.512,0.625 -2.507,1.887 -2.512,1.887 -0.629,1.254 v 1.254 l -0.625,1.254 v 0.628 h -0.629 v 0.625 l -0.625,0.633 -0.633,0.629 -5.023,1.879 -3.766,2.512 -3.761,2.511 -3.141,2.512 -2.508,3.141 -1.887,3.137 -2.507,3.765 -1.887,3.766 -2.508,6.906 -2.512,6.906 -3.14,7.532 -3.77,6.277 -1.879,3.141 -2.5115,2.507 -2.5117,2.512 -2.5117,1.887 -3.1407,1.883 -3.1367,1.253 -3.1367,0.625 -3.7695,0.629 -0.625,-1.882 -1.2578,-1.883 -1.2539,-1.883 -1.2579,-1.883 -1.2539,-1.883 -1.2539,-1.882 -1.2578,-1.883 -1.8828,-1.258 h -0.625 -0.6289 -0.6289 -0.625 l -0.6328,0.633 h -0.625 v 0.625 0.629 0.625 l 1.8828,3.136 2.5117,3.766 2.5117,3.769 2.5078,5.02 2.5118,4.395 1.2578,3.765 1.2539,3.77 -0.6289,3.14 -1.8828,0.625 -1.8789,0.629 -1.8868,-0.629 -1.8867,-0.625 -3.7617,-1.886 -4.3945,-2.508 -3.1407,-3.141 -2.5078,-3.765 -1.2578,-3.77 -0.6289,-3.141 1.8867,0.633 1.2539,1.254 1.2539,0.629 1.2539,0.625 1.8868,0.633 1.2539,0.625 h 1.8867 1.2539 v -0.625 -0.633 l 0.6289,-0.625 v -0.629 -0.625 -0.629 l -2.5156,-1.258 -3.1406,-2.507 -3.1329,-2.516 -3.1406,-1.879 -3.1367,-1.887 -2.5117,-1.254 -2.5078,-0.628 -2.5157,0.628 v 0.629 0.625 h -0.625 v 0.633 0.625 l -7.5351,-3.765 -6.9063,-3.77 -6.2773,-5.02 -5.6484,-5.019 -4.3946,-5.652 -3.7656,-6.278 -3.1406,-6.277 -2.50784,-6.906 -1.25782,-6.903 -0.6289,-7.535 0.6289,-7.535 0.625,-7.531 1.88672,-7.532 2.51174,-7.535 3.1367,-8.156 4.3945,-7.535 5.6485,-5.024 6.2773,-3.765 5.6524,-2.512 6.2773,-1.883 5.6484,-0.625 h 6.2774 l 6.2773,0.625 5.6524,1.883 5.6484,1.883 5.6524,3.137 5.6484,3.769 5.0195,3.766 5.0235,5.019 5.0195,5.024 5.0233,5.023 3.766,5.653 -1.883,1.878 -1.883,1.258 -1.883,0.625 -1.257,0.633 -1.8833,0.625 -0.625,0.629 -1.2539,1.254 -0.6289,1.883 3.7656,-0.625 3.7655,-0.625 3.766,-1.887 3.769,-2.512 3.137,-2.511 3.137,-3.141 2.511,-3.137 1.254,-4.39 h -0.625 -0.629 -0.625 v -0.633 -0.625 -0.629 l -0.628,-0.629 -1.258,0.629 -0.625,1.254 -0.629,0.633 -0.625,1.254 v 0.625 l -0.629,1.253 v 0.629 0.629 l -2.512,-0.629 -3.137,-2.507 -4.394,-3.77 -4.398,-4.395 -5.0161,-4.39 -4.4024,-4.395 -3.7617,-3.769 -3.1406,-2.508 v -0.633 -0.625 -0.629 l 12.5586,-3.136 12.5542,-4.391 12.551,-5.656 12.555,-5.645 11.93,-4.711 13.183,-5.965 12.555,-4.39 13.184,-3.774 3.136,0.633 2.512,0.629 2.508,1.254 2.511,2.199 4.395,3.449 3.141,3.766 3.761,5.023 3.141,5.024 2.516,5.023 3.136,4.395 0.625,1.879 v 0.629 1.254 0.632 l 0.633,1.254 v 0.625 1.254 l -0.633,1.258 v 0.629 h -0.625 v 0.629 h -0.629 l -0.628,0.625 0.628,4.394 1.887,4.395 1.879,4.394 1.887,3.766 2.508,3.77 1.882,3.136 1.887,3.766 1.254,3.14 -1.883,3.141 -0.633,2.508 v 2.512 l 0.633,2.507 0.942,1.887 1.254,2.508 0.945,1.887 0.308,2.508 h -1.253 -1.254 -0.313 -0.629 -0.633 l -0.625,0.628 1.258,5.653 1.883,5.019 1.566,4.395 2.829,3.762 2.511,4.398 1.567,4.398 v 2.508 l 0.941,2.512 v 2.508 l -0.941,3.14 0.941,1.254 0.313,0.633 1.261,0.625 h 1.567 l 1.254,0.629 1.254,0.629 h 1.257 l 1.571,0.625 2.511,1.887 3.453,2.507 2.196,2.508 2.199,2.512 4.395,6.277 2.507,6.907 1.25,3.14 0.325,3.766 v 3.765 3.137 l -0.325,3.77 -0.937,3.14 -0.313,3.766 -2.195,3.137 -3.453,-0.629 -3.766,-1.254 -3.769,-1.254 -3.133,-1.258 -6.281,-3.765 -5.336,-4.391 -4.078,-5.027 -4.395,-5.649 -4.394,-6.277 -4.395,-6.278 v 0.629 h -0.629 l -0.625,0.625 -0.633,0.633 h -0.625 v 0.625 1.883 1.883 l 0.625,1.883 0.633,1.882 1.254,1.887 0.938,1.879 1.574,2.516 1.254,1.879 v 0" /></g></g></svg>